<?xml version="1.0" encoding="UTF-8" standalone="no"?>
<!DOCTYPE svg PUBLIC "-//W3C//DTD SVG 20010904//EN"
              "http://www.w3.org/TR/2001/REC-SVG-20010904/DTD/svg10.dtd">

<svg xmlns="http://www.w3.org/2000/svg"
     width="2.5in" height="5.85938in"
     viewBox="0 0 320 750">
  <path id="Blackberry Details"
        fill="none" stroke="red" stroke-width="1"
        d="M 219.14,140.59
           C 218.75,141.58 218.75,142.70 219.14,143.68
             219.14,143.68 219.14,140.59 219.14,140.59 Z
           M 155.11,153.23
           C 154.59,154.03 154.50,154.28 154.83,155.19
             154.83,155.19 155.11,153.23 155.11,153.23 Z
           M 84.07,122.63
           C 83.57,123.63 83.52,124.15 84.07,125.15
             84.07,125.15 84.07,122.63 84.07,122.63 Z
           M 159.32,178.77
           C 158.72,179.43 158.55,179.56 158.76,180.46
             158.76,180.46 159.32,178.77 159.32,178.77 Z
           M 178.70,136.38
           C 178.70,136.38 178.14,136.38 178.14,136.38
             178.14,136.38 178.14,138.35 178.14,138.35
             178.14,138.35 178.70,138.35 178.70,138.35
             178.70,138.35 178.70,136.38 178.70,136.38 Z
           M 90.18,148.91
           C 90.10,148.44 88.34,148.27 88.49,149.19
             88.49,149.19 90.18,148.91 90.18,148.91 Z
           M 93.90,139.19
           C 94.11,139.58 92.33,140.19 91.93,139.47
             91.93,139.47 93.90,139.19 93.90,139.19 Z
           M 111.03,147.89
           C 111.03,147.89 107.94,148.17 107.94,148.17
             109.19,148.31 109.84,148.43 111.03,147.89 Z
           M 95.30,102.13
           C 95.30,102.13 94.18,103.25 94.18,103.25
             94.18,103.25 95.30,102.13 95.30,102.13 Z
           M 188.53,144.52
           C 188.28,145.42 188.36,145.89 189.09,146.49
             189.09,146.49 188.53,144.52 188.53,144.52 Z
           M 92.49,147.89
           C 92.48,147.69 90.49,148.11 90.53,148.73
             90.53,148.73 92.49,147.89 92.49,147.89 Z
           M 92.49,147.89
           C 92.49,147.89 92.49,147.89 92.49,147.89
             92.49,147.89 92.49,147.89 92.49,147.89
             92.49,147.89 92.49,147.89 92.49,147.89M 83.51,108.87
           C 83.07,109.97 83.08,110.99 83.79,111.96
             83.79,111.96 83.51,108.87 83.51,108.87 Z
           M 104.29,109.43
           C 103.55,110.10 103.20,110.37 103.44,111.40
             103.44,111.40 104.29,109.43 104.29,109.43 Z
           M 159.04,122.34
           C 159.04,122.34 157.92,124.03 157.92,124.03
             158.82,123.49 158.82,123.36 159.04,122.34 Z
           M 202.85,90.06
           C 202.00,89.02 201.46,89.57 200.60,90.34
             200.60,90.34 202.85,90.06 202.85,90.06 Z
           M 93.05,132.17
           C 92.22,131.86 91.63,133.74 91.93,133.85
             91.93,133.85 93.05,132.17 93.05,132.17 Z
           M 241.88,144.80
           C 240.87,145.90 241.25,146.94 241.88,148.17
             241.88,148.17 241.88,144.80 241.88,144.80 Z
           M 153.15,67.60
           C 152.70,68.77 152.98,69.44 153.71,70.41
             153.71,70.41 153.15,67.60 153.15,67.60 Z
           M 212.68,99.60
           C 212.68,99.60 209.03,99.32 209.03,99.32
             209.76,100.35 211.61,100.03 212.68,99.60 Z
           M 134.61,111.11
           C 134.59,112.10 135.12,112.64 135.74,113.36
             135.74,113.36 134.61,111.11 134.61,111.11 Z
           M 144.16,60.86
           C 144.02,61.97 144.49,62.41 145.28,63.11
             145.33,61.85 145.03,61.72 144.16,60.86 Z
           M 225.59,151.26
           C 225.59,151.26 225.31,151.54 225.31,151.54
             226.52,152.04 227.43,152.32 228.68,151.82
             228.68,151.82 225.59,151.26 225.59,151.26 Z
           M 129.84,139.75
           C 129.84,139.75 127.31,139.19 127.31,139.19
             127.80,140.56 128.76,140.54 129.84,139.75 Z
           M 146.41,110.55
           C 146.34,111.57 146.91,112.31 147.53,113.08
             147.53,113.08 146.41,110.55 146.41,110.55 Z
           M 96.71,120.66
           C 96.39,120.33 94.54,121.85 95.02,122.34
             95.02,122.34 96.71,120.66 96.71,120.66 Z
           M 196.95,136.10
           C 196.95,136.10 194.99,136.51 194.99,136.51
             194.99,136.51 193.30,136.66 193.30,136.66
             194.75,137.07 195.79,137.17 196.95,136.10 Z
           M 190.77,120.66
           C 190.77,120.66 186.00,121.22 186.00,121.22
             187.74,121.26 189.22,121.68 190.77,120.66 Z
           M 155.67,132.17
           C 154.54,132.60 153.89,133.14 154.27,134.42
             154.27,134.42 155.67,132.17 155.67,132.17 Z
           M 149.50,144.24
           C 148.71,145.26 148.19,146.34 148.65,147.61
             148.65,147.61 149.50,144.24 149.50,144.24 Z
           M 167.47,131.33
           C 166.45,132.16 165.86,132.79 166.34,134.14
             166.34,134.14 167.47,131.33 167.47,131.33 Z
           M 185.16,160.24
           C 185.16,160.24 182.91,161.93 182.91,161.93
             184.23,161.65 184.55,161.46 185.16,160.24 Z
           M 180.67,113.92
           C 179.39,114.30 179.11,114.46 178.42,115.61
             179.86,115.71 180.21,115.23 180.67,113.92 Z
           M 87.72,105.50
           C 86.26,105.97 86.24,106.61 86.03,108.03
             87.33,107.29 87.55,106.98 87.72,105.50 Z
           M 109.90,151.26
           C 109.90,151.26 107.10,152.95 107.10,152.95
             108.38,152.70 109.20,152.42 109.90,151.26 Z
           M 136.30,101.85
           C 134.51,101.49 133.25,102.63 134.89,104.10
             134.89,104.10 136.30,101.85 136.30,101.85 Z
           M 79.86,115.89
           C 78.40,117.37 78.54,118.85 79.30,120.66
             80.08,119.43 79.61,119.15 79.65,117.85
             79.65,117.85 79.86,115.89 79.86,115.89 Z
           M 109.34,97.36
           C 107.78,97.54 107.23,97.89 106.53,99.32
             106.53,99.32 109.34,97.36 109.34,97.36 Z
           M 109.90,119.54
           C 108.62,120.17 108.21,120.76 107.66,122.06
             107.66,122.06 109.90,119.54 109.90,119.54 Z
           M 105.69,143.40
           C 105.69,143.40 102.60,145.37 102.60,145.37
             104.13,145.12 104.95,144.82 105.69,143.40 Z
           M 121.49,75.72
           C 121.49,75.72 119.73,76.02 119.73,76.02
             119.73,76.02 122.67,77.96 122.67,77.96
             122.67,77.96 121.49,75.72 121.49,75.72 Z
           M 75.65,142.28
           C 75.55,140.42 75.39,139.99 73.68,139.19
             73.19,141.06 73.63,142.11 75.65,142.28 Z
           M 172.80,118.13
           C 172.80,118.13 169.71,120.38 169.71,120.38
             171.22,119.90 171.86,119.39 172.80,118.13 Z
           M 186.84,61.70
           C 186.03,62.72 184.83,64.60 185.16,65.92
             185.16,65.92 186.84,61.70 186.84,61.70 Z
           M 156.80,181.58
           C 155.66,180.19 155.02,179.22 153.15,179.62
             153.96,181.14 155.17,181.43 156.80,181.58 Z
           M 152.30,181.30
           C 152.30,181.30 149.50,182.42 149.50,182.42
             149.50,182.42 152.59,183.83 152.59,183.83
             152.59,183.83 152.30,181.30 152.30,181.30 Z
           M 214.08,150.14
           C 212.97,152.46 213.61,151.70 211.55,153.51
             213.64,153.06 214.03,152.14 214.08,150.14 Z
           M 237.67,127.12
           C 237.17,125.42 236.56,124.61 234.86,124.03
             235.35,125.69 236.26,126.23 237.67,127.12 Z
           M 163.26,112.52
           C 162.24,113.46 161.71,114.28 161.29,115.61
             161.29,115.61 163.54,116.45 163.54,116.45
             163.54,116.45 163.26,112.52 163.26,112.52 Z
           M 219.98,143.12
           C 220.53,145.04 223.88,145.17 225.31,144.24
             222.42,144.47 222.62,144.51 219.98,143.12 Z
           M 178.98,117.57
           C 178.55,119.60 179.57,118.53 177.86,121.22
             177.86,121.22 180.38,120.38 180.38,120.38
             180.38,120.38 178.98,117.57 178.98,117.57 Z
           M 177.86,121.22
           C 177.86,121.22 177.86,121.22 177.86,121.22
             177.86,121.22 177.86,121.22 177.86,121.22
             177.86,121.22 177.86,121.22 177.86,121.22M 72.84,132.17
           C 72.34,133.92 73.01,136.01 74.80,136.66
             74.50,134.73 73.88,133.78 72.84,132.17 Z
           M 217.17,117.01
           C 215.82,114.48 213.74,115.72 211.83,115.61
             211.83,115.61 211.83,117.29 211.83,117.29
             211.83,117.29 217.17,117.01 217.17,117.01 Z
           M 117.20,108.31
           C 115.83,109.35 114.59,111.31 115.24,113.08
             115.24,113.08 117.20,108.31 117.20,108.31 Z
           M 143.60,167.26
           C 143.60,167.26 141.07,166.42 141.07,166.42
             140.44,167.79 140.38,168.34 140.79,169.79
             140.79,169.79 141.91,169.51 141.91,169.51
             141.91,169.51 143.60,167.26 143.60,167.26 Z
           M 133.49,151.54
           C 131.67,153.15 131.04,156.69 133.49,158.00
             132.46,154.10 133.41,154.94 133.49,151.54 Z
           M 238.79,131.61
           C 238.22,129.95 237.43,129.17 235.70,128.80
             235.83,130.56 236.27,131.12 237.67,132.17
             237.67,132.17 237.39,130.77 237.39,130.77
             237.39,130.77 238.79,131.61 238.79,131.61 Z
           M 221.66,107.47
           C 221.66,107.47 222.08,108.32 222.08,108.32
             222.08,108.32 227.00,109.43 227.00,109.43
             224.28,107.88 224.46,108.21 221.66,107.47 Z
           M 163.26,118.41
           C 163.26,119.43 165.07,121.74 165.78,122.63
             165.46,120.59 164.86,119.69 163.26,118.41 Z
           M 210.43,136.66
           C 211.12,138.91 215.35,138.60 216.89,137.50
             213.82,137.91 213.28,138.12 210.43,136.66 Z
           M 137.70,168.39
           C 138.02,167.67 138.46,166.63 138.56,165.86
             138.74,164.49 138.24,162.41 136.86,161.93
             136.86,164.02 136.61,166.52 137.70,168.39 Z
           M 77.61,119.82
           C 75.29,120.31 74.45,121.79 75.08,124.03
             76.35,122.96 77.28,121.45 77.61,119.82 Z
           M 223.35,74.06
           C 221.41,74.37 220.26,76.08 220.26,77.99
             220.26,77.99 223.35,74.06 223.35,74.06 Z
           M 164.38,149.58
           C 164.38,149.58 160.73,150.88 160.73,150.88
             160.73,150.88 157.08,150.42 157.08,150.42
             159.49,151.65 162.46,151.74 164.38,149.58 Z
           M 157.64,163.89
           C 155.87,165.39 155.65,168.44 157.36,170.07
             158.15,167.69 158.66,166.35 157.64,163.89 Z
           M 161.29,140.87
           C 159.79,142.01 158.50,144.28 159.04,146.21
             159.04,146.21 161.29,140.87 161.29,140.87 Z
           M 171.68,127.12
           C 171.68,127.12 171.25,124.59 171.25,124.59
             170.47,121.57 167.65,122.68 168.92,125.15
             169.13,125.55 169.40,125.87 169.75,126.16
             170.34,126.66 170.97,126.86 171.68,127.12 Z
           M 228.12,117.29
           C 227.00,115.49 225.64,115.05 223.63,114.76
             224.47,116.20 225.18,117.13 226.72,117.85
             226.72,117.85 225.88,116.17 225.88,116.17
             225.88,116.17 228.12,117.29 228.12,117.29 Z
           M 210.15,88.09
           C 208.47,88.49 206.85,89.07 205.66,90.34
             207.60,90.34 210.09,90.12 211.83,89.22
             211.83,89.22 209.87,88.94 209.87,88.94
             209.87,88.94 210.15,88.09 210.15,88.09 Z
           M 162.13,154.91
           C 161.68,156.80 164.24,158.94 166.06,158.28
             164.14,157.71 163.07,156.66 162.13,154.91 Z
           M 87.44,132.73
           C 86.56,134.94 87.56,137.33 89.69,138.35
             87.89,135.76 87.45,136.04 87.44,132.73 Z
           M 144.72,175.12
           C 144.10,175.00 142.61,174.52 142.08,174.87
             141.61,175.19 141.63,176.03 141.69,176.53
             141.90,178.39 142.89,179.40 144.72,179.62
             144.72,179.62 144.72,175.12 144.72,175.12 Z
           M 100.36,151.82
           C 100.36,151.82 97.55,153.56 97.55,153.56
             97.55,153.56 95.02,154.63 95.02,154.63
             97.40,154.62 99.48,154.38 100.36,151.82 Z
           M 119.73,53.28
           C 120.01,54.50 122.15,56.85 123.10,57.77
             122.83,54.78 122.12,54.67 119.73,53.28 Z
           M 148.93,120.10
           C 146.50,120.11 144.49,120.49 143.32,122.91
             143.32,122.91 148.93,120.10 148.93,120.10 Z
           M 77.05,127.40
           C 74.25,127.93 72.63,130.02 74.80,132.45
             74.80,132.45 77.05,127.40 77.05,127.40 Z
           M 137.14,153.23
           C 135.25,152.41 134.28,153.59 134.49,155.47
             134.66,157.05 135.64,158.20 136.86,159.12
             136.86,159.12 136.45,155.75 136.45,155.75
             136.45,155.75 137.14,153.23 137.14,153.23 Z
           M 213.52,59.18
           C 212.48,60.15 210.25,63.39 210.43,64.79
             210.43,64.79 213.52,59.18 213.52,59.18 Z
           M 139.39,128.52
           C 136.46,129.52 136.22,132.05 136.86,134.70
             139.53,133.39 137.86,132.15 139.39,128.52 Z
           M 127.87,114.20
           C 127.87,114.20 125.07,113.92 125.07,113.92
             124.74,116.44 124.35,118.80 127.31,119.82
             126.89,118.02 127.31,115.94 127.87,114.20 Z
           M 235.42,137.79
           C 235.26,135.88 234.08,132.08 231.49,133.57
             234.32,134.96 233.97,135.47 235.42,137.79 Z
           M 182.07,127.68
           C 182.07,125.12 182.04,121.51 178.42,123.19
             178.42,123.19 182.07,127.68 182.07,127.68 Z
           M 230.65,123.75
           C 230.63,125.02 231.55,125.10 230.65,126.27
             231.72,127.73 232.47,128.21 234.02,129.08
             233.89,126.52 232.94,124.98 230.65,123.75 Z
           M 202.57,148.73
           C 199.69,149.79 198.89,150.67 195.55,149.86
             196.56,151.75 199.27,151.59 200.88,150.50
             201.64,149.99 202.05,149.46 202.57,148.73 Z
           M 152.02,117.57
           C 149.86,116.85 147.91,115.82 145.85,117.29
             147.65,117.06 149.76,116.84 150.06,119.26
             150.06,119.26 151.18,119.54 151.18,119.54
             151.18,119.54 152.02,117.57 152.02,117.57 Z
           M 146.69,131.05
           C 146.10,131.08 145.57,131.08 145.03,131.38
             143.26,132.36 143.12,135.31 143.88,136.94
             144.05,136.02 144.22,134.95 144.73,134.15
             145.64,132.69 146.36,133.04 146.69,131.05 Z
           M 143.04,131.33
           C 143.04,131.33 142.48,131.33 142.48,131.33
             141.36,133.02 140.14,134.49 140.26,136.66
             140.29,137.25 140.75,139.47 141.76,138.86
             142.29,138.54 142.20,137.21 142.20,136.66
             142.20,134.03 142.21,133.87 143.04,131.33 Z
           M 138.58,134.98
           C 136.36,137.41 136.09,142.08 139.39,143.68
             139.39,143.68 138.10,140.59 138.10,140.59
             138.10,140.59 138.58,138.07 138.58,138.07
             138.58,138.07 138.58,134.98 138.58,134.98 Z
           M 166.06,170.63
           C 166.06,170.63 160.17,174.56 160.17,174.56
             163.07,174.56 165.39,173.85 166.06,170.63 Z
           M 86.32,115.05
           C 85.57,115.05 84.47,114.99 83.79,115.25
             82.21,115.85 80.70,117.84 81.26,119.54
             81.80,118.40 82.38,117.74 83.51,117.13
             84.87,116.38 85.77,116.70 86.32,115.05 Z
           M 141.63,156.59
           C 139.16,158.54 137.88,162.97 140.48,165.30
             140.34,163.99 140.10,163.26 140.48,161.93
             140.93,160.01 142.11,158.62 141.63,156.59 Z
           M 161.01,159.68
           C 161.01,159.68 154.95,161.56 152.87,160.81
             155.15,163.48 159.78,163.26 161.01,159.68 Z
           M 145.85,150.98
           C 141.58,152.05 141.47,156.86 144.72,158.00
             144.09,154.44 145.85,150.98 145.85,150.98 Z
           M 145.57,140.59
           C 142.15,142.22 142.11,147.06 144.62,149.58
             144.36,148.46 143.71,147.36 143.63,146.21
             143.46,143.87 144.41,142.48 145.57,140.59 Z
           M 149.78,159.12
           C 148.35,159.62 147.30,159.99 146.47,161.37
             145.38,163.20 146.72,165.84 148.65,166.42
             148.65,166.42 148.16,163.89 148.16,163.89
             148.16,163.89 149.78,159.12 149.78,159.12 Z
           M 170.28,129.64
           C 170.28,129.64 170.00,129.92 170.00,129.92
             171.44,130.96 172.65,132.15 173.26,133.85
             173.26,133.85 173.93,136.66 173.93,136.66
             173.93,133.46 173.98,130.74 170.28,129.64 Z
           M 82.38,134.14
           C 82.38,134.14 78.18,138.55 79.86,140.31
             80.14,138.25 80.91,138.89 82.04,138.32
             82.59,138.05 83.86,135.93 84.35,135.26
             84.35,135.26 82.38,134.14 82.38,134.14 Z
           M 200.32,129.92
           C 200.25,131.27 201.69,132.25 202.85,132.69
             205.29,133.62 208.91,132.98 210.15,130.49
             209.33,131.03 208.54,131.66 207.62,132.04
             204.64,133.25 202.43,131.98 200.32,129.92 Z
           M 233.74,146.77
           C 233.97,144.97 234.19,144.15 232.95,142.59
             231.82,141.15 229.65,140.22 228.40,142.00
             232.28,141.49 232.66,144.97 233.74,146.77 Z
           M 106.25,92.02
           C 103.23,90.03 99.74,92.52 98.95,95.67
             100.70,95.16 100.67,94.51 102.04,93.89
             103.97,93.03 104.61,94.05 106.25,92.02 Z
           M 89.40,117.29
           C 87.90,116.98 87.43,117.23 86.41,118.42
             84.88,120.18 84.56,122.09 85.19,124.31
             87.06,123.32 88.34,119.31 89.40,117.29 Z
           M 128.72,99.32
           C 128.72,99.32 128.44,99.60 128.44,99.60
             130.37,100.99 131.72,102.72 131.47,105.22
             131.37,106.28 130.81,107.25 130.96,108.31
             132.60,105.12 132.78,100.71 128.72,99.32 Z
           M 81.54,133.85
           C 81.39,132.40 81.33,131.51 82.14,130.21
             82.72,129.26 84.13,128.01 83.79,126.84
             83.33,125.25 81.99,125.64 81.13,126.61
             79.46,128.49 79.14,132.46 81.54,133.85 Z
           M 134.61,134.42
           C 132.41,136.03 131.44,138.14 131.86,140.87
             132.05,142.05 132.63,142.61 132.68,143.40
             132.75,144.64 131.82,144.96 132.37,146.49
             134.06,143.37 133.05,142.30 133.31,140.59
             133.31,140.59 133.95,138.35 133.95,138.35
             133.95,138.35 134.61,134.42 134.61,134.42 Z
           M 173.08,140.31
           C 171.43,142.07 170.96,143.40 168.31,143.68
             168.31,143.68 169.48,147.12 171.12,147.61
             171.12,147.61 173.08,140.31 173.08,140.31 Z
           M 141.35,143.12
           C 137.37,144.48 135.67,150.66 139.67,152.66
             139.47,151.56 139.25,150.42 139.50,149.30
             140.01,146.95 141.32,147.27 141.35,143.12 Z
           M 139.39,147.05
           C 139.39,147.05 139.95,147.05 139.95,147.05
             139.95,147.05 138.55,149.30 138.55,149.30
             138.55,149.30 139.39,147.05 139.39,147.05 Z
           M 184.32,123.19
           C 184.55,124.40 185.62,125.41 186.14,126.56
             187.62,129.83 186.76,131.56 185.16,134.42
             189.20,133.00 188.16,126.00 184.32,123.19 Z
           M 142.48,83.32
           C 138.37,81.95 136.38,81.55 132.09,81.03
             130.90,80.89 129.60,80.41 128.44,80.79
             128.44,80.79 131.81,81.51 131.81,81.51
             131.81,81.51 137.70,82.45 137.70,82.45
             138.98,82.74 141.29,83.64 142.48,83.32 Z
           M 198.36,140.03
           C 198.20,141.54 199.90,142.75 201.16,143.27
             203.96,144.41 207.58,143.55 208.75,140.59
             207.79,141.20 206.67,142.13 205.66,142.52
             202.79,143.61 200.35,141.93 198.36,140.03 Z
           M 204.53,90.90
           C 204.53,90.90 198.36,91.46 198.36,91.46
             198.36,91.46 188.25,91.46 188.25,91.46
             186.57,91.48 182.83,91.69 181.51,92.59
             185.01,92.09 184.17,92.02 187.97,92.02
             187.97,92.02 191.34,92.25 191.34,92.25
             191.34,92.25 193.30,91.98 193.30,91.98
             193.30,91.98 195.83,91.98 195.83,91.98
             198.02,92.04 202.71,91.97 204.53,90.90 Z
           M 201.16,65.35
           C 199.51,67.01 198.47,70.39 197.90,72.65
             197.64,73.68 197.22,74.71 197.51,75.74
             197.51,75.74 199.39,69.56 199.39,69.56
             199.39,69.56 201.16,65.35 201.16,65.35 Z
           M 149.22,124.87
           C 148.55,124.75 147.93,124.61 147.25,124.65
             144.71,124.81 140.84,127.26 141.91,130.21
             143.43,126.88 144.72,127.63 146.69,126.72
             147.49,126.34 148.53,125.47 149.22,124.87 Z
           M 155.11,149.30
           C 150.17,148.22 148.05,156.29 152.87,157.72
             151.80,153.69 152.89,152.51 155.11,149.30 Z
           M 228.96,129.08
           C 228.96,126.26 228.99,124.22 225.88,123.06
             223.29,122.11 221.83,123.29 222.27,124.20
             222.66,124.99 224.40,125.09 225.88,125.90
             227.77,126.93 227.73,127.70 228.96,129.08 Z
           M 137.14,127.12
           C 135.77,128.34 135.03,130.38 133.21,129.64
             131.48,132.46 130.32,131.42 128.44,132.17
             131.87,132.99 136.15,130.48 137.14,127.12 Z
           M 99.79,98.48
           C 96.76,97.22 94.03,98.13 92.75,101.29
             92.36,102.27 92.13,103.09 92.49,104.10
             92.96,102.52 93.62,101.57 95.30,101.16
             96.22,100.93 97.22,101.10 98.08,100.64
             98.96,100.17 99.38,99.33 99.79,98.48 Z
           M 88.00,113.08
           C 88.00,113.08 92.21,111.45 92.21,111.45
             93.60,110.92 97.13,108.40 94.43,107.07
             91.99,105.88 89.04,108.67 88.27,110.83
             87.98,111.65 88.01,112.23 88.00,113.08 Z
           M 190.77,121.78
           C 190.20,123.39 191.47,124.62 192.74,125.44
             194.97,126.88 198.70,127.26 200.60,125.15
             200.60,125.15 197.79,125.94 197.79,125.94
             194.80,126.31 191.66,124.78 190.77,121.78 Z
           M 198.64,107.18
           C 195.80,103.64 189.62,104.65 187.97,108.87
             189.55,109.33 194.02,110.74 193.30,107.47
             195.96,106.60 195.98,106.59 198.64,107.18 Z
           M 124.50,96.24
           C 121.17,95.58 117.95,98.58 118.61,101.01
             118.61,101.01 119.24,103.20 120.57,104.38
             120.58,102.29 120.41,100.19 121.81,98.49
             122.56,97.57 123.61,96.99 124.50,96.24 Z
           M 229.53,139.47
           C 229.53,138.23 229.64,136.38 229.20,135.26
             228.07,132.35 225.15,132.09 222.51,132.73
             223.35,135.57 225.38,134.72 227.27,136.02
             228.95,137.16 228.60,138.06 229.53,139.47 Z
           M 205.10,99.60
           C 201.00,96.97 194.53,97.36 192.18,102.13
             192.18,102.13 196.11,100.86 196.11,100.86
             196.11,100.86 199.20,100.45 199.20,100.45
             199.20,100.45 197.23,99.60 197.23,99.60
             198.83,99.01 200.60,98.85 202.29,99.13
             203.32,99.30 204.03,99.80 205.10,99.60 Z
           M 119.17,136.38
           C 118.32,137.52 118.53,138.68 117.58,140.03
             115.32,143.27 112.82,143.06 111.31,143.68
             116.45,143.68 118.75,141.55 119.17,136.38 Z
           M 222.51,118.69
           C 221.94,115.76 219.12,113.86 216.33,113.27
             214.39,112.86 212.49,113.06 212.12,115.33
             213.21,115.17 214.41,114.76 215.49,114.86
             218.85,115.14 220.16,116.66 222.51,118.69 Z
           M 137.98,101.01
           C 137.98,101.01 137.70,101.29 137.70,101.29
             140.47,102.55 142.94,105.36 141.97,108.59
             141.59,109.86 140.67,110.87 139.95,111.96
             144.80,110.30 143.87,102.48 137.98,101.01 Z
           M 174.77,122.06
           C 174.77,122.06 174.49,122.34 174.49,122.34
             176.76,123.96 179.66,126.49 178.76,129.64
             178.38,130.97 177.50,131.91 176.73,133.01
             177.46,132.77 177.80,132.65 178.39,132.11
             182.05,128.72 178.12,123.71 174.77,122.06 Z
           M 191.06,110.83
           C 190.24,110.60 189.38,110.33 188.53,110.32
             184.95,110.31 181.26,113.14 182.35,117.01
             182.35,117.01 184.88,116.03 184.88,116.03
             185.64,115.80 189.35,115.22 187.34,113.78
             187.34,113.78 186.56,113.36 186.56,113.36
             187.93,112.75 189.13,112.65 189.65,111.11
             189.65,111.11 191.06,110.83 191.06,110.83 Z
           M 95.30,128.80
           C 92.83,124.62 89.21,128.01 87.72,131.05
             88.30,132.09 87.93,134.42 89.17,134.84
             89.86,135.07 90.19,134.38 90.35,133.85
             90.35,133.85 90.70,132.45 90.70,132.45
             91.54,130.51 93.52,129.64 95.30,128.80 Z
           M 151.18,141.15
           C 149.51,139.15 147.08,139.28 145.59,141.44
             144.11,143.60 143.75,147.14 145.85,149.01
             145.89,144.55 147.75,143.40 151.18,141.15 Z
           M 155.95,129.08
           C 151.05,126.41 148.35,131.92 149.08,134.98
             149.30,135.88 150.66,138.20 151.86,137.47
             152.61,137.00 152.05,135.38 152.57,133.57
             153.13,131.63 154.63,130.49 155.95,129.08 Z
           M 120.85,87.53
           C 119.68,86.98 118.82,86.46 117.48,86.35
             113.93,86.05 110.75,88.65 109.90,92.02
             114.11,93.54 114.17,89.63 116.65,88.17
             118.47,87.11 119.37,88.02 120.85,87.53 Z
           M 157.64,116.56
           C 154.92,116.99 152.84,118.97 152.61,121.78
             152.51,123.08 152.66,125.82 154.51,125.82
             155.62,125.82 155.45,124.15 156.11,122.91
             157.09,121.08 159.34,119.66 159.70,118.41
             160.11,116.99 158.72,116.60 157.64,116.56 Z
           M 157.36,97.92
           C 151.64,95.65 145.17,96.84 140.23,100.45
             140.72,100.64 141.09,100.84 141.63,100.82
             141.63,100.82 146.41,98.97 146.41,98.97
             148.49,98.30 150.68,97.92 152.87,97.92
             153.88,97.92 156.63,98.12 157.36,97.92 Z
           M 224.75,147.33
           C 224.27,148.56 224.64,149.45 224.15,150.70
             223.30,152.86 220.85,154.21 218.57,154.01
             217.27,153.91 216.08,153.07 214.92,153.23
             217.93,154.89 222.76,155.39 224.45,151.54
             224.89,150.53 224.75,148.49 224.75,147.33 Z
           M 160.73,137.79
           C 155.63,136.38 152.41,143.37 154.55,147.05
             154.55,147.05 154.83,145.65 154.83,145.65
             155.54,146.95 155.90,147.46 157.36,147.89
             156.93,145.42 156.78,143.42 158.13,141.15
             158.13,141.15 160.73,137.79 160.73,137.79 Z
           M 220.54,133.57
           C 220.91,130.74 220.81,128.35 218.29,126.43
             216.44,125.02 213.00,124.28 212.12,127.12
             215.19,126.12 217.68,126.95 219.30,129.92
             219.30,129.92 220.54,133.57 220.54,133.57 Z
           M 129.00,89.00
           C 127.90,88.94 126.09,88.87 125.07,89.00
             121.30,89.78 118.92,92.42 118.89,96.24
             118.89,96.24 125.07,90.24 125.07,90.24
             125.07,90.24 129.00,89.00 129.00,89.00 Z
           M 182.07,134.98
           C 182.07,134.98 181.79,135.26 181.79,135.26
             184.91,137.75 185.62,142.17 183.08,145.37
             181.68,147.13 181.12,146.92 179.54,147.89
             180.33,147.88 181.04,147.91 181.79,147.61
             186.12,145.85 186.73,137.50 182.07,134.98 Z
           M 166.63,127.96
           C 165.91,127.64 165.18,127.28 164.38,127.29
             160.74,127.37 159.09,131.95 160.20,134.98
             160.78,136.56 162.52,138.66 164.38,138.35
             162.48,137.06 160.64,135.53 161.29,133.01
             162.04,134.40 162.43,134.79 163.82,135.54
             163.51,131.36 164.47,131.18 166.63,127.96 Z
           M 219.70,110.27
           C 219.57,107.55 218.82,105.62 216.33,104.20
             213.42,102.54 209.38,103.12 208.75,106.90
             208.75,106.90 211.83,105.78 211.83,105.78
             214.18,105.21 216.62,105.83 218.18,107.76
             218.18,107.76 219.70,110.27 219.70,110.27 Z
           M 148.65,169.51
           C 148.05,170.54 148.09,171.15 148.09,172.32
             148.09,178.24 154.33,179.51 157.08,176.81
             154.61,177.50 152.98,178.53 150.80,176.31
             150.30,175.81 149.83,175.28 149.70,174.56
             149.49,173.37 150.43,171.45 150.90,170.35
             150.90,170.35 148.65,169.51 148.65,169.51 Z
           M 112.43,94.27
           C 112.43,94.27 110.18,93.76 110.18,93.76
             108.36,93.56 105.64,94.49 104.32,95.73
             102.38,97.55 101.58,101.02 104.85,101.85
             104.85,101.85 105.28,99.04 105.28,99.04
             105.79,97.06 107.75,95.40 109.62,94.73
             110.83,94.29 111.38,94.62 112.43,94.27 Z
           M 117.48,104.94
           C 115.89,104.65 114.81,104.45 113.27,105.22
             110.03,106.85 108.51,112.11 110.75,115.05
             110.75,115.05 110.46,112.00 110.46,112.00
             111.06,112.22 111.41,112.50 112.04,112.00
             112.51,111.72 113.70,109.54 114.17,108.87
             115.37,107.16 116.75,106.43 117.48,104.94 Z
           M 211.55,114.76
           C 211.35,111.05 207.93,107.91 204.25,107.68
             202.62,107.57 200.93,107.96 200.04,109.43
             200.04,109.43 200.04,113.36 200.04,113.36
             203.23,110.77 201.32,112.47 204.25,111.11
             204.67,109.53 205.85,110.00 207.06,110.52
             209.80,111.69 210.03,112.52 211.55,114.76 Z
           M 180.38,149.01
           C 180.44,150.20 175.05,160.81 175.05,160.81
             177.27,160.79 179.07,160.27 180.61,158.55
             182.66,156.26 182.72,151.11 180.38,149.01 Z
           M 106.25,106.34
           C 105.25,105.48 104.56,104.59 103.16,104.43
             99.88,104.07 97.33,107.18 97.27,110.27
             97.25,111.49 97.82,114.83 99.73,114.09
             100.54,113.78 101.33,111.18 101.89,110.27
             103.60,107.50 104.69,107.85 106.25,106.34 Z
           M 99.79,117.01
           C 97.75,114.36 93.97,114.93 92.17,117.57
             90.83,119.54 90.94,121.72 92.02,123.75
             92.57,124.78 92.86,125.18 93.90,125.71
             93.53,125.00 93.10,124.26 92.92,123.47
             92.72,122.58 92.85,121.78 93.19,120.94
             94.44,117.89 97.07,117.90 99.79,117.01 Z
           M 183.75,109.71
           C 183.75,109.71 175.05,104.58 175.05,104.58
             173.54,103.72 172.51,102.57 171.12,104.10
             171.12,104.10 179.82,109.15 179.82,109.15
             181.39,110.19 182.18,111.31 183.75,109.71 Z
           M 123.13,109.71
           C 122.89,111.11 123.76,111.91 123.13,113.92
             122.33,116.66 119.23,118.80 116.36,118.59
             114.96,118.48 114.05,118.84 115.52,119.19
             121.57,120.64 124.82,114.08 124.10,111.40
             123.90,110.65 123.56,110.29 123.13,109.71 Z
           M 162.69,98.76
           C 162.07,96.90 158.59,95.96 156.80,95.50
             151.35,94.10 146.71,95.07 141.63,97.24
             140.42,97.76 138.50,98.61 137.42,99.32
             137.42,99.32 138.55,99.32 138.55,99.32
             140.47,99.29 142.09,98.36 143.88,97.73
             147.06,96.63 148.35,96.20 151.74,96.24
             156.24,96.29 158.93,98.68 162.69,98.76 Z
           M 117.20,50.76
           C 115.54,49.65 114.16,48.35 112.15,47.95
             113.22,50.45 115.10,56.32 116.74,58.00
             117.40,58.68 122.34,61.09 123.38,61.42
             123.38,61.42 120.85,58.34 120.85,58.34
             120.85,58.34 113.55,49.63 113.55,49.63
             113.55,49.63 120.01,55.53 120.01,55.53
             119.22,53.67 117.77,52.44 116.36,51.04
             116.36,51.04 117.20,50.76 117.20,50.76 Z
           M 203.41,119.82
           C 202.07,116.73 199.75,114.28 196.11,114.53
             196.11,114.53 193.86,114.76 193.86,114.76
             194.35,115.97 195.03,118.07 196.67,117.98
             197.93,117.92 198.41,116.43 200.32,117.61
             201.58,118.39 202.25,119.54 202.64,120.94
             202.84,121.67 202.90,122.77 203.37,123.35
             203.92,124.01 205.93,124.70 205.38,122.06
             205.38,122.06 210.71,123.75 210.71,123.75
             210.30,120.22 206.46,118.95 203.41,119.82 Z
           M 181.23,112.52
           C 180.14,110.41 175.25,107.89 173.08,106.63
             172.37,106.21 170.49,105.11 169.71,105.13
             168.15,105.19 168.04,106.86 168.03,108.03
             168.03,108.03 168.31,117.57 168.31,117.57
             168.31,117.57 170.84,115.89 170.84,115.89
             170.84,115.89 169.71,118.41 169.71,118.41
             171.46,117.86 172.11,117.06 173.65,116.26
             173.65,116.26 176.34,115.12 176.34,115.12
             178.38,113.64 178.18,112.80 181.23,112.52 Z
           M 132.93,70.97
           C 131.72,69.28 130.72,68.72 129.28,67.32
             125.09,63.23 125.94,63.83 120.85,60.86
             118.97,59.77 117.17,58.73 114.96,58.62
             116.64,61.88 118.14,62.29 120.85,64.42
             125.08,67.72 127.25,70.17 132.93,70.97 Z
           M 171.12,81.92
           C 171.12,81.92 168.55,83.71 168.55,83.71
             168.55,83.71 166.31,90.34 166.31,90.34
             166.31,90.34 164.67,99.04 164.67,99.04
             164.67,99.04 164.67,101.29 164.67,101.29
             164.67,101.29 164.38,104.66 164.38,104.66
             164.38,104.66 164.66,111.11 164.66,111.11
             164.66,111.11 164.94,117.17 164.94,117.17
             164.94,117.17 166.63,118.98 166.63,118.98
             166.63,111.24 165.83,103.97 167.02,96.24
             167.39,93.85 168.26,90.36 169.07,88.09
             169.70,86.32 170.84,83.67 171.12,81.92 Z
           M 160.17,113.92
           C 160.17,113.92 163.13,108.03 163.13,108.03
             163.39,106.93 163.20,105.67 163.13,104.54
             163.21,103.85 163.37,102.25 163.13,101.69
             162.61,100.69 159.28,100.05 158.20,99.86
             152.81,98.95 147.88,99.38 143.04,102.13
             143.04,102.13 147.41,101.48 149.78,103.82
             147.44,103.37 147.35,103.05 145.00,103.82
             145.00,103.82 147.53,106.06 147.53,106.06
             147.53,106.06 143.60,104.66 143.60,104.66
             144.06,106.03 144.36,107.10 145.23,108.31
             146.22,109.71 147.23,110.32 148.24,111.96
             149.93,114.70 148.61,115.75 152.02,116.32
             154.39,116.71 154.89,115.13 158.76,115.05
             158.77,113.13 158.69,112.49 160.17,111.11
             160.17,111.11 160.17,113.92 160.17,113.92 Z
           M 146.13,61.70
           C 145.28,64.15 146.83,65.13 148.09,67.04
             149.54,69.22 151.01,71.92 152.02,74.34
             152.02,74.34 153.99,79.39 153.99,79.39
             153.90,77.43 153.34,75.31 152.58,73.50
             152.00,72.09 151.19,71.37 151.18,69.85
             151.18,69.85 153.87,75.18 153.87,75.18
             153.87,75.18 155.45,81.92 155.45,81.92
             155.45,81.92 156.72,86.41 156.72,86.41
             156.72,86.41 159.32,88.09 159.32,88.09
             159.32,88.09 158.89,85.01 158.89,85.01
             158.89,85.01 157.86,82.48 157.86,82.48
             157.86,82.48 156.93,78.27 156.93,78.27
             156.43,76.12 156.71,74.52 155.39,72.37
             155.39,72.37 154.83,73.78 154.83,73.78
             154.83,73.78 154.83,71.81 154.83,71.81
             153.22,71.34 152.65,69.55 152.04,68.16
             152.04,68.16 149.50,63.67 149.50,63.67
             149.50,63.67 149.22,65.92 149.22,65.92
             148.51,63.74 147.71,63.29 146.13,61.70 Z
           M 98.95,134.42
           C 97.05,132.41 97.60,128.43 99.54,126.61
             100.52,125.70 101.38,125.52 102.60,125.15
             102.14,123.98 101.68,122.77 101.57,121.50
             101.34,118.88 103.08,115.48 105.69,114.71
             106.72,114.35 107.77,114.52 108.78,114.71
             107.35,116.47 105.33,117.32 104.94,119.82
             104.81,120.65 105.02,121.52 105.13,122.34
             105.13,122.34 102.88,122.06 102.88,122.06
             105.01,127.98 111.87,128.05 114.05,124.03
             114.90,122.32 114.36,121.27 114.05,119.54
             115.14,120.57 114.99,121.23 114.95,122.63
             114.87,125.98 112.57,127.87 109.34,128.15
             108.23,128.25 106.72,127.86 105.69,127.43
             105.00,127.14 104.21,126.58 103.44,126.86
             101.83,127.45 100.81,130.09 100.36,131.61
             99.70,130.48 99.80,129.79 99.79,128.52
             98.24,130.72 98.52,131.59 98.85,133.75
             98.89,133.96 100.64,135.82 100.64,135.82
             100.64,135.82 104.57,136.66 104.57,136.66
             103.11,137.24 101.70,136.75 100.36,136.10
             100.36,136.10 98.92,134.18 98.95,134.42 Z
           M 125.91,76.86
           C 124.62,75.97 123.11,74.36 121.42,74.90
             124.03,76.78 123.78,78.03 127.31,79.37
             130.62,80.63 136.37,80.18 141.91,82.48
             141.91,82.48 149.22,85.65 149.22,85.65
             149.22,85.65 152.02,86.15 152.02,86.15
             153.07,86.35 154.06,86.88 155.11,86.69
             155.11,86.69 144.72,80.39 144.72,80.39
             143.51,79.93 138.40,78.72 137.14,78.67
             135.93,78.59 134.86,79.06 133.21,78.67
             130.46,78.05 128.19,75.90 125.35,75.74
             125.35,75.74 125.91,76.86 125.91,76.86 Z
           M 122.54,53.00
           C 122.47,54.02 123.13,54.83 123.40,55.81
             123.79,57.22 123.51,57.88 124.03,58.90
             124.71,60.22 129.17,64.50 130.49,65.44
             129.90,63.27 127.10,57.90 125.91,55.81
             128.53,58.38 131.17,65.51 132.36,67.32
             133.24,68.65 137.89,72.21 139.39,73.21
             138.58,69.76 135.95,64.70 133.69,61.98
             132.17,60.16 131.45,59.63 129.84,58.05
             133.95,60.42 136.55,64.49 138.46,68.72
             139.25,70.48 139.84,73.69 141.07,74.90
             140.08,67.88 135.83,62.08 130.96,57.21
             130.96,57.21 136.30,61.98 136.30,61.98
             136.30,61.98 135.74,58.46 135.74,58.46
             135.74,58.46 131.52,54.97 131.52,54.97
             131.52,54.97 131.52,56.65 131.52,56.65
             131.52,56.65 127.03,53.00 127.03,53.00
             127.03,53.00 127.31,54.69 127.31,54.69
             127.31,54.69 125.91,53.28 125.91,53.28
             125.91,53.28 126.19,54.69 126.19,54.69
             126.19,54.69 124.01,54.81 122.54,53.00 Z
           M 115.52,62.55
           C 115.84,63.64 117.15,64.27 118.05,64.89
             119.71,66.04 120.77,66.76 121.98,68.44
             120.14,66.84 118.16,64.98 115.80,64.23
             115.80,64.23 116.92,67.04 116.92,67.04
             116.92,67.04 115.80,67.32 115.80,67.32
             117.45,67.85 118.22,67.89 119.45,69.28
             119.45,69.28 116.92,68.16 116.92,68.16
             117.72,69.64 117.95,69.70 117.20,71.25
             119.87,73.86 119.44,73.13 122.54,74.21
             122.54,74.21 124.79,75.04 124.79,75.04
             125.87,75.31 126.13,75.21 127.31,75.71
             128.95,76.39 136.17,77.96 137.70,78.08
             139.09,78.18 140.58,78.78 141.91,78.27
             139.65,77.32 127.66,74.59 125.07,73.61
             122.39,72.60 120.18,72.30 118.33,69.85
             121.01,72.11 122.29,72.00 125.35,73.16
             127.86,74.12 136.28,76.36 139.11,76.24
             135.76,71.73 131.21,72.04 126.75,69.55
             126.75,69.55 118.34,63.06 118.34,63.06
             118.34,63.06 115.52,62.55 115.52,62.55 Z
           M 219.70,78.83
           C 216.78,80.75 217.57,79.81 215.77,80.82
             215.77,80.82 211.55,83.35 211.55,83.35
             208.43,85.01 204.43,86.12 200.88,86.13
             200.88,86.13 189.93,86.41 189.93,86.41
             189.38,86.41 188.77,86.40 188.25,86.57
             186.78,87.04 184.38,89.37 183.47,90.62
             183.47,90.62 190.49,90.62 190.49,90.62
             190.49,90.62 194.43,90.34 194.43,90.34
             194.43,90.34 190.21,90.06 190.21,90.06
             190.21,90.06 185.72,90.31 185.72,90.31
             189.06,87.50 195.29,90.79 198.36,90.31
             200.16,89.98 203.72,87.15 206.50,86.97
             204.84,87.78 203.96,88.22 203.41,90.06
             203.41,90.06 208.18,88.03 208.18,88.03
             209.35,87.72 209.75,88.00 210.71,87.79
             212.78,87.35 216.52,85.21 217.45,83.32
             217.45,83.32 214.92,83.60 214.92,83.60
             214.92,83.60 214.64,82.48 214.64,82.48
             216.96,82.12 218.75,81.03 219.70,78.83 Z
           M 136.82,56.65
           C 136.15,58.32 136.55,58.96 136.82,60.58
             136.82,60.58 137.04,63.11 137.04,63.11
             137.04,63.11 140.51,70.41 140.51,70.41
             141.09,71.80 142.07,74.99 142.88,76.01
             143.79,77.17 145.59,78.30 146.97,78.83
             146.80,70.82 144.15,67.17 138.55,61.70
             141.45,63.01 141.35,63.67 141.35,63.67
             143.51,66.72 145.69,68.50 146.85,72.37
             147.30,73.89 147.66,76.12 147.89,77.71
             148.06,78.88 147.95,79.84 148.65,80.79
             148.65,80.79 150.60,81.95 150.90,83.32
             150.90,83.32 156.24,86.13 156.24,86.13
             156.24,86.13 154.27,80.79 154.27,80.79
             154.27,80.79 153.99,81.36 153.99,81.36
             152.87,77.21 149.40,70.04 146.96,66.48
             146.96,66.48 144.10,62.83 144.10,62.83
             144.10,62.83 141.35,58.34 141.35,58.34
             141.35,58.34 139.95,60.02 139.95,60.02
             139.95,60.02 140.23,59.18 140.23,59.18
             140.23,59.18 136.82,56.65 136.82,56.65 Z
           M 230.93,48.23
           C 227.65,48.52 226.00,50.22 223.35,51.88
             223.35,51.88 223.35,50.19 223.35,50.19
             220.41,50.26 217.76,50.99 215.20,52.44
             215.20,52.44 215.20,51.04 215.20,51.04
             214.19,51.62 214.05,52.75 213.80,53.84
             213.80,53.84 216.61,52.44 216.61,52.44
             214.38,54.93 212.10,55.12 210.43,56.11
             209.19,56.85 207.62,58.56 206.78,59.74
             206.78,59.74 210.99,58.34 210.99,58.34
             210.01,58.81 205.24,61.51 204.58,62.09
             202.07,64.35 199.68,70.68 199.20,74.06
             200.93,73.32 205.97,69.64 207.08,68.16
             207.08,68.16 211.19,61.14 211.19,61.14
             214.09,56.59 215.36,54.83 219.70,51.60
             219.70,51.60 214.35,59.46 214.35,59.46
             214.35,59.46 211.55,64.51 211.55,64.51
             211.55,64.51 217.73,58.94 217.73,58.94
             217.73,58.94 225.31,52.84 225.31,52.84
             225.31,52.84 229.81,49.07 229.81,49.07
             229.81,49.07 224.75,54.69 224.75,54.69
             224.75,54.69 228.40,52.72 228.40,52.72
             228.40,52.72 218.29,61.06 218.29,61.06
             218.29,61.06 214.08,65.07 214.08,65.07
             214.08,65.07 223.63,61.80 223.63,61.80
             223.63,61.80 227.64,60.35 227.64,60.35
             227.64,60.35 228.68,58.05 228.68,58.05
             228.68,58.05 225.59,58.62 225.59,58.62
             227.51,55.74 230.03,51.55 230.93,48.23 Z
           M 227.56,60.86
           C 227.56,60.86 217.17,64.96 217.17,64.96
             213.55,66.32 210.66,67.11 208.18,70.41
             213.53,69.19 220.07,65.50 225.03,63.11
             221.60,66.22 214.56,69.04 210.15,70.74
             210.15,70.74 205.94,72.32 205.94,72.32
             204.33,73.16 200.79,76.33 199.48,77.71
             204.86,76.98 214.16,74.41 218.85,71.81
             215.83,74.26 208.70,76.72 204.81,77.59
             203.16,77.96 198.97,78.43 197.79,79.11
             197.79,79.11 201.45,79.37 201.45,79.37
             206.41,79.05 211.12,77.22 215.49,74.90
             216.59,74.31 219.68,72.72 220.42,71.94
             221.78,70.52 221.13,67.87 223.07,65.92
             223.07,65.92 221.94,70.69 221.94,70.69
             221.94,70.69 223.63,69.00 223.63,69.00
             223.38,71.52 218.93,73.69 216.89,74.86
             213.26,76.93 208.93,79.00 204.81,79.83
             204.81,79.83 198.64,80.51 198.64,80.51
             197.75,80.52 196.35,80.43 195.55,80.72
             194.41,81.12 192.21,82.98 191.34,83.88
             196.97,83.88 204.15,84.45 209.31,82.11
             211.75,81.00 214.56,78.64 216.61,76.86
             215.61,78.73 213.90,79.94 212.12,81.02
             207.50,83.83 202.51,84.34 197.23,84.70
             195.40,84.83 191.11,84.83 189.65,85.57
             189.65,85.57 194.14,85.29 194.14,85.29
             198.46,85.28 202.55,85.53 206.78,84.40
             210.08,83.52 213.23,81.55 216.05,79.67
             216.82,79.16 218.82,77.94 219.33,77.37
             220.28,76.32 219.91,75.57 221.16,74.06
             223.47,71.28 224.99,70.29 226.72,66.76
             226.72,66.76 224.75,67.04 224.75,67.04
             226.04,64.39 226.81,64.14 227.56,60.86 Z
           M 207.06,51.32
           C 203.89,51.96 204.01,54.08 201.16,54.69
             201.16,54.69 201.16,52.16 201.16,52.16
             199.51,53.30 200.67,55.17 198.36,57.21
             198.36,57.21 199.76,53.00 199.76,53.00
             196.76,53.56 196.50,54.78 194.43,56.57
             192.86,57.92 191.53,58.65 189.65,59.46
             189.65,59.46 189.65,58.34 189.65,58.34
             188.19,59.56 187.78,60.38 187.69,62.27
             187.69,62.27 194.43,58.62 194.43,58.62
             191.26,62.29 187.22,62.34 187.40,65.92
             187.40,65.92 191.06,65.63 191.06,65.63
             191.06,65.63 187.33,66.99 187.33,66.99
             187.33,66.99 186.34,69.00 186.34,69.00
             186.34,69.00 184.60,74.06 184.60,74.06
             184.60,74.06 187.12,71.81 187.12,71.81
             185.69,74.53 184.59,74.59 183.67,75.63
             182.90,76.50 182.32,78.27 182.63,79.39
             182.63,79.39 185.16,76.86 185.16,76.86
             183.68,78.95 182.39,80.49 181.76,83.04
             180.90,86.49 181.60,88.96 178.98,91.74
             180.15,88.24 180.58,84.42 181.28,80.79
             181.28,80.79 182.00,77.43 182.00,77.43
             183.03,74.21 186.14,68.85 186.28,65.92
             183.41,68.35 181.92,73.43 180.38,75.46
             180.08,73.91 180.55,72.47 180.95,70.97
             180.95,70.97 181.51,71.81 181.51,71.81
             181.51,71.81 183.47,67.88 183.47,67.88
             183.47,67.88 181.23,66.76 181.23,66.76
             181.23,66.76 179.43,73.78 179.43,73.78
             179.43,73.78 179.82,75.18 179.82,75.18
             179.82,75.18 178.70,75.18 178.70,75.18
             178.70,75.18 179.25,82.76 179.25,82.76
             179.14,85.39 178.24,85.85 177.92,87.02
             177.41,88.88 177.64,90.27 176.77,92.30
             175.29,95.74 171.61,100.04 170.84,101.85
             170.84,101.85 175.45,96.52 175.45,96.52
             175.45,96.52 181.79,89.78 181.79,89.78
             181.56,88.41 182.74,87.93 183.57,86.95
             184.72,85.57 185.40,83.89 185.95,82.20
             186.46,80.59 187.12,78.81 187.37,77.14
             187.61,75.55 187.67,72.84 188.14,71.53
             188.74,69.83 190.06,69.17 190.86,67.60
             190.86,67.60 192.37,63.39 192.37,63.39
             192.37,63.39 195.17,59.46 195.17,59.46
             195.17,59.46 197.23,54.69 197.23,54.69
             196.83,59.46 194.20,61.13 193.30,62.57
             193.30,62.57 191.64,67.32 191.64,67.32
             190.75,69.15 189.63,69.39 188.94,70.70
             188.22,72.06 188.35,73.98 188.20,75.46
             188.06,76.86 187.25,78.63 187.69,79.95
             187.69,79.95 188.41,77.14 188.41,77.14
             188.41,77.14 189.24,72.93 189.24,72.93
             189.24,72.93 189.93,71.53 189.93,71.53
             189.93,71.53 188.88,79.39 188.88,79.39
             188.88,79.39 188.88,82.17 188.88,82.17
             188.88,82.17 186.56,84.72 186.56,84.72
             186.56,84.72 186.00,84.16 186.00,84.16
             186.00,84.16 181.79,89.50 181.79,89.50
             181.79,89.50 185.16,86.53 185.16,86.53
             185.16,86.53 191.90,81.18 191.90,81.18
             193.97,79.63 199.54,75.77 200.88,74.06
             199.54,74.63 198.45,75.46 197.51,76.58
             197.51,76.58 192.14,80.31 190.49,81.36
             192.03,79.94 194.82,77.94 195.83,76.30
             195.83,76.30 198.31,69.00 198.31,69.00
             199.65,65.67 204.12,58.98 206.78,56.65
             206.78,56.65 203.97,61.14 203.97,61.14
             203.97,61.14 208.75,56.74 208.75,56.74
             208.75,56.74 212.22,54.51 212.22,54.51
             212.22,54.51 213.80,51.88 213.80,51.88
             210.97,52.25 211.10,52.16 208.47,53.28
             208.47,53.28 206.78,52.72 206.78,52.72
             206.78,52.72 207.06,51.32 207.06,51.32 Z
           M 204.81,52.72
           C 204.81,52.72 205.38,52.72 205.38,52.72
             205.38,52.72 205.38,56.09 205.38,56.09
             205.38,56.09 207.34,55.25 207.34,55.25
             206.78,56.12 205.91,56.53 205.10,57.16
             205.10,57.16 202.01,59.44 202.01,59.44
             200.56,60.36 198.50,61.44 197.26,62.50
             195.09,64.34 193.00,69.62 191.90,72.37
             191.90,72.37 194.01,70.38 194.01,70.38
             195.11,69.13 196.04,66.82 198.08,67.32
             195.20,69.16 193.98,72.84 190.21,74.62
             190.43,72.16 192.15,69.55 193.23,67.32
             194.19,65.33 194.40,63.91 196.12,62.32
             198.01,60.58 202.94,58.36 204.08,56.64
             204.69,55.73 204.47,54.14 204.81,52.72 Z" />
  <path id="Blackberry Outline"
        fill="none" stroke="orange" stroke-width="1"
        d="M 109.90,46.82
           C 115.26,46.82 116.61,48.48 120.29,52.16
             120.29,52.16 120.01,50.76 120.01,50.76
             120.01,50.76 125.35,52.72 125.35,52.72
             125.35,52.72 125.91,50.47 125.91,50.47
             125.91,50.47 130.40,54.40 130.40,54.40
             130.40,54.40 130.40,52.72 130.40,52.72
             132.07,53.23 132.06,54.05 133.24,55.22
             133.99,55.97 134.90,56.56 135.74,57.21
             135.74,57.21 134.89,54.69 134.89,54.69
             137.08,55.10 137.96,56.21 139.67,57.49
             139.67,57.49 139.67,55.81 139.67,55.81
             139.67,55.81 144.44,60.04 144.44,60.04
             144.85,59.15 145.21,59.53 145.85,60.04
             147.08,61.09 147.37,61.81 148.93,62.55
             148.93,62.55 148.65,61.42 148.65,61.42
             150.37,62.00 151.34,64.88 152.02,66.48
             152.02,66.48 153.15,65.35 153.15,65.35
             153.15,65.35 154.55,70.13 154.55,70.13
             154.55,70.13 155.39,69.56 155.39,69.56
             157.40,73.81 157.64,73.58 157.64,78.27
             157.64,78.27 158.48,77.71 158.48,77.71
             158.88,80.17 157.85,80.56 159.32,83.60
             159.32,83.60 160.10,82.48 160.10,82.48
             160.16,83.69 159.82,85.41 160.10,86.41
             160.46,88.34 161.97,89.62 163.04,91.18
             163.04,91.18 164.38,93.43 164.38,93.43
             164.49,91.10 165.59,87.82 166.34,85.57
             166.92,83.83 167.02,82.90 168.60,81.80
             169.28,81.34 171.80,79.25 172.51,80.13
             173.11,80.90 171.74,84.38 171.41,85.29
             169.54,90.42 168.98,94.07 168.03,99.32
             168.48,99.45 169.41,99.84 169.83,99.72
             170.45,99.56 171.45,98.41 171.88,97.92
             173.16,96.45 174.66,94.29 175.60,92.59
             177.25,89.60 176.38,88.93 176.98,86.69
             177.43,84.98 178.15,85.15 178.13,83.04
             178.13,83.04 177.49,75.74 177.49,75.74
             177.69,73.46 178.58,72.43 179.37,70.41
             180.12,68.50 179.87,65.54 181.79,64.51
             181.79,64.51 182.63,66.76 182.63,66.76
             184.09,64.96 183.92,64.66 184.87,62.83
             185.95,60.74 188.09,57.65 190.21,56.65
             190.21,56.65 190.49,58.05 190.49,58.05
             190.49,58.05 195.84,53.23 195.84,53.23
             195.84,53.23 202.01,50.47 202.01,50.47
             202.01,50.47 202.29,53.28 202.29,53.28
             204.12,51.47 205.22,50.34 207.90,50.19
             207.90,50.19 207.90,51.88 207.90,51.88
             207.90,51.88 212.12,50.90 212.12,50.90
             212.12,50.90 215.49,48.79 215.49,48.79
             215.49,48.79 215.77,50.76 215.77,50.76
             217.89,49.55 219.26,49.35 221.66,49.08
             222.97,48.94 223.70,48.54 224.19,49.91
             226.16,48.68 227.46,47.64 229.81,47.08
             230.46,46.92 231.82,46.59 232.11,47.47
             232.29,47.99 231.74,49.64 231.56,50.19
             230.75,52.70 229.52,54.61 228.40,56.93
             228.40,56.93 230.37,57.21 230.37,57.21
             229.78,60.11 228.74,63.06 227.28,65.63
             227.28,65.63 229.24,65.63 229.24,65.63
             228.64,67.46 225.24,71.78 223.91,73.50
             223.91,73.50 225.03,74.62 225.03,74.62
             225.03,74.62 218.57,82.20 218.57,82.20
             218.57,82.20 219.70,82.76 219.70,82.76
             218.37,85.56 215.28,86.98 212.68,88.37
             212.68,88.37 213.80,88.66 213.80,88.66
             213.80,88.66 213.80,89.50 213.80,89.50
             206.88,92.81 204.49,93.15 196.95,93.15
             196.94,94.65 195.81,94.14 194.71,94.04
             194.71,94.04 187.97,93.15 187.97,93.15
             187.97,93.15 188.25,93.99 188.25,93.99
             186.74,93.96 185.27,93.59 183.75,93.79
             178.19,94.51 176.22,97.91 172.80,101.85
             175.20,102.89 179.47,105.53 181.79,106.99
             182.49,107.43 184.67,108.97 185.40,108.87
             186.59,108.69 186.25,106.37 186.31,105.50
             186.49,102.84 187.49,100.50 189.93,99.16
             192.30,97.86 197.58,96.49 200.32,96.52
             203.63,96.56 204.76,98.07 206.22,98.21
             206.22,98.21 209.03,97.92 209.03,97.92
             210.95,97.88 212.97,98.17 214.64,99.18
             216.65,100.39 216.78,101.45 217.84,102.61
             217.84,102.61 219.65,104.38 219.65,104.38
             220.01,104.76 220.45,105.32 220.87,105.61
             221.57,106.11 222.76,106.15 223.63,106.39
             225.20,106.81 226.88,107.59 228.10,108.68
             230.26,110.62 230.65,113.02 231.37,113.78
             231.94,114.40 234.00,115.17 235.84,117.57
             237.51,119.76 237.10,121.53 237.62,122.63
             237.62,122.63 238.76,124.31 238.76,124.31
             238.76,124.31 241.41,128.80 241.41,128.80
             242.16,130.31 242.05,131.65 242.32,132.45
             242.84,134.03 244.87,135.80 244.60,138.91
             244.41,141.05 243.37,142.04 243.22,143.12
             243.09,144.06 243.62,145.06 243.52,146.49
             243.26,149.80 241.47,152.47 237.95,152.66
             237.60,156.49 233.83,159.55 230.09,159.87
             228.74,159.99 227.56,159.53 226.44,158.84
             224.81,160.79 222.46,161.51 219.98,160.94
             219.98,160.94 217.17,159.92 217.17,159.92
             217.17,159.92 214.08,159.92 214.08,159.92
             210.80,159.82 209.13,158.37 207.90,157.98
             206.35,157.62 204.48,158.86 201.16,157.98
             198.51,157.16 197.89,155.40 196.62,154.75
             195.90,154.38 194.51,154.33 193.58,154.06
             191.41,153.41 190.52,152.68 189.09,150.98
             188.23,152.98 188.60,152.36 188.52,154.35
             188.42,156.55 187.56,157.07 186.97,158.56
             186.57,159.59 186.49,160.55 185.89,161.65
             185.21,162.86 184.67,163.07 183.86,163.97
             183.09,164.84 183.07,165.33 182.04,166.37
             181.34,167.09 179.68,168.53 179.14,169.31
             178.38,170.42 179.01,171.35 178.02,173.16
             175.87,177.11 172.26,176.09 170.28,176.53
             171.17,179.96 168.01,183.39 164.66,183.77
             163.52,183.85 163.02,183.41 162.13,183.77
             161.14,184.24 159.50,186.37 156.52,186.61
             154.21,186.79 152.14,186.49 150.35,184.89
             149.35,184.00 149.02,183.12 148.31,182.71
             147.62,182.30 146.95,182.56 145.28,181.91
             142.23,180.71 140.53,178.70 140.23,175.40
             135.98,174.60 134.04,169.81 134.70,165.86
             134.96,164.36 135.83,162.95 136.58,161.65
             133.51,160.77 130.69,158.95 130.46,155.47
             130.38,154.17 131.03,152.38 131.06,151.54
             131.09,150.20 130.23,149.71 130.13,147.61
             130.01,144.98 130.64,144.78 130.78,143.68
             130.88,142.96 130.55,141.90 130.40,141.15
             129.71,141.62 128.51,142.14 128.05,142.64
             127.30,143.46 126.84,145.39 124.78,146.63
             122.79,147.84 121.29,147.13 120.38,147.63
             120.38,147.63 118.32,149.60 118.32,149.60
             116.14,151.26 114.13,151.37 111.59,150.70
             109.29,154.98 104.90,155.44 101.20,152.66
             99.11,155.95 97.26,156.36 93.62,156.31
             92.71,156.30 92.26,156.28 91.37,156.06
             89.33,155.56 87.63,154.88 87.16,152.66
             83.96,153.45 81.26,153.41 78.78,150.93
             77.61,149.76 77.41,148.95 76.59,147.92
             75.55,146.60 73.17,145.55 71.95,143.12
             70.91,141.05 71.63,140.23 71.95,138.35
             72.11,137.39 71.65,136.72 71.41,135.82
             71.13,134.75 71.14,133.82 71.15,132.73
             71.20,129.02 73.26,127.20 73.63,125.99
             73.83,125.16 73.00,123.05 73.63,120.66
             74.41,117.95 76.19,117.61 77.27,116.62
             78.66,115.35 79.09,113.28 82.67,113.08
             81.66,110.33 81.94,107.12 84.10,104.97
             85.30,103.76 86.30,103.70 87.27,102.63
             88.42,101.38 88.63,100.66 90.25,99.59
             90.25,99.59 91.88,98.59 91.88,98.59
             93.65,97.19 93.46,96.01 97.55,95.67
             98.36,90.48 104.36,87.54 109.06,89.50
             110.98,85.92 115.57,83.87 119.45,85.31
             121.57,86.10 122.22,87.35 123.15,87.60
             123.75,87.76 125.59,87.30 126.47,87.26
             129.35,87.15 131.88,88.25 133.59,90.62
             133.59,90.62 135.18,93.43 135.18,93.43
             135.57,91.70 136.10,90.76 135.74,88.94
             137.53,90.41 135.95,93.36 135.46,95.11
             135.46,95.11 137.23,91.74 137.23,91.74
             137.23,91.74 139.67,87.53 139.67,87.53
             139.67,87.53 140.51,87.81 140.51,87.81
             138.94,91.33 137.58,91.56 136.58,96.52
             137.10,96.62 137.87,96.83 138.38,96.78
             138.38,96.78 146.69,93.96 146.69,93.96
             151.98,92.64 157.97,93.56 162.69,96.24
             161.98,91.71 157.07,89.00 152.87,88.41
             152.87,88.41 149.22,88.41 149.22,88.41
             149.22,88.41 149.78,87.53 149.78,87.53
             149.78,87.53 146.41,86.66 146.41,86.66
             143.20,85.81 139.91,85.08 136.58,85.01
             136.58,85.01 137.70,83.88 137.70,83.88
             135.31,83.69 132.97,83.04 130.68,82.36
             130.68,82.36 126.75,81.35 126.75,81.35
             123.66,80.37 119.18,77.89 117.77,74.90
             117.77,74.90 119.17,74.62 119.17,74.62
             117.33,72.80 116.06,72.00 114.96,69.56
             114.96,69.56 116.36,69.56 116.36,69.56
             115.37,68.09 114.49,67.43 114.12,65.63
             114.12,65.63 115.80,65.92 115.80,65.92
             114.32,64.21 112.78,62.51 112.15,60.30
             112.15,60.30 115.52,61.42 115.52,61.42
             114.53,59.93 113.35,58.44 112.99,56.65
             112.99,56.65 114.68,56.93 114.68,56.93
             114.68,56.93 111.96,50.19 111.96,50.19
             111.96,50.19 109.90,46.82 109.90,46.82 Z" />
  <path id="Letter Details"
        fill="none" stroke="lime" stroke-width="1"
        d="M 101.22,187.84
           C 101.22,187.84 98.32,185.78 98.32,185.78
             98.32,185.78 101.87,180.79 101.87,180.79
             101.87,180.79 104.46,182.64 104.46,182.64
             105.79,183.59 106.63,184.46 106.97,185.27
             107.31,186.07 107.18,186.91 106.56,187.77
             105.96,188.62 105.25,189.08 104.45,189.16
             103.64,189.24 102.57,188.80 101.22,187.84 Z
           M 97.15,187.42
           C 97.15,187.42 100.16,189.56 100.16,189.56
             101.61,190.60 102.43,191.57 102.64,192.47
             102.84,193.38 102.65,194.24 102.07,195.06
             101.44,195.94 100.66,196.46 99.74,196.61
             98.81,196.77 97.65,196.35 96.26,195.36
             96.26,195.36 93.10,193.11 93.10,193.11
             93.10,193.11 97.15,187.42 97.15,187.42 Z
           M 125.66,16.51
           C 125.66,16.51 129.52,21.38 129.52,21.38
             129.52,21.38 123.72,23.27 123.72,23.27
             123.72,23.27 123.99,17.06 123.99,17.06
             124.00,16.73 124.00,16.29 123.99,15.74
             123.97,15.19 123.94,14.62 123.89,14.06
             124.02,14.24 124.21,14.50 124.45,14.85
             124.68,15.20 124.92,15.53 125.16,15.85
             125.39,16.17 125.56,16.39 125.66,16.51 Z
           M 139.48,15.44
           C 139.93,14.52 140.88,13.93 142.33,13.68
             143.64,13.44 144.69,13.76 145.49,14.62
             146.29,15.48 146.84,16.73 147.13,18.36
             147.32,19.42 147.34,20.38 147.22,21.25
             147.09,22.13 146.79,22.85 146.31,23.43
             145.84,24.00 145.17,24.37 144.30,24.52
             142.75,24.80 141.60,24.51 140.85,23.67
             140.11,22.82 139.59,21.53 139.27,19.77
             139.27,19.77 139.19,19.32 139.19,19.32
             138.94,17.65 139.03,16.36 139.48,15.44 Z
           M 160.99,204.92
           C 161.51,203.99 162.53,203.46 164.05,203.34
             166.65,203.13 168.10,204.84 168.39,208.47
             168.54,210.26 168.34,211.66 167.78,212.66
             167.22,213.66 166.30,214.22 165.01,214.32
             163.43,214.45 162.31,214.07 161.65,213.18
             160.99,212.28 160.59,210.95 160.45,209.18
             160.45,209.18 160.44,209.07 160.44,209.07
             160.29,207.23 160.47,205.84 160.99,204.92 Z
           M 121.00,203.03
           C 121.00,203.03 123.01,203.73 123.01,203.73
             123.01,203.73 122.54,204.94 122.54,204.94
             122.03,206.24 121.28,207.06 120.28,207.40
             119.28,207.73 118.21,207.67 117.07,207.23
             116.35,206.95 115.83,206.54 115.51,206.01
             115.19,205.48 115.17,204.83 115.47,204.08
             115.80,203.23 116.38,202.69 117.21,202.48
             118.04,202.26 119.30,202.45 121.00,203.03 Z
           M 200.19,18.47
           C 201.04,17.99 202.00,17.93 203.08,18.29
             204.22,18.67 204.93,19.31 205.22,20.22
             205.50,21.12 205.46,22.15 205.08,23.31
             205.08,23.31 198.11,20.97 198.11,20.97
             198.64,19.78 199.33,18.95 200.19,18.47 Z
           M 176.78,202.43
           C 177.24,201.56 178.01,200.99 179.11,200.71
             180.28,200.41 181.22,200.56 181.95,201.16
             182.68,201.77 183.21,202.66 183.53,203.84
             183.53,203.84 176.40,205.66 176.40,205.66
             176.20,204.37 176.33,203.30 176.78,202.43 Z
           M 159.09,17.68
           C 159.09,17.68 161.21,17.50 161.21,17.50
             161.21,17.50 161.27,18.80 161.27,18.80
             161.33,20.20 160.97,21.25 160.20,21.96
             159.42,22.67 158.42,23.05 157.20,23.11
             156.43,23.14 155.78,22.98 155.27,22.63
             154.76,22.27 154.49,21.69 154.45,20.88
             154.41,19.97 154.73,19.24 155.40,18.71
             156.06,18.17 157.29,17.83 159.09,17.68 Z" />
  <path id="Letter Outlines"
        fill="none" stroke="green" stroke-width="1"
        d="M 105.58,180.88
           C 105.58,180.88 101.10,177.70 101.10,177.70
             101.10,177.70 89.93,193.37 89.93,193.37
             89.93,193.37 95.44,197.29 95.44,197.29
             97.13,198.49 98.73,199.05 100.26,198.97
             101.79,198.89 103.05,198.13 104.07,196.71
             104.65,195.89 104.97,195.12 105.03,194.39
             105.08,193.66 104.95,192.96 104.61,192.30
             104.27,191.65 103.81,191.03 103.23,190.46
             103.23,190.46 103.30,190.35 103.30,190.35
             104.40,190.86 105.41,191.00 106.36,190.75
             107.30,190.51 108.10,189.93 108.76,189.01
             109.78,187.57 110.00,186.21 109.41,184.92
             108.82,183.63 107.54,182.28 105.58,180.88 Z
           M 204.53,188.19
           C 204.53,188.19 217.85,196.36 217.85,196.36
             217.85,196.36 218.39,198.34 218.39,198.34
             218.62,199.14 218.67,199.87 218.53,200.55
             218.40,201.23 218.00,201.82 217.34,202.31
             217.09,202.49 216.85,202.65 216.60,202.79
             216.36,202.93 216.15,203.04 215.96,203.13
             215.96,203.13 217.09,204.64 217.09,204.64
             217.31,204.55 217.56,204.42 217.85,204.27
             218.14,204.11 218.45,203.90 218.80,203.64
             219.92,202.81 220.57,201.83 220.73,200.70
             220.89,199.58 220.76,198.32 220.35,196.92
             220.35,196.92 215.55,180.01 215.55,180.01
             215.55,180.01 213.49,181.53 213.49,181.53
             213.49,181.53 216.02,189.86 216.02,189.86
             216.26,190.61 216.50,191.34 216.74,192.06
             216.99,192.79 217.20,193.36 217.39,193.78
             217.39,193.78 217.30,193.85 217.30,193.85
             216.86,193.44 216.36,193.03 215.79,192.63
             215.23,192.24 214.62,191.83 213.98,191.41
             213.98,191.41 206.57,186.68 206.57,186.68
             206.57,186.68 204.53,188.19 204.53,188.19 Z
           M 134.93,28.14
           C 134.93,28.14 137.31,27.36 137.31,27.36
             137.31,27.36 124.19,11.32 124.19,11.32
             124.19,11.32 122.11,12.00 122.11,12.00
             122.11,12.00 120.97,32.70 120.97,32.70
             120.97,32.70 123.30,31.94 123.30,31.94
             123.30,31.94 123.63,25.57 123.63,25.57
             123.63,25.57 130.88,23.20 130.88,23.20
             130.88,23.20 134.93,28.14 134.93,28.14 Z
           M 183.88,11.70
           C 183.88,11.70 185.03,5.80 185.03,5.80
             185.03,5.80 182.70,5.35 182.70,5.35
             182.70,5.35 178.79,25.46 178.79,25.46
             178.79,25.46 181.12,25.91 181.12,25.91
             181.12,25.91 182.55,18.58 182.55,18.58
             182.87,16.93 183.41,15.71 184.18,14.93
             184.94,14.16 186.12,13.92 187.70,14.23
             189.82,14.64 190.66,15.98 190.22,18.26
             190.22,18.26 188.45,27.33 188.45,27.33
             188.45,27.33 190.76,27.78 190.76,27.78
             190.76,27.78 192.55,18.55 192.55,18.55
             192.90,16.73 192.73,15.33 192.02,14.34
             191.32,13.35 190.10,12.69 188.37,12.36
             187.45,12.18 186.56,12.20 185.71,12.42
             184.85,12.63 184.12,13.06 183.52,13.69
             183.52,13.69 183.36,13.66 183.36,13.66
             183.57,13.06 183.75,12.41 183.88,11.70 Z
           M 146.96,12.72
           C 145.68,11.69 144.16,11.33 142.40,11.64
             141.25,11.84 140.37,12.22 139.76,12.76
             139.14,13.31 138.68,13.93 138.36,14.63
             138.36,14.63 138.26,14.64 138.26,14.64
             138.26,14.64 137.59,12.76 137.59,12.76
             137.59,12.76 135.68,13.10 135.68,13.10
             135.68,13.10 139.33,33.70 139.33,33.70
             139.33,33.70 141.67,33.28 141.67,33.28
             141.67,33.28 140.63,27.44 140.63,27.44
             140.57,27.11 140.49,26.71 140.37,26.26
             140.25,25.80 140.15,25.43 140.06,25.14
             140.06,25.14 140.22,25.11 140.22,25.11
             140.72,25.58 141.37,25.97 142.16,26.26
             142.95,26.54 143.90,26.59 144.99,26.40
             146.76,26.08 148.07,25.20 148.92,23.76
             149.77,22.31 149.98,20.38 149.55,17.95
             149.11,15.49 148.25,13.75 146.96,12.72 Z
           M 159.77,200.91
           C 159.77,200.91 159.36,195.94 159.36,195.94
             159.36,195.94 157.00,196.13 157.00,196.13
             157.00,196.13 158.67,216.54 158.67,216.54
             158.67,216.54 160.36,216.41 160.36,216.41
             160.36,216.41 160.70,214.54 160.70,214.54
             160.70,214.54 160.88,214.52 160.88,214.52
             161.34,215.06 161.95,215.51 162.70,215.86
             163.45,216.22 164.39,216.35 165.52,216.25
             167.29,216.11 168.67,215.36 169.66,214.02
             170.65,212.68 171.04,210.77 170.84,208.30
             170.64,205.83 169.94,204.01 168.76,202.86
             167.57,201.70 166.08,201.20 164.29,201.35
             163.16,201.44 162.26,201.72 161.58,202.19
             160.89,202.66 160.37,203.22 160.01,203.86
             160.01,203.86 159.88,203.87 159.88,203.87
             159.89,203.56 159.88,203.14 159.87,202.61
             159.85,202.08 159.82,201.51 159.77,200.91 Z
           M 145.72,206.12
           C 145.72,206.12 146.57,195.45 146.57,195.45
             146.57,195.45 144.23,195.27 144.23,195.27
             144.23,195.27 142.60,215.68 142.60,215.68
             142.60,215.68 144.94,215.87 144.94,215.87
             144.94,215.87 145.36,210.58 145.36,210.58
             145.36,210.58 147.11,209.28 147.11,209.28
             147.11,209.28 151.58,216.40 151.58,216.40
             151.58,216.40 154.43,216.63 154.43,216.63
             154.43,216.63 148.85,207.88 148.85,207.88
             148.85,207.88 155.17,202.19 155.17,202.19
             155.17,202.19 152.40,201.97 152.40,201.97
             152.40,201.97 147.42,206.47 147.42,206.47
             147.24,206.64 147.03,206.85 146.79,207.11
             146.54,207.37 146.30,207.62 146.06,207.88
             145.83,208.13 145.65,208.32 145.53,208.46
             145.53,208.46 145.42,208.45 145.42,208.45
             145.47,208.11 145.52,207.71 145.59,207.24
             145.65,206.78 145.69,206.41 145.72,206.12 Z
           M 126.37,198.10
           C 125.87,197.08 124.80,196.24 123.16,195.60
             122.29,195.26 121.41,195.05 120.51,194.96
             119.62,194.87 118.82,194.87 118.11,194.96
             118.11,194.96 118.14,196.88 118.14,196.88
             118.80,196.83 119.49,196.82 120.20,196.86
             120.92,196.90 121.63,197.06 122.33,197.33
             123.22,197.68 123.82,198.17 124.14,198.79
             124.45,199.42 124.39,200.29 123.95,201.41
             123.95,201.41 123.64,202.21 123.64,202.21
             123.64,202.21 121.32,201.40 121.32,201.40
             119.10,200.60 117.33,200.37 115.99,200.68
             114.65,201.00 113.72,201.82 113.19,203.16
             112.65,204.53 112.66,205.70 113.21,206.66
             113.76,207.62 114.65,208.34 115.87,208.81
             117.01,209.26 117.97,209.43 118.75,209.33
             119.53,209.23 120.36,208.93 121.24,208.42
             121.24,208.42 121.34,208.46 121.34,208.46
             121.34,208.46 121.02,210.54 121.02,210.54
             121.02,210.54 122.62,211.17 122.62,211.17
             122.62,211.17 126.21,202.00 126.21,202.00
             126.82,200.43 126.88,199.13 126.37,198.10 Z
           M 117.17,186.57
           C 117.17,186.57 107.53,204.64 107.53,204.64
             107.53,204.64 105.44,203.52 105.44,203.52
             105.44,203.52 115.08,185.45 115.08,185.45
             115.08,185.45 117.17,186.57 117.17,186.57 Z
           M 206.49,18.24
           C 205.82,17.45 204.90,16.85 203.72,16.46
             202.51,16.05 201.35,15.98 200.25,16.26
             199.14,16.53 198.16,17.12 197.29,18.02
             196.43,18.92 195.75,20.13 195.24,21.63
             194.73,23.14 194.58,24.52 194.78,25.75
             194.98,26.98 195.49,28.03 196.31,28.89
             197.13,29.76 198.19,30.41 199.48,30.84
             200.42,31.16 201.25,31.36 201.98,31.44
             202.71,31.52 203.48,31.53 204.28,31.46
             204.28,31.46 204.94,29.49 204.94,29.49
             204.12,29.56 203.35,29.56 202.62,29.49
             201.89,29.43 201.10,29.25 200.23,28.96
             198.86,28.50 197.94,27.74 197.45,26.68
             196.97,25.61 196.97,24.30 197.46,22.74
             197.46,22.74 206.83,25.89 206.83,25.89
             206.83,25.89 207.29,24.54 207.29,24.54
             207.71,23.29 207.85,22.13 207.71,21.05
             207.57,19.97 207.16,19.04 206.49,18.24 Z
           M 181.95,198.81
           C 180.96,198.51 179.86,198.51 178.66,198.82
             177.42,199.14 176.41,199.71 175.63,200.54
             174.85,201.37 174.34,202.40 174.11,203.63
             173.88,204.85 173.96,206.23 174.35,207.77
             174.74,209.31 175.36,210.55 176.20,211.48
             177.04,212.40 178.04,213.01 179.19,213.29
             180.35,213.57 181.59,213.54 182.91,213.20
             183.87,212.96 184.68,212.67 185.34,212.34
             186.00,212.02 186.64,211.61 187.28,211.11
             187.28,211.11 186.76,209.10 186.76,209.10
             186.11,209.60 185.46,210.02 184.82,210.36
             184.17,210.70 183.40,210.99 182.52,211.21
             181.12,211.57 179.93,211.43 178.95,210.80
             177.96,210.18 177.25,209.07 176.81,207.50
             176.81,207.50 186.40,205.05 186.40,205.05
             186.40,205.05 186.04,203.67 186.04,203.67
             185.72,202.40 185.20,201.35 184.50,200.51
             183.80,199.68 182.95,199.12 181.95,198.81 Z
           M 130.87,212.89
           C 131.72,213.62 132.78,214.12 134.02,214.41
             134.83,214.59 135.53,214.68 136.13,214.68
             136.73,214.68 137.29,214.61 137.82,214.47
             137.82,214.47 138.29,212.42 138.29,212.42
             137.74,212.54 137.16,212.61 136.54,212.63
             135.92,212.66 135.22,212.58 134.45,212.40
             133.12,212.10 132.22,211.42 131.75,210.37
             131.28,209.31 131.24,207.93 131.62,206.23
             132.43,202.68 134.22,201.21 136.99,201.84
             137.48,201.96 137.99,202.14 138.52,202.41
             139.05,202.68 139.51,202.94 139.89,203.19
             139.89,203.19 141.04,201.44 141.04,201.44
             140.67,201.13 140.16,200.83 139.53,200.53
             138.90,200.23 138.22,200.00 137.51,199.83
             136.24,199.54 135.06,199.54 133.95,199.83
             132.85,200.11 131.88,200.73 131.06,201.68
             130.23,202.64 129.62,203.98 129.23,205.71
             128.85,207.38 128.81,208.81 129.12,210.00
             129.43,211.20 130.01,212.16 130.87,212.89 Z
           M 162.00,10.99
           C 161.12,10.26 159.80,9.93 158.04,10.01
             157.11,10.05 156.22,10.21 155.37,10.49
             154.51,10.78 153.78,11.10 153.17,11.47
             153.17,11.47 153.98,13.21 153.98,13.21
             154.56,12.90 155.18,12.62 155.85,12.36
             156.53,12.11 157.24,11.96 157.99,11.93
             158.94,11.89 159.69,12.09 160.23,12.53
             160.77,12.97 161.07,13.80 161.13,15.00
             161.13,15.00 161.16,15.86 161.16,15.86
             161.16,15.86 158.72,16.05 158.72,16.05
             156.37,16.23 154.65,16.73 153.55,17.56
             152.45,18.39 151.94,19.53 152.00,20.96
             152.07,22.44 152.55,23.50 153.44,24.15
             154.33,24.80 155.43,25.10 156.74,25.04
             157.97,24.99 158.91,24.76 159.59,24.35
             160.26,23.94 160.90,23.33 161.49,22.51
             161.49,22.51 161.60,22.50 161.60,22.50
             161.60,22.50 162.15,24.53 162.15,24.53
             162.15,24.53 163.87,24.45 163.87,24.45
             163.87,24.45 163.43,14.63 163.43,14.63
             163.35,12.94 162.88,11.73 162.00,10.99 Z
           M 169.57,24.22
           C 170.53,24.81 171.65,25.14 172.92,25.23
             173.74,25.29 174.45,25.27 175.04,25.18
             175.64,25.08 176.18,24.93 176.68,24.71
             176.68,24.71 176.83,22.61 176.83,22.61
             176.31,22.81 175.75,22.97 175.14,23.09
             174.52,23.21 173.82,23.24 173.03,23.19
             171.67,23.09 170.68,22.56 170.05,21.59
             169.43,20.62 169.17,19.26 169.29,17.52
             169.55,13.89 171.09,12.16 173.92,12.36
             174.43,12.40 174.96,12.51 175.52,12.69
             176.09,12.87 176.58,13.06 177.00,13.25
             177.00,13.25 177.86,11.34 177.86,11.34
             177.44,11.09 176.90,10.87 176.23,10.67
             175.56,10.47 174.86,10.35 174.12,10.30
             172.83,10.21 171.66,10.39 170.61,10.83
             169.56,11.28 168.70,12.04 168.03,13.11
             167.37,14.18 166.97,15.61 166.85,17.38
             166.73,19.08 166.91,20.50 167.40,21.63
             167.89,22.77 168.61,23.63 169.57,24.22 Z
           M 203.70,188.25
           C 203.42,188.38 203.16,188.51 202.92,188.64
             202.04,189.13 201.42,189.81 201.05,190.67
             200.69,191.53 200.50,192.42 200.47,193.34
             200.47,193.34 200.38,193.39 200.38,193.39
             200.38,193.39 198.86,191.21 198.86,191.21
             198.86,191.21 197.16,192.16 197.16,192.16
             197.16,192.16 204.19,204.78 204.19,204.78
             204.19,204.78 206.26,203.63 206.26,203.63
             206.26,203.63 202.51,196.89 202.51,196.89
             202.04,196.04 201.80,195.21 201.78,194.38
             201.76,193.56 201.94,192.81 202.31,192.15
             202.68,191.48 203.18,190.96 203.83,190.61
             204.05,190.48 204.29,190.37 204.55,190.27
             204.81,190.16 205.05,190.08 205.28,190.01
             205.28,190.01 204.48,187.96 204.48,187.96
             204.25,188.03 203.99,188.12 203.70,188.25 Z
           M 194.35,193.33
           C 194.05,193.42 193.77,193.52 193.52,193.62
             192.59,194.00 191.90,194.60 191.43,195.41
             190.97,196.22 190.67,197.08 190.54,197.99
             190.54,197.99 190.44,198.03 190.44,198.03
             190.44,198.03 189.19,195.69 189.19,195.69
             189.19,195.69 187.39,196.43 187.39,196.43
             187.39,196.43 192.88,209.79 192.88,209.79
             192.88,209.79 195.08,208.89 195.08,208.89
             195.08,208.89 192.15,201.76 192.15,201.76
             191.78,200.86 191.64,200.01 191.72,199.19
             191.80,198.37 192.06,197.65 192.50,197.03
             192.95,196.41 193.51,195.96 194.19,195.68
             194.43,195.58 194.68,195.50 194.95,195.42
             195.22,195.35 195.48,195.30 195.71,195.26
             195.71,195.26 195.16,193.13 195.16,193.13
             194.92,193.16 194.65,193.23 194.35,193.33 Z" />
  <path id="Stake"
        fill="none" stroke="black" stroke-width="1"
        d="M 197.00,221.08
           C 254.42,211.59 320.77,175.02 320.00,109.00
             319.68,81.95 303.16,56.84 283.00,40.08
             254.04,16.00 216.21,3.63 179.00,0.91
             179.00,0.91 167.00,0.21 167.00,0.21
             167.00,0.21 145.00,0.21 145.00,0.21
             145.00,0.21 135.00,1.28 135.00,1.28
             135.00,1.28 109.00,5.65 109.00,5.65
             74.43,13.58 38.39,31.89 17.16,61.00
             6.76,75.27 0.03,93.25 0.00,111.00
             -0.10,174.77 65.57,211.13 121.00,220.75
             121.00,220.75 128.00,622.00 128.00,622.00
             128.00,622.00 159.08,750.00 159.08,750.00
             159.08,750.00 192.00,622.00 192.00,622.00
             192.00,622.00 197.00,221.08 197.00,221.08 Z" />
</svg>
