<?xml version="1.0" encoding="UTF-8" standalone="no"?>
<!DOCTYPE svg PUBLIC "-//W3C//DTD SVG 20010904//EN"
              "http://www.w3.org/TR/2001/REC-SVG-20010904/DTD/svg10.dtd">

<svg xmlns="http://www.w3.org/2000/svg"
     width="20in" height="12in"
     viewBox="0 0 2560 1536">
  <path id="Blackberry Details"
        fill="none" stroke="red" stroke-width="1"
        d="M 527.02,481.72
           C 525.63,485.22 525.63,489.22 527.02,492.72
             527.02,492.72 527.02,481.72 527.02,481.72 Z
           M 299.02,526.72
           C 297.17,529.58 296.84,530.47 298.02,533.72
             298.02,533.72 299.02,526.72 299.02,526.72 Z
           M 46.02,417.72
           C 44.23,421.31 44.06,423.16 46.02,426.72
             46.02,426.72 46.02,417.72 46.02,417.72 Z
           M 314.02,617.72
           C 311.87,620.06 311.25,620.53 312.02,623.72
             312.02,623.72 314.02,617.72 314.02,617.72 Z
           M 383.02,466.72
           C 383.02,466.72 381.02,466.72 381.02,466.72
             381.02,466.72 381.02,473.72 381.02,473.72
             381.02,473.72 383.02,473.72 383.02,473.72
             383.02,473.72 383.02,466.72 383.02,466.72 Z
           M 67.77,511.34
           C 67.50,509.68 61.23,509.07 61.77,512.34
             61.77,512.34 67.77,511.34 67.77,511.34 Z
           M 81.02,476.72
           C 81.79,478.12 75.43,480.29 74.02,477.72
             74.02,477.72 81.02,476.72 81.02,476.72 Z
           M 142.02,507.72
           C 142.02,507.72 131.02,508.72 131.02,508.72
             135.48,509.21 137.80,509.65 142.02,507.72 Z
           M 86.02,344.72
           C 86.02,344.72 82.02,348.72 82.02,348.72
             82.02,348.72 86.02,344.72 86.02,344.72 Z
           M 418.02,495.72
           C 417.12,498.92 417.43,500.58 420.02,502.72
             420.02,502.72 418.02,495.72 418.02,495.72 Z
           M 76.02,507.72
           C 75.97,506.99 68.87,508.49 69.02,510.72
             69.02,510.72 76.02,507.72 76.02,507.72 Z
           M 76.02,507.72
           C 76.02,507.72 76.02,507.72 76.02,507.72
             76.02,507.72 76.02,507.72 76.02,507.72
             76.02,507.72 76.02,507.72 76.02,507.72M 44.02,368.72
           C 42.46,372.64 42.48,376.27 45.02,379.72
             45.02,379.72 44.02,368.72 44.02,368.72 Z
           M 118.02,370.72
           C 115.38,373.12 114.15,374.05 115.02,377.72
             115.02,377.72 118.02,370.72 118.02,370.72 Z
           M 313.02,416.72
           C 313.02,416.72 309.02,422.72 309.02,422.72
             312.23,420.79 312.23,420.33 313.02,416.72 Z
           M 469.02,301.72
           C 465.99,298.01 464.09,299.97 461.02,302.72
             461.02,302.72 469.02,301.72 469.02,301.72 Z
           M 78.02,451.72
           C 75.03,450.61 72.94,457.32 74.02,457.72
             74.02,457.72 78.02,451.72 78.02,451.72 Z
           M 608.02,496.72
           C 604.43,500.62 605.77,504.34 608.02,508.72
             608.02,508.72 608.02,496.72 608.02,496.72 Z
           M 292.02,221.72
           C 290.42,225.88 291.41,228.29 294.02,231.72
             294.02,231.72 292.02,221.72 292.02,221.72 Z
           M 504.02,335.72
           C 504.02,335.72 491.02,334.72 491.02,334.72
             493.63,338.36 500.21,337.23 504.02,335.72 Z
           M 226.02,376.72
           C 225.95,380.23 227.82,382.14 230.02,384.72
             230.02,384.72 226.02,376.72 226.02,376.72 Z
           M 260.02,197.73
           C 259.50,201.69 261.19,203.23 264.02,205.72
             264.19,201.26 263.10,200.78 260.02,197.73 Z
           M 550.02,519.72
           C 550.02,519.72 549.02,520.72 549.02,520.72
             553.30,522.50 556.56,523.49 561.02,521.72
             561.02,521.72 550.02,519.72 550.02,519.72 Z
           M 209.02,478.72
           C 209.02,478.72 200.02,476.72 200.02,476.72
             201.74,481.62 205.19,481.53 209.02,478.72 Z
           M 268.02,374.72
           C 267.79,378.35 269.81,380.97 272.02,383.72
             272.02,383.72 268.02,374.72 268.02,374.72 Z
           M 91.02,410.72
           C 89.89,409.56 83.30,414.96 85.02,416.72
             85.02,416.72 91.02,410.72 91.02,410.72 Z
           M 448.02,465.72
           C 448.02,465.72 441.02,467.17 441.02,467.17
             441.02,467.17 435.02,467.72 435.02,467.72
             440.18,469.19 443.89,469.52 448.02,465.72 Z
           M 426.02,410.72
           C 426.02,410.72 409.02,412.72 409.02,412.72
             415.21,412.85 420.47,414.34 426.02,410.72 Z
           M 301.02,451.72
           C 296.99,453.24 294.66,455.17 296.02,459.72
             296.02,459.72 301.02,451.72 301.02,451.72 Z
           M 279.02,494.72
           C 276.21,498.35 274.36,502.18 276.02,506.72
             276.02,506.72 279.02,494.72 279.02,494.72 Z
           M 343.02,448.72
           C 339.38,451.67 337.29,453.93 339.02,458.72
             339.02,458.72 343.02,448.72 343.02,448.72 Z
           M 406.02,551.72
           C 406.02,551.72 398.02,557.72 398.02,557.72
             402.70,556.72 403.85,556.04 406.02,551.72 Z
           M 390.02,386.72
           C 385.48,388.07 384.48,388.63 382.02,392.72
             387.16,393.09 388.39,391.37 390.02,386.72 Z
           M 59.02,356.72
           C 53.81,358.38 53.75,360.66 53.02,365.72
             57.64,363.08 58.41,362.00 59.02,356.72 Z
           M 138.02,519.72
           C 138.02,519.72 128.02,525.72 128.02,525.72
             132.60,524.85 135.53,523.86 138.02,519.72 Z
           M 232.02,343.72
           C 225.65,342.42 221.16,346.50 227.02,351.72
             227.02,351.72 232.02,343.72 232.02,343.72 Z
           M 31.02,393.72
           C 25.82,399.00 26.34,404.27 29.02,410.72
             31.80,406.34 30.14,405.33 30.28,400.72
             30.28,400.72 31.02,393.72 31.02,393.72 Z
           M 136.02,327.72
           C 130.45,328.36 128.49,329.62 126.02,334.72
             126.02,334.72 136.02,327.72 136.02,327.72 Z
           M 138.02,406.72
           C 133.44,408.99 132.00,411.09 130.02,415.72
             130.02,415.72 138.02,406.72 138.02,406.72 Z
           M 123.02,491.72
           C 123.02,491.72 112.02,498.72 112.02,498.72
             117.45,497.83 120.38,496.79 123.02,491.72 Z
           M 179.29,250.63
           C 179.29,250.63 173.02,251.72 173.02,251.72
             173.02,251.72 183.47,258.63 183.47,258.63
             183.47,258.63 179.29,250.63 179.29,250.63 Z
           M 16.02,487.72
           C 15.69,481.10 15.12,479.59 9.02,476.72
             7.28,483.39 8.83,487.13 16.02,487.72 Z
           M 362.02,401.72
           C 362.02,401.72 351.02,409.72 351.02,409.72
             356.38,408.01 358.65,406.20 362.02,401.72 Z
           M 412.02,200.73
           C 409.13,204.36 404.85,211.03 406.02,215.72
             406.02,215.72 412.02,200.73 412.02,200.73 Z
           M 305.02,627.72
           C 300.98,622.77 298.69,619.32 292.02,620.72
             294.90,626.16 299.22,627.19 305.02,627.72 Z
           M 289.02,626.72
           C 289.02,626.72 279.02,630.72 279.02,630.72
             279.02,630.72 290.02,635.72 290.02,635.72
             290.02,635.72 289.02,626.72 289.02,626.72 Z
           M 509.02,515.72
           C 505.05,524.00 507.34,521.30 500.02,527.72
             507.45,526.14 508.84,522.84 509.02,515.72 Z
           M 593.02,433.72
           C 591.24,427.69 589.08,424.79 583.02,422.72
             584.76,428.62 588.02,430.55 593.02,433.72 Z
           M 328.02,381.72
           C 324.39,385.09 322.52,388.00 321.02,392.72
             321.02,392.72 329.02,395.72 329.02,395.72
             329.02,395.72 328.02,381.72 328.02,381.72 Z
           M 530.02,490.72
           C 531.99,497.57 543.91,498.02 549.02,494.72
             538.71,495.52 539.44,495.67 530.02,490.72 Z
           M 384.02,399.72
           C 382.48,406.94 386.12,403.12 380.02,412.72
             380.02,412.72 389.02,409.72 389.02,409.72
             389.02,409.72 384.02,399.72 384.02,399.72 Z
           M 380.02,412.72
           C 380.02,412.72 380.02,412.72 380.02,412.72
             380.02,412.72 380.02,412.72 380.02,412.72
             380.02,412.72 380.02,412.72 380.02,412.72M 6.02,451.72
           C 4.25,457.96 6.62,465.41 13.02,467.72
             11.94,460.84 9.75,457.45 6.02,451.72 Z
           M 520.02,397.72
           C 515.22,388.71 507.79,393.14 501.02,392.72
             501.02,392.72 501.02,398.72 501.02,398.72
             501.02,398.72 520.02,397.72 520.02,397.72 Z
           M 164.02,366.72
           C 159.14,370.43 154.72,377.43 157.02,383.72
             157.02,383.72 164.02,366.72 164.02,366.72 Z
           M 258.02,576.72
           C 258.02,576.72 249.02,573.72 249.02,573.72
             246.77,578.58 246.56,580.56 248.02,585.72
             248.02,585.72 252.02,584.72 252.02,584.72
             252.02,584.72 258.02,576.72 258.02,576.72 Z
           M 222.02,520.72
           C 215.54,526.45 213.31,539.06 222.02,543.72
             218.34,529.85 221.75,532.81 222.02,520.72 Z
           M 597.02,449.72
           C 595.00,443.80 592.16,441.03 586.02,439.72
             586.47,445.98 588.04,447.97 593.02,451.72
             593.02,451.72 592.02,446.72 592.02,446.72
             592.02,446.72 597.02,449.72 597.02,449.72 Z
           M 536.02,363.72
           C 536.02,363.72 537.49,366.78 537.49,366.78
             537.49,366.78 555.02,370.72 555.02,370.72
             545.34,365.21 545.98,366.36 536.02,363.72 Z
           M 328.02,402.72
           C 328.02,406.35 334.47,414.57 337.02,417.72
             335.88,410.48 333.74,407.27 328.02,402.72 Z
           M 496.02,467.72
           C 498.49,475.72 513.53,474.62 519.02,470.72
             508.09,472.16 506.15,472.91 496.02,467.72 Z
           M 237.02,580.72
           C 238.14,578.17 239.71,574.46 240.08,571.72
             240.73,566.83 238.93,559.42 234.02,557.72
             234.02,565.17 233.13,574.08 237.02,580.72 Z
           M 23.02,407.72
           C 14.75,409.48 11.77,414.73 14.02,422.72
             18.52,418.90 21.84,413.52 23.02,407.72 Z
           M 542.02,244.72
           C 535.11,245.84 531.03,251.94 531.02,258.72
             531.02,258.72 542.02,244.72 542.02,244.72 Z
           M 332.02,513.72
           C 332.02,513.72 319.02,518.36 319.02,518.36
             319.02,518.36 306.02,516.72 306.02,516.72
             314.62,521.10 325.20,521.43 332.02,513.72 Z
           M 308.02,564.72
           C 301.72,570.04 300.94,580.93 307.02,586.72
             309.85,578.24 311.65,573.45 308.02,564.72 Z
           M 321.02,482.72
           C 315.69,486.76 311.08,494.84 313.02,501.72
             313.02,501.72 321.02,482.72 321.02,482.72 Z
           M 358.02,433.72
           C 358.02,433.72 356.49,424.72 356.49,424.72
             353.72,413.97 343.68,417.92 348.19,426.70
             348.93,428.13 349.91,429.27 351.13,430.30
             353.25,432.10 355.48,432.81 358.02,433.72 Z
           M 559.02,398.72
           C 555.02,392.32 550.17,390.73 543.02,389.72
             546.02,394.85 548.54,398.13 554.02,400.72
             554.02,400.72 551.02,394.72 551.02,394.72
             551.02,394.72 559.02,398.72 559.02,398.72 Z
           M 495.02,294.72
           C 489.05,296.12 483.28,298.18 479.02,302.72
             485.95,302.71 494.79,301.92 501.02,298.72
             501.02,298.72 494.02,297.72 494.02,297.72
             494.02,297.72 495.02,294.72 495.02,294.72 Z
           M 324.02,532.72
           C 322.41,539.46 331.52,547.07 338.02,544.72
             331.17,542.70 327.36,538.94 324.02,532.72 Z
           M 58.02,453.72
           C 54.90,461.59 58.45,470.11 66.02,473.72
             59.62,464.49 58.06,465.50 58.02,453.72 Z
           M 262.02,604.72
           C 259.79,604.27 254.48,602.57 252.62,603.83
             250.94,604.97 251.01,607.94 251.21,609.72
             251.98,616.37 255.50,619.96 262.02,620.72
             262.02,620.72 262.02,604.72 262.02,604.72 Z
           M 104.02,521.72
           C 104.02,521.72 94.02,527.91 94.02,527.91
             94.02,527.91 85.02,531.72 85.02,531.72
             93.48,531.69 100.89,530.82 104.02,521.72 Z
           M 173.02,170.73
           C 174.03,175.08 181.63,183.43 185.02,186.73
             184.06,176.08 181.54,175.67 173.02,170.73 Z
           M 277.02,408.72
           C 268.34,408.75 261.18,410.12 257.02,418.72
             257.02,418.72 277.02,408.72 277.02,408.72 Z
           M 21.02,434.72
           C 11.04,436.62 5.27,444.06 13.02,452.72
             13.02,452.72 21.02,434.72 21.02,434.72 Z
           M 235.02,526.72
           C 228.30,523.83 224.84,528.01 225.58,534.72
             226.20,540.35 229.68,544.45 234.02,547.72
             234.02,547.72 232.56,535.72 232.56,535.72
             232.56,535.72 235.02,526.72 235.02,526.72 Z
           M 507.02,191.73
           C 503.32,195.19 495.36,206.71 496.02,211.72
             496.02,211.72 507.02,191.73 507.02,191.73 Z
           M 243.02,438.72
           C 232.60,442.28 231.73,451.29 234.02,460.72
             243.52,456.07 237.58,451.66 243.02,438.72 Z
           M 202.02,387.72
           C 202.02,387.72 192.02,386.72 192.02,386.72
             190.84,395.68 189.46,404.08 200.02,407.72
             198.52,401.32 200.01,393.91 202.02,387.72 Z
           M 585.02,471.72
           C 584.45,464.95 580.24,451.40 571.02,456.72
             581.09,461.67 579.86,463.47 585.02,471.72 Z
           M 395.02,435.72
           C 395.01,426.60 394.90,413.76 382.02,419.72
             382.02,419.72 395.02,435.72 395.02,435.72 Z
           M 568.02,421.72
           C 567.97,426.26 571.23,426.53 568.02,430.72
             571.82,435.90 574.51,437.62 580.02,440.72
             579.57,431.58 576.17,426.10 568.02,421.72 Z
           M 468.02,510.72
           C 457.78,514.47 454.91,517.61 443.02,514.72
             446.63,521.47 456.27,520.88 462.02,517.02
             464.71,515.21 466.16,513.29 468.02,510.72 Z
           M 288.02,399.72
           C 280.32,397.15 273.37,393.49 266.02,398.72
             272.45,397.88 279.97,397.10 281.02,405.72
             281.02,405.72 285.02,406.72 285.02,406.72
             285.02,406.72 288.02,399.72 288.02,399.72 Z
           M 269.02,447.72
           C 266.91,447.84 265.05,447.83 263.12,448.89
             256.82,452.39 256.33,462.89 259.02,468.72
             259.64,465.43 260.23,461.63 262.03,458.76
             265.28,453.56 267.86,454.83 269.02,447.72 Z
           M 256.02,448.72
           C 256.02,448.72 254.02,448.72 254.02,448.72
             250.04,454.75 245.69,460.00 246.13,467.72
             246.24,469.81 247.87,477.72 251.46,475.55
             253.37,474.40 253.02,469.68 253.02,467.72
             253.04,458.33 253.06,457.77 256.02,448.72 Z
           M 240.14,461.72
           C 232.24,470.37 231.26,487.02 243.02,492.72
             243.02,492.72 238.44,481.72 238.44,481.72
             238.44,481.72 240.14,472.72 240.14,472.72
             240.14,472.72 240.14,461.72 240.14,461.72 Z
           M 338.02,588.72
           C 338.02,588.72 317.02,602.72 317.02,602.72
             327.35,602.71 335.62,600.17 338.02,588.72 Z
           M 54.02,390.72
           C 51.38,390.72 47.45,390.53 45.02,391.46
             39.41,393.60 34.03,400.66 36.02,406.72
             37.94,402.66 40.02,400.33 44.02,398.13
             48.88,395.46 52.07,396.60 54.02,390.72 Z
           M 251.02,538.72
           C 242.20,545.66 237.66,561.44 246.90,569.72
             246.41,565.07 245.57,562.46 246.90,557.72
             248.52,550.90 252.71,545.93 251.02,538.72 Z
           M 320.02,549.72
           C 320.02,549.72 298.44,556.39 291.02,553.72
             299.17,563.23 315.64,562.46 320.02,549.72 Z
           M 266.02,518.72
           C 250.82,522.54 250.43,539.67 262.02,543.72
             259.75,531.06 266.02,518.72 266.02,518.72 Z
           M 265.02,481.72
           C 252.87,487.52 252.71,504.76 261.64,513.72
             260.73,509.73 258.40,505.82 258.12,501.72
             257.54,493.39 260.92,488.45 265.02,481.72 Z
           M 280.02,547.72
           C 274.93,549.50 271.19,550.80 268.25,555.73
             264.35,562.26 269.15,571.65 276.02,573.72
             276.02,573.72 274.25,564.72 274.25,564.72
             274.25,564.72 280.02,547.72 280.02,547.72 Z
           M 353.02,442.72
           C 353.02,442.72 352.02,443.72 352.02,443.72
             357.16,447.40 361.46,451.65 363.63,457.72
             363.63,457.72 366.02,467.72 366.02,467.72
             366.02,456.33 366.20,446.61 353.02,442.72 Z
           M 40.02,458.72
           C 40.02,458.72 25.06,474.46 31.02,480.72
             32.02,473.36 34.78,475.64 38.81,473.64
             40.75,472.68 45.26,465.10 47.02,462.72
             47.02,462.72 40.02,458.72 40.02,458.72 Z
           M 460.02,443.72
           C 459.77,448.53 464.89,452.01 469.02,453.58
             477.71,456.88 490.61,454.60 495.02,445.72
             492.09,447.66 489.30,449.91 486.02,451.24
             475.41,455.55 467.51,451.03 460.02,443.72 Z
           M 579.02,503.72
           C 579.86,497.30 580.63,494.40 576.23,488.82
             572.20,483.71 564.48,480.40 560.02,486.72
             573.82,484.93 575.20,497.30 579.02,503.72 Z
           M 125.02,308.72
           C 114.26,301.63 101.84,310.48 99.02,321.72
             105.23,319.90 105.14,317.56 110.02,315.37
             116.88,312.30 119.17,315.94 125.02,308.72 Z
           M 65.02,398.72
           C 59.67,397.60 58.00,398.52 54.34,402.74
             48.90,409.01 47.78,415.82 50.02,423.72
             56.67,420.21 61.22,405.92 65.02,398.72 Z
           M 205.02,334.72
           C 205.02,334.72 204.02,335.72 204.02,335.72
             210.90,340.66 215.70,346.82 214.84,355.72
             214.48,359.50 212.47,362.97 213.02,366.72
             218.84,355.35 219.48,339.65 205.02,334.72 Z
           M 37.02,457.72
           C 36.48,452.53 36.27,449.36 39.14,444.72
             41.22,441.34 46.24,436.91 45.03,432.74
             43.40,427.06 38.62,428.46 35.55,431.91
             29.60,438.60 28.48,452.75 37.02,457.72 Z
           M 226.02,459.72
           C 218.16,465.48 214.72,472.99 216.23,482.72
             216.88,486.90 218.97,488.89 219.14,491.72
             219.39,496.14 216.06,497.29 218.02,502.72
             224.06,491.63 220.45,487.80 221.36,481.72
             221.36,481.72 223.66,473.72 223.66,473.72
             223.66,473.72 226.02,459.72 226.02,459.72 Z
           M 363.02,480.72
           C 357.12,486.97 355.46,491.71 346.02,492.72
             346.02,492.72 350.17,504.96 356.02,506.72
             356.02,506.72 363.02,480.72 363.02,480.72 Z
           M 250.02,490.72
           C 235.83,495.56 229.77,517.59 244.02,524.72
             243.31,520.78 242.54,516.71 243.41,512.72
             245.22,504.37 249.89,505.49 250.02,490.72 Z
           M 243.02,504.72
           C 243.02,504.72 245.02,504.72 245.02,504.72
             245.02,504.72 240.02,512.72 240.02,512.72
             240.02,512.72 243.02,504.72 243.02,504.72 Z
           M 403.02,419.72
           C 403.87,424.06 407.65,427.63 409.50,431.72
             414.79,443.39 411.71,449.53 406.02,459.72
             420.42,454.69 416.71,429.75 403.02,419.72 Z
           M 254.02,277.72
           C 239.38,272.84 232.31,271.42 217.02,269.57
             212.78,269.05 208.16,267.34 204.02,268.72
             204.02,268.72 216.02,271.28 216.02,271.28
             216.02,271.28 237.02,274.61 237.02,274.61
             241.58,275.66 249.80,278.86 254.02,277.72 Z
           M 453.02,479.72
           C 452.48,485.10 458.51,489.39 463.02,491.24
             472.99,495.31 485.86,492.25 490.02,481.72
             486.62,483.87 482.63,487.21 479.02,488.58
             468.80,492.46 460.11,486.47 453.02,479.72 Z
           M 475.02,304.72
           C 475.02,304.72 453.02,306.72 453.02,306.72
             453.02,306.72 417.02,306.72 417.02,306.72
             411.03,306.79 397.74,307.52 393.02,310.72
             405.48,308.96 402.51,308.70 416.02,308.72
             416.02,308.72 428.02,309.53 428.02,309.53
             428.02,309.53 435.02,308.55 435.02,308.55
             435.02,308.55 444.02,308.55 444.02,308.55
             451.83,308.76 468.51,308.53 475.02,304.72 Z
           M 463.02,213.72
           C 457.13,219.62 453.43,231.66 451.39,239.72
             450.47,243.37 448.99,247.03 450.02,250.72
             450.02,250.72 456.71,228.72 456.71,228.72
             456.71,228.72 463.02,213.72 463.02,213.72 Z
           M 278.02,425.72
           C 275.66,425.30 273.44,424.78 271.02,424.93
             261.97,425.50 248.19,434.24 252.02,444.72
             257.42,432.89 262.02,435.54 269.02,432.30
             271.88,430.97 275.58,427.84 278.02,425.72 Z
           M 299.02,512.72
           C 281.42,508.88 273.87,537.64 291.02,542.72
             287.22,528.38 291.10,524.18 299.02,512.72 Z
           M 562.02,440.72
           C 562.02,430.65 562.13,423.39 551.02,419.28
             541.81,415.87 536.63,420.10 538.19,423.32
             539.56,426.16 545.77,426.50 551.02,429.37
             557.77,433.05 557.61,435.81 562.02,440.72 Z
           M 235.02,433.72
           C 230.14,438.09 227.51,445.35 221.02,442.72
             214.86,452.74 210.73,449.05 204.02,451.72
             216.24,454.65 231.49,445.71 235.02,433.72 Z
           M 102.02,331.72
           C 91.20,327.22 81.50,330.47 76.95,341.72
             75.54,345.21 74.71,348.13 76.02,351.72
             77.68,346.10 80.03,342.72 86.02,341.25
             89.29,340.45 92.86,341.03 95.93,339.41
             99.05,337.75 100.53,334.75 102.02,331.72 Z
           M 60.02,383.72
           C 60.02,383.72 75.02,377.91 75.02,377.91
             79.97,376.02 92.52,367.04 82.91,362.33
             74.24,358.08 63.74,368.01 60.99,375.72
             59.95,378.64 60.05,380.71 60.02,383.72 Z
           M 426.02,414.72
           C 423.96,420.43 428.50,424.83 433.02,427.75
             440.95,432.88 454.26,434.24 461.02,426.72
             461.02,426.72 451.02,429.54 451.02,429.54
             440.36,430.84 429.17,425.39 426.02,414.72 Z
           M 454.02,362.72
           C 443.91,350.10 421.91,353.69 416.02,368.72
             421.65,370.36 437.59,375.39 435.02,363.72
             444.49,360.64 444.57,360.60 454.02,362.72 Z
           M 190.02,323.72
           C 178.14,321.39 166.69,332.07 169.02,340.72
             169.02,340.72 171.27,348.52 176.02,352.72
             176.04,345.30 175.42,337.82 180.41,331.76
             183.10,328.48 186.82,326.42 190.02,323.72 Z
           M 564.02,477.72
           C 564.02,473.32 564.44,466.72 562.87,462.72
             558.82,452.37 548.43,451.43 539.02,453.72
             542.02,463.83 549.25,460.80 556.00,465.42
             561.98,469.51 560.71,472.71 564.02,477.72 Z
           M 477.02,335.72
           C 462.42,326.32 439.38,327.74 431.02,344.72
             431.02,344.72 445.02,340.18 445.02,340.18
             445.02,340.18 456.02,338.72 456.02,338.72
             456.02,338.72 449.02,335.72 449.02,335.72
             454.70,333.59 461.00,333.04 467.02,334.04
             470.68,334.65 473.24,336.40 477.02,335.72 Z
           M 171.02,466.72
           C 167.98,470.77 168.73,474.92 165.37,479.72
             157.31,491.24 148.40,490.52 143.02,492.72
             161.35,492.71 169.53,485.14 171.02,466.72 Z
           M 539.02,403.72
           C 537.02,393.25 526.95,386.50 517.02,384.39
             510.12,382.92 503.36,383.66 502.02,391.72
             505.92,391.17 510.19,389.72 514.02,390.05
             526.00,391.07 530.68,396.48 539.02,403.72 Z
           M 238.02,340.72
           C 238.02,340.72 237.02,341.72 237.02,341.72
             246.86,346.20 255.68,356.23 252.22,367.72
             250.86,372.24 247.60,375.86 245.02,379.72
             262.31,373.81 258.97,345.97 238.02,340.72 Z
           M 369.02,415.72
           C 369.02,415.72 368.02,416.72 368.02,416.72
             376.11,422.47 386.43,431.47 383.23,442.72
             381.89,447.43 378.73,450.79 376.02,454.72
             378.60,453.84 379.83,453.43 381.91,451.50
             394.96,439.42 380.97,421.59 369.02,415.72 Z
           M 427.02,375.72
           C 424.13,374.89 421.05,373.91 418.02,373.90
             405.26,373.86 392.14,383.93 396.02,397.72
             396.02,397.72 405.02,394.24 405.02,394.24
             407.72,393.42 420.93,391.33 413.78,386.22
             413.78,386.22 411.02,384.72 411.02,384.72
             415.90,382.56 420.17,382.19 422.02,376.72
             422.02,376.72 427.02,375.72 427.02,375.72 Z
           M 86.02,439.72
           C 77.21,424.84 64.33,436.89 59.02,447.72
             61.09,451.44 59.76,459.75 64.19,461.23
             66.65,462.05 67.81,459.58 68.39,457.70
             68.39,457.70 69.63,452.72 69.63,452.72
             72.61,445.81 79.69,442.70 86.02,439.72 Z
           M 285.02,483.72
           C 279.08,476.59 270.40,477.04 265.12,484.74
             259.84,492.45 258.57,505.03 266.02,511.72
             266.17,495.82 272.79,491.72 285.02,483.72 Z
           M 302.02,440.72
           C 284.54,431.21 274.92,450.82 277.55,461.72
             278.33,464.95 283.18,473.20 287.42,470.59
             290.11,468.94 288.10,463.17 289.96,456.72
             291.95,449.81 297.29,445.72 302.02,440.72 Z
           M 177.02,292.72
           C 172.83,290.77 169.77,288.91 165.02,288.50
             152.35,287.43 141.03,296.70 138.02,308.72
             153.00,314.13 153.21,300.18 162.06,295.00
             168.54,291.20 171.75,294.47 177.02,292.72 Z
           M 308.02,396.11
           C 298.32,397.65 290.93,404.69 290.11,414.72
             289.74,419.33 290.27,429.09 296.88,429.09
             300.82,429.09 300.22,423.15 302.59,418.72
             306.06,412.22 314.09,407.17 315.36,402.72
             316.82,397.64 311.87,396.25 308.02,396.11 Z
           M 307.02,329.72
           C 286.66,321.63 263.62,325.89 246.02,338.72
             247.75,339.41 249.07,340.13 251.02,340.06
             251.02,340.06 268.02,333.47 268.02,333.47
             275.44,331.08 283.24,329.73 291.02,329.72
             294.64,329.71 304.43,330.45 307.02,329.72 Z
           M 547.02,505.72
           C 545.29,510.09 546.62,513.27 544.87,517.72
             541.86,525.43 533.13,530.22 525.02,529.53
             520.37,529.14 516.12,526.16 512.02,526.72
             522.72,532.64 539.94,534.43 545.93,520.72
             547.51,517.11 547.02,509.84 547.02,505.72 Z
           M 319.02,471.72
           C 300.88,466.73 289.41,491.62 297.02,504.72
             297.02,504.72 298.02,499.72 298.02,499.72
             300.53,504.37 301.83,506.19 307.02,507.72
             305.48,498.92 304.95,491.80 309.78,483.72
             309.78,483.72 319.02,471.72 319.02,471.72 Z
           M 532.02,456.72
           C 533.35,446.62 532.98,438.11 524.00,431.28
             517.42,426.26 505.16,423.63 502.02,433.72
             512.97,430.17 521.83,433.12 527.61,443.72
             527.61,443.72 532.02,456.72 532.02,456.72 Z
           M 206.02,297.95
           C 202.10,297.72 195.65,297.50 192.02,297.95
             178.61,300.72 170.14,310.12 170.02,323.72
             170.02,323.72 192.02,302.37 192.02,302.37
             192.02,302.37 206.02,297.95 206.02,297.95 Z
           M 395.02,461.72
           C 395.02,461.72 394.02,462.72 394.02,462.72
             405.15,471.58 407.66,487.33 398.63,498.72
             393.65,505.00 391.65,504.25 386.02,507.72
             388.82,507.69 391.36,507.79 394.02,506.71
             409.44,500.44 411.60,470.71 395.02,461.72 Z
           M 340.02,436.72
           C 337.47,435.59 334.88,434.29 332.02,434.35
             319.05,434.61 313.19,450.93 317.15,461.72
             319.22,467.36 325.40,474.83 332.02,473.72
             325.27,469.15 318.69,463.70 321.02,454.72
             323.68,459.66 325.08,461.06 330.02,463.72
             328.92,448.83 332.33,448.21 340.02,436.72 Z
           M 529.02,373.72
           C 528.57,364.03 525.90,357.15 517.02,352.08
             506.65,346.17 492.27,348.24 490.02,361.72
             490.02,361.72 501.02,357.72 501.02,357.72
             509.36,355.70 518.06,357.91 523.63,364.76
             523.63,364.76 529.02,373.72 529.02,373.72 Z
           M 276.02,584.72
           C 273.88,588.41 274.02,590.56 274.02,594.72
             274.02,615.83 296.24,620.36 306.02,610.72
             297.23,613.20 291.42,616.86 283.65,608.95
             281.88,607.16 280.22,605.27 279.76,602.71
             279.01,598.48 282.36,591.63 284.02,587.72
             284.02,587.72 276.02,584.72 276.02,584.72 Z
           M 147.02,316.72
           C 147.02,316.72 139.02,314.91 139.02,314.91
             132.53,314.20 122.85,317.49 118.12,321.93
             111.22,328.42 108.37,340.76 120.02,343.72
             120.02,343.72 121.54,333.72 121.54,333.72
             123.36,326.65 130.35,320.76 137.02,318.35
             141.33,316.80 143.28,317.98 147.02,316.72 Z
           M 165.02,354.72
           C 159.34,353.70 155.48,352.98 150.02,355.72
             138.46,361.53 133.06,380.25 141.02,390.72
             141.02,390.72 140.02,379.89 140.02,379.89
             142.14,380.67 143.37,381.66 145.63,379.89
             147.32,378.88 151.55,371.10 153.23,368.72
             157.50,362.65 162.39,360.02 165.02,354.72 Z
           M 500.02,389.72
           C 499.28,376.48 487.12,365.32 474.02,364.48
             468.20,364.11 462.17,365.48 459.02,370.72
             459.02,370.72 459.02,384.72 459.02,384.72
             470.39,375.51 463.58,381.56 474.02,376.72
             475.51,371.06 479.72,372.76 484.02,374.60
             493.78,378.77 494.58,381.74 500.02,389.72 Z
           M 389.02,511.72
           C 389.20,515.94 370.02,553.72 370.02,553.72
             377.93,553.65 384.32,551.81 389.81,545.68
             397.11,537.53 397.33,519.19 389.02,511.72 Z
           M 125.02,359.72
           C 121.45,356.66 119.01,353.48 114.02,352.92
             102.31,351.61 93.26,362.72 93.04,373.72
             92.95,378.04 95.00,389.94 101.80,387.32
             104.66,386.22 107.48,376.97 109.49,373.72
             115.59,363.84 119.46,365.09 125.02,359.72 Z
           M 102.02,397.72
           C 94.75,388.29 81.29,390.31 74.87,399.73
             70.11,406.72 70.49,414.48 74.35,421.72
             76.30,425.39 77.34,426.81 81.02,428.72
             79.71,426.17 78.19,423.54 77.55,420.72
             76.84,417.55 77.28,414.70 78.50,411.72
             82.95,400.84 92.32,400.89 102.02,397.72 Z
           M 401.02,371.72
           C 401.02,371.72 370.02,353.44 370.02,353.44
             364.66,350.39 360.99,346.29 356.02,351.72
             356.02,351.72 387.02,369.72 387.02,369.72
             392.60,373.42 395.40,377.43 401.02,371.72 Z
           M 185.12,371.72
           C 184.28,376.70 187.38,379.57 185.12,386.72
             182.28,396.49 171.23,404.09 161.02,403.33
             156.02,402.96 152.79,404.23 158.02,405.48
             179.58,410.64 191.14,387.28 188.59,377.72
             187.88,375.07 186.65,373.79 185.12,371.72 Z
           M 326.02,332.72
           C 323.78,326.08 311.39,322.73 305.02,321.10
             285.61,316.13 269.10,319.57 251.02,327.30
             246.68,329.16 239.87,332.19 236.02,334.72
             236.02,334.72 240.02,334.72 240.02,334.72
             246.86,334.60 252.63,331.28 259.02,329.06
             270.33,325.14 274.95,323.58 287.02,323.72
             303.03,323.91 312.60,332.42 326.02,332.72 Z
           M 164.02,161.73
           C 158.10,157.78 153.18,153.18 146.02,151.73
             149.85,160.64 156.52,181.55 162.35,187.52
             164.73,189.96 182.32,198.56 186.02,199.73
             186.02,199.73 177.02,188.73 177.02,188.73
             177.02,188.73 151.02,157.73 151.02,157.73
             151.02,157.73 174.02,178.73 174.02,178.73
             171.19,172.10 166.03,167.74 161.02,162.73
             161.02,162.73 164.02,161.73 164.02,161.73 Z
           M 471.02,407.72
           C 466.24,396.71 458.00,387.99 445.02,388.90
             445.02,388.90 437.02,389.72 437.02,389.72
             438.75,394.03 441.16,401.48 447.02,401.19
             451.49,400.96 453.22,395.67 460.01,399.87
             464.50,402.64 466.88,406.74 468.26,411.72
             468.98,414.32 469.20,418.25 470.87,420.29
             472.82,422.66 480.00,425.11 478.02,415.72
             478.02,415.72 497.02,421.72 497.02,421.72
             495.57,409.17 481.89,404.63 471.02,407.72 Z
           M 392.02,381.72
           C 388.14,374.21 370.74,365.24 363.02,360.73
             360.49,359.25 353.78,355.33 351.02,355.42
             345.45,355.61 345.05,361.56 345.02,365.72
             345.02,365.72 346.02,399.72 346.02,399.72
             346.02,399.72 355.02,393.72 355.02,393.72
             355.02,393.72 351.02,402.72 351.02,402.72
             357.25,400.74 359.54,397.90 365.02,395.05
             365.02,395.05 374.60,390.99 374.60,390.99
             381.88,385.73 381.16,382.71 392.02,381.72 Z
           M 220.02,233.72
           C 215.70,227.70 212.15,225.71 207.02,220.71
             192.10,206.15 195.12,208.30 177.02,197.74
             170.31,193.83 163.90,190.12 156.02,189.73
             162.00,201.35 167.37,202.83 177.02,210.38
             192.06,222.16 199.80,230.87 220.02,233.72 Z
           M 356.02,272.72
           C 356.02,272.72 346.86,279.10 346.86,279.10
             346.86,279.10 338.89,302.72 338.89,302.72
             338.89,302.72 333.06,333.72 333.06,333.72
             333.06,333.72 333.06,341.72 333.06,341.72
             333.06,341.72 332.02,353.72 332.02,353.72
             332.02,353.72 333.02,376.72 333.02,376.72
             333.02,376.72 334.00,398.30 334.00,398.30
             334.00,398.30 340.02,404.72 340.02,404.72
             340.02,377.17 337.17,351.27 341.44,323.72
             342.76,315.24 345.84,302.79 348.71,294.72
             350.96,288.40 355.04,278.97 356.02,272.72 Z
           M 317.02,386.72
           C 317.02,386.72 327.56,365.72 327.56,365.72
             328.49,361.82 327.83,357.31 327.56,353.30
             327.85,350.84 328.42,345.15 327.56,343.14
             325.72,339.57 313.87,337.29 310.02,336.64
             290.81,333.40 273.28,334.93 256.02,344.72
             256.02,344.72 271.59,342.41 280.02,350.72
             271.68,349.15 271.39,348.01 263.02,350.72
             263.02,350.72 272.02,358.72 272.02,358.72
             272.02,358.72 258.02,353.72 258.02,353.72
             259.66,358.62 260.73,362.41 263.81,366.72
             267.36,371.70 270.95,373.88 274.55,379.72
             280.58,389.50 275.87,393.22 288.02,395.25
             296.46,396.66 298.22,391.02 312.02,390.72
             312.04,383.90 311.77,381.63 317.02,376.72
             317.02,376.72 317.02,386.72 317.02,386.72 Z
           M 267.02,200.73
           C 263.99,209.45 269.51,212.94 274.02,219.72
             279.18,227.50 284.42,237.10 288.01,245.72
             288.01,245.72 295.02,263.72 295.02,263.72
             294.70,256.72 292.69,249.19 290.00,242.72
             287.93,237.72 285.06,235.16 285.02,229.72
             285.02,229.72 294.58,248.72 294.58,248.72
             294.58,248.72 300.23,272.72 300.23,272.72
             300.23,272.72 304.76,288.72 304.76,288.72
             304.76,288.72 314.02,294.72 314.02,294.72
             314.02,294.72 312.47,283.72 312.47,283.72
             312.47,283.72 308.82,274.72 308.82,274.72
             308.82,274.72 305.48,259.72 305.48,259.72
             303.72,252.08 304.70,246.37 300.02,238.72
             300.02,238.72 298.02,243.72 298.02,243.72
             298.02,243.72 298.02,236.72 298.02,236.72
             292.29,235.03 290.25,228.66 288.07,223.72
             288.07,223.72 279.02,207.72 279.02,207.72
             279.02,207.72 278.02,215.72 278.02,215.72
             275.51,207.97 272.67,206.37 267.02,200.73 Z
           M 99.02,459.72
           C 92.24,452.59 94.20,438.41 101.12,431.93
             104.59,428.69 107.67,428.02 112.02,426.72
             110.36,422.53 108.74,418.25 108.35,413.72
             107.54,404.37 113.73,392.27 123.02,389.54
             126.67,388.23 130.41,388.84 134.02,389.54
             128.94,395.81 121.75,398.82 120.36,407.72
             119.90,410.67 120.63,413.78 121.02,416.72
             121.02,416.72 113.02,415.72 113.02,415.72
             120.58,436.78 145.01,437.03 152.80,422.72
             155.80,416.63 153.89,412.91 152.80,406.72
             156.66,410.41 156.13,412.74 156.01,417.72
             155.70,429.68 147.52,436.40 136.02,437.39
             132.07,437.74 126.67,436.37 123.02,434.84
             120.56,433.81 117.75,431.82 115.02,432.81
             109.27,434.92 105.63,444.32 104.02,449.72
             101.68,445.69 102.03,443.23 102.02,438.72
             96.49,446.56 97.48,449.66 98.67,457.34
             98.79,458.08 105.02,464.72 105.02,464.72
             105.02,464.72 119.02,467.72 119.02,467.72
             113.84,469.77 108.81,468.04 104.02,465.72
             104.02,465.72 98.91,458.88 99.02,459.72 Z
           M 195.02,254.72
           C 190.43,251.55 185.06,245.80 179.02,247.72
             188.34,254.41 187.43,258.88 200.02,263.66
             211.81,268.13 232.26,266.54 252.02,274.73
             252.02,274.73 278.02,286.02 278.02,286.02
             278.02,286.02 288.02,287.81 288.02,287.81
             291.74,288.52 295.27,290.40 299.02,289.72
             299.02,289.72 262.02,267.27 262.02,267.27
             257.71,265.63 239.49,261.34 235.02,261.14
             230.69,260.86 226.89,262.54 221.02,261.14
             211.24,258.95 203.16,251.29 193.02,250.72
             193.02,250.72 195.02,254.72 195.02,254.72 Z
           M 183.02,169.73
           C 182.79,173.35 185.14,176.23 186.09,179.73
             187.47,184.76 186.48,187.12 188.33,190.73
             190.75,195.44 206.65,210.68 211.33,214.03
             209.25,206.31 199.25,187.17 195.02,179.73
             204.36,188.88 213.74,214.27 217.99,220.71
             221.12,225.46 237.69,238.15 243.02,241.72
             240.14,229.42 230.79,211.39 222.74,201.73
             217.33,195.24 214.76,193.35 209.02,187.73
             223.65,196.14 232.91,210.65 239.71,225.72
             242.53,231.98 244.63,243.41 249.02,247.72
             245.49,222.72 230.35,202.06 213.02,184.73
             213.02,184.73 232.02,201.73 232.02,201.73
             232.02,201.73 230.03,189.17 230.03,189.17
             230.03,189.17 215.02,176.73 215.02,176.73
             215.02,176.73 215.02,182.73 215.02,182.73
             215.02,182.73 199.02,169.73 199.02,169.73
             199.02,169.73 200.02,175.73 200.02,175.73
             200.02,175.73 195.02,170.73 195.02,170.73
             195.02,170.73 196.02,175.73 196.02,175.73
             196.02,175.73 188.25,176.19 183.02,169.73 Z
           M 158.02,203.73
           C 159.18,207.61 163.81,209.85 167.02,212.06
             172.96,216.15 176.73,218.74 181.02,224.72
             174.46,219.03 167.44,212.38 159.02,209.72
             159.02,209.72 163.02,219.72 163.02,219.72
             163.02,219.72 159.02,220.72 159.02,220.72
             164.91,222.60 167.64,222.75 172.02,227.72
             172.02,227.72 163.02,223.72 163.02,223.72
             165.85,229.00 166.69,229.19 164.02,234.72
             173.53,244.01 172.00,241.42 183.02,245.26
             183.02,245.26 191.02,248.21 191.02,248.21
             194.87,249.19 195.81,248.84 200.02,250.60
             205.84,253.02 231.57,258.63 237.02,259.04
             241.95,259.42 247.26,261.55 252.02,259.72
             243.94,256.36 201.26,246.63 192.02,243.14
             182.48,239.54 174.61,238.47 168.02,229.72
             177.59,237.79 182.15,237.41 193.02,241.53
             201.97,244.93 231.97,252.94 242.02,252.49
             230.10,236.44 213.90,237.54 198.02,228.68
             198.02,228.68 168.06,205.56 168.06,205.56
             168.06,205.56 158.02,203.73 158.02,203.73 Z
           M 529.02,261.72
           C 518.63,268.55 521.45,265.23 515.02,268.82
             515.02,268.82 500.02,277.83 500.02,277.83
             488.88,283.74 474.65,287.70 462.02,287.72
             462.02,287.72 423.02,288.72 423.02,288.72
             421.07,288.73 418.89,288.67 417.02,289.28
             411.78,290.98 403.23,299.25 400.02,303.72
             400.02,303.72 425.02,303.72 425.02,303.72
             425.02,303.72 439.02,302.72 439.02,302.72
             439.02,302.72 424.02,301.72 424.02,301.72
             424.02,301.72 408.02,302.61 408.02,302.61
             419.93,292.59 442.11,304.32 453.02,302.61
             459.44,301.43 472.11,291.36 482.02,290.72
             476.11,293.61 472.99,295.18 471.02,301.72
             471.02,301.72 488.02,294.51 488.02,294.51
             492.18,293.40 493.59,294.38 497.02,293.65
             504.38,292.08 517.69,284.43 521.02,277.72
             521.02,277.72 512.02,278.72 512.02,278.72
             512.02,278.72 511.02,274.72 511.02,274.72
             519.26,273.43 525.64,269.57 529.02,261.72 Z
           M 233.87,182.73
           C 231.49,188.67 232.90,190.95 233.87,196.73
             233.87,196.73 234.65,205.72 234.65,205.72
             234.65,205.72 247.01,231.72 247.01,231.72
             249.07,236.68 252.57,248.06 255.44,251.68
             258.71,255.82 265.11,259.84 270.02,261.72
             269.40,233.18 259.99,220.20 240.02,200.73
             250.38,205.36 250.02,207.72 250.02,207.72
             257.69,218.57 265.45,224.91 269.58,238.72
             271.20,244.12 272.48,252.06 273.29,257.72
             273.89,261.91 273.51,265.31 276.02,268.72
             276.02,268.72 282.95,272.82 284.02,277.72
             284.02,277.72 303.02,287.72 303.02,287.72
             303.02,287.72 296.02,268.72 296.02,268.72
             296.02,268.72 295.02,270.72 295.02,270.72
             291.03,255.94 278.66,230.41 269.99,217.72
             269.99,217.72 259.81,204.72 259.81,204.72
             259.81,204.72 250.02,188.73 250.02,188.73
             250.02,188.73 245.02,194.73 245.02,194.73
             245.02,194.73 246.02,191.73 246.02,191.73
             246.02,191.73 233.87,182.73 233.87,182.73 Z
           M 569.02,152.73
           C 557.33,153.78 551.45,159.83 542.02,165.73
             542.02,165.73 542.02,159.73 542.02,159.73
             531.56,159.96 522.11,162.58 513.02,167.73
             513.02,167.73 513.02,162.73 513.02,162.73
             509.41,164.80 508.92,168.85 508.02,172.73
             508.02,172.73 518.02,167.73 518.02,167.73
             510.07,176.59 501.96,177.27 496.02,180.80
             491.60,183.43 486.02,189.53 483.02,193.73
             483.02,193.73 498.02,188.73 498.02,188.73
             494.52,190.42 477.52,200.04 475.20,202.12
             466.23,210.15 457.72,232.68 456.02,244.72
             462.20,242.10 480.15,228.98 484.09,223.71
             484.09,223.71 498.71,198.73 498.71,198.73
             509.05,182.51 513.57,176.25 529.02,164.73
             529.02,164.73 509.97,192.73 509.97,192.73
             509.97,192.73 500.02,210.72 500.02,210.72
             500.02,210.72 522.02,190.89 522.02,190.89
             522.02,190.89 549.02,169.14 549.02,169.14
             549.02,169.14 565.02,155.73 565.02,155.73
             565.02,155.73 547.02,175.73 547.02,175.73
             547.02,175.73 560.02,168.73 560.02,168.73
             560.02,168.73 524.02,198.45 524.02,198.45
             524.02,198.45 509.02,212.72 509.02,212.72
             509.02,212.72 543.02,201.06 543.02,201.06
             543.02,201.06 557.32,195.91 557.32,195.91
             557.32,195.91 561.02,187.73 561.02,187.73
             561.02,187.73 550.02,189.73 550.02,189.73
             556.84,179.50 565.83,164.55 569.02,152.73 Z
           M 557.02,197.73
           C 557.02,197.73 520.02,212.30 520.02,212.30
             507.12,217.16 496.83,219.98 488.02,231.72
             507.05,227.38 530.34,214.23 548.02,205.72
             535.81,216.82 510.74,226.84 495.02,232.91
             495.02,232.91 480.02,238.54 480.02,238.54
             474.28,241.53 461.68,252.80 457.02,257.72
             476.17,255.14 509.29,245.99 526.02,236.72
             515.26,245.46 489.84,254.20 476.02,257.30
             470.14,258.61 455.19,260.30 451.02,262.72
             451.02,262.72 464.02,263.63 464.02,263.63
             481.70,262.51 498.49,255.99 514.02,247.72
             517.94,245.63 528.96,239.95 531.59,237.19
             536.43,232.13 534.12,222.69 541.02,215.72
             541.02,215.72 537.02,232.72 537.02,232.72
             537.02,232.72 543.02,226.72 543.02,226.72
             542.12,235.67 526.28,243.43 519.02,247.57
             506.10,254.94 490.66,262.33 476.02,265.27
             476.02,265.27 454.02,267.72 454.02,267.72
             450.87,267.75 445.87,267.43 443.02,268.44
             438.97,269.89 431.14,276.52 428.02,279.72
             448.09,279.72 473.67,281.74 492.02,273.41
             500.71,269.46 510.73,261.03 518.02,254.72
             514.45,261.36 508.36,265.66 502.02,269.52
             485.57,279.52 467.80,281.35 449.02,282.63
             442.50,283.08 427.20,283.08 422.02,285.72
             422.02,285.72 438.02,284.72 438.02,284.72
             453.40,284.70 467.95,285.59 483.02,281.57
             494.77,278.43 505.99,271.40 516.02,264.72
             518.76,262.90 525.88,258.55 527.72,256.51
             531.10,252.79 529.78,250.10 534.24,244.72
             542.45,234.84 547.87,231.32 554.02,218.72
             554.02,218.72 547.02,219.72 547.02,219.72
             551.62,210.29 554.36,209.38 557.02,197.73 Z
           M 484.02,163.73
           C 472.74,166.03 473.17,173.57 463.02,175.73
             463.02,175.73 463.02,166.73 463.02,166.73
             457.14,170.78 461.26,177.44 453.02,184.73
             453.02,184.73 458.02,169.73 458.02,169.73
             447.35,171.73 446.42,176.07 439.02,182.43
             433.43,187.24 428.72,189.84 422.02,192.73
             422.02,192.73 422.02,188.73 422.02,188.73
             416.80,193.10 415.35,196.00 415.02,202.73
             415.02,202.73 439.02,189.73 439.02,189.73
             427.74,202.83 413.37,203.01 414.02,215.72
             414.02,215.72 427.02,214.72 427.02,214.72
             427.02,214.72 413.74,219.54 413.74,219.54
             413.74,219.54 410.23,226.72 410.23,226.72
             410.23,226.72 404.02,244.72 404.02,244.72
             404.02,244.72 413.02,236.72 413.02,236.72
             407.91,246.39 403.98,246.62 400.72,250.32
             397.97,253.43 395.90,259.72 397.02,263.72
             397.02,263.72 406.02,254.72 406.02,254.72
             400.75,262.16 396.17,267.63 393.92,276.72
             390.87,289.02 393.34,297.82 384.02,307.72
             388.18,295.25 389.72,281.65 392.22,268.72
             392.22,268.72 394.77,256.72 394.77,256.72
             398.43,245.25 409.51,226.18 410.02,215.72
             399.79,224.38 394.50,242.47 389.02,249.72
             387.94,244.20 389.60,239.08 391.02,233.72
             391.02,233.72 393.02,236.72 393.02,236.72
             393.02,236.72 400.02,222.72 400.02,222.72
             400.02,222.72 392.02,218.72 392.02,218.72
             392.02,218.72 385.62,243.72 385.62,243.72
             385.62,243.72 387.02,248.72 387.02,248.72
             387.02,248.72 383.02,248.72 383.02,248.72
             383.02,248.72 384.98,275.72 384.98,275.72
             384.57,285.09 381.39,286.72 380.25,290.89
             378.44,297.53 379.25,302.47 376.14,309.72
             370.88,321.97 357.77,337.26 355.02,343.72
             355.02,343.72 371.45,324.72 371.45,324.72
             371.45,324.72 394.02,300.72 394.02,300.72
             393.19,295.86 397.41,294.14 400.35,290.63
             404.46,285.74 406.89,279.74 408.83,273.72
             410.67,267.98 412.99,261.64 413.89,255.72
             414.74,250.04 414.97,240.39 416.63,235.72
             418.79,229.68 423.48,227.31 426.34,221.72
             426.34,221.72 431.69,206.72 431.69,206.72
             431.69,206.72 441.67,192.73 441.67,192.73
             441.67,192.73 449.02,175.73 449.02,175.73
             447.59,192.72 438.21,198.69 435.01,203.82
             435.01,203.82 429.11,220.72 429.11,220.72
             425.95,227.23 421.93,228.09 419.47,232.76
             416.92,237.60 417.38,244.43 416.85,249.72
             416.35,254.72 413.46,261.02 415.02,265.72
             415.02,265.72 417.60,255.72 417.60,255.72
             417.60,255.72 420.54,240.72 420.54,240.72
             420.54,240.72 423.02,235.72 423.02,235.72
             423.02,235.72 419.26,263.72 419.26,263.72
             419.26,263.72 419.26,273.63 419.26,273.63
             419.26,273.63 411.02,282.72 411.02,282.72
             411.02,282.72 409.02,280.72 409.02,280.72
             409.02,280.72 394.02,299.72 394.02,299.72
             394.02,299.72 406.02,289.14 406.02,289.14
             406.02,289.14 430.02,270.09 430.02,270.09
             437.40,264.56 457.23,250.84 462.02,244.72
             457.23,246.76 453.35,249.73 450.02,253.72
             450.02,253.72 430.89,267.01 425.02,270.72
             430.50,265.69 440.41,258.54 444.03,252.72
             444.03,252.72 452.84,226.72 452.84,226.72
             457.63,214.85 473.54,191.01 483.02,182.73
             483.02,182.73 473.02,198.73 473.02,198.73
             473.02,198.73 490.02,183.04 490.02,183.04
             490.02,183.04 502.39,175.10 502.39,175.10
             502.39,175.10 508.02,165.73 508.02,165.73
             497.93,167.06 498.42,166.74 489.02,170.73
             489.02,170.73 483.02,168.73 483.02,168.73
             483.02,168.73 484.02,163.73 484.02,163.73 Z
           M 476.02,168.73
           C 476.02,168.73 478.02,168.73 478.02,168.73
             478.02,168.73 478.02,180.73 478.02,180.73
             478.02,180.73 485.02,177.73 485.02,177.73
             483.03,180.84 479.93,182.30 477.02,184.55
             477.02,184.55 466.02,192.68 466.02,192.68
             460.88,195.95 453.52,199.80 449.11,203.55
             441.39,210.10 433.94,228.93 430.02,238.72
             430.02,238.72 437.55,231.63 437.55,231.63
             441.45,227.17 444.77,218.93 452.02,220.72
             441.78,227.26 437.44,240.39 424.02,246.72
             424.81,237.98 430.92,228.67 434.76,220.72
             438.18,213.65 438.94,208.56 445.06,202.91
             451.77,196.71 469.36,188.82 473.42,182.69
             475.57,179.46 474.79,173.79 476.02,168.73 Z" />
  <path id="Blackberry Outline"
        fill="none" stroke="orange" stroke-width="1"
        d="M 138.02,147.73
           C 157.11,147.73 161.92,153.63 175.02,166.73
             175.02,166.73 174.02,161.73 174.02,161.73
             174.02,161.73 193.02,168.73 193.02,168.73
             193.02,168.73 195.02,160.73 195.02,160.73
             195.02,160.73 211.02,174.73 211.02,174.73
             211.02,174.73 211.02,168.73 211.02,168.73
             216.95,170.56 216.93,173.46 221.11,177.64
             223.79,180.32 227.03,182.41 230.02,184.73
             230.02,184.73 227.02,175.73 227.02,175.73
             234.81,177.21 237.93,181.17 244.02,185.73
             244.02,185.73 244.02,179.73 244.02,179.73
             244.02,179.73 261.02,194.81 261.02,194.81
             262.47,191.64 263.75,192.97 266.04,194.81
             270.41,198.56 271.46,201.10 277.02,203.73
             277.02,203.73 276.02,199.73 276.02,199.73
             282.14,201.80 285.58,212.05 288.02,217.72
             288.02,217.72 292.02,213.72 292.02,213.72
             292.02,213.72 297.02,230.72 297.02,230.72
             297.02,230.72 300.02,228.72 300.02,228.72
             307.15,243.83 308.02,243.03 308.02,259.72
             308.02,259.72 311.02,257.72 311.02,257.72
             312.44,266.50 308.76,267.88 314.02,278.72
             314.02,278.72 316.79,274.72 316.79,274.72
             316.98,279.02 315.77,285.15 316.79,288.72
             318.06,295.58 323.44,300.14 327.24,305.72
             327.24,305.72 332.02,313.72 332.02,313.72
             332.41,305.43 336.34,293.75 339.02,285.72
             341.08,279.54 341.44,276.21 347.06,272.31
             349.46,270.65 358.46,263.23 360.96,266.36
             363.13,269.09 358.25,281.50 357.07,284.72
             350.39,303.01 348.39,316.00 345.02,334.72
             346.63,335.18 349.94,336.55 351.44,336.15
             353.64,335.56 357.21,331.47 358.73,329.72
             363.28,324.50 368.62,316.79 371.98,310.72
             377.87,300.10 374.76,297.70 376.88,289.72
             378.50,283.62 381.05,284.24 381.00,276.72
             381.00,276.72 378.70,250.72 378.70,250.72
             379.42,242.59 382.59,238.93 385.41,231.72
             388.06,224.92 387.19,214.37 394.02,210.72
             394.02,210.72 397.02,218.72 397.02,218.72
             402.21,212.33 401.62,211.26 405.00,204.72
             408.84,197.31 416.46,186.30 424.02,182.73
             424.02,182.73 425.02,187.73 425.02,187.73
             425.02,187.73 444.06,170.53 444.06,170.53
             444.06,170.53 466.02,160.73 466.02,160.73
             466.02,160.73 467.02,170.73 467.02,170.73
             473.54,164.27 477.45,160.26 487.02,159.73
             487.02,159.73 487.02,165.73 487.02,165.73
             487.02,165.73 502.02,162.25 502.02,162.25
             502.02,162.25 514.02,154.73 514.02,154.73
             514.02,154.73 515.02,161.73 515.02,161.73
             522.60,157.44 527.47,156.72 536.02,155.78
             540.67,155.27 543.29,153.84 545.02,158.73
             552.03,154.35 556.66,150.65 565.02,148.63
             567.36,148.07 572.20,146.90 573.24,150.04
             573.85,151.88 571.92,157.74 571.28,159.73
             568.38,168.67 563.99,175.47 560.02,183.73
             560.02,183.73 567.02,184.73 567.02,184.73
             564.94,195.06 561.22,205.56 556.02,214.72
             556.02,214.72 563.02,214.72 563.02,214.72
             560.87,221.22 548.75,236.61 544.02,242.72
             544.02,242.72 548.02,246.72 548.02,246.72
             548.02,246.72 525.02,273.72 525.02,273.72
             525.02,273.72 529.02,275.72 529.02,275.72
             524.30,285.71 513.29,290.77 504.02,295.72
             504.02,295.72 508.02,296.72 508.02,296.72
             508.02,296.72 508.02,299.72 508.02,299.72
             483.38,311.52 474.88,312.72 448.02,312.72
             447.96,318.09 443.96,316.26 440.02,315.89
             440.02,315.89 416.02,312.72 416.02,312.72
             416.02,312.72 417.02,315.72 417.02,315.72
             411.65,315.60 406.41,314.31 401.02,315.01
             381.22,317.58 374.20,329.69 362.02,343.72
             370.55,347.41 385.77,356.84 394.02,362.04
             396.51,363.61 404.28,369.08 406.87,368.71
             411.10,368.10 409.89,359.83 410.11,356.72
             410.77,347.24 414.33,338.90 423.02,334.13
             431.46,329.50 450.25,324.61 460.02,324.72
             471.79,324.86 475.84,330.27 481.02,330.76
             481.02,330.76 491.02,329.73 491.02,329.73
             497.86,329.58 505.08,330.60 511.02,334.20
             518.15,338.52 518.63,342.29 522.40,346.44
             522.40,346.44 528.85,352.73 528.85,352.73
             530.13,354.09 531.69,356.07 533.19,357.12
             535.70,358.89 539.91,359.04 543.02,359.88
             548.60,361.38 554.61,364.16 558.93,368.04
             566.62,374.95 568.04,383.50 570.58,386.23
             572.61,388.41 579.97,391.18 586.49,399.72
             592.45,407.53 591.00,413.81 592.86,417.72
             592.86,417.72 596.89,423.72 596.89,423.72
             596.89,423.72 606.34,439.72 606.34,439.72
             609.03,445.11 608.62,449.85 609.58,452.72
             611.43,458.33 618.66,464.66 617.69,475.72
             617.02,483.36 613.34,486.89 612.80,490.72
             612.33,494.06 614.22,497.64 613.84,502.72
             612.94,514.51 606.55,524.02 594.02,524.72
             592.78,538.34 579.36,549.24 566.02,550.39
             561.21,550.81 557.03,549.17 553.02,546.72
             547.21,553.67 538.86,556.22 530.02,554.19
             530.02,554.19 520.02,550.56 520.02,550.56
             520.02,550.56 509.02,550.56 509.02,550.56
             497.32,550.22 491.40,545.06 487.02,543.65
             481.47,542.38 474.81,546.79 463.02,543.65
             453.58,540.72 451.37,534.47 446.85,532.15
             444.27,530.83 439.34,530.66 436.02,529.68
             428.29,527.39 425.12,524.79 420.02,518.72
             416.95,525.85 418.27,523.65 417.98,530.72
             417.65,538.57 414.56,540.41 412.48,545.72
             411.05,549.39 410.76,552.81 408.61,556.72
             406.22,561.04 404.28,561.77 401.41,565.00
             398.66,568.09 398.59,569.83 394.92,573.55
             392.41,576.10 386.51,581.24 384.60,584.00
             381.88,587.95 384.12,591.26 380.61,597.72
             372.94,611.80 360.09,608.15 353.02,609.72
             356.22,621.95 344.95,634.17 333.02,635.50
             328.96,635.79 327.18,634.22 324.02,635.50
             320.48,637.20 314.64,644.77 304.02,645.63
             295.80,646.29 288.43,645.22 282.06,639.51
             278.51,636.32 277.32,633.21 274.81,631.74
             272.34,630.29 269.94,631.22 264.02,628.89
             253.13,624.61 247.08,617.45 246.02,605.72
             230.87,602.84 223.98,585.79 226.34,571.72
             227.24,566.39 230.36,561.35 233.02,556.72
             222.08,553.60 212.03,547.12 211.23,534.72
             210.93,530.08 213.27,523.72 213.35,520.72
             213.47,515.93 210.41,514.21 210.06,506.72
             209.62,497.36 211.87,496.62 212.38,492.72
             212.71,490.16 211.55,486.36 211.02,483.72
             208.56,485.38 204.29,487.24 202.65,489.02
             199.99,491.92 198.32,498.80 191.01,503.24
             183.92,507.54 178.56,505.00 175.34,506.78
             175.34,506.78 167.98,513.79 167.98,513.79
             160.23,519.70 153.08,520.12 144.02,517.72
             135.83,532.98 120.19,534.60 107.02,524.72
             99.58,536.41 93.00,537.87 80.02,537.72
             76.79,537.68 75.20,537.59 72.02,536.82
             64.75,535.05 58.70,532.62 57.02,524.72
             45.62,527.53 36.03,527.38 27.19,518.55
             23.03,514.39 22.30,511.49 19.39,507.81
             15.69,503.13 7.19,499.38 2.86,490.72
             -0.83,483.34 1.73,480.44 2.86,473.72
             3.43,470.30 1.81,467.94 0.95,464.72
             -0.07,460.92 -0.02,457.61 0.02,453.72
             0.18,440.49 7.51,434.01 8.83,429.72
             9.55,426.75 6.60,419.22 8.83,410.72
             11.61,401.07 17.96,399.86 21.81,396.33
             26.77,391.79 28.30,384.43 41.02,383.72
             37.44,373.91 38.45,362.50 46.12,354.82
             50.41,350.54 53.96,350.31 57.43,346.51
             61.51,342.03 62.25,339.48 68.02,335.68
             68.02,335.68 73.85,332.09 73.85,332.09
             80.14,327.11 79.47,322.91 94.02,321.72
             96.92,303.23 118.27,292.75 135.02,299.72
             141.87,286.97 158.20,279.69 172.02,284.81
             179.56,287.61 181.90,292.08 185.19,292.97
             187.32,293.54 193.88,291.88 197.02,291.76
             207.28,291.36 216.30,295.26 222.39,303.72
             222.39,303.72 228.02,313.72 228.02,313.72
             229.41,307.55 231.30,304.20 230.02,297.72
             236.40,302.98 230.78,313.48 229.02,319.72
             229.02,319.72 235.34,307.72 235.34,307.72
             235.34,307.72 244.02,292.72 244.02,292.72
             244.02,292.72 247.02,293.72 247.02,293.72
             241.42,306.25 236.58,307.07 233.02,324.72
             234.88,325.09 237.62,325.85 239.44,325.67
             239.44,325.67 269.02,315.61 269.02,315.61
             287.85,310.91 309.19,314.18 326.02,323.72
             323.48,307.61 306.00,297.96 291.02,295.86
             291.02,295.86 278.02,295.86 278.02,295.86
             278.02,295.86 280.02,292.72 280.02,292.72
             280.02,292.72 268.02,289.60 268.02,289.60
             256.59,286.59 244.88,283.98 233.02,283.72
             233.02,283.72 237.02,279.72 237.02,279.72
             228.49,279.02 220.18,276.71 212.02,274.29
             212.02,274.29 198.02,270.69 198.02,270.69
             187.01,267.19 171.07,258.39 166.02,247.72
             166.02,247.72 171.02,246.72 171.02,246.72
             164.47,240.23 159.96,237.38 156.02,228.72
             156.02,228.72 161.02,228.72 161.02,228.72
             157.49,223.45 154.36,221.10 153.02,214.72
             153.02,214.72 159.02,215.72 159.02,215.72
             153.75,209.63 148.27,203.61 146.02,195.73
             146.02,195.73 158.02,199.73 158.02,199.73
             154.48,194.41 150.31,189.09 149.02,182.73
             149.02,182.73 155.02,183.73 155.02,183.73
             155.02,183.73 145.35,159.73 145.35,159.73
             145.35,159.73 138.02,147.73 138.02,147.73 Z" />
  <path id="Letter Details"
        fill="none" stroke="lime" stroke-width="1"
        d="M 107.09,650.02
           C 107.09,650.02 96.77,642.67 96.77,642.67
             96.77,642.67 109.41,624.92 109.41,624.92
             109.41,624.92 118.64,631.49 118.64,631.49
             123.38,634.87 126.36,637.99 127.58,640.86
             128.80,643.73 128.31,646.70 126.12,649.78
             123.97,652.80 121.46,654.45 118.59,654.73
             115.72,655.00 111.89,653.43 107.09,650.02 Z
           M 92.59,648.53
           C 92.59,648.53 103.31,656.16 103.31,656.16
             108.47,659.84 111.41,663.29 112.14,666.52
             112.86,669.74 112.19,672.82 110.11,675.74
             107.88,678.86 105.12,680.71 101.81,681.26
             98.51,681.82 94.38,680.33 89.43,676.80
             89.43,676.80 78.17,668.78 78.17,668.78
             78.17,668.78 92.59,648.53 92.59,648.53 Z
           M 194.12,39.75
           C 194.12,39.75 207.86,57.07 207.86,57.07
             207.86,57.07 187.24,63.82 187.24,63.82
             187.24,63.82 188.18,41.69 188.18,41.69
             188.21,40.54 188.21,38.97 188.17,37.00
             188.13,35.03 188.01,33.03 187.82,31.00
             188.30,31.65 188.97,32.60 189.81,33.84
             190.65,35.08 191.49,36.26 192.34,37.40
             193.18,38.54 193.77,39.32 194.12,39.75 Z
           M 243.34,35.93
           C 244.94,32.66 248.32,30.57 253.49,29.65
             258.15,28.82 261.91,29.95 264.76,33.02
             267.61,36.09 269.55,40.52 270.58,46.32
             271.25,50.10 271.35,53.54 270.90,56.64
             270.44,59.75 269.37,62.33 267.69,64.38
             266.00,66.43 263.62,67.73 260.53,68.28
             254.98,69.26 250.89,68.25 248.24,65.24
             245.60,62.23 243.72,57.61 242.61,51.37
             242.61,51.37 242.33,49.76 242.33,49.76
             241.41,43.82 241.74,39.21 243.34,35.93 Z
           M 319.94,710.84
           C 321.79,707.54 325.43,705.67 330.85,705.23
             340.10,704.47 345.25,710.56 346.32,723.51
             346.84,729.89 346.11,734.86 344.12,738.43
             342.13,742.00 338.84,743.97 334.25,744.34
             328.64,744.80 324.66,743.45 322.31,740.27
             319.96,737.09 318.53,732.34 318.01,726.03
             318.01,726.03 317.98,725.64 317.98,725.64
             317.44,719.07 318.10,714.14 319.94,710.84 Z
           M 177.54,704.14
           C 177.54,704.14 184.70,706.64 184.70,706.64
             184.70,706.64 183.02,710.93 183.02,710.93
             181.20,715.58 178.52,718.49 174.96,719.68
             171.40,720.86 167.60,720.66 163.55,719.08
             160.98,718.08 159.13,716.63 157.98,714.73
             156.83,712.84 156.78,710.55 157.83,707.87
             159.02,704.83 161.09,702.93 164.03,702.16
             166.98,701.39 171.48,702.05 177.54,704.14 Z
           M 459.53,46.72
           C 462.58,45.00 466.01,44.79 469.83,46.08
             473.89,47.44 476.43,49.73 477.44,52.94
             478.46,56.15 478.30,59.83 476.98,63.98
             476.98,63.98 452.13,55.62 452.13,55.62
             454.03,51.40 456.49,48.43 459.53,46.72 Z
           M 376.18,701.98
           C 377.81,698.90 380.57,696.85 384.48,695.85
             388.63,694.79 392.01,695.34 394.60,697.48
             397.20,699.63 399.06,702.80 400.20,707.00
             400.20,707.00 374.81,713.48 374.81,713.48
             374.10,708.91 374.56,705.07 376.18,701.98 Z
           M 313.17,43.91
           C 313.17,43.91 320.73,43.28 320.73,43.28
             320.73,43.28 320.94,47.89 320.94,47.89
             321.16,52.87 319.89,56.63 317.12,59.16
             314.35,61.68 310.79,63.04 306.44,63.24
             303.69,63.36 301.41,62.79 299.59,61.53
             297.77,60.26 296.80,58.19 296.67,55.31
             296.53,52.05 297.64,49.47 300.02,47.57
             302.41,45.67 306.79,44.45 313.17,43.91 Z" />
  <path id="Letter Outlines"
        fill="none" stroke="green" stroke-width="1"
        d="M 122.61,625.24
           C 122.61,625.24 106.66,613.88 106.66,613.88
             106.66,613.88 66.90,669.72 66.90,669.72
             66.90,669.72 86.53,683.69 86.53,683.69
             92.52,687.96 98.24,689.95 103.67,689.66
             109.11,689.36 113.62,686.69 117.23,681.63
             119.30,678.71 120.45,675.95 120.65,673.35
             120.86,670.74 120.36,668.27 119.16,665.92
             117.96,663.57 116.32,661.38 114.24,659.35
             114.24,659.35 114.52,658.96 114.52,658.96
             118.40,660.78 122.03,661.26 125.39,660.40
             128.76,659.53 131.61,657.46 133.95,654.18
             137.59,649.07 138.35,644.21 136.25,639.61
             134.15,635.01 129.60,630.22 122.61,625.24 Z
           M 475.01,651.25
           C 475.01,651.25 522.45,680.36 522.45,680.36
             522.45,680.36 524.35,687.43 524.35,687.43
             525.17,690.25 525.34,692.88 524.87,695.30
             524.40,697.72 522.98,699.81 520.61,701.57
             519.74,702.22 518.87,702.78 518.00,703.27
             517.12,703.76 516.37,704.16 515.72,704.48
             515.72,704.48 519.73,709.88 519.73,709.88
             520.51,709.53 521.41,709.08 522.43,708.53
             523.45,707.97 524.58,707.23 525.81,706.32
             529.82,703.34 532.11,699.85 532.68,695.84
             533.25,691.83 532.81,687.33 531.35,682.36
             531.35,682.36 514.24,622.12 514.24,622.12
             514.24,622.12 506.92,627.56 506.92,627.56
             506.92,627.56 515.92,657.23 515.92,657.23
             516.76,659.87 517.62,662.48 518.50,665.06
             519.38,667.63 520.14,669.68 520.78,671.19
             520.78,671.19 520.47,671.42 520.47,671.42
             518.91,669.95 517.12,668.51 515.11,667.09
             513.10,665.68 510.95,664.23 508.65,662.74
             508.65,662.74 482.26,645.87 482.26,645.87
             482.26,645.87 475.01,651.25 475.01,651.25 Z
           M 227.15,81.17
           C 227.15,81.17 235.63,78.40 235.63,78.40
             235.63,78.40 188.88,21.26 188.88,21.26
             188.88,21.26 181.49,23.68 181.49,23.68
             181.49,23.68 177.42,97.43 177.42,97.43
             177.42,97.43 185.72,94.71 185.72,94.71
             185.72,94.71 186.89,72.01 186.89,72.01
             186.89,72.01 212.71,63.57 212.71,63.57
             212.71,63.57 227.15,81.17 227.15,81.17 Z
           M 401.47,22.63
           C 401.47,22.63 405.55,1.61 405.55,1.61
             405.55,1.61 397.26,0.00 397.26,0.00
             397.26,0.00 383.35,71.62 383.35,71.62
             383.35,71.62 391.64,73.23 391.64,73.23
             391.64,73.23 396.71,47.13 396.71,47.13
             397.86,41.22 399.79,36.89 402.52,34.12
             405.24,31.36 409.42,30.53 415.08,31.62
             422.62,33.09 425.60,37.87 424.03,45.98
             424.03,45.98 417.75,78.30 417.75,78.30
             417.75,78.30 425.95,79.89 425.95,79.89
             425.95,79.89 432.33,47.00 432.33,47.00
             433.59,40.53 432.96,35.54 430.45,32.02
             427.94,28.50 423.61,26.14 417.45,24.95
             414.18,24.31 411.02,24.38 407.97,25.16
             404.92,25.94 402.33,27.45 400.19,29.71
             400.19,29.71 399.63,29.60 399.63,29.60
             400.37,27.46 400.98,25.14 401.47,22.63 Z
           M 269.99,26.24
           C 265.41,22.57 260.00,21.28 253.76,22.39
             249.67,23.11 246.52,24.45 244.33,26.40
             242.14,28.35 240.49,30.56 239.37,33.03
             239.37,33.03 238.99,33.10 238.99,33.10
             238.99,33.10 236.63,26.40 236.63,26.40
             236.63,26.40 229.82,27.60 229.82,27.60
             229.82,27.60 242.82,100.96 242.82,100.96
             242.82,100.96 251.14,99.48 251.14,99.48
             251.14,99.48 247.46,78.69 247.46,78.69
             247.24,77.49 246.93,76.08 246.51,74.47
             246.10,72.85 245.73,71.52 245.41,70.47
             245.41,70.47 245.98,70.37 245.98,70.37
             247.78,72.07 250.08,73.43 252.90,74.46
             255.71,75.49 259.07,75.65 262.98,74.96
             269.28,73.85 273.94,70.71 276.96,65.56
             279.98,60.41 280.73,53.52 279.20,44.89
             277.65,36.13 274.58,29.91 269.99,26.24 Z
           M 315.59,696.56
           C 315.59,696.56 314.14,678.86 314.14,678.86
             314.14,678.86 305.72,679.55 305.72,679.55
             305.72,679.55 311.69,752.26 311.69,752.26
             311.69,752.26 317.72,751.77 317.72,751.77
             317.72,751.77 318.90,745.12 318.90,745.12
             318.90,745.12 319.57,745.07 319.57,745.07
             321.21,746.99 323.36,748.58 326.03,749.83
             328.70,751.09 332.05,751.56 336.07,751.23
             342.38,750.71 347.30,748.06 350.83,743.27
             354.35,738.49 355.75,731.70 355.03,722.89
             354.31,714.09 351.84,707.63 347.61,703.51
             343.39,699.40 338.09,697.60 331.71,698.13
             327.69,698.45 324.47,699.46 322.04,701.13
             319.61,702.81 317.75,704.79 316.46,707.08
             316.46,707.08 315.98,707.12 315.98,707.12
             316.02,706.03 316.01,704.53 315.95,702.65
             315.89,700.76 315.77,698.73 315.59,696.56 Z
           M 265.56,715.13
           C 265.56,715.13 268.59,677.14 268.59,677.14
             268.59,677.14 260.26,676.47 260.26,676.47
             260.26,676.47 254.47,749.20 254.47,749.20
             254.47,749.20 262.79,749.87 262.79,749.87
             262.79,749.87 264.29,731.01 264.29,731.01
             264.29,731.01 270.54,726.41 270.54,726.41
             270.54,726.41 286.43,751.75 286.43,751.75
             286.43,751.75 296.57,752.56 296.57,752.56
             296.57,752.56 276.71,721.41 276.71,721.41
             276.71,721.41 299.22,701.15 299.22,701.15
             299.22,701.15 289.37,700.36 289.37,700.36
             289.37,700.36 271.62,716.38 271.62,716.38
             271.00,716.97 270.25,717.73 269.37,718.66
             268.49,719.58 267.64,720.49 266.79,721.39
             265.95,722.29 265.32,722.97 264.90,723.45
             264.90,723.45 264.51,723.42 264.51,723.42
             264.67,722.22 264.87,720.79 265.10,719.14
             265.32,717.48 265.48,716.15 265.56,715.13 Z
           M 196.68,686.58
           C 194.88,682.92 191.06,679.95 185.22,677.66
             182.12,676.45 178.98,675.69 175.81,675.37
             172.63,675.06 169.78,675.06 167.25,675.37
             167.25,675.37 167.35,682.22 167.35,682.22
             169.69,682.03 172.14,682.01 174.70,682.15
             177.25,682.30 179.78,682.86 182.29,683.84
             185.45,685.07 187.59,686.80 188.71,689.03
             189.83,691.26 189.61,694.36 188.05,698.36
             188.05,698.36 186.93,701.22 186.93,701.22
             186.93,701.22 178.69,698.30 178.69,698.30
             170.79,695.49 164.45,694.64 159.68,695.76
             154.91,696.89 151.59,699.83 149.73,704.60
             147.82,709.49 147.84,713.64 149.80,717.05
             151.77,720.46 154.92,723.02 159.27,724.73
             163.33,726.31 166.75,726.93 169.53,726.57
             172.31,726.22 175.26,725.14 178.37,723.33
             178.37,723.33 178.73,723.47 178.73,723.47
             178.73,723.47 177.59,730.86 177.59,730.86
             177.59,730.86 183.31,733.10 183.31,733.10
             183.31,733.10 196.08,700.47 196.08,700.47
             198.28,694.87 198.47,690.24 196.68,686.58 Z
           M 163.90,645.48
           C 163.90,645.48 129.56,709.86 129.56,709.86
             129.56,709.86 122.11,705.88 122.11,705.88
             122.11,705.88 156.44,641.50 156.44,641.50
             156.44,641.50 163.90,645.48 163.90,645.48 Z
           M 481.99,45.91
           C 479.60,43.08 476.31,40.96 472.12,39.55
             467.81,38.11 463.69,37.87 459.75,38.84
             455.81,39.81 452.31,41.91 449.23,45.13
             446.16,48.35 443.72,52.63 441.93,57.96
             440.11,63.36 439.56,68.26 440.28,72.65
             441.00,77.05 442.81,80.78 445.73,83.85
             448.65,86.93 452.41,89.24 457.02,90.79
             460.36,91.91 463.33,92.62 465.93,92.92
             468.53,93.22 471.25,93.25 474.11,92.99
             474.11,92.99 476.46,85.98 476.46,85.98
             473.55,86.22 470.80,86.22 468.21,85.99
             465.62,85.76 462.77,85.13 459.68,84.09
             454.83,82.46 451.53,79.75 449.80,75.96
             448.07,72.17 448.08,67.49 449.81,61.93
             449.81,61.93 483.21,73.16 483.21,73.16
             483.21,73.16 484.83,68.34 484.83,68.34
             486.32,63.91 486.81,59.77 486.32,55.92
             485.82,52.08 484.38,48.74 481.99,45.91 Z
           M 394.60,689.11
           C 391.05,688.03 387.14,688.04 382.86,689.13
             378.46,690.26 374.87,692.30 372.09,695.25
             369.31,698.21 367.50,701.87 366.67,706.25
             365.84,710.62 366.12,715.54 367.51,720.99
             368.92,726.51 371.12,730.92 374.11,734.22
             377.10,737.52 380.65,739.67 384.77,740.66
             388.89,741.66 393.30,741.56 398.02,740.35
             401.43,739.48 404.31,738.47 406.65,737.31
             409.00,736.15 411.30,734.68 413.56,732.92
             413.56,732.92 411.73,725.75 411.73,725.75
             409.41,727.54 407.10,729.03 404.80,730.25
             402.50,731.46 399.77,732.47 396.61,733.28
             391.65,734.55 387.41,734.06 383.90,731.82
             380.39,729.58 377.85,725.65 376.29,720.04
             376.29,720.04 410.42,711.33 410.42,711.33
             410.42,711.33 409.16,706.40 409.16,706.40
             408.01,701.87 406.18,698.13 403.67,695.17
             401.16,692.21 398.14,690.19 394.60,689.11 Z
           M 212.68,739.24
           C 215.73,741.84 219.47,743.64 223.90,744.65
             226.77,745.30 229.27,745.63 231.41,745.62
             233.54,745.62 235.55,745.37 237.44,744.88
             237.44,744.88 239.10,737.58 239.10,737.58
             237.17,737.99 235.09,738.24 232.87,738.32
             230.65,738.41 228.17,738.14 225.43,737.52
             220.68,736.43 217.48,734.01 215.81,730.25
             214.14,726.49 213.99,721.59 215.37,715.53
             218.25,702.87 224.63,697.65 234.49,699.90
             236.23,700.30 238.05,700.97 239.93,701.93
             241.81,702.88 243.44,703.81 244.81,704.71
             244.81,704.71 248.89,698.45 248.89,698.45
             247.57,697.37 245.78,696.28 243.53,695.21
             241.28,694.14 238.87,693.32 236.31,692.73
             231.82,691.71 227.61,691.70 223.67,692.71
             219.73,693.72 216.29,695.92 213.35,699.32
             210.41,702.72 208.24,707.51 206.83,713.69
             205.48,719.61 205.35,724.71 206.45,728.96
             207.55,733.21 209.63,736.64 212.68,739.24 Z
           M 323.54,20.09
           C 320.41,17.48 315.71,16.31 309.45,16.59
             306.12,16.74 302.95,17.32 299.92,18.32
             296.89,19.32 294.28,20.48 292.10,21.79
             292.10,21.79 294.97,28.00 294.97,28.00
             297.03,26.89 299.26,25.87 301.66,24.97
             304.05,24.06 306.59,23.54 309.27,23.42
             312.66,23.27 315.32,23.99 317.25,25.57
             319.18,27.14 320.24,30.08 320.43,34.36
             320.43,34.36 320.57,37.43 320.57,37.43
             320.57,37.43 311.85,38.11 311.85,38.11
             303.49,38.74 297.36,40.53 293.45,43.50
             289.55,46.46 287.71,50.49 287.94,55.61
             288.17,60.85 289.88,64.64 293.06,66.96
             296.24,69.28 300.16,70.34 304.83,70.13
             309.18,69.94 312.55,69.11 314.95,67.66
             317.35,66.21 319.61,64.03 321.72,61.11
             321.72,61.11 322.11,61.10 322.11,61.10
             322.11,61.10 324.06,68.31 324.06,68.31
             324.06,68.31 330.20,68.04 330.20,68.04
             330.20,68.04 328.64,33.03 328.64,33.03
             328.37,27.02 326.67,22.71 323.54,20.09 Z
           M 350.51,67.19
           C 353.92,69.29 357.90,70.50 362.43,70.82
             365.37,71.02 367.89,70.95 370.00,70.62
             372.11,70.29 374.05,69.73 375.84,68.96
             375.84,68.96 376.36,61.49 376.36,61.49
             374.51,62.19 372.50,62.76 370.32,63.19
             368.14,63.61 365.65,63.73 362.84,63.53
             357.99,63.19 354.45,61.29 352.22,57.83
             349.99,54.37 349.09,49.55 349.52,43.36
             350.43,30.40 355.92,24.27 366.01,24.97
             367.80,25.09 369.69,25.48 371.70,26.14
             373.71,26.79 375.46,27.46 376.95,28.14
             376.95,28.14 380.02,21.33 380.02,21.33
             378.54,20.45 376.61,19.66 374.22,18.95
             371.83,18.24 369.33,17.79 366.71,17.61
             362.12,17.29 357.95,17.93 354.21,19.53
             350.48,21.13 347.42,23.83 345.04,27.65
             342.65,31.46 341.24,36.52 340.80,42.84
             340.38,48.91 341.04,53.96 342.78,57.99
             344.52,62.03 347.09,65.10 350.51,67.19 Z
           M 472.06,651.49
           C 471.04,651.95 470.11,652.42 469.27,652.88
             466.14,654.63 463.92,657.03 462.62,660.09
             461.33,663.16 460.64,666.33 460.55,669.60
             460.55,669.60 460.21,669.78 460.21,669.78
             460.21,669.78 454.80,662.03 454.80,662.03
             454.80,662.03 448.76,665.39 448.76,665.39
             448.76,665.39 473.78,710.36 473.78,710.36
             473.78,710.36 481.16,706.25 481.16,706.25
             481.16,706.25 467.81,682.26 467.81,682.26
             466.13,679.24 465.26,676.26 465.21,673.32
             465.15,670.39 465.78,667.73 467.09,665.36
             468.40,662.98 470.20,661.15 472.50,659.87
             473.28,659.44 474.14,659.04 475.07,658.67
             476.00,658.29 476.87,657.99 477.69,657.75
             477.69,657.75 474.83,650.45 474.83,650.45
             474.01,650.68 473.09,651.03 472.06,651.49 Z
           M 438.75,669.56
           C 437.67,669.90 436.69,670.25 435.81,670.61
             432.49,671.97 430.01,674.10 428.36,676.99
             426.71,679.88 425.65,682.95 425.18,686.19
             425.18,686.19 424.83,686.33 424.83,686.33
             424.83,686.33 420.37,677.99 420.37,677.99
             420.37,677.99 413.97,680.62 413.97,680.62
             413.97,680.62 433.53,728.22 433.53,728.22
             433.53,728.22 441.34,725.01 441.34,725.01
             441.34,725.01 430.91,699.61 430.91,699.61
             429.60,696.41 429.08,693.35 429.37,690.43
             429.66,687.51 430.59,684.95 432.18,682.74
             433.76,680.53 435.77,678.93 438.19,677.93
             439.02,677.59 439.92,677.29 440.89,677.04
             441.85,676.78 442.76,676.58 443.60,676.44
             443.60,676.44 441.62,668.85 441.62,668.85
             440.78,668.98 439.82,669.22 438.75,669.56 Z" />
</svg>
