<?xml version="1.0" encoding="UTF-8" standalone="no"?>
<!DOCTYPE svg PUBLIC "-//W3C//DTD SVG 20010904//EN"
              "http://www.w3.org/TR/2001/REC-SVG-20010904/DTD/svg10.dtd">

<svg xmlns="http://www.w3.org/2000/svg"
     width="4.82812in" height="3.89844in"
     viewBox="0 0 618 499">
  <path id="Blackberry"
        fill="none" stroke="black" stroke-width="1"
        d="M 138.00,0.00
           C 157.09,0.00 161.90,5.90 175.00,19.00
             175.00,19.00 174.00,14.00 174.00,14.00
             174.00,14.00 193.00,21.00 193.00,21.00
             193.00,21.00 195.00,13.00 195.00,13.00
             195.00,13.00 211.00,27.00 211.00,27.00
             211.00,27.00 211.00,21.00 211.00,21.00
             216.93,22.83 216.91,25.73 221.09,29.91
             223.77,32.59 227.01,34.68 230.00,37.00
             230.00,37.00 227.00,28.00 227.00,28.00
             234.79,29.48 237.91,33.44 244.00,38.00
             244.00,38.00 244.00,32.00 244.00,32.00
             244.00,32.00 261.00,47.08 261.00,47.08
             262.45,43.91 263.73,45.24 266.02,47.08
             270.39,50.83 271.44,53.37 277.00,56.00
             277.00,56.00 276.00,52.00 276.00,52.00
             282.12,54.07 285.56,64.33 288.00,70.00
             288.00,70.00 292.00,66.00 292.00,66.00
             292.00,66.00 297.00,83.00 297.00,83.00
             297.00,83.00 300.00,81.00 300.00,81.00
             307.13,96.11 308.00,95.31 308.00,112.00
             308.00,112.00 311.00,110.00 311.00,110.00
             312.42,118.78 308.74,120.16 314.00,131.00
             314.00,131.00 316.77,127.00 316.77,127.00
             316.96,131.30 315.75,137.43 316.77,141.00
             318.04,147.86 323.42,152.42 327.22,158.00
             327.22,158.00 332.00,166.00 332.00,166.00
             332.39,157.71 336.32,146.03 339.00,138.00
             341.06,131.82 341.42,128.49 347.04,124.59
             349.44,122.93 358.44,115.51 360.94,118.64
             363.11,121.37 358.23,133.78 357.05,137.00
             350.37,155.29 348.37,168.28 345.00,187.00
             346.61,187.46 349.92,188.83 351.42,188.43
             353.62,187.84 357.19,183.75 358.71,182.00
             363.26,176.78 368.60,169.07 371.96,163.00
             377.85,152.38 374.74,149.98 376.86,142.00
             378.48,135.90 381.03,136.52 380.98,129.00
             380.98,129.00 378.68,103.00 378.68,103.00
             379.40,94.87 382.57,91.21 385.39,84.00
             388.04,77.20 387.17,66.65 394.00,63.00
             394.00,63.00 397.00,71.00 397.00,71.00
             402.19,64.61 401.60,63.54 404.98,57.00
             408.82,49.58 416.44,38.57 424.00,35.00
             424.00,35.00 425.00,40.00 425.00,40.00
             425.00,40.00 444.04,22.80 444.04,22.80
             444.04,22.80 466.00,13.00 466.00,13.00
             466.00,13.00 467.00,23.00 467.00,23.00
             473.52,16.54 477.43,12.53 487.00,12.00
             487.00,12.00 487.00,18.00 487.00,18.00
             487.00,18.00 502.00,14.52 502.00,14.52
             502.00,14.52 514.00,7.00 514.00,7.00
             514.00,7.00 515.00,14.00 515.00,14.00
             522.58,9.71 527.45,8.99 536.00,8.05
             540.65,7.54 543.27,6.11 545.00,11.00
             552.01,6.62 556.64,2.92 565.00,0.90
             567.34,0.34 572.18,-0.83 573.22,2.31
             573.83,4.15 571.90,10.01 571.26,12.00
             568.36,20.94 563.97,27.74 560.00,36.00
             560.00,36.00 567.00,37.00 567.00,37.00
             564.92,47.33 561.20,57.83 556.00,67.00
             556.00,67.00 563.00,67.00 563.00,67.00
             560.85,73.50 548.73,88.89 544.00,95.00
             544.00,95.00 548.00,99.00 548.00,99.00
             548.00,99.00 525.00,126.00 525.00,126.00
             525.00,126.00 529.00,128.00 529.00,128.00
             524.28,137.99 513.27,143.05 504.00,148.00
             504.00,148.00 508.00,149.00 508.00,149.00
             508.00,149.00 508.00,152.00 508.00,152.00
             483.36,163.80 474.86,165.00 448.00,165.00
             447.94,170.37 443.94,168.54 440.00,168.17
             440.00,168.17 416.00,165.00 416.00,165.00
             416.00,165.00 417.00,168.00 417.00,168.00
             411.63,167.88 406.39,166.59 401.00,167.29
             381.20,169.86 374.18,181.97 362.00,196.00
             370.53,199.69 385.75,209.12 394.00,214.32
             396.49,215.89 404.26,221.36 406.85,220.99
             411.08,220.38 409.87,212.11 410.09,209.00
             410.75,199.52 414.31,191.18 423.00,186.41
             431.44,181.78 450.23,176.89 460.00,177.00
             471.77,177.14 475.82,182.55 481.00,183.04
             481.00,183.04 491.00,182.01 491.00,182.01
             497.84,181.86 505.06,182.88 511.00,186.48
             518.13,190.80 518.61,194.57 522.38,198.72
             522.38,198.72 528.83,205.01 528.83,205.01
             530.11,206.37 531.67,208.35 533.17,209.40
             535.68,211.17 539.89,211.32 543.00,212.16
             548.58,213.66 554.59,216.44 558.91,220.32
             566.60,227.23 568.02,235.78 570.56,238.51
             572.59,240.69 579.95,243.46 586.47,252.00
             592.43,259.81 590.98,266.09 592.84,270.00
             592.84,270.00 596.87,276.00 596.87,276.00
             596.87,276.00 606.32,292.00 606.32,292.00
             609.01,297.39 608.60,302.13 609.56,305.00
             611.41,310.61 618.64,316.94 617.67,328.00
             617.00,335.64 613.32,339.17 612.78,343.00
             612.31,346.34 614.20,349.92 613.82,355.00
             612.92,366.79 606.53,376.30 594.00,377.00
             592.76,390.62 579.34,401.52 566.00,402.67
             561.19,403.09 557.01,401.45 553.00,399.00
             547.19,405.95 538.84,408.50 530.00,406.47
             530.00,406.47 520.00,402.84 520.00,402.84
             520.00,402.84 509.00,402.84 509.00,402.84
             497.30,402.50 491.38,397.34 487.00,395.93
             481.45,394.66 474.79,399.07 463.00,395.93
             453.56,393.00 451.35,386.75 446.83,384.43
             444.25,383.11 439.32,382.94 436.00,381.96
             428.27,379.67 425.10,377.07 420.00,371.00
             416.93,378.13 418.25,375.93 417.96,383.00
             417.63,390.85 414.54,392.69 412.46,398.00
             411.03,401.67 410.74,405.09 408.59,409.00
             406.20,413.32 404.26,414.05 401.39,417.28
             398.64,420.37 398.57,422.11 394.90,425.83
             392.39,428.38 386.49,433.52 384.58,436.28
             381.86,440.23 384.10,443.54 380.59,450.00
             372.92,464.08 360.07,460.43 353.00,462.00
             356.20,474.23 344.93,486.45 333.00,487.78
             328.94,488.07 327.16,486.50 324.00,487.78
             320.46,489.48 314.62,497.05 304.00,497.91
             295.78,498.57 288.41,497.50 282.04,491.79
             278.49,488.60 277.30,485.49 274.79,484.02
             272.32,482.57 269.92,483.50 264.00,481.17
             253.11,476.89 247.06,469.73 246.00,458.00
             230.85,455.12 223.96,438.07 226.32,424.00
             227.22,418.67 230.34,413.63 233.00,409.00
             222.06,405.88 212.01,399.40 211.21,387.00
             210.91,382.36 213.25,376.00 213.33,373.00
             213.45,368.21 210.39,366.49 210.04,359.00
             209.60,349.64 211.85,348.90 212.36,345.00
             212.69,342.44 211.53,338.64 211.00,336.00
             208.54,337.66 204.27,339.52 202.63,341.30
             199.97,344.20 198.30,351.08 190.99,355.52
             183.90,359.82 178.54,357.28 175.32,359.06
             175.32,359.06 167.96,366.07 167.96,366.07
             160.21,371.98 153.06,372.40 144.00,370.00
             135.81,385.26 120.17,386.88 107.00,377.00
             99.56,388.69 92.98,390.15 80.00,390.00
             76.77,389.96 75.18,389.87 72.00,389.10
             64.73,387.33 58.68,384.90 57.00,377.00
             45.60,379.81 36.01,379.66 27.17,370.83
             23.01,366.67 22.28,363.77 19.37,360.09
             15.67,355.41 7.17,351.66 2.84,343.00
             -0.85,335.62 1.71,332.72 2.84,326.00
             3.41,322.58 1.79,320.22 0.93,317.00
             -0.09,313.20 -0.04,309.89 0.00,306.00
             0.16,292.77 7.49,286.29 8.81,282.00
             9.53,279.03 6.58,271.50 8.81,263.00
             11.59,253.35 17.94,252.14 21.79,248.61
             26.75,244.07 28.28,236.71 41.00,236.00
             37.42,226.19 38.43,214.78 46.10,207.10
             50.39,202.82 53.94,202.59 57.41,198.79
             61.49,194.31 62.23,191.76 68.00,187.96
             68.00,187.96 73.83,184.37 73.83,184.37
             80.12,179.39 79.45,175.19 94.00,174.00
             96.90,155.51 118.25,145.03 135.00,152.00
             141.85,139.25 158.18,131.97 172.00,137.09
             179.54,139.89 181.88,144.36 185.17,145.25
             187.30,145.82 193.86,144.16 197.00,144.04
             207.26,143.64 216.28,147.54 222.37,156.00
             222.37,156.00 228.00,166.00 228.00,166.00
             229.39,159.83 231.28,156.48 230.00,150.00
             236.38,155.26 230.76,165.76 229.00,172.00
             229.00,172.00 235.32,160.00 235.32,160.00
             235.32,160.00 244.00,145.00 244.00,145.00
             244.00,145.00 247.00,146.00 247.00,146.00
             241.40,158.53 236.56,159.35 233.00,177.00
             234.86,177.37 237.60,178.13 239.42,177.95
             239.42,177.95 269.00,167.89 269.00,167.89
             287.83,163.19 309.17,166.46 326.00,176.00
             323.46,159.89 305.98,150.24 291.00,148.14
             291.00,148.14 278.00,148.14 278.00,148.14
             278.00,148.14 280.00,145.00 280.00,145.00
             280.00,145.00 268.00,141.88 268.00,141.88
             256.57,138.87 244.86,136.26 233.00,136.00
             233.00,136.00 237.00,132.00 237.00,132.00
             228.47,131.30 220.16,128.99 212.00,126.57
             212.00,126.57 198.00,122.97 198.00,122.97
             186.99,119.47 171.05,110.67 166.00,100.00
             166.00,100.00 171.00,99.00 171.00,99.00
             164.45,92.51 159.94,89.66 156.00,81.00
             156.00,81.00 161.00,81.00 161.00,81.00
             157.47,75.73 154.34,73.38 153.00,67.00
             153.00,67.00 159.00,68.00 159.00,68.00
             153.73,61.91 148.25,55.88 146.00,48.00
             146.00,48.00 158.00,52.00 158.00,52.00
             154.46,46.68 150.29,41.36 149.00,35.00
             149.00,35.00 155.00,36.00 155.00,36.00
             155.00,36.00 145.33,12.00 145.33,12.00
             145.33,12.00 138.00,0.00 138.00,0.00 Z
           M 164.00,14.00
           C 158.08,10.05 153.16,5.45 146.00,4.00
             149.83,12.91 156.50,33.82 162.33,39.79
             164.71,42.23 182.30,50.83 186.00,52.00
             186.00,52.00 177.00,41.00 177.00,41.00
             177.00,41.00 151.00,10.00 151.00,10.00
             151.00,10.00 174.00,31.00 174.00,31.00
             171.17,24.37 166.01,20.01 161.00,15.00
             161.00,15.00 164.00,14.00 164.00,14.00 Z
           M 569.00,5.00
           C 557.31,6.05 551.43,12.10 542.00,18.00
             542.00,18.00 542.00,12.00 542.00,12.00
             531.54,12.23 522.09,14.85 513.00,20.00
             513.00,20.00 513.00,15.00 513.00,15.00
             509.39,17.07 508.90,21.12 508.00,25.00
             508.00,25.00 518.00,20.00 518.00,20.00
             510.05,28.86 501.94,29.54 496.00,33.07
             491.58,35.70 486.00,41.80 483.00,46.00
             483.00,46.00 498.00,41.00 498.00,41.00
             494.50,42.69 477.50,52.31 475.18,54.39
             466.21,62.43 457.70,84.96 456.00,97.00
             462.18,94.38 480.13,81.26 484.07,75.99
             484.07,75.99 498.69,51.00 498.69,51.00
             509.03,34.78 513.55,28.52 529.00,17.00
             529.00,17.00 509.95,45.00 509.95,45.00
             509.95,45.00 500.00,63.00 500.00,63.00
             500.00,63.00 522.00,43.16 522.00,43.16
             522.00,43.16 549.00,21.41 549.00,21.41
             549.00,21.41 565.00,8.00 565.00,8.00
             565.00,8.00 547.00,28.00 547.00,28.00
             547.00,28.00 560.00,21.00 560.00,21.00
             560.00,21.00 524.00,50.72 524.00,50.72
             524.00,50.72 509.00,65.00 509.00,65.00
             509.00,65.00 543.00,53.33 543.00,53.33
             543.00,53.33 557.30,48.18 557.30,48.18
             557.30,48.18 561.00,40.00 561.00,40.00
             561.00,40.00 550.00,42.00 550.00,42.00
             556.82,31.77 565.81,16.82 569.00,5.00 Z
           M 484.00,16.00
           C 472.72,18.30 473.15,25.84 463.00,28.00
             463.00,28.00 463.00,19.00 463.00,19.00
             457.12,23.05 461.24,29.71 453.00,37.00
             453.00,37.00 458.00,22.00 458.00,22.00
             447.33,24.00 446.40,28.34 439.00,34.70
             433.41,39.51 428.70,42.11 422.00,45.00
             422.00,45.00 422.00,41.00 422.00,41.00
             416.78,45.37 415.33,48.27 415.00,55.00
             415.00,55.00 439.00,42.00 439.00,42.00
             427.72,55.10 413.35,55.28 414.00,68.00
             414.00,68.00 427.00,67.00 427.00,67.00
             427.00,67.00 413.72,71.82 413.72,71.82
             413.72,71.82 410.21,79.00 410.21,79.00
             410.21,79.00 404.00,97.00 404.00,97.00
             404.00,97.00 413.00,89.00 413.00,89.00
             407.89,98.67 403.96,98.90 400.70,102.60
             397.95,105.71 395.88,112.00 397.00,116.00
             397.00,116.00 406.00,107.00 406.00,107.00
             400.73,114.44 396.15,119.91 393.90,129.00
             390.85,141.30 393.32,150.10 384.00,160.00
             388.16,147.53 389.70,133.93 392.20,121.00
             392.20,121.00 394.75,109.00 394.75,109.00
             398.41,97.53 409.49,78.46 410.00,68.00
             399.77,76.66 394.48,94.75 389.00,102.00
             387.92,96.48 389.58,91.36 391.00,86.00
             391.00,86.00 393.00,89.00 393.00,89.00
             393.00,89.00 400.00,75.00 400.00,75.00
             400.00,75.00 392.00,71.00 392.00,71.00
             392.00,71.00 385.60,96.00 385.60,96.00
             385.60,96.00 387.00,101.00 387.00,101.00
             387.00,101.00 383.00,101.00 383.00,101.00
             383.00,101.00 384.96,128.00 384.96,128.00
             384.55,137.37 381.37,139.00 380.23,143.17
             378.42,149.81 379.23,154.75 376.12,162.00
             370.86,174.25 357.75,189.54 355.00,196.00
             355.00,196.00 371.43,177.00 371.43,177.00
             371.43,177.00 394.00,153.00 394.00,153.00
             393.17,148.14 397.39,146.42 400.33,142.91
             404.44,138.02 406.87,132.02 408.81,126.00
             410.65,120.26 412.97,113.92 413.87,108.00
             414.72,102.32 414.95,92.67 416.61,88.00
             418.77,81.96 423.46,79.59 426.32,74.00
             426.32,74.00 431.67,59.00 431.67,59.00
             431.67,59.00 441.65,45.00 441.65,45.00
             441.65,45.00 449.00,28.00 449.00,28.00
             447.57,44.99 438.19,50.96 434.99,56.09
             434.99,56.09 429.09,73.00 429.09,73.00
             425.93,79.51 421.91,80.37 419.45,85.04
             416.90,89.88 417.36,96.71 416.83,102.00
             416.33,107.00 413.44,113.30 415.00,118.00
             415.00,118.00 417.58,108.00 417.58,108.00
             417.58,108.00 420.52,93.00 420.52,93.00
             420.52,93.00 423.00,88.00 423.00,88.00
             423.00,88.00 419.24,116.00 419.24,116.00
             419.24,116.00 419.24,125.91 419.24,125.91
             419.24,125.91 411.00,135.00 411.00,135.00
             411.00,135.00 409.00,133.00 409.00,133.00
             409.00,133.00 394.00,152.00 394.00,152.00
             394.00,152.00 406.00,141.42 406.00,141.42
             406.00,141.42 430.00,122.37 430.00,122.37
             437.38,116.84 457.21,103.12 462.00,97.00
             457.21,99.04 453.33,102.01 450.00,106.00
             450.00,106.00 430.87,119.29 425.00,123.00
             430.48,117.97 440.39,110.82 444.01,105.00
             444.01,105.00 452.82,79.00 452.82,79.00
             457.61,67.13 473.52,43.28 483.00,35.00
             483.00,35.00 473.00,51.00 473.00,51.00
             473.00,51.00 490.00,35.31 490.00,35.31
             490.00,35.31 502.37,27.37 502.37,27.37
             502.37,27.37 508.00,18.00 508.00,18.00
             497.91,19.33 498.40,19.01 489.00,23.00
             489.00,23.00 483.00,21.00 483.00,21.00
             483.00,21.00 484.00,16.00 484.00,16.00 Z
           M 183.00,22.00
           C 182.77,25.62 185.12,28.50 186.07,32.00
             187.45,37.03 186.46,39.39 188.31,43.00
             190.73,47.71 206.63,62.96 211.31,66.31
             209.23,58.58 199.23,39.44 195.00,32.00
             204.34,41.15 213.72,66.55 217.97,72.99
             221.10,77.74 237.67,90.43 243.00,94.00
             240.12,81.70 230.77,63.67 222.72,54.00
             217.31,47.51 214.74,45.62 209.00,40.00
             223.63,48.41 232.89,62.93 239.69,78.00
             242.51,84.26 244.61,95.69 249.00,100.00
             245.47,75.00 230.33,54.33 213.00,37.00
             213.00,37.00 232.00,54.00 232.00,54.00
             232.00,54.00 230.01,41.44 230.01,41.44
             230.01,41.44 215.00,29.00 215.00,29.00
             215.00,29.00 215.00,35.00 215.00,35.00
             215.00,35.00 199.00,22.00 199.00,22.00
             199.00,22.00 200.00,28.00 200.00,28.00
             200.00,28.00 195.00,23.00 195.00,23.00
             195.00,23.00 196.00,28.00 196.00,28.00
             196.00,28.00 188.23,28.46 183.00,22.00 Z
           M 476.00,21.00
           C 476.00,21.00 478.00,21.00 478.00,21.00
             478.00,21.00 478.00,33.00 478.00,33.00
             478.00,33.00 485.00,30.00 485.00,30.00
             483.01,33.11 479.91,34.57 477.00,36.82
             477.00,36.82 466.00,44.95 466.00,44.95
             460.86,48.22 453.50,52.07 449.09,55.82
             441.37,62.38 433.92,81.21 430.00,91.00
             430.00,91.00 437.53,83.91 437.53,83.91
             441.43,79.45 444.75,71.21 452.00,73.00
             441.76,79.54 437.42,92.67 424.00,99.00
             424.79,90.26 430.90,80.95 434.74,73.00
             438.16,65.93 438.92,60.84 445.04,55.18
             451.75,48.98 469.34,41.09 473.40,34.96
             475.55,31.73 474.77,26.06 476.00,21.00 Z
           M 173.00,23.00
           C 174.01,27.35 181.61,35.70 185.00,39.00
             184.04,28.35 181.52,27.94 173.00,23.00 Z
           M 233.85,35.00
           C 231.47,40.94 232.88,43.22 233.85,49.00
             233.85,49.00 234.63,58.00 234.63,58.00
             234.63,58.00 246.99,84.00 246.99,84.00
             249.05,88.96 252.55,100.34 255.42,103.96
             258.69,108.10 265.09,112.12 270.00,114.00
             269.38,85.46 259.97,72.48 240.00,53.00
             250.36,57.64 250.00,60.00 250.00,60.00
             257.67,70.85 265.43,77.19 269.56,91.00
             271.18,96.40 272.46,104.34 273.27,110.00
             273.87,114.19 273.49,117.59 276.00,121.00
             276.00,121.00 282.93,125.10 284.00,130.00
             284.00,130.00 303.00,140.00 303.00,140.00
             303.00,140.00 296.00,121.00 296.00,121.00
             296.00,121.00 295.00,123.00 295.00,123.00
             291.01,108.22 278.64,82.69 269.97,70.00
             269.97,70.00 259.79,57.00 259.79,57.00
             259.79,57.00 250.00,41.00 250.00,41.00
             250.00,41.00 245.00,47.00 245.00,47.00
             245.00,47.00 246.00,44.00 246.00,44.00
             246.00,44.00 233.85,35.00 233.85,35.00 Z
           M 220.00,86.00
           C 215.68,79.98 212.13,77.99 207.00,72.99
             192.08,58.43 195.10,60.58 177.00,50.01
             170.29,46.10 163.88,42.39 156.00,42.00
             161.98,53.62 167.35,55.10 177.00,62.66
             192.04,74.44 199.78,83.15 220.00,86.00 Z
           M 507.00,44.00
           C 503.30,47.46 495.34,58.99 496.00,64.00
             496.00,64.00 507.00,44.00 507.00,44.00 Z
           M 260.00,50.00
           C 259.48,53.96 261.17,55.50 264.00,58.00
             264.17,53.53 263.08,53.05 260.00,50.00 Z
           M 557.00,50.00
           C 557.00,50.00 520.00,64.58 520.00,64.58
             507.10,69.44 496.81,72.26 488.00,84.00
             507.03,79.66 530.32,66.51 548.00,58.00
             535.79,69.10 510.72,79.12 495.00,85.19
             495.00,85.19 480.00,90.82 480.00,90.82
             474.26,93.81 461.66,105.08 457.00,110.00
             476.15,107.42 509.27,98.27 526.00,89.00
             515.24,97.74 489.82,106.48 476.00,109.58
             470.12,110.89 455.17,112.58 451.00,115.00
             451.00,115.00 464.00,115.91 464.00,115.91
             481.68,114.79 498.47,108.27 514.00,100.00
             517.92,97.91 528.94,92.23 531.57,89.47
             536.41,84.41 534.10,74.97 541.00,68.00
             541.00,68.00 537.00,85.00 537.00,85.00
             537.00,85.00 543.00,79.00 543.00,79.00
             542.10,87.95 526.26,95.71 519.00,99.85
             506.08,107.22 490.64,114.61 476.00,117.55
             476.00,117.55 454.00,120.00 454.00,120.00
             450.85,120.03 445.85,119.71 443.00,120.72
             438.95,122.17 431.12,128.80 428.00,132.00
             448.07,132.00 473.65,134.02 492.00,125.69
             500.69,121.74 510.71,113.31 518.00,107.00
             514.43,113.64 508.34,117.94 502.00,121.80
             485.55,131.80 467.78,133.63 449.00,134.91
             442.48,135.36 427.18,135.36 422.00,138.00
             422.00,138.00 438.00,137.00 438.00,137.00
             453.38,136.98 467.93,137.87 483.00,133.85
             494.75,130.71 505.97,123.68 516.00,117.00
             518.74,115.18 525.86,110.83 527.70,108.79
             531.08,105.07 529.76,102.38 534.22,97.00
             542.43,87.12 547.85,83.60 554.00,71.00
             554.00,71.00 547.00,72.00 547.00,72.00
             551.60,62.57 554.34,61.66 557.00,50.00 Z
           M 267.00,53.00
           C 263.97,61.73 269.49,65.22 274.00,72.00
             279.16,79.78 284.40,89.38 287.99,98.00
             287.99,98.00 295.00,116.00 295.00,116.00
             294.68,109.00 292.67,101.47 289.98,95.00
             287.91,90.00 285.04,87.44 285.00,82.00
             285.00,82.00 294.56,101.00 294.56,101.00
             294.56,101.00 300.21,125.00 300.21,125.00
             300.21,125.00 304.74,141.00 304.74,141.00
             304.74,141.00 314.00,147.00 314.00,147.00
             314.00,147.00 312.45,136.00 312.45,136.00
             312.45,136.00 308.80,127.00 308.80,127.00
             308.80,127.00 305.46,112.00 305.46,112.00
             303.70,104.36 304.68,98.65 300.00,91.00
             300.00,91.00 298.00,96.00 298.00,96.00
             298.00,96.00 298.00,89.00 298.00,89.00
             292.27,87.31 290.23,80.94 288.05,76.00
             288.05,76.00 279.00,60.00 279.00,60.00
             279.00,60.00 278.00,68.00 278.00,68.00
             275.49,60.25 272.65,58.65 267.00,53.00 Z
           M 412.00,53.00
           C 409.11,56.63 404.83,63.31 406.00,68.00
             406.00,68.00 412.00,53.00 412.00,53.00 Z
           M 158.00,56.00
           C 159.16,59.89 163.79,62.13 167.00,64.34
             172.94,68.43 176.71,71.02 181.00,77.00
             174.44,71.31 167.42,64.66 159.00,62.00
             159.00,62.00 163.00,72.00 163.00,72.00
             163.00,72.00 159.00,73.00 159.00,73.00
             164.89,74.88 167.62,75.03 172.00,80.00
             172.00,80.00 163.00,76.00 163.00,76.00
             165.83,81.28 166.67,81.47 164.00,87.00
             173.51,96.29 171.98,93.70 183.00,97.54
             183.00,97.54 191.00,100.49 191.00,100.49
             194.85,101.47 195.79,101.12 200.00,102.88
             205.82,105.30 231.55,110.91 237.00,111.32
             241.93,111.70 247.24,113.83 252.00,112.00
             243.92,108.64 201.24,98.91 192.00,95.42
             182.46,91.82 174.59,90.75 168.00,82.00
             177.57,90.07 182.13,89.69 193.00,93.81
             201.95,97.21 231.95,105.22 242.00,104.77
             230.08,88.72 213.88,89.82 198.00,80.96
             198.00,80.96 168.04,57.84 168.04,57.84
             168.04,57.84 158.00,56.00 158.00,56.00 Z
           M 500.00,63.00 500.00,63.00 500.00,63.00 500.00,63.00
           M 463.00,66.00
           C 457.11,71.90 453.41,83.94 451.37,92.00
             450.45,95.65 448.97,99.31 450.00,103.00
             450.00,103.00 456.69,81.00 456.69,81.00
             456.69,81.00 463.00,66.00 463.00,66.00 Z
           M 292.00,74.00
           C 290.40,78.16 291.39,80.57 294.00,84.00
             294.00,84.00 292.00,74.00 292.00,74.00 Z
           M 542.00,97.00
           C 535.09,98.12 531.01,104.22 531.00,111.00
             531.00,111.00 542.00,97.00 542.00,97.00 Z
           M 195.00,107.00
           C 190.41,103.83 185.04,98.08 179.00,100.00
             188.32,106.69 187.41,111.16 200.00,115.94
             211.79,120.41 232.24,118.82 252.00,127.01
             252.00,127.01 278.00,138.30 278.00,138.30
             278.00,138.30 288.00,140.09 288.00,140.09
             291.72,140.80 295.25,142.68 299.00,142.00
             299.00,142.00 262.00,119.55 262.00,119.55
             257.69,117.91 239.47,113.62 235.00,113.42
             230.67,113.14 226.87,114.82 221.00,113.42
             211.22,111.23 203.14,103.57 193.00,103.00
             193.00,103.00 195.00,107.00 195.00,107.00 Z
           M 179.27,102.91
           C 179.27,102.91 173.00,104.00 173.00,104.00
             173.00,104.00 183.45,110.91 183.45,110.91
             183.45,110.91 179.27,102.91 179.27,102.91 Z
           M 529.00,114.00
           C 518.61,120.83 521.43,117.51 515.00,121.10
             515.00,121.10 500.00,130.11 500.00,130.11
             488.86,136.02 474.63,139.98 462.00,140.00
             462.00,140.00 423.00,141.00 423.00,141.00
             421.05,141.01 418.87,140.95 417.00,141.56
             411.76,143.26 403.21,151.53 400.00,156.00
             400.00,156.00 425.00,156.00 425.00,156.00
             425.00,156.00 439.00,155.00 439.00,155.00
             439.00,155.00 424.00,154.00 424.00,154.00
             424.00,154.00 408.00,154.89 408.00,154.89
             419.91,144.87 442.09,156.60 453.00,154.89
             459.42,153.71 472.09,143.64 482.00,143.00
             476.09,145.89 472.97,147.46 471.00,154.00
             471.00,154.00 488.00,146.79 488.00,146.79
             492.16,145.68 493.57,146.66 497.00,145.93
             504.36,144.36 517.67,136.71 521.00,130.00
             521.00,130.00 512.00,131.00 512.00,131.00
             512.00,131.00 511.00,127.00 511.00,127.00
             519.24,125.71 525.62,121.85 529.00,114.00 Z
           M 254.00,130.00
           C 239.36,125.12 232.29,123.70 217.00,121.85
             212.76,121.33 208.14,119.62 204.00,121.00
             204.00,121.00 216.00,123.56 216.00,123.56
             216.00,123.56 237.00,126.89 237.00,126.89
             241.56,127.94 249.78,131.14 254.00,130.00 Z
           M 356.00,125.00
           C 356.00,125.00 346.84,131.38 346.84,131.38
             346.84,131.38 338.87,155.00 338.87,155.00
             338.87,155.00 333.04,186.00 333.04,186.00
             333.04,186.00 333.04,194.00 333.04,194.00
             333.04,194.00 332.00,206.00 332.00,206.00
             332.00,206.00 333.00,229.00 333.00,229.00
             333.00,229.00 333.98,250.58 333.98,250.58
             333.98,250.58 340.00,257.00 340.00,257.00
             340.00,229.45 337.15,203.55 341.42,176.00
             342.74,167.52 345.82,155.07 348.69,147.00
             350.94,140.68 355.02,131.25 356.00,125.00 Z
           M 177.00,145.00
           C 172.81,143.05 169.75,141.19 165.00,140.78
             152.33,139.71 141.01,148.98 138.00,161.00
             152.98,166.41 153.19,152.46 162.04,147.28
             168.52,143.48 171.73,146.75 177.00,145.00 Z
           M 495.00,147.00
           C 489.03,148.40 483.26,150.46 479.00,155.00
             485.93,154.99 494.77,154.20 501.00,151.00
             501.00,151.00 494.00,150.00 494.00,150.00
             494.00,150.00 495.00,147.00 495.00,147.00 Z
           M 206.00,150.23
           C 202.08,150.00 195.63,149.78 192.00,150.23
             178.59,153.00 170.12,162.40 170.00,176.00
             170.00,176.00 192.00,154.65 192.00,154.65
             192.00,154.65 206.00,150.23 206.00,150.23 Z
           M 469.00,154.00
           C 465.97,150.29 464.07,152.25 461.00,155.00
             461.00,155.00 469.00,154.00 469.00,154.00 Z
           M 475.00,157.00
           C 475.00,157.00 453.00,159.00 453.00,159.00
             453.00,159.00 417.00,159.00 417.00,159.00
             411.01,159.07 397.72,159.80 393.00,163.00
             405.46,161.24 402.49,160.98 416.00,161.00
             416.00,161.00 428.00,161.81 428.00,161.81
             428.00,161.81 435.00,160.83 435.00,160.83
             435.00,160.83 444.00,160.83 444.00,160.83
             451.81,161.04 468.49,160.81 475.00,157.00 Z
           M 125.00,161.00
           C 114.24,153.91 101.82,162.76 99.00,174.00
             105.21,172.18 105.12,169.84 110.00,167.65
             116.86,164.58 119.15,168.22 125.00,161.00 Z
           M 147.00,169.00
           C 147.00,169.00 139.00,167.19 139.00,167.19
             132.51,166.48 122.83,169.77 118.10,174.21
             111.20,180.70 108.35,193.04 120.00,196.00
             120.00,196.00 121.52,186.00 121.52,186.00
             123.34,178.93 130.33,173.04 137.00,170.63
             141.31,169.08 143.26,170.26 147.00,169.00 Z
           M 326.00,185.00
           C 323.76,178.36 311.37,175.01 305.00,173.38
             285.59,168.41 269.08,171.85 251.00,179.58
             246.66,181.44 239.85,184.47 236.00,187.00
             236.00,187.00 240.00,187.00 240.00,187.00
             246.84,186.88 252.61,183.56 259.00,181.34
             270.31,177.42 274.93,175.86 287.00,176.00
             303.01,176.19 312.58,184.70 326.00,185.00 Z
           M 190.00,176.00
           C 178.12,173.67 166.67,184.35 169.00,193.00
             169.00,193.00 171.25,200.80 176.00,205.00
             176.02,197.58 175.40,190.10 180.39,184.04
             183.08,180.76 186.80,178.70 190.00,176.00 Z
           M 307.00,182.00
           C 286.64,173.91 263.60,178.17 246.00,191.00
             247.73,191.69 249.05,192.41 251.00,192.34
             251.00,192.34 268.00,185.75 268.00,185.75
             275.42,183.36 283.22,182.01 291.00,182.00
             294.62,181.99 304.41,182.73 307.00,182.00 Z
           M 136.00,180.00
           C 130.43,180.64 128.47,181.90 126.00,187.00
             126.00,187.00 136.00,180.00 136.00,180.00 Z
           M 102.00,184.00
           C 91.18,179.50 81.48,182.75 76.93,194.00
             75.52,197.49 74.69,200.41 76.00,204.00
             77.66,198.38 80.01,195.00 86.00,193.53
             89.27,192.73 92.84,193.31 95.91,191.69
             99.03,190.03 100.51,187.03 102.00,184.00 Z
           M 477.00,188.00
           C 462.40,178.60 439.36,180.02 431.00,197.00
             431.00,197.00 445.00,192.46 445.00,192.46
             445.00,192.46 456.00,191.00 456.00,191.00
             456.00,191.00 449.00,188.00 449.00,188.00
             454.68,185.87 460.98,185.32 467.00,186.32
             470.66,186.93 473.22,188.68 477.00,188.00 Z
           M 205.00,187.00
           C 205.00,187.00 204.00,188.00 204.00,188.00
             210.88,192.94 215.68,199.10 214.82,208.00
             214.46,211.78 212.45,215.25 213.00,219.00
             218.82,207.63 219.46,191.93 205.00,187.00 Z
           M 317.00,239.00
           C 317.00,239.00 327.54,218.00 327.54,218.00
             328.47,214.10 327.81,209.59 327.54,205.58
             327.83,203.12 328.40,197.43 327.54,195.42
             325.70,191.85 313.85,189.57 310.00,188.92
             290.79,185.68 273.26,187.21 256.00,197.00
             256.00,197.00 271.57,194.69 280.00,203.00
             271.66,201.43 271.37,200.29 263.00,203.00
             263.00,203.00 272.00,211.00 272.00,211.00
             272.00,211.00 258.00,206.00 258.00,206.00
             259.64,210.90 260.71,214.69 263.79,219.00
             267.34,223.98 270.93,226.16 274.53,232.00
             280.56,241.78 275.85,245.50 288.00,247.53
             296.44,248.94 298.20,243.30 312.00,243.00
             312.02,236.18 311.75,233.91 317.00,229.00
             317.00,229.00 317.00,239.00 317.00,239.00 Z
           M 504.00,188.00
           C 504.00,188.00 491.00,187.00 491.00,187.00
             493.61,190.64 500.19,189.51 504.00,188.00 Z
           M 238.00,193.00
           C 238.00,193.00 237.00,194.00 237.00,194.00
             246.84,198.48 255.66,208.51 252.20,220.00
             250.84,224.52 247.58,228.14 245.00,232.00
             262.29,226.09 258.95,198.25 238.00,193.00 Z
           M 232.00,196.00
           C 225.63,194.70 221.14,198.78 227.00,204.00
             227.00,204.00 232.00,196.00 232.00,196.00 Z
           M 86.00,197.00
           C 86.00,197.00 82.00,201.00 82.00,201.00
             82.00,201.00 86.00,197.00 86.00,197.00 Z
           M 401.00,224.00
           C 401.00,224.00 370.00,205.72 370.00,205.72
             364.64,202.67 360.97,198.57 356.00,204.00
             356.00,204.00 387.00,222.00 387.00,222.00
             392.58,225.70 395.38,229.71 401.00,224.00 Z
           M 529.00,226.00
           C 528.55,216.31 525.88,209.43 517.00,204.36
             506.63,198.45 492.25,200.52 490.00,214.00
             490.00,214.00 501.00,210.00 501.00,210.00
             509.34,207.98 518.04,210.19 523.61,217.04
             523.61,217.04 529.00,226.00 529.00,226.00 Z
           M 125.00,212.00
           C 121.43,208.94 118.99,205.76 114.00,205.20
             102.29,203.89 93.24,215.00 93.02,226.00
             92.93,230.32 94.98,242.22 101.78,239.60
             104.64,238.50 107.46,229.25 109.47,226.00
             115.57,216.12 119.44,217.37 125.00,212.00 Z
           M 165.00,207.00
           C 159.32,205.98 155.46,205.26 150.00,208.00
             138.44,213.81 133.04,232.53 141.00,243.00
             141.00,243.00 140.00,232.17 140.00,232.17
             142.12,232.95 143.35,233.94 145.61,232.17
             147.30,231.16 151.53,223.38 153.21,221.00
             157.48,214.93 162.37,212.30 165.00,207.00 Z
           M 392.00,234.00
           C 388.12,226.49 370.72,217.52 363.00,213.01
             360.47,211.53 353.76,207.61 351.00,207.70
             345.43,207.89 345.03,213.84 345.00,218.00
             345.00,218.00 346.00,252.00 346.00,252.00
             346.00,252.00 355.00,246.00 355.00,246.00
             355.00,246.00 351.00,255.00 351.00,255.00
             357.23,253.02 359.52,250.18 365.00,247.33
             365.00,247.33 374.58,243.27 374.58,243.27
             381.86,238.01 381.14,234.99 392.00,234.00 Z
           M 454.00,215.00
           C 443.89,202.38 421.89,205.97 416.00,221.00
             421.63,222.64 437.57,227.67 435.00,216.00
             444.47,212.92 444.55,212.88 454.00,215.00 Z
           M 59.00,209.00
           C 53.79,210.66 53.73,212.94 53.00,218.00
             57.62,215.36 58.39,214.28 59.00,209.00 Z
           M 60.00,236.00
           C 60.00,236.00 75.00,230.19 75.00,230.19
             79.95,228.30 92.50,219.32 82.89,214.61
             74.22,210.36 63.72,220.29 60.97,228.00
             59.93,230.92 60.03,232.99 60.00,236.00 Z
           M 500.00,242.00
           C 499.26,228.76 487.10,217.60 474.00,216.76
             468.18,216.39 462.15,217.76 459.00,223.00
             459.00,223.00 459.00,237.00 459.00,237.00
             470.37,227.79 463.56,233.84 474.00,229.00
             475.49,223.34 479.70,225.04 484.00,226.88
             493.76,231.05 494.56,234.02 500.00,242.00 Z
           M 536.00,216.00
           C 536.00,216.00 537.47,219.06 537.47,219.06
             537.47,219.06 555.00,223.00 555.00,223.00
             545.32,217.49 545.96,218.64 536.00,216.00 Z
           M 164.00,219.00
           C 159.12,222.71 154.70,229.71 157.00,236.00
             157.00,236.00 164.00,219.00 164.00,219.00 Z
           M 44.00,221.00
           C 42.44,224.92 42.46,228.55 45.00,232.00
             45.00,232.00 44.00,221.00 44.00,221.00 Z
           M 118.00,223.00
           C 115.36,225.40 114.13,226.33 115.00,230.00
             115.00,230.00 118.00,223.00 118.00,223.00 Z
           M 185.10,224.00
           C 184.26,228.98 187.36,231.85 185.10,239.00
             182.26,248.77 171.21,256.37 161.00,255.61
             156.00,255.24 152.77,256.51 158.00,257.76
             179.56,262.92 191.12,239.56 188.57,230.00
             187.86,227.35 186.63,226.07 185.10,224.00 Z
           M 427.00,228.00
           C 424.11,227.17 421.03,226.19 418.00,226.18
             405.24,226.14 392.12,236.21 396.00,250.00
             396.00,250.00 405.00,246.52 405.00,246.52
             407.70,245.70 420.91,243.61 413.76,238.50
             413.76,238.50 411.00,237.00 411.00,237.00
             415.88,234.84 420.15,234.47 422.00,229.00
             422.00,229.00 427.00,228.00 427.00,228.00 Z
           M 268.00,227.00
           C 267.77,230.63 269.79,233.25 272.00,236.00
             272.00,236.00 268.00,227.00 268.00,227.00 Z
           M 226.00,229.00
           C 225.93,232.51 227.80,234.42 230.00,237.00
             230.00,237.00 226.00,229.00 226.00,229.00 Z
           M 328.00,234.00
           C 324.37,237.37 322.50,240.28 321.00,245.00
             321.00,245.00 329.00,248.00 329.00,248.00
             329.00,248.00 328.00,234.00 328.00,234.00 Z
           M 539.00,256.00
           C 537.00,245.53 526.93,238.78 517.00,236.67
             510.10,235.20 503.34,235.94 502.00,244.00
             505.90,243.45 510.17,242.00 514.00,242.33
             525.98,243.35 530.66,248.76 539.00,256.00 Z
           M 202.00,240.00
           C 202.00,240.00 192.00,239.00 192.00,239.00
             190.82,247.96 189.44,256.36 200.00,260.00
             198.50,253.60 199.99,246.19 202.00,240.00 Z
           M 390.00,239.00
           C 385.46,240.35 384.46,240.91 382.00,245.00
             387.14,245.37 388.37,243.65 390.00,239.00 Z
           M 99.00,312.00
           C 92.22,304.87 94.18,290.69 101.10,284.21
             104.57,280.97 107.65,280.30 112.00,279.00
             110.34,274.81 108.72,270.53 108.33,266.00
             107.52,256.65 113.71,244.55 123.00,241.82
             126.65,240.51 130.39,241.12 134.00,241.82
             128.92,248.09 121.73,251.10 120.34,260.00
             119.88,262.95 120.61,266.06 121.00,269.00
             121.00,269.00 113.00,268.00 113.00,268.00
             120.56,289.06 144.99,289.31 152.78,275.00
             155.78,268.91 153.87,265.19 152.78,259.00
             156.64,262.69 156.11,265.02 155.99,270.00
             155.68,281.96 147.50,288.68 136.00,289.67
             132.05,290.02 126.65,288.65 123.00,287.12
             120.54,286.09 117.73,284.10 115.00,285.09
             109.25,287.20 105.61,296.60 104.00,302.00
             101.66,297.97 102.01,295.51 102.00,291.00
             96.47,298.84 97.46,301.94 98.65,309.62
             98.77,310.36 105.00,317.00 105.00,317.00
             105.00,317.00 119.00,320.00 119.00,320.00
             113.82,322.05 108.79,320.32 104.00,318.00
             104.00,318.00 98.89,311.16 99.00,312.00 Z
           M 471.00,260.00
           C 466.22,248.99 457.98,240.27 445.00,241.18
             445.00,241.18 437.00,242.00 437.00,242.00
             438.73,246.31 441.14,253.76 447.00,253.47
             451.47,253.24 453.20,247.95 459.99,252.15
             464.48,254.92 466.86,259.02 468.24,264.00
             468.96,266.60 469.18,270.53 470.85,272.57
             472.80,274.94 479.98,277.39 478.00,268.00
             478.00,268.00 497.00,274.00 497.00,274.00
             495.55,261.45 481.87,256.91 471.00,260.00 Z
           M 559.00,251.00
           C 555.00,244.60 550.15,243.01 543.00,242.00
             546.00,247.13 548.52,250.41 554.00,253.00
             554.00,253.00 551.00,247.00 551.00,247.00
             551.00,247.00 559.00,251.00 559.00,251.00 Z
           M 54.00,243.00
           C 51.36,243.00 47.43,242.81 45.00,243.74
             39.39,245.88 34.01,252.94 36.00,259.00
             37.92,254.94 40.00,252.61 44.00,250.41
             48.86,247.74 52.05,248.88 54.00,243.00 Z
           M 102.00,250.00
           C 94.73,240.57 81.27,242.59 74.85,252.01
             70.09,259.00 70.47,266.76 74.33,274.00
             76.28,277.67 77.32,279.09 81.00,281.00
             79.69,278.45 78.17,275.82 77.53,273.00
             76.82,269.83 77.26,266.98 78.48,264.00
             82.93,253.12 92.30,253.17 102.00,250.00 Z
           M 520.00,250.00
           C 515.20,240.99 507.77,245.42 501.00,245.00
             501.00,245.00 501.00,251.00 501.00,251.00
             501.00,251.00 520.00,250.00 520.00,250.00 Z
           M 31.00,246.00
           C 25.80,251.28 26.32,256.55 29.00,263.00
             31.78,258.62 30.12,257.61 30.26,253.00
             30.26,253.00 31.00,246.00 31.00,246.00 Z
           M 288.00,252.00
           C 280.30,249.43 273.35,245.77 266.00,251.00
             272.43,250.16 279.95,249.38 281.00,258.00
             281.00,258.00 285.00,259.00 285.00,259.00
             285.00,259.00 288.00,252.00 288.00,252.00 Z
           M 308.00,248.39
           C 298.30,249.93 290.91,256.97 290.09,267.00
             289.72,271.61 290.25,281.37 296.86,281.37
             300.80,281.37 300.20,275.43 302.57,271.00
             306.04,264.50 314.07,259.45 315.34,255.00
             316.80,249.92 311.85,248.53 308.00,248.39 Z
           M 65.00,251.00
           C 59.65,249.88 57.98,250.80 54.32,255.02
             48.88,261.29 47.76,268.10 50.00,276.00
             56.65,272.49 61.20,258.20 65.00,251.00 Z
           M 384.00,252.00
           C 382.46,259.22 386.10,255.40 380.00,265.00
             380.00,265.00 389.00,262.00 389.00,262.00
             389.00,262.00 384.00,252.00 384.00,252.00 Z
           M 362.00,254.00
           C 362.00,254.00 351.00,262.00 351.00,262.00
             356.36,260.29 358.63,258.48 362.00,254.00 Z
           M 328.00,255.00
           C 328.00,258.63 334.45,266.85 337.00,270.00
             335.86,262.76 333.72,259.55 328.00,255.00 Z
           M 138.00,259.00
           C 133.42,261.27 131.98,263.37 130.00,268.00
             130.00,268.00 138.00,259.00 138.00,259.00 Z
           M 23.00,260.00
           C 14.73,261.76 11.75,267.01 14.00,275.00
             18.50,271.18 21.82,265.80 23.00,260.00 Z
           M 277.00,261.00
           C 268.32,261.03 261.16,262.40 257.00,271.00
             257.00,271.00 277.00,261.00 277.00,261.00 Z
           M 91.00,263.00
           C 89.87,261.84 83.28,267.24 85.00,269.00
             85.00,269.00 91.00,263.00 91.00,263.00 Z
           M 426.00,263.00
           C 426.00,263.00 409.00,265.00 409.00,265.00
             415.19,265.13 420.45,266.62 426.00,263.00 Z
           M 380.00,265.00 380.00,265.00 380.00,265.00 380.00,265.00
           M 426.00,267.00
           C 423.94,272.71 428.48,277.11 433.00,280.03
             440.93,285.16 454.24,286.52 461.00,279.00
             461.00,279.00 451.00,281.82 451.00,281.82
             440.34,283.12 429.15,277.67 426.00,267.00 Z
           M 369.00,268.00
           C 369.00,268.00 368.00,269.00 368.00,269.00
             376.09,274.75 386.41,283.75 383.21,295.00
             381.87,299.71 378.71,303.07 376.00,307.00
             378.58,306.12 379.81,305.71 381.89,303.78
             394.94,291.70 380.95,273.87 369.00,268.00 Z
           M 313.00,269.00
           C 313.00,269.00 309.00,275.00 309.00,275.00
             312.21,273.07 312.21,272.61 313.00,269.00 Z
           M 46.00,270.00
           C 44.21,273.59 44.04,275.44 46.00,279.00
             46.00,279.00 46.00,270.00 46.00,270.00 Z
           M 358.00,286.00
           C 358.00,286.00 356.47,277.00 356.47,277.00
             353.70,266.25 343.66,270.20 348.17,278.98
             348.91,280.41 349.89,281.55 351.11,282.58
             353.23,284.38 355.46,285.09 358.00,286.00 Z
           M 395.00,288.00
           C 394.99,278.88 394.88,266.04 382.00,272.00
             382.00,272.00 395.00,288.00 395.00,288.00 Z
           M 562.00,293.00
           C 562.00,282.93 562.11,275.67 551.00,271.56
             541.79,268.15 536.61,272.38 538.17,275.60
             539.54,278.44 545.75,278.78 551.00,281.65
             557.75,285.33 557.59,288.09 562.00,293.00 Z
           M 403.00,272.00
           C 403.85,276.34 407.63,279.91 409.48,284.00
             414.77,295.67 411.69,301.81 406.00,312.00
             420.40,306.97 416.69,282.03 403.00,272.00 Z
           M 568.00,274.00
           C 567.95,278.54 571.21,278.81 568.00,283.00
             571.80,288.18 574.49,289.90 580.00,293.00
             579.55,283.86 576.15,278.38 568.00,274.00 Z
           M 593.00,286.00
           C 591.22,279.97 589.06,277.07 583.00,275.00
             584.74,280.90 588.00,282.83 593.00,286.00 Z
           M 278.00,278.00
           C 275.64,277.58 273.42,277.06 271.00,277.21
             261.95,277.78 248.17,286.52 252.00,297.00
             257.40,285.17 262.00,287.82 269.00,284.58
             271.86,283.25 275.56,280.12 278.00,278.00 Z
           M 532.00,309.00
           C 533.33,298.90 532.96,290.39 523.98,283.56
             517.40,278.54 505.14,275.91 502.00,286.00
             512.95,282.45 521.81,285.40 527.59,296.00
             527.59,296.00 532.00,309.00 532.00,309.00 Z
           M 37.00,310.00
           C 36.46,304.81 36.25,301.64 39.12,297.00
             41.20,293.62 46.22,289.19 45.01,285.02
             43.38,279.34 38.60,280.74 35.53,284.19
             29.58,290.88 28.46,305.03 37.00,310.00 Z
           M 86.00,292.00
           C 77.19,277.12 64.31,289.17 59.00,300.00
             61.07,303.72 59.74,312.03 64.17,313.51
             66.63,314.33 67.79,311.86 68.37,309.98
             68.37,309.98 69.61,305.00 69.61,305.00
             72.59,298.09 79.67,294.98 86.00,292.00 Z
           M 235.00,286.00
           C 230.12,290.37 227.49,297.63 221.00,295.00
             214.84,305.02 210.71,301.33 204.00,304.00
             216.22,306.93 231.47,297.99 235.00,286.00 Z
           M 340.00,289.00
           C 337.45,287.87 334.86,286.57 332.00,286.63
             319.03,286.89 313.17,303.21 317.13,314.00
             319.20,319.64 325.38,327.11 332.00,326.00
             325.25,321.43 318.67,315.98 321.00,307.00
             323.66,311.94 325.06,313.34 330.00,316.00
             328.90,301.11 332.31,300.49 340.00,289.00 Z
           M 21.00,287.00
           C 11.02,288.90 5.25,296.34 13.00,305.00
             13.00,305.00 21.00,287.00 21.00,287.00 Z
           M 302.00,293.00
           C 284.52,283.49 274.90,303.10 277.53,314.00
             278.31,317.23 283.16,325.48 287.40,322.87
             290.09,321.22 288.08,315.45 289.94,309.00
             291.93,302.09 297.27,298.00 302.00,293.00 Z
           M 243.00,291.00
           C 232.58,294.56 231.71,303.57 234.00,313.00
             243.50,308.35 237.56,303.94 243.00,291.00 Z
           M 597.00,302.00
           C 594.98,296.08 592.14,293.31 586.00,292.00
             586.45,298.26 588.02,300.25 593.00,304.00
             593.00,304.00 592.00,299.00 592.00,299.00
             592.00,299.00 597.00,302.00 597.00,302.00 Z
           M 353.00,295.00
           C 353.00,295.00 352.00,296.00 352.00,296.00
             357.14,299.68 361.44,303.93 363.61,310.00
             363.61,310.00 366.00,320.00 366.00,320.00
             366.00,308.61 366.18,298.89 353.00,295.00 Z
           M 460.00,296.00
           C 459.75,300.81 464.87,304.29 469.00,305.86
             477.69,309.16 490.59,306.88 495.00,298.00
             492.07,299.94 489.28,302.19 486.00,303.52
             475.39,307.83 467.49,303.31 460.00,296.00 Z
           M 269.00,300.00
           C 266.89,300.12 265.03,300.11 263.10,301.17
             256.80,304.67 256.31,315.17 259.00,321.00
             259.62,317.71 260.21,313.91 262.01,311.04
             265.26,305.84 267.84,307.11 269.00,300.00 Z
           M 256.00,301.00
           C 256.00,301.00 254.00,301.00 254.00,301.00
             250.02,307.03 245.67,312.28 246.11,320.00
             246.22,322.09 247.85,330.00 251.44,327.83
             253.35,326.68 253.00,321.96 253.00,320.00
             253.02,310.61 253.04,310.05 256.00,301.00 Z
           M 343.00,301.00
           C 339.36,303.95 337.27,306.21 339.00,311.00
             339.00,311.00 343.00,301.00 343.00,301.00 Z
           M 6.00,304.00
           C 4.23,310.24 6.60,317.69 13.00,320.00
             11.92,313.12 9.73,309.73 6.00,304.00 Z
           M 78.00,304.00
           C 75.01,302.89 72.92,309.60 74.00,310.00
             74.00,310.00 78.00,304.00 78.00,304.00 Z
           M 301.00,304.00
           C 296.97,305.52 294.64,307.45 296.00,312.00
             296.00,312.00 301.00,304.00 301.00,304.00 Z
           M 564.00,330.00
           C 564.00,325.60 564.42,319.00 562.85,315.00
             558.80,304.65 548.41,303.71 539.00,306.00
             542.00,316.11 549.23,313.08 555.98,317.70
             561.96,321.79 560.69,324.99 564.00,330.00 Z
           M 58.00,306.00
           C 54.88,313.87 58.43,322.39 66.00,326.00
             59.60,316.77 58.04,317.78 58.00,306.00 Z
           M 585.00,324.00
           C 584.43,317.23 580.22,303.68 571.00,309.00
             581.07,313.95 579.84,315.75 585.00,324.00 Z
           M 40.00,311.00
           C 40.00,311.00 25.04,326.74 31.00,333.00
             32.00,325.64 34.76,327.92 38.79,325.92
             40.73,324.96 45.24,317.38 47.00,315.00
             47.00,315.00 40.00,311.00 40.00,311.00 Z
           M 226.00,312.00
           C 218.14,317.76 214.70,325.27 216.21,335.00
             216.86,339.18 218.95,341.17 219.12,344.00
             219.37,348.42 216.04,349.57 218.00,355.00
             224.04,343.91 220.43,340.08 221.34,334.00
             221.34,334.00 223.64,326.00 223.64,326.00
             223.64,326.00 226.00,312.00 226.00,312.00 Z
           M 240.12,314.00
           C 232.22,322.65 231.24,339.30 243.00,345.00
             243.00,345.00 238.42,334.00 238.42,334.00
             238.42,334.00 240.12,325.00 240.12,325.00
             240.12,325.00 240.12,314.00 240.12,314.00 Z
           M 395.00,314.00
           C 395.00,314.00 394.00,315.00 394.00,315.00
             405.13,323.86 407.64,339.61 398.61,351.00
             393.63,357.28 391.63,356.53 386.00,360.00
             388.80,359.97 391.34,360.07 394.00,358.99
             409.42,352.72 411.58,322.99 395.00,314.00 Z
           M 448.00,318.00
           C 448.00,318.00 441.00,319.45 441.00,319.45
             441.00,319.45 435.00,320.00 435.00,320.00
             440.16,321.47 443.87,321.80 448.00,318.00 Z
           M 171.00,319.00
           C 167.96,323.05 168.71,327.20 165.35,332.00
             157.29,343.52 148.38,342.80 143.00,345.00
             161.33,344.99 169.51,337.42 171.00,319.00 Z
           M 383.00,319.00
           C 383.00,319.00 381.00,319.00 381.00,319.00
             381.00,319.00 381.00,326.00 381.00,326.00
             381.00,326.00 383.00,326.00 383.00,326.00
             383.00,326.00 383.00,319.00 383.00,319.00 Z
           M 496.00,320.00
           C 498.47,328.00 513.51,326.90 519.00,323.00
             508.07,324.44 506.13,325.19 496.00,320.00 Z
           M 319.00,324.00
           C 300.86,319.01 289.39,343.90 297.00,357.00
             297.00,357.00 298.00,352.00 298.00,352.00
             300.51,356.65 301.81,358.47 307.00,360.00
             305.46,351.20 304.93,344.08 309.76,336.00
             309.76,336.00 319.00,324.00 319.00,324.00 Z
           M 16.00,340.00
           C 15.67,333.38 15.10,331.87 9.00,329.00
             7.26,335.67 8.81,339.41 16.00,340.00 Z
           M 81.00,329.00
           C 81.77,330.40 75.41,332.57 74.00,330.00
             74.00,330.00 81.00,329.00 81.00,329.00 Z
           M 209.00,331.00
           C 209.00,331.00 200.00,329.00 200.00,329.00
             201.72,333.90 205.17,333.81 209.00,331.00 Z
           M 285.00,336.00
           C 279.06,328.87 270.38,329.32 265.10,337.02
             259.82,344.73 258.55,357.31 266.00,364.00
             266.15,348.10 272.77,344.00 285.00,336.00 Z
           M 453.00,332.00
           C 452.46,337.38 458.49,341.67 463.00,343.52
             472.97,347.59 485.84,344.53 490.00,334.00
             486.60,336.15 482.61,339.49 479.00,340.86
             468.78,344.74 460.09,338.75 453.00,332.00 Z
           M 363.00,333.00
           C 357.10,339.25 355.44,343.99 346.00,345.00
             346.00,345.00 350.15,357.24 356.00,359.00
             356.00,359.00 363.00,333.00 363.00,333.00 Z
           M 265.00,334.00
           C 252.85,339.80 252.69,357.04 261.62,366.00
             260.71,362.01 258.38,358.10 258.10,354.00
             257.52,345.67 260.90,340.73 265.00,334.00 Z
           M 527.00,334.00
           C 525.61,337.50 525.61,341.50 527.00,345.00
             527.00,345.00 527.00,334.00 527.00,334.00 Z
           M 321.00,335.00
           C 315.67,339.04 311.06,347.12 313.00,354.00
             313.00,354.00 321.00,335.00 321.00,335.00 Z
           M 579.00,356.00
           C 579.84,349.58 580.61,346.68 576.21,341.10
             572.18,335.99 564.46,332.68 560.00,339.00
             573.80,337.21 575.18,349.58 579.00,356.00 Z
           M 250.00,343.00
           C 235.81,347.84 229.75,369.87 244.00,377.00
             243.29,373.06 242.52,368.99 243.39,365.00
             245.20,356.65 249.87,357.77 250.00,343.00 Z
           M 530.00,343.00
           C 531.97,349.85 543.89,350.30 549.00,347.00
             538.69,347.80 539.42,347.95 530.00,343.00 Z
           M 123.00,344.00
           C 123.00,344.00 112.00,351.00 112.00,351.00
             117.43,350.11 120.36,349.07 123.00,344.00 Z
           M 279.00,347.00
           C 276.19,350.63 274.34,354.46 276.00,359.00
             276.00,359.00 279.00,347.00 279.00,347.00 Z
           M 418.00,348.00
           C 417.10,351.20 417.41,352.86 420.00,355.00
             420.00,355.00 418.00,348.00 418.00,348.00 Z
           M 608.00,349.00
           C 604.41,352.90 605.75,356.62 608.00,361.00
             608.00,361.00 608.00,349.00 608.00,349.00 Z
           M 76.00,360.00 76.00,360.00 76.00,360.00 76.00,360.00
           M 243.00,357.00
           C 243.00,357.00 245.00,357.00 245.00,357.00
             245.00,357.00 240.00,365.00 240.00,365.00
             240.00,365.00 243.00,357.00 243.00,357.00 Z
           M 547.00,358.00
           C 545.27,362.37 546.60,365.55 544.85,370.00
             541.84,377.71 533.11,382.50 525.00,381.81
             520.35,381.42 516.10,378.44 512.00,379.00
             522.70,384.92 539.92,386.71 545.91,373.00
             547.49,369.39 547.00,362.12 547.00,358.00 Z
           M 76.00,360.00
           C 75.95,359.27 68.85,360.77 69.00,363.00
             69.00,363.00 76.00,360.00 76.00,360.00 Z
           M 142.00,360.00
           C 142.00,360.00 131.00,361.00 131.00,361.00
             135.46,361.49 137.78,361.93 142.00,360.00 Z
           M 67.75,363.62
           C 67.48,361.96 61.21,361.35 61.75,364.62
             61.75,364.62 67.75,363.62 67.75,363.62 Z
           M 468.00,363.00
           C 457.76,366.75 454.89,369.89 443.00,367.00
             446.61,373.75 456.25,373.16 462.00,369.30
             464.69,367.49 466.14,365.57 468.00,363.00 Z
           M 299.00,365.00
           C 281.40,361.16 273.85,389.92 291.00,395.00
             287.20,380.66 291.08,376.46 299.00,365.00 Z
           M 389.00,364.00
           C 389.18,368.22 370.00,406.00 370.00,406.00
             377.91,405.93 384.30,404.09 389.79,397.96
             397.09,389.81 397.31,371.47 389.00,364.00 Z
           M 332.00,366.00
           C 332.00,366.00 319.00,370.64 319.00,370.64
             319.00,370.64 306.00,369.00 306.00,369.00
             314.60,373.38 325.18,373.71 332.00,366.00 Z
           M 509.00,368.00
           C 505.03,376.28 507.32,373.58 500.00,380.00
             507.43,378.42 508.82,375.12 509.00,368.00 Z
           M 266.00,371.00
           C 250.80,374.82 250.41,391.95 262.00,396.00
             259.73,383.34 266.00,371.00 266.00,371.00 Z
           M 138.00,372.00
           C 138.00,372.00 128.00,378.00 128.00,378.00
             132.58,377.13 135.51,376.14 138.00,372.00 Z
           M 550.00,372.00
           C 550.00,372.00 549.00,373.00 549.00,373.00
             553.28,374.78 556.54,375.77 561.00,374.00
             561.00,374.00 550.00,372.00 550.00,372.00 Z
           M 222.00,373.00
           C 215.52,378.73 213.29,391.34 222.00,396.00
             218.32,382.13 221.73,385.09 222.00,373.00 Z
           M 104.00,374.00
           C 104.00,374.00 94.00,380.19 94.00,380.19
             94.00,380.19 85.00,384.00 85.00,384.00
             93.46,383.97 100.87,383.10 104.00,374.00 Z
           M 235.00,379.00
           C 228.28,376.11 224.82,380.29 225.56,387.00
             226.18,392.63 229.66,396.73 234.00,400.00
             234.00,400.00 232.54,388.00 232.54,388.00
             232.54,388.00 235.00,379.00 235.00,379.00 Z
           M 244.00,377.00 244.00,377.00 244.00,377.00 244.00,377.00
           M 299.00,379.00
           C 297.15,381.86 296.82,382.75 298.00,386.00
             298.00,386.00 299.00,379.00 299.00,379.00 Z
           M 324.00,385.00
           C 322.39,391.74 331.50,399.35 338.00,397.00
             331.15,394.98 327.34,391.22 324.00,385.00 Z
           M 251.00,391.00
           C 242.18,397.94 237.64,413.72 246.88,422.00
             246.39,417.35 245.55,414.74 246.88,410.00
             248.50,403.18 252.69,398.21 251.00,391.00 Z
           M 280.00,400.00
           C 274.91,401.78 271.17,403.08 268.23,408.01
             264.33,414.54 269.13,423.93 276.00,426.00
             276.00,426.00 274.23,417.00 274.23,417.00
             274.23,417.00 280.00,400.00 280.00,400.00 Z
           M 320.00,402.00
           C 320.00,402.00 298.42,408.67 291.00,406.00
             299.15,415.51 315.62,414.74 320.00,402.00 Z
           M 406.00,404.00
           C 406.00,404.00 398.00,410.00 398.00,410.00
             402.68,409.00 403.83,408.32 406.00,404.00 Z
           M 237.00,433.00
           C 238.12,430.45 239.69,426.74 240.06,424.00
             240.71,419.11 238.91,411.70 234.00,410.00
             234.00,417.45 233.11,426.36 237.00,433.00 Z
           M 308.00,417.00
           C 301.70,422.32 300.92,433.21 307.00,439.00
             309.83,430.52 311.63,425.73 308.00,417.00 Z
           M 258.00,429.00
           C 258.00,429.00 249.00,426.00 249.00,426.00
             246.75,430.86 246.54,432.84 248.00,438.00
             248.00,438.00 252.00,437.00 252.00,437.00
             252.00,437.00 258.00,429.00 258.00,429.00 Z
           M 276.00,437.00
           C 273.86,440.69 274.00,442.84 274.00,447.00
             274.00,468.11 296.22,472.64 306.00,463.00
             297.21,465.48 291.40,469.14 283.63,461.23
             281.86,459.44 280.20,457.55 279.74,454.99
             278.99,450.76 282.34,443.91 284.00,440.00
             284.00,440.00 276.00,437.00 276.00,437.00 Z
           M 338.00,441.00
           C 338.00,441.00 317.00,455.00 317.00,455.00
             327.33,454.99 335.60,452.45 338.00,441.00 Z
           M 262.00,457.00
           C 259.77,456.55 254.46,454.85 252.60,456.11
             250.92,457.25 250.99,460.22 251.19,462.00
             251.96,468.65 255.48,472.24 262.00,473.00
             262.00,473.00 262.00,457.00 262.00,457.00 Z
           M 314.00,470.00
           C 311.85,472.34 311.23,472.81 312.00,476.00
             312.00,476.00 314.00,470.00 314.00,470.00 Z
           M 305.00,480.00
           C 300.96,475.05 298.67,471.60 292.00,473.00
             294.88,478.44 299.20,479.47 305.00,480.00 Z
           M 289.00,479.00
           C 289.00,479.00 279.00,483.00 279.00,483.00
             279.00,483.00 290.00,488.00 290.00,488.00
             290.00,488.00 289.00,479.00 289.00,479.00 Z
           M 453.36,221.55" />
</svg>
