<?xml version="1.0" encoding="UTF-8" standalone="no"?>
<!DOCTYPE svg PUBLIC "-//W3C//DTD SVG 20010904//EN"
              "http://www.w3.org/TR/2001/REC-SVG-20010904/DTD/svg10.dtd">

<svg xmlns="http://www.w3.org/2000/svg"
     width="2.35938in" height="2.27344in"
     viewBox="0 0 302 291">
  <path id="Blueberry"
        fill="none" stroke="black" stroke-width="1"
        d="M 11.00,0.00
           C 19.74,0.09 31.98,3.34 39.99,6.80
             43.14,8.17 47.03,9.13 49.00,12.00
             58.94,12.32 73.81,27.34 79.63,35.00
             81.54,37.52 85.85,42.83 85.80,46.00
             85.75,48.58 82.63,52.56 81.32,55.00
             78.64,60.01 77.57,64.64 76.00,70.00
             76.00,70.00 74.00,70.00 74.00,70.00
             68.18,61.71 54.98,45.85 47.82,39.08
             47.82,39.08 33.00,26.00 33.00,26.00
             33.00,26.00 46.58,43.00 46.58,43.00
             46.58,43.00 53.92,52.58 53.92,52.58
             53.92,52.58 67.00,71.00 67.00,71.00
             57.78,71.75 46.43,75.05 40.00,82.00
             33.52,78.20 23.92,67.71 23.00,60.00
             18.77,57.25 17.29,50.41 15.80,45.72
             10.92,30.35 11.00,15.87 11.00,0.00 Z
           M 219.00,18.00
           C 219.06,16.15 218.84,15.90 219.63,14.02
             223.77,4.05 231.61,13.13 239.96,13.00
             239.96,13.00 239.96,17.91 239.96,17.91
             239.96,17.91 226.63,37.20 226.63,37.20
             226.63,37.20 204.42,66.00 204.42,66.00
             204.42,66.00 192.39,79.75 192.39,79.75
             192.39,79.75 177.00,85.00 177.00,85.00
             177.36,77.47 176.72,74.41 184.00,70.00
             184.00,70.00 183.00,68.00 183.00,68.00
             183.00,68.00 207.43,33.72 207.43,33.72
             210.53,28.96 214.17,20.84 219.00,18.00 Z
           M 108.00,42.00
           C 110.70,38.00 115.49,37.52 120.00,36.87
             129.69,35.48 145.25,36.98 151.00,46.00
             160.07,47.72 162.31,58.87 166.00,63.00
             165.97,67.97 167.57,69.33 167.89,73.99
             168.70,85.68 165.33,98.19 157.00,106.71
             154.98,108.77 150.63,113.02 147.71,113.35
             144.79,113.68 140.52,110.87 137.59,109.95
             131.59,108.08 123.10,107.52 117.00,109.00
             114.49,94.57 99.30,79.02 85.00,76.00
             86.09,63.73 87.54,58.60 96.27,49.34
             100.03,45.35 102.15,42.20 108.00,42.00 Z
           M 120.00,70.00
           C 127.27,71.52 128.36,65.88 126.02,60.27
             124.62,56.90 124.54,52.97 120.94,51.03
             118.79,49.86 116.35,50.19 114.00,50.12
             107.51,49.91 102.34,50.84 104.00,59.00
             97.65,62.81 99.41,71.76 108.00,70.00
             109.18,79.86 119.55,77.67 120.00,70.00 Z
           M 113.00,57.00
           C 121.44,58.18 120.54,61.02 121.00,68.00
             116.47,69.91 111.14,71.91 109.00,66.00
             111.76,66.51 117.87,66.74 116.68,62.05
             116.33,60.68 113.97,58.18 113.00,57.00 Z
           M 35.00,140.00
           C 29.36,136.20 28.60,122.29 29.59,116.00
             33.02,94.19 49.03,80.47 71.01,80.02
             76.55,79.91 85.40,80.30 89.00,85.00
             89.00,85.00 104.68,95.96 107.70,101.17
             108.97,103.35 111.09,107.03 109.72,109.53
             108.75,111.30 104.85,112.82 103.01,113.71
             98.58,115.85 97.73,116.56 94.00,119.81
             81.25,130.94 74.83,145.17 77.00,162.00
             63.24,164.47 52.22,161.42 42.13,151.47
             38.40,147.80 35.26,145.54 35.00,140.00 Z
           M 167.00,107.00
           C 173.95,100.27 173.35,97.92 184.08,92.44
             198.11,85.28 218.23,87.52 230.00,98.11
             234.61,102.26 242.00,114.00 242.00,114.00
             242.00,114.00 243.85,123.01 243.85,123.01
             244.95,129.60 245.05,143.92 239.00,148.00
             238.77,156.39 227.00,164.75 219.99,168.05
             217.24,169.34 213.03,171.08 210.00,170.17
             207.19,169.33 203.48,165.57 201.00,163.68
             197.76,161.20 193.01,158.52 189.29,156.81
             185.49,155.06 175.67,154.45 173.59,152.40
             171.12,149.95 172.55,145.51 168.76,137.91
             168.76,137.91 161.85,124.99 161.85,124.99
             160.91,120.14 163.90,111.64 168.00,109.00
             168.00,109.00 167.00,107.00 167.00,107.00 Z
           M 69.00,114.00
           C 68.36,108.41 66.64,103.52 62.46,99.42
             59.21,96.23 54.58,96.15 52.00,100.00
             43.15,97.56 42.25,102.75 42.25,110.00
             42.17,111.98 41.62,114.10 42.25,115.99
             42.97,117.75 44.37,119.26 45.98,120.20
             47.25,120.93 56.68,123.77 57.98,123.51
             63.14,122.49 61.18,118.73 69.00,114.00 Z
           M 55.00,105.00
           C 56.66,105.10 57.23,104.81 58.86,105.83
             67.66,111.38 56.59,123.01 51.00,115.00
             60.74,113.42 56.97,108.94 55.00,105.00 Z
           M 231.84,133.00
           C 239.39,129.11 235.69,123.71 231.84,118.87
             230.28,117.17 229.12,115.50 227.12,114.41
             223.99,112.71 217.06,115.79 214.10,117.43
             208.54,120.51 209.94,124.09 210.36,129.00
             210.96,135.98 212.66,141.08 221.00,138.00
             224.81,143.84 232.14,140.97 231.84,133.00 Z
           M 86.00,174.00
           C 85.41,168.18 83.11,167.33 83.00,158.00
             82.87,146.26 85.83,135.76 94.17,127.09
             111.08,109.51 141.06,111.00 156.76,129.29
             163.93,137.64 166.11,148.33 166.00,159.00
             165.95,163.49 165.79,169.07 162.00,172.00
             161.94,179.19 155.78,185.13 150.42,189.20
             135.80,200.57 113.03,201.42 98.59,189.20
             94.00,185.24 86.00,174.00 86.00,174.00 Z
           M 215.00,124.00
           C 218.14,121.88 219.20,120.66 223.00,122.00
             216.75,127.12 218.25,132.40 226.00,130.00
             223.99,136.05 218.48,135.18 216.03,131.53
             214.85,129.79 215.20,126.22 215.00,124.00 Z
           M 136.00,143.00
           C 140.84,142.70 142.19,139.42 140.48,135.00
             138.46,129.80 133.15,123.64 127.00,124.85
             122.83,125.67 116.13,128.58 115.00,133.00
             114.30,134.97 114.97,137.02 115.00,139.00
             115.65,145.50 116.07,152.21 125.00,148.00
             129.53,154.62 137.80,151.47 136.00,143.00 Z
           M 121.00,134.00
           C 121.96,135.99 122.71,138.99 124.43,140.38
             128.48,143.65 130.91,140.00 131.00,136.00
             140.29,142.51 121.42,152.60 120.38,139.74
             120.22,137.80 120.63,135.89 121.00,134.00 Z
           M 34.00,151.00
           C 40.11,159.45 50.80,166.11 61.00,168.33
             64.43,169.08 76.64,169.30 78.21,170.75
             79.58,172.01 81.43,177.00 82.44,178.99
             88.24,190.41 93.31,190.33 93.48,196.01
             93.60,200.23 90.02,206.68 87.72,210.17
             80.48,221.13 69.50,228.83 56.00,229.00
             39.96,229.19 27.21,225.20 17.90,211.00
             7.34,194.90 8.97,173.23 22.24,159.20
             25.85,155.39 28.99,152.69 34.00,151.00 Z
           M 248.00,152.00
           C 248.00,152.00 264.91,156.56 264.91,156.56
             264.91,156.56 277.00,161.00 277.00,161.00
             277.00,161.00 285.89,166.39 289.72,169.63
             298.26,176.86 306.12,187.49 299.35,198.75
             290.86,212.87 267.96,215.98 253.00,216.00
             244.25,216.01 239.52,216.28 230.83,214.44
             226.82,213.58 223.63,213.32 223.34,208.56
             223.34,208.56 223.34,202.00 223.34,202.00
             223.41,198.33 222.65,193.64 222.00,190.00
             229.60,190.02 232.83,190.99 240.00,191.92
             253.66,193.48 280.16,195.65 293.00,191.92
             293.00,191.92 237.00,185.87 237.00,185.87
             229.99,184.89 220.83,185.52 218.00,178.00
             218.00,178.00 225.00,177.00 225.00,177.00
             227.31,173.40 230.94,172.40 234.28,169.47
             240.37,164.15 244.46,159.27 248.00,152.00 Z
           M 172.00,160.00
           C 176.68,160.45 181.49,160.80 186.01,162.27
             195.21,165.27 209.92,175.45 210.00,186.00
             212.82,188.18 213.17,190.54 213.71,194.00
             214.76,200.77 215.22,215.81 209.00,220.00
             208.82,225.06 206.16,227.35 202.72,230.87
             194.56,239.19 185.66,243.24 174.00,243.91
             169.01,244.19 159.16,243.08 156.00,239.00
             146.27,238.67 136.74,225.14 133.77,216.73
             132.82,214.04 130.50,207.98 132.06,205.43
             133.20,203.57 145.33,199.87 148.58,197.84
             161.19,189.95 171.66,175.21 172.00,160.00 Z
           M 46.00,194.00
           C 44.52,181.51 36.10,188.76 29.00,188.00
             24.45,194.68 24.65,192.94 24.82,201.00
             24.58,202.87 24.36,204.11 24.82,205.96
             26.58,210.01 35.91,214.00 39.99,213.50
             42.52,213.19 44.90,211.35 47.00,210.00
             47.00,210.00 46.00,206.00 46.00,206.00
             53.23,203.65 53.23,196.35 46.00,194.00 Z
           M 34.00,193.00
           C 34.00,193.00 43.00,193.00 43.00,193.00
             44.93,199.20 46.45,201.29 41.00,206.00
             41.99,196.66 40.18,195.90 32.00,199.00
             32.00,199.00 34.00,193.00 34.00,193.00 Z
           M 86.00,225.00
           C 87.99,218.02 94.14,213.30 97.04,205.99
             97.84,203.96 98.80,199.65 101.28,199.21
             103.17,198.87 108.79,201.55 111.00,202.25
             116.70,204.08 119.19,204.00 125.00,204.00
             125.00,204.00 126.00,218.00 126.00,218.00
             129.29,220.45 130.33,224.45 132.50,227.91
             134.65,231.33 139.20,235.37 140.07,238.96
             140.76,241.82 138.77,248.02 137.62,250.75
             133.03,261.65 124.09,269.82 113.00,273.88
             99.07,278.97 89.68,273.64 82.00,273.00
             82.00,273.00 62.90,257.25 60.13,249.04
             58.53,244.27 58.02,239.99 58.00,235.00
             58.00,235.00 65.00,234.00 65.00,234.00
             66.70,238.66 70.11,244.50 74.13,247.55
             77.74,250.30 80.84,249.19 82.00,245.00
             86.11,246.21 92.09,245.20 91.77,239.72
             91.69,238.40 90.56,236.23 90.00,235.00
             92.48,229.70 91.08,227.55 86.00,225.00 Z
           M 189.00,214.00
           C 188.30,205.37 180.99,203.25 177.00,211.00
             169.86,208.05 164.58,215.35 171.00,221.00
             166.88,226.88 171.60,233.47 179.00,230.00
             183.72,237.77 189.31,230.80 192.38,226.00
             195.60,220.97 198.18,213.66 189.00,214.00 Z
           M 179.00,225.00
           C 174.39,221.84 171.26,216.24 177.94,213.04
             180.84,211.72 183.09,212.81 186.00,213.04
             186.00,213.04 187.00,218.00 187.00,218.00
             181.12,215.24 180.99,215.60 176.00,220.00
             176.00,220.00 179.00,225.00 179.00,225.00 Z
           M 221.00,223.00
           C 221.00,223.00 228.16,231.07 228.16,231.07
             235.31,240.53 243.63,261.08 242.68,273.00
             242.54,274.67 241.75,279.32 241.17,280.83
             236.25,293.72 221.80,287.63 214.00,281.59
             208.16,277.08 204.19,271.02 199.00,266.00
             199.00,266.00 194.00,258.00 194.00,258.00
             193.57,255.51 191.63,253.17 191.99,251.09
             192.49,248.15 204.81,241.16 208.00,239.00
             208.02,245.33 208.79,251.38 211.19,257.28
             214.81,266.17 226.57,278.20 235.00,283.00
             235.00,283.00 225.46,269.97 225.46,269.97
             220.71,263.26 211.78,247.79 210.26,239.99
             209.38,235.49 221.00,223.00 221.00,223.00 Z
           M 78.00,229.00
           C 84.00,229.71 82.92,229.49 88.00,233.00
             86.68,238.13 86.72,243.13 80.00,242.00
             84.46,236.33 84.46,232.16 76.00,233.00
             76.00,233.00 78.00,229.00 78.00,229.00 Z
           M 25.00,231.00
           C 34.01,234.14 38.97,237.53 49.00,238.00
             48.57,247.04 54.26,255.40 54.22,258.99
             54.19,261.83 51.82,264.75 50.14,266.92
             45.90,272.38 34.93,284.29 28.00,285.00
             26.05,287.96 22.00,290.00 22.00,290.00
             15.99,290.43 3.57,293.24 3.00,284.00
             -0.73,280.66 1.09,270.44 2.44,266.00
             3.30,263.17 4.63,260.97 5.00,258.00
             5.00,258.00 9.00,254.00 9.00,254.00
             9.75,245.30 19.81,237.47 25.00,231.00 Z
           M 44.00,243.00
           C 31.30,244.84 18.08,258.47 12.91,269.72
             11.20,273.45 8.83,281.87 8.00,286.00
             8.00,286.00 19.41,270.17 19.41,270.17
             19.41,270.17 44.00,243.00 44.00,243.00 Z" />
</svg>
