<?xml version="1.0" encoding="UTF-8" standalone="no"?>
<!DOCTYPE svg PUBLIC "-//W3C//DTD SVG 20010904//EN"
              "http://www.w3.org/TR/2001/REC-SVG-20010904/DTD/svg10.dtd">

<svg xmlns="http://www.w3.org/2000/svg"
     width="20in" height="12in"
     viewBox="0 0 2560 1536">
  <path id="Path"
        fill="none" stroke="black" stroke-width="1"
        d="M 205.23,762.23
           C 203.93,760.37 203.75,758.13 204.69,755.52
             204.86,755.14 205.05,754.77 205.23,754.41
             205.42,754.03 205.61,753.66 205.80,753.28
             205.80,753.28 205.80,735.92 205.80,735.92
             205.80,732.56 205.70,729.20 205.52,725.84
             205.33,722.48 205.14,719.12 204.95,715.77
             204.59,706.25 204.41,696.87 204.41,687.62
             204.41,678.39 204.50,669.10 204.69,659.77
             204.88,650.80 205.10,642.02 205.38,633.44
             205.66,624.86 205.89,616.09 206.08,607.12
             206.08,607.12 206.08,600.95 206.08,600.95
             205.89,593.86 205.66,586.77 205.38,579.69
             205.10,572.59 204.88,565.50 204.69,558.41
             204.69,554.67 204.69,551.03 204.69,547.48
             204.69,543.93 204.87,540.39 205.23,536.84
             205.42,534.04 205.66,531.24 205.94,528.44
             206.22,525.64 206.83,522.84 207.77,520.05
             207.77,519.86 207.95,519.39 208.31,518.64
             208.31,516.40 209.38,514.40 211.53,512.62
             213.69,510.84 215.79,509.68 217.84,509.12
             222.32,508.19 226.85,507.58 231.42,507.30
             235.99,507.02 240.61,506.97 245.28,507.16
             254.99,507.72 264.55,509.68 273.98,513.05
             283.41,516.40 291.48,521.72 298.20,529.00
             301.74,532.73 304.54,537.02 306.59,541.88
             308.66,546.73 309.87,551.68 310.23,556.72
             310.61,559.90 310.84,563.03 310.94,566.11
             311.03,569.18 310.61,572.31 309.69,575.48
             309.31,577.35 308.89,579.12 308.42,580.80
             307.95,582.48 307.25,584.06 306.31,585.56
             305.38,587.24 304.50,588.92 303.66,590.61
             302.82,592.29 301.84,593.87 300.72,595.36
             299.04,597.98 297.18,600.50 295.12,602.92
             293.07,605.35 290.83,607.68 288.41,609.92
             285.79,612.54 283.08,615.06 280.28,617.48
             277.48,619.91 274.58,622.25 271.59,624.48
             270.66,625.04 269.83,625.59 269.08,626.16
             268.33,626.72 267.58,627.19 266.84,627.56
             268.89,627.94 270.85,628.36 272.72,628.83
             274.58,629.29 276.54,629.80 278.59,630.36
             284.20,631.85 289.47,634.09 294.42,637.08
             299.37,640.07 303.71,643.80 307.44,648.28
             311.73,652.95 314.95,658.23 317.09,664.11
             319.24,669.98 320.78,676.00 321.72,682.16
             322.66,687.57 323.30,693.18 323.67,698.97
             324.05,704.75 323.68,710.45 322.56,716.05
             322.00,718.48 321.34,720.90 320.59,723.33
             319.85,725.75 318.73,728.07 317.23,730.31
             314.25,735.54 310.43,740.21 305.77,744.31
             300.72,748.80 295.07,752.40 288.81,755.11
             282.56,757.81 276.17,760.18 269.64,762.23
             260.30,765.04 250.79,766.81 241.08,767.56
             231.37,768.31 221.66,767.75 211.95,765.88
             210.65,765.50 209.44,765.09 208.31,764.62
             207.20,764.16 206.17,763.36 205.23,762.23 Z
           M 227.92,543.84
           C 227.92,548.14 227.97,552.52 228.06,557.00
             228.16,561.48 228.30,565.96 228.48,570.44
             228.48,570.44 229.31,591.44 229.31,591.44
             229.31,595.18 229.31,598.91 229.31,602.64
             229.31,606.37 229.22,610.11 229.05,613.84
             228.86,616.09 228.77,618.37 228.77,620.70
             228.77,623.04 228.77,625.42 228.77,627.84
             229.13,627.47 229.88,627.09 231.00,626.72
             234.18,625.61 237.21,624.26 240.09,622.67
             242.99,621.08 245.93,619.45 248.92,617.77
             252.65,615.15 256.29,612.54 259.83,609.92
             263.38,607.31 266.74,604.41 269.92,601.23
             274.21,596.95 278.04,592.28 281.41,587.23
             283.46,583.70 285.04,580.15 286.16,576.59
             286.72,574.36 287.05,572.12 287.14,569.88
             287.23,567.64 287.19,565.40 287.00,563.16
             286.81,560.54 286.39,558.07 285.73,555.73
             285.09,553.40 284.30,551.02 283.36,548.59
             281.49,544.87 279.25,541.70 276.64,539.08
             275.15,537.78 273.66,536.52 272.16,535.31
             270.66,534.09 268.99,533.02 267.12,532.08
             262.83,530.03 258.63,528.44 254.52,527.31
             248.73,526.01 243.23,525.27 238.00,525.08
             236.51,525.08 235.06,525.08 233.66,525.08
             232.26,525.08 230.81,525.17 229.31,525.36
             228.76,528.54 228.44,531.62 228.34,534.61
             228.25,537.59 228.11,540.67 227.92,543.84 Z
           M 227.64,668.72
           C 227.64,675.44 227.64,682.20 227.64,689.02
             227.64,695.83 227.83,702.69 228.20,709.59
             228.39,712.77 228.58,716.04 228.77,719.41
             228.95,722.76 229.05,726.12 229.05,729.48
             229.22,732.84 229.31,736.20 229.31,739.56
             229.31,742.92 229.31,746.18 229.31,749.36
             230.06,749.55 230.77,749.64 231.42,749.64
             232.08,749.64 232.77,749.73 233.52,749.92
             236.50,749.92 239.45,749.83 242.34,749.64
             245.24,749.45 248.18,749.08 251.16,748.52
             258.25,747.40 265.34,745.54 272.44,742.92
             276.91,741.06 281.02,739.10 284.77,737.05
             285.88,736.30 286.95,735.55 287.97,734.81
             289.00,734.06 289.98,733.22 290.92,732.28
             290.92,732.28 295.12,727.23 295.12,727.23
             295.86,725.75 296.52,724.35 297.08,723.05
             297.64,721.73 298.11,720.34 298.48,718.84
             299.41,715.48 299.92,712.07 300.02,708.62
             300.11,705.17 299.97,701.67 299.59,698.12
             299.23,693.09 298.58,688.09 297.64,683.14
             296.70,678.20 295.21,673.48 293.16,669.00
             292.04,666.95 290.83,664.95 289.52,662.98
             288.21,661.03 286.72,659.20 285.05,657.52
             282.62,655.09 279.63,652.85 276.08,650.80
             272.35,648.75 268.61,647.34 264.88,646.59
             261.71,645.67 258.58,645.06 255.50,644.78
             252.41,644.50 249.29,644.27 246.12,644.08
             243.88,643.89 241.64,643.84 239.41,643.94
             237.16,644.03 234.93,644.08 232.69,644.08
             231.56,644.27 230.07,644.17 228.20,643.80
             228.02,647.90 227.92,652.01 227.92,656.12
             227.92,660.23 227.83,664.43 227.64,668.72 Z
           M 413.08,752.44
           C 414.02,752.62 414.99,752.81 416.02,753.00
             417.05,753.19 417.94,753.75 418.69,754.69
             419.24,755.43 419.47,756.22 419.38,757.06
             419.28,757.90 419.05,758.69 418.69,759.44
             417.56,761.49 415.69,763.08 413.08,764.20
             410.46,765.32 407.94,765.69 405.52,765.31
             404.40,765.14 403.23,765.00 402.02,764.91
             400.80,764.81 399.64,764.77 398.52,764.77
             398.52,764.77 393.77,764.77 393.77,764.77
             388.91,764.77 384.15,765.04 379.48,765.59
             374.44,765.97 369.35,766.25 364.22,766.44
             359.08,766.62 353.90,766.44 348.67,765.88
             347.74,765.69 346.77,765.46 345.73,765.19
             344.71,764.91 343.83,764.39 343.08,763.64
             341.96,762.15 341.87,760.56 342.80,758.88
             342.61,755.34 342.42,751.79 342.23,748.25
             342.05,744.70 341.88,741.15 341.69,737.59
             341.50,733.30 341.36,728.96 341.27,724.58
             341.17,720.20 341.12,715.86 341.12,711.56
             340.94,693.09 341.17,674.75 341.83,656.55
             342.48,638.34 343.55,620.09 345.05,601.80
             345.23,600.87 345.79,600.08 346.72,599.42
             347.66,598.77 348.41,598.25 348.97,597.88
             351.21,596.57 353.72,595.73 356.52,595.36
             357.64,595.17 358.76,595.08 359.88,595.08
             361.00,595.08 362.03,595.27 362.97,595.64
             364.46,596.39 365.11,597.51 364.92,599.00
             363.24,619.91 362.12,641.00 361.56,662.28
             361.19,670.30 361.00,678.23 361.00,686.08
             361.00,693.92 361.09,701.76 361.28,709.59
             361.28,713.71 361.33,717.77 361.42,721.78
             361.52,725.79 361.66,729.85 361.84,733.95
             361.84,737.13 361.98,740.36 362.25,743.62
             362.53,746.89 362.77,750.11 362.95,753.28
             362.95,753.28 363.14,753.38 363.52,753.56
             363.52,753.56 368.56,753.56 368.56,753.56
             368.56,753.56 382.84,752.72 382.84,752.72
             387.88,752.34 392.92,752.06 397.95,751.88
             402.99,751.69 408.04,751.88 413.08,752.44 Z
           M 504.31,599.55
           C 504.69,599.55 505.38,599.69 506.41,599.97
             507.44,600.25 507.95,600.76 507.95,601.50
             508.89,613.82 509.17,626.01 508.80,638.05
             508.42,650.09 507.39,662.27 505.72,674.58
             505.72,674.58 505.72,673.47 505.72,673.47
             505.53,676.64 505.16,679.76 504.59,682.84
             504.03,685.93 503.38,689.05 502.64,692.22
             501.14,700.25 499.36,708.23 497.31,716.17
             495.26,724.10 492.65,731.98 489.48,739.83
             488.18,743.00 486.73,746.12 485.14,749.20
             483.55,752.29 481.64,755.14 479.41,757.75
             476.79,760.93 473.34,763.26 469.05,764.75
             467.55,765.31 465.97,765.83 464.28,766.30
             462.60,766.77 460.83,767.00 458.97,767.00
             458.03,767.00 457.00,766.95 455.88,766.84
             454.76,766.73 453.74,766.45 452.81,766.00
             449.07,764.32 446.27,761.53 444.41,757.61
             442.54,753.70 440.86,749.96 439.36,746.41
             436.94,739.70 435.08,732.80 433.77,725.72
             432.46,718.62 431.44,711.44 430.69,704.16
             429.56,689.24 429.47,674.37 430.41,659.55
             431.34,644.71 432.46,629.84 433.77,614.91
             433.95,612.86 434.14,610.90 434.33,609.03
             434.52,607.17 434.70,605.21 434.89,603.16
             434.89,602.22 435.07,601.57 435.44,601.20
             435.81,600.83 436.38,600.36 437.12,599.80
             438.06,599.05 439.13,598.49 440.34,598.12
             441.56,597.75 442.73,597.38 443.84,597.00
             446.08,595.96 448.51,595.62 451.12,596.00
             451.50,596.00 452.24,596.12 453.36,596.34
             454.48,596.56 454.95,597.12 454.77,598.00
             454.39,600.98 454.16,603.96 454.06,606.95
             453.97,609.93 453.73,612.92 453.36,615.91
             452.42,625.98 451.58,636.10 450.83,646.27
             450.09,656.42 449.81,666.63 450.00,676.89
             450.00,684.35 450.28,691.77 450.84,699.14
             451.41,706.51 452.43,713.92 453.92,721.38
             454.67,724.73 455.46,728.14 456.30,731.59
             457.14,735.04 458.21,738.35 459.52,741.52
             460.45,743.57 461.29,745.57 462.03,747.53
             462.78,749.49 463.72,751.40 464.84,753.27
             466.33,750.84 467.59,748.37 468.61,745.84
             469.64,743.32 470.62,740.76 471.56,738.14
             473.05,734.23 474.35,730.26 475.47,726.25
             476.59,722.23 477.62,718.17 478.56,714.06
             480.43,706.59 482.10,699.04 483.59,691.39
             484.16,689.14 484.62,686.90 485.00,684.66
             485.38,682.42 485.66,680.18 485.84,677.94
             485.84,677.94 485.84,678.78 485.84,678.78
             486.21,676.17 486.53,673.55 486.81,670.94
             487.09,668.32 487.33,665.71 487.52,663.11
             488.45,653.59 488.92,644.21 488.92,634.97
             488.92,625.73 488.64,616.35 488.08,606.83
             487.89,605.89 488.08,605.19 488.64,604.72
             489.20,604.25 489.76,603.84 490.31,603.47
             492.36,601.97 494.60,600.95 497.03,600.39
             498.16,600.02 499.32,599.73 500.53,599.55
             501.75,599.36 503.01,599.36 504.31,599.55 Z
           M 591.80,595.92
           C 592.73,595.73 593.76,595.78 594.88,596.06
             596.00,596.34 597.07,596.81 598.09,597.47
             599.12,598.12 599.91,598.91 600.47,599.84
             601.03,600.78 601.22,601.81 601.05,602.92
             600.67,605.54 599.32,607.45 596.98,608.67
             594.65,609.88 592.36,610.67 590.12,611.05
             582.28,612.35 574.53,612.91 566.88,612.72
             559.23,612.53 551.48,612.62 543.64,613.00
             542.89,621.73 542.33,630.41 541.95,639.05
             541.59,647.68 541.22,656.45 540.84,665.36
             540.84,665.36 540.84,674.00 540.84,674.00
             549.05,673.45 557.26,673.31 565.47,673.59
             573.69,673.87 581.91,673.35 590.12,672.05
             592.18,671.68 594.32,672.15 596.56,673.45
             598.80,674.75 599.73,676.61 599.36,679.03
             598.98,681.65 597.63,683.56 595.30,684.78
             592.96,685.99 590.68,686.78 588.44,687.16
             580.41,688.46 572.44,688.98 564.50,688.70
             556.56,688.42 548.58,688.56 540.56,689.11
             540.56,689.11 540.56,711.80 540.56,711.80
             540.75,715.90 540.84,719.92 540.84,723.84
             540.84,727.76 540.94,731.68 541.12,735.59
             541.31,738.77 541.49,741.86 541.67,744.84
             541.86,747.82 542.05,750.90 542.23,754.08
             542.23,754.08 543.08,754.08 543.08,754.08
             543.83,754.27 545.04,754.36 546.72,754.36
             546.72,754.36 548.41,754.36 548.41,754.36
             550.83,754.17 553.21,754.03 555.55,753.94
             557.88,753.84 560.26,753.61 562.69,753.23
             567.53,752.86 572.47,752.58 577.52,752.39
             582.55,752.20 587.50,752.39 592.36,752.95
             593.30,753.14 594.27,753.38 595.30,753.66
             596.33,753.94 597.21,754.54 597.95,755.47
             599.08,756.78 599.17,758.37 598.23,760.23
             596.93,762.29 594.97,763.83 592.36,764.86
             589.74,765.88 587.32,766.30 585.08,766.11
             583.77,765.73 582.56,765.55 581.44,765.55
             580.32,765.55 579.11,765.55 577.80,765.55
             577.05,765.37 575.94,765.28 574.44,765.28
             574.44,765.28 572.77,765.28 572.77,765.28
             570.34,765.46 568.00,765.59 565.77,765.69
             563.52,765.78 561.19,766.02 558.77,766.39
             553.72,766.77 548.63,767.05 543.50,767.23
             538.36,767.42 533.18,767.23 527.95,766.67
             527.02,766.48 526.05,766.25 525.02,765.97
             523.99,765.69 523.20,765.09 522.64,764.16
             521.34,762.84 521.24,761.35 522.36,759.67
             522.17,756.32 521.94,753.01 521.66,749.73
             521.38,746.46 521.23,743.15 521.23,739.80
             521.05,735.70 520.92,731.59 520.83,727.48
             520.73,723.37 520.69,719.26 520.69,715.16
             520.12,680.48 521.24,645.87 524.05,611.33
             523.11,610.02 522.64,608.62 522.64,607.12
             523.02,604.51 524.37,602.60 526.70,601.39
             529.04,600.17 531.32,599.38 533.56,599.00
             543.27,597.70 552.97,597.23 562.67,597.61
             572.38,597.98 582.09,597.41 591.80,595.92 Z
           M 695.77,686.36
           C 696.69,686.92 697.30,687.58 697.58,688.33
             697.86,689.07 698.09,690.00 698.28,691.12
             698.47,694.29 698.61,697.51 698.70,700.78
             698.80,704.05 698.75,707.27 698.56,710.44
             698.56,713.43 698.42,716.42 698.14,719.41
             697.86,722.39 697.34,725.37 696.59,728.36
             695.84,731.54 694.95,734.67 693.92,737.75
             692.90,740.82 691.55,743.67 689.88,746.28
             688.01,749.27 685.96,751.98 683.72,754.41
             681.48,756.84 678.86,758.98 675.88,760.84
             673.63,762.15 671.30,763.36 668.88,764.48
             666.45,765.60 663.93,766.44 661.31,767.00
             655.91,768.12 650.77,768.03 645.92,766.72
             643.87,766.16 642.05,765.37 640.45,764.34
             638.87,763.31 637.33,762.15 635.84,760.84
             633.23,758.23 631.03,755.29 629.25,752.03
             627.48,748.76 625.94,745.54 624.64,742.36
             621.84,734.33 619.83,726.12 618.61,717.72
             617.40,709.32 616.52,700.92 615.95,692.52
             615.59,685.42 615.36,678.33 615.27,671.23
             615.17,664.14 615.59,657.05 616.52,649.95
             617.27,644.55 618.34,639.05 619.73,633.45
             621.14,627.85 623.24,622.62 626.03,617.77
             627.53,614.96 629.26,612.35 631.22,609.92
             633.18,607.50 635.46,605.35 638.08,603.48
             641.25,601.25 644.61,599.52 648.16,598.31
             651.71,597.09 655.35,596.30 659.08,595.92
             662.62,595.55 666.16,595.64 669.70,596.20
             673.25,596.77 676.43,598.07 679.23,600.12
             681.85,601.80 683.95,603.76 685.53,606.00
             687.12,608.24 688.48,610.67 689.59,613.28
             691.28,617.39 692.40,621.68 692.95,626.16
             693.52,630.64 693.89,635.12 694.08,639.59
             694.08,639.59 694.08,644.64 694.08,644.64
             694.08,645.76 693.70,646.78 692.95,647.72
             692.21,648.66 691.47,649.40 690.72,649.95
             688.10,651.64 685.58,652.48 683.16,652.48
             680.54,652.86 678.21,652.39 676.16,651.08
             674.66,650.15 673.92,648.66 673.92,646.59
             673.92,645.29 673.92,644.09 673.92,642.97
             673.92,641.84 673.83,640.62 673.64,639.31
             673.45,635.59 673.03,631.90 672.38,628.27
             671.72,624.62 670.55,621.03 668.88,617.48
             667.57,615.25 666.27,613.47 664.95,612.16
             664.95,612.16 662.44,610.48 662.44,610.48
             661.69,610.11 661.12,609.92 660.75,609.92
             660.56,609.92 660.38,609.88 660.19,609.78
             660.01,609.69 659.83,609.64 659.64,609.64
             659.64,609.64 659.08,609.64 659.08,609.64
             658.52,609.64 658.00,609.69 657.53,609.78
             657.06,609.88 656.64,609.92 656.28,609.92
             655.91,609.92 655.67,609.97 655.58,610.06
             655.48,610.16 655.34,610.20 655.16,610.20
             654.78,610.20 654.50,610.30 654.31,610.48
             654.12,610.48 654.03,610.53 654.03,610.62
             654.03,610.72 653.94,610.77 653.75,610.77
             653.75,610.77 653.47,610.77 653.47,610.77
             653.28,610.77 653.14,610.81 653.05,610.91
             652.96,611.00 652.83,611.05 652.64,611.05
             652.27,611.41 651.98,611.59 651.80,611.59
             651.42,611.97 651.14,612.20 650.95,612.30
             650.77,612.39 650.48,612.62 650.11,613.00
             650.11,613.00 648.72,614.41 648.72,614.41
             648.16,614.96 647.50,615.80 646.75,616.92
             645.26,618.98 644.09,621.03 643.25,623.08
             642.41,625.13 641.53,627.28 640.59,629.52
             639.66,632.32 638.91,635.17 638.34,638.06
             637.79,640.96 637.33,643.99 636.95,647.16
             636.02,653.69 635.56,660.37 635.56,667.19
             635.56,674.00 635.75,680.67 636.12,687.20
             636.31,688.70 636.41,690.09 636.41,691.41
             636.41,692.71 636.50,694.01 636.69,695.31
             637.06,699.62 637.52,703.96 638.08,708.34
             638.64,712.73 639.39,717.07 640.33,721.36
             641.27,725.09 642.24,728.73 643.27,732.28
             644.30,735.82 645.65,739.37 647.33,742.92
             649.19,746.28 651.24,749.07 653.48,751.31
             654.23,752.06 655.16,752.72 656.28,753.28
             656.47,753.47 656.66,753.56 656.84,753.56
             657.03,753.56 657.31,753.66 657.69,753.84
             657.69,753.84 658.81,753.84 658.81,753.84
             659.18,753.66 659.64,753.56 660.20,753.56
             660.39,753.38 660.86,753.09 661.61,752.72
             662.35,752.34 662.81,752.06 663.00,751.88
             663.19,751.88 663.38,751.78 663.56,751.59
             663.56,751.59 666.08,749.92 666.08,749.92
             666.08,749.92 666.64,749.36 666.64,749.36
             666.64,749.36 666.92,749.36 666.92,749.36
             667.48,748.61 668.05,747.96 668.61,747.41
             669.17,746.84 669.73,746.19 670.28,745.44
             672.33,742.09 673.92,738.73 675.05,735.36
             677.10,728.45 678.22,721.41 678.41,714.22
             678.59,707.03 678.50,699.89 678.12,692.80
             677.94,691.87 678.26,690.89 679.09,689.86
             679.94,688.83 680.73,688.13 681.48,687.77
             683.54,686.27 686.05,685.33 689.05,684.95
             691.66,684.59 693.90,685.06 695.77,686.36 Z
           M 797.59,653.31
           C 795.91,659.48 793.30,665.23 789.75,670.55
             786.21,675.86 782.01,680.48 777.16,684.41
             777.53,685.34 777.91,686.73 778.28,688.59
             779.22,691.21 780.01,693.82 780.66,696.44
             781.31,699.05 782.02,701.67 782.77,704.28
             784.07,709.14 785.32,713.85 786.53,718.42
             787.75,723.00 789.01,727.62 790.31,732.28
             790.69,733.96 791.11,735.59 791.58,737.19
             792.05,738.77 792.47,740.40 792.84,742.08
             793.22,743.02 793.49,744.05 793.67,745.17
             793.86,746.29 794.14,747.31 794.52,748.23
             795.08,750.29 795.68,752.30 796.33,754.27
             796.98,756.23 797.50,758.23 797.88,760.28
             798.06,762.34 796.99,763.97 794.66,765.19
             792.32,766.40 790.41,767.19 788.92,767.56
             786.30,768.31 783.88,768.50 781.64,768.12
             781.08,767.94 780.33,767.70 779.39,767.42
             778.46,767.14 777.91,766.53 777.72,765.59
             777.34,762.99 776.73,760.57 775.89,758.33
             775.05,756.08 774.36,753.65 773.80,751.05
             773.61,750.11 773.42,749.27 773.23,748.53
             773.05,747.78 772.77,746.94 772.41,746.00
             771.84,743.76 771.28,741.52 770.72,739.28
             770.16,737.04 769.50,734.80 768.77,732.56
             767.45,727.90 766.19,723.23 764.97,718.56
             763.76,713.90 762.50,709.14 761.20,704.28
             760.83,702.79 760.41,701.30 759.94,699.81
             759.47,698.31 759.05,696.81 758.69,695.31
             754.76,697.19 750.93,698.50 747.20,699.23
             741.41,700.55 735.44,701.39 729.28,701.77
             729.28,701.77 729.28,712.69 729.28,712.69
             729.28,716.61 729.33,720.52 729.42,724.44
             729.52,728.36 729.66,732.37 729.84,736.48
             730.03,740.21 730.26,743.90 730.53,747.55
             730.81,751.18 730.95,754.87 730.95,758.59
             730.95,760.09 730.30,761.40 729.00,762.52
             728.06,763.45 726.98,764.11 725.77,764.48
             724.55,764.86 723.39,765.23 722.28,765.59
             719.66,766.53 717.14,766.72 714.72,766.16
             714.16,766.16 713.41,765.98 712.47,765.61
             711.54,765.23 711.08,764.67 711.08,763.92
             710.89,760.18 710.66,756.40 710.38,752.58
             710.10,748.76 709.88,744.98 709.69,741.23
             709.50,737.32 709.41,733.36 709.41,729.34
             709.41,725.32 709.31,721.36 709.12,717.44
             708.94,698.96 709.17,680.62 709.83,662.42
             710.48,644.23 711.55,625.98 713.05,607.69
             713.42,606.94 713.61,606.56 713.61,606.56
             713.42,604.51 714.30,602.70 716.27,601.11
             718.22,599.52 720.13,598.53 722.00,598.16
             726.29,597.23 730.68,596.48 735.16,595.92
             739.63,595.36 744.21,595.27 748.88,595.64
             755.97,596.02 762.88,597.70 769.59,600.69
             776.32,603.67 782.11,607.87 786.95,613.28
             791.80,618.70 795.26,624.95 797.31,632.05
             799.38,639.14 799.47,646.23 797.59,653.31 Z
           M 776.88,655.84
           C 778.00,651.92 778.56,647.90 778.56,643.80
             778.00,639.51 776.88,635.40 775.20,631.48
             772.77,627.01 769.97,623.18 766.80,620.00
             763.80,617.57 760.91,615.62 758.12,614.12
             756.81,613.56 755.50,613.05 754.19,612.58
             752.88,612.11 751.49,611.69 750.00,611.31
             749.81,611.14 749.62,611.05 749.44,611.05
             749.06,611.05 748.59,611.00 748.03,610.91
             747.48,610.81 747.02,610.77 746.64,610.77
             744.77,610.39 743.19,610.20 741.88,610.20
             741.88,610.20 738.52,610.20 738.52,610.20
             737.59,610.20 736.75,610.20 736.00,610.20
             735.25,610.20 734.41,610.30 733.48,610.48
             733.48,610.48 732.64,610.48 732.64,610.48
             731.89,620.01 731.28,629.43 730.81,638.77
             730.35,648.10 729.94,657.53 729.56,667.05
             729.38,670.40 729.28,673.81 729.28,677.27
             729.28,680.71 729.28,684.12 729.28,687.48
             731.14,687.30 732.96,687.16 734.73,687.06
             736.52,686.97 738.43,686.73 740.48,686.36
             740.48,686.36 740.67,686.27 741.05,686.08
             741.60,686.08 742.44,685.89 743.56,685.52
             745.43,685.14 746.83,684.77 747.77,684.41
             748.32,684.41 748.78,684.22 749.16,683.84
             749.53,683.84 749.81,683.75 750.00,683.56
             750.00,683.56 754.20,681.88 754.20,681.88
             754.94,681.32 756.06,680.67 757.56,679.92
             757.75,679.92 757.94,679.83 758.12,679.64
             758.31,679.64 758.50,679.55 758.69,679.36
             759.61,678.61 760.59,677.91 761.61,677.27
             762.64,676.61 763.62,675.81 764.56,674.88
             764.56,674.69 764.66,674.59 764.84,674.59
             765.03,674.59 765.22,674.50 765.41,674.31
             765.41,673.95 765.59,673.77 765.95,673.77
             766.33,673.39 766.70,672.97 767.08,672.50
             767.45,672.03 767.83,671.61 768.20,671.23
             769.69,669.37 770.91,667.79 771.84,666.48
             774.08,663.12 775.76,659.57 776.88,655.84 Z
           M 899.41,650.75
           C 899.77,653.74 900.09,656.73 900.38,659.72
             900.66,662.70 900.80,665.78 900.80,668.95
             900.80,674.93 900.52,681.00 899.95,687.16
             899.59,690.34 899.17,693.56 898.70,696.83
             898.23,700.09 897.72,703.40 897.16,706.75
             896.41,710.12 895.58,713.39 894.64,716.56
             893.70,719.73 892.68,722.90 891.56,726.08
             888.95,733.17 885.77,739.61 882.05,745.39
             877.93,751.92 873.08,757.06 867.48,760.80
             863.00,763.96 857.96,765.92 852.36,766.67
             848.25,767.61 844.15,767.52 840.05,766.39
             839.11,766.02 838.22,765.65 837.38,765.28
             836.54,764.91 835.66,764.53 834.72,764.16
             833.23,763.59 831.73,762.57 830.23,761.08
             827.80,759.39 825.66,757.06 823.80,754.08
             819.50,748.10 816.43,741.56 814.56,734.47
             813.62,730.93 812.73,727.43 811.89,723.98
             811.05,720.53 810.45,717.02 810.08,713.47
             807.84,698.92 807.46,683.61 808.95,667.55
             809.89,660.28 811.01,653.37 812.31,646.83
             813.62,640.11 816.05,633.67 819.59,627.52
             822.58,621.73 826.79,616.50 832.20,611.83
             834.82,609.78 837.47,607.77 840.17,605.81
             842.88,603.86 845.82,602.13 849.00,600.64
             849.19,600.45 849.38,600.36 849.56,600.36
             849.75,600.36 850.03,600.27 850.41,600.08
             850.77,599.89 851.09,599.70 851.38,599.52
             851.66,599.33 851.98,599.14 852.36,598.95
             853.30,598.58 854.23,598.21 855.16,597.84
             856.09,597.47 857.12,597.19 858.23,597.00
             859.17,596.67 860.15,596.42 861.17,596.25
             862.20,596.09 863.28,596.00 864.41,596.00
             870.19,596.67 875.04,598.96 878.95,602.88
             881.02,604.93 882.70,606.98 884.00,609.03
             884.75,610.16 885.45,611.28 886.09,612.41
             886.75,613.52 887.45,614.73 888.20,616.03
             890.63,621.45 892.87,627.05 894.92,632.83
             895.85,635.82 896.69,638.76 897.44,641.66
             898.19,644.55 898.84,647.59 899.41,650.75 Z
           M 879.80,690.28
           C 880.36,685.05 880.64,679.73 880.64,674.31
             880.64,664.98 879.52,655.65 877.28,646.31
             876.53,643.71 875.83,641.24 875.17,638.91
             874.52,636.57 873.73,634.29 872.80,632.05
             871.87,629.62 870.89,627.29 869.86,625.05
             868.84,622.81 867.77,620.66 866.64,618.59
             865.52,616.73 864.22,614.87 862.72,613.00
             861.41,611.32 859.92,609.83 858.23,608.52
             858.23,608.52 857.97,608.23 857.97,608.23
             857.22,608.61 856.28,609.17 855.16,609.92
             854.41,610.30 853.48,610.86 852.36,611.59
             852.17,611.78 851.98,611.88 851.80,611.88
             851.61,611.88 851.52,611.97 851.52,612.16
             851.34,612.34 851.16,612.44 850.97,612.44
             850.78,612.44 850.69,612.53 850.69,612.72
             850.31,613.09 850.12,613.28 850.12,613.28
             849.75,613.66 849.42,613.94 849.14,614.12
             848.86,614.31 848.53,614.50 848.16,614.69
             848.16,614.69 844.80,618.05 844.80,618.05
             844.61,618.23 844.52,618.41 844.52,618.59
             844.52,618.59 844.25,618.59 844.25,618.59
             843.88,618.97 843.64,619.25 843.55,619.44
             843.45,619.62 843.22,619.91 842.84,620.28
             842.66,620.66 842.47,620.98 842.28,621.27
             842.09,621.55 841.81,621.87 841.44,622.23
             841.07,622.80 840.70,623.36 840.33,623.92
             839.95,624.48 839.58,625.04 839.20,625.59
             838.83,626.16 838.50,626.72 838.22,627.28
             837.94,627.84 837.61,628.50 837.25,629.23
             835.19,633.16 833.79,637.18 833.05,641.28
             831.92,645.20 831.08,649.30 830.53,653.59
             829.78,658.07 829.22,662.65 828.84,667.31
             828.47,669.56 828.28,671.81 828.28,674.05
             828.28,676.29 828.28,678.62 828.28,681.05
             828.28,683.84 828.33,686.64 828.42,689.44
             828.52,692.24 828.66,695.04 828.84,697.84
             829.22,700.65 829.55,703.40 829.83,706.11
             830.11,708.81 830.52,711.46 831.08,714.08
             831.45,716.70 831.92,719.21 832.48,721.64
             833.05,724.07 833.79,726.59 834.72,729.20
             836.22,734.43 838.27,739.20 840.88,743.48
             841.81,745.54 843.02,747.40 844.52,749.08
             846.20,751.13 847.88,752.62 849.56,753.56
             850.68,754.68 851.70,755.23 852.64,755.23
             852.64,755.23 852.83,755.33 853.20,755.52
             853.20,755.52 854.05,755.52 854.05,755.52
             854.05,755.52 854.59,754.95 854.59,754.95
             854.78,754.95 855.16,754.68 855.72,754.12
             856.66,753.56 857.59,752.72 858.52,751.59
             858.52,751.59 858.80,751.31 858.80,751.31
             858.80,751.31 858.89,751.13 859.08,750.77
             859.08,750.77 859.27,750.58 859.64,750.20
             859.64,750.20 863.00,746.00 863.00,746.00
             863.38,745.25 863.79,744.55 864.25,743.91
             864.72,743.25 865.14,742.45 865.52,741.52
             865.89,740.78 866.31,740.03 866.78,739.28
             867.25,738.53 867.66,737.70 868.03,736.77
             870.09,732.29 872.05,727.34 873.92,721.92
             874.66,719.31 875.31,716.70 875.88,714.08
             876.44,711.46 877.00,708.85 877.56,706.23
             877.93,703.45 878.30,700.74 878.67,698.12
             879.05,695.51 879.42,692.90 879.80,690.28 Z
           M 990.23,611.88
           C 995.09,617.29 998.54,623.50 1000.59,630.50
             1002.66,637.50 1002.75,644.55 1000.88,651.64
             999.01,658.73 995.84,665.32 991.36,671.39
             986.88,677.45 981.56,682.54 975.41,686.64
             971.66,689.26 967.70,691.50 963.50,693.36
             959.30,695.23 954.96,696.62 950.48,697.56
             944.69,698.87 938.72,699.70 932.56,700.08
             932.56,700.08 932.56,713.23 932.56,713.23
             932.75,717.16 932.84,721.09 932.84,725.00
             932.84,728.92 932.94,732.84 933.12,736.77
             933.31,740.50 933.54,744.23 933.81,747.97
             934.09,751.70 934.23,755.43 934.23,759.16
             934.23,760.66 933.58,762.06 932.28,763.36
             930.23,764.85 927.99,765.88 925.56,766.44
             922.76,767.00 920.24,767.19 918.00,767.00
             917.62,766.81 916.92,766.58 915.89,766.30
             914.87,766.02 914.36,765.41 914.36,764.48
             914.36,760.56 914.22,756.68 913.94,752.86
             913.66,749.04 913.42,745.16 913.23,741.23
             913.05,736.95 912.92,732.79 912.83,728.78
             912.73,724.77 912.69,720.62 912.69,716.31
             912.31,697.84 912.49,679.50 913.23,661.30
             913.98,643.10 915.11,624.86 916.61,606.56
             916.61,606.00 916.70,605.62 916.89,605.44
             916.89,603.39 917.82,601.57 919.69,599.98
             921.55,598.39 923.41,597.41 925.28,597.05
             933.86,595.17 942.63,594.33 951.59,594.52
             958.88,594.89 965.92,596.53 972.73,599.42
             979.55,602.32 985.38,606.47 990.23,611.88 Z
           M 980.44,654.16
           C 981.00,652.11 981.38,650.15 981.56,648.28
             981.75,646.42 981.84,644.46 981.84,642.41
             981.28,638.29 980.16,634.28 978.48,630.36
             976.05,625.88 973.25,622.05 970.08,618.88
             967.46,616.64 964.66,614.68 961.69,613.00
             960.38,612.44 959.06,611.93 957.75,611.47
             956.45,611.00 955.05,610.58 953.56,610.20
             953.19,610.20 952.95,610.16 952.86,610.06
             952.77,609.97 952.62,609.92 952.44,609.92
             952.06,609.92 951.64,609.88 951.17,609.78
             950.71,609.69 950.30,609.64 949.92,609.64
             948.98,609.45 948.14,609.31 947.39,609.22
             946.65,609.12 945.81,609.08 944.88,609.08
             944.88,609.08 941.80,609.08 941.80,609.08
             940.87,609.08 940.03,609.12 939.28,609.22
             938.53,609.31 937.69,609.36 936.77,609.36
             936.58,609.36 936.44,609.41 936.34,609.50
             936.25,609.59 936.11,609.64 935.92,609.64
             935.17,619.16 934.56,628.64 934.09,638.06
             933.63,647.49 933.22,656.96 932.84,666.48
             932.84,669.65 932.80,672.82 932.70,676.00
             932.61,679.18 932.56,682.35 932.56,685.52
             936.29,685.52 940.02,685.24 943.77,684.69
             943.95,684.50 944.13,684.41 944.31,684.41
             944.88,684.41 945.72,684.22 946.84,683.84
             947.58,683.66 948.28,683.52 948.94,683.42
             949.59,683.33 950.38,683.09 951.31,682.72
             951.50,682.53 951.69,682.44 951.88,682.44
             952.06,682.44 952.34,682.34 952.72,682.16
             953.09,682.16 953.28,682.06 953.28,681.88
             953.28,681.88 957.48,680.20 957.48,680.20
             958.04,679.83 958.64,679.50 959.30,679.22
             959.95,678.94 960.56,678.61 961.12,678.23
             961.31,678.23 961.41,678.19 961.41,678.09
             961.41,678.00 961.50,677.95 961.69,677.95
             961.86,677.78 962.05,677.69 962.23,677.69
             963.17,676.94 964.10,676.23 965.03,675.58
             965.97,674.92 966.91,674.23 967.84,673.48
             968.03,673.30 968.17,673.11 968.27,672.92
             968.36,672.73 968.59,672.55 968.95,672.36
             968.95,672.36 969.23,672.08 969.23,672.08
             969.23,672.08 971.77,669.56 971.77,669.56
             973.25,667.70 974.47,666.11 975.41,664.80
             977.64,661.45 979.32,657.90 980.44,654.16 Z" />
  <path id="Blueberries"
        fill="none" stroke="black" stroke-width="1"
        d="M 1335.23,759.23
           C 1333.93,757.37 1333.75,755.13 1334.69,752.52
             1334.86,752.14 1335.05,751.77 1335.23,751.41
             1335.42,751.03 1335.61,750.66 1335.80,750.28
             1335.80,750.28 1335.80,732.92 1335.80,732.92
             1335.80,729.56 1335.70,726.20 1335.52,722.84
             1335.33,719.48 1335.14,716.12 1334.95,712.77
             1334.59,703.25 1334.41,693.87 1334.41,684.62
             1334.41,675.39 1334.50,666.10 1334.69,656.77
             1334.88,647.80 1335.10,639.02 1335.38,630.44
             1335.66,621.86 1335.89,613.09 1336.08,604.12
             1336.08,604.12 1336.08,597.95 1336.08,597.95
             1335.89,590.86 1335.66,583.77 1335.38,576.69
             1335.10,569.59 1334.88,562.50 1334.69,555.41
             1334.69,551.67 1334.69,548.03 1334.69,544.48
             1334.69,540.93 1334.87,537.39 1335.23,533.84
             1335.42,531.04 1335.66,528.24 1335.94,525.44
             1336.22,522.64 1336.83,519.84 1337.77,517.05
             1337.77,516.86 1337.95,516.39 1338.31,515.64
             1338.31,513.40 1339.38,511.40 1341.53,509.62
             1343.69,507.84 1345.79,506.68 1347.84,506.12
             1352.32,505.19 1356.85,504.58 1361.42,504.30
             1365.99,504.02 1370.61,503.97 1375.28,504.16
             1384.99,504.72 1394.55,506.68 1403.98,510.05
             1413.41,513.40 1421.48,518.72 1428.20,526.00
             1431.74,529.73 1434.54,534.02 1436.59,538.88
             1438.66,543.73 1439.87,548.68 1440.23,553.72
             1440.61,556.90 1440.84,560.03 1440.94,563.11
             1441.03,566.18 1440.61,569.31 1439.69,572.48
             1439.31,574.35 1438.89,576.12 1438.42,577.80
             1437.95,579.48 1437.25,581.06 1436.31,582.56
             1435.38,584.24 1434.50,585.92 1433.66,587.61
             1432.82,589.29 1431.84,590.87 1430.72,592.36
             1429.04,594.98 1427.18,597.50 1425.12,599.92
             1423.07,602.35 1420.83,604.68 1418.41,606.92
             1415.79,609.54 1413.08,612.06 1410.28,614.48
             1407.48,616.91 1404.58,619.25 1401.59,621.48
             1400.66,622.04 1399.83,622.59 1399.08,623.16
             1398.33,623.72 1397.58,624.19 1396.84,624.56
             1398.89,624.94 1400.85,625.36 1402.72,625.83
             1404.58,626.29 1406.54,626.80 1408.59,627.36
             1414.20,628.85 1419.47,631.09 1424.42,634.08
             1429.37,637.07 1433.71,640.80 1437.44,645.28
             1441.73,649.95 1444.95,655.23 1447.09,661.11
             1449.24,666.98 1450.78,673.00 1451.72,679.16
             1452.66,684.57 1453.30,690.18 1453.67,695.97
             1454.05,701.75 1453.68,707.45 1452.56,713.05
             1452.00,715.48 1451.34,717.90 1450.59,720.33
             1449.85,722.75 1448.73,725.07 1447.23,727.31
             1444.25,732.54 1440.43,737.21 1435.77,741.31
             1430.72,745.80 1425.07,749.40 1418.81,752.11
             1412.56,754.81 1406.17,757.18 1399.64,759.23
             1390.30,762.04 1380.79,763.81 1371.08,764.56
             1361.37,765.31 1351.66,764.75 1341.95,762.88
             1340.65,762.50 1339.44,762.09 1338.31,761.62
             1337.20,761.16 1336.17,760.36 1335.23,759.23 Z
           M 1357.92,540.84
           C 1357.92,545.14 1357.97,549.52 1358.06,554.00
             1358.16,558.48 1358.30,562.96 1358.48,567.44
             1358.48,567.44 1359.31,588.44 1359.31,588.44
             1359.31,592.18 1359.31,595.91 1359.31,599.64
             1359.31,603.37 1359.22,607.11 1359.05,610.84
             1358.86,613.09 1358.77,615.37 1358.77,617.70
             1358.77,620.04 1358.77,622.42 1358.77,624.84
             1359.13,624.47 1359.88,624.09 1361.00,623.72
             1364.18,622.61 1367.21,621.26 1370.09,619.67
             1372.99,618.08 1375.93,616.45 1378.92,614.77
             1382.65,612.15 1386.29,609.54 1389.83,606.92
             1393.38,604.31 1396.74,601.41 1399.92,598.23
             1404.21,593.95 1408.04,589.28 1411.41,584.23
             1413.46,580.70 1415.04,577.15 1416.16,573.59
             1416.72,571.36 1417.05,569.12 1417.14,566.88
             1417.23,564.64 1417.19,562.40 1417.00,560.16
             1416.81,557.54 1416.39,555.07 1415.73,552.73
             1415.09,550.40 1414.30,548.02 1413.36,545.59
             1411.49,541.87 1409.25,538.70 1406.64,536.08
             1405.15,534.78 1403.66,533.52 1402.16,532.31
             1400.66,531.09 1398.99,530.02 1397.12,529.08
             1392.83,527.03 1388.63,525.44 1384.52,524.31
             1378.73,523.01 1373.23,522.27 1368.00,522.08
             1366.51,522.08 1365.06,522.08 1363.66,522.08
             1362.26,522.08 1360.81,522.17 1359.31,522.36
             1358.76,525.54 1358.44,528.62 1358.34,531.61
             1358.25,534.59 1358.11,537.67 1357.92,540.84 Z
           M 1357.64,665.72
           C 1357.64,672.44 1357.64,679.20 1357.64,686.02
             1357.64,692.83 1357.83,699.69 1358.20,706.59
             1358.39,709.77 1358.58,713.04 1358.77,716.41
             1358.95,719.76 1359.05,723.12 1359.05,726.48
             1359.22,729.84 1359.31,733.20 1359.31,736.56
             1359.31,739.92 1359.31,743.18 1359.31,746.36
             1360.06,746.55 1360.77,746.64 1361.42,746.64
             1362.08,746.64 1362.77,746.73 1363.52,746.92
             1366.50,746.92 1369.45,746.83 1372.34,746.64
             1375.24,746.45 1378.18,746.08 1381.16,745.52
             1388.25,744.40 1395.34,742.54 1402.44,739.92
             1406.91,738.06 1411.02,736.10 1414.77,734.05
             1415.88,733.30 1416.95,732.55 1417.97,731.81
             1419.00,731.06 1419.98,730.22 1420.92,729.28
             1420.92,729.28 1425.12,724.23 1425.12,724.23
             1425.86,722.75 1426.52,721.35 1427.08,720.05
             1427.64,718.73 1428.11,717.34 1428.48,715.84
             1429.41,712.48 1429.92,709.07 1430.02,705.62
             1430.11,702.17 1429.97,698.67 1429.59,695.12
             1429.23,690.09 1428.58,685.09 1427.64,680.14
             1426.70,675.20 1425.21,670.48 1423.16,666.00
             1422.04,663.95 1420.83,661.95 1419.52,659.98
             1418.21,658.03 1416.72,656.20 1415.05,654.52
             1412.62,652.09 1409.63,649.85 1406.08,647.80
             1402.35,645.75 1398.61,644.34 1394.88,643.59
             1391.71,642.67 1388.58,642.06 1385.50,641.78
             1382.41,641.50 1379.29,641.27 1376.12,641.08
             1373.88,640.89 1371.64,640.84 1369.41,640.94
             1367.16,641.03 1364.93,641.08 1362.69,641.08
             1361.56,641.27 1360.07,641.17 1358.20,640.80
             1358.02,644.90 1357.92,649.01 1357.92,653.12
             1357.92,657.23 1357.83,661.43 1357.64,665.72 Z
           M 1543.08,749.44
           C 1544.02,749.62 1544.99,749.81 1546.02,750.00
             1547.05,750.19 1547.94,750.75 1548.69,751.69
             1549.24,752.43 1549.47,753.22 1549.38,754.06
             1549.28,754.90 1549.05,755.69 1548.69,756.44
             1547.56,758.49 1545.69,760.08 1543.08,761.20
             1540.46,762.32 1537.94,762.69 1535.52,762.31
             1534.40,762.14 1533.23,762.00 1532.02,761.91
             1530.80,761.81 1529.64,761.77 1528.52,761.77
             1528.52,761.77 1523.77,761.77 1523.77,761.77
             1518.91,761.77 1514.15,762.04 1509.48,762.59
             1504.44,762.97 1499.35,763.25 1494.22,763.44
             1489.08,763.62 1483.90,763.44 1478.67,762.88
             1477.74,762.69 1476.77,762.46 1475.73,762.19
             1474.71,761.91 1473.83,761.39 1473.08,760.64
             1471.96,759.15 1471.87,757.56 1472.80,755.88
             1472.61,752.34 1472.42,748.79 1472.23,745.25
             1472.05,741.70 1471.88,738.15 1471.69,734.59
             1471.50,730.30 1471.36,725.96 1471.27,721.58
             1471.17,717.20 1471.12,712.86 1471.12,708.56
             1470.94,690.09 1471.17,671.75 1471.83,653.55
             1472.48,635.34 1473.55,617.09 1475.05,598.80
             1475.23,597.87 1475.79,597.08 1476.72,596.42
             1477.66,595.77 1478.41,595.25 1478.97,594.88
             1481.21,593.57 1483.72,592.73 1486.52,592.36
             1487.64,592.17 1488.76,592.08 1489.88,592.08
             1491.00,592.08 1492.03,592.27 1492.97,592.64
             1494.46,593.39 1495.11,594.51 1494.92,596.00
             1493.24,616.91 1492.12,638.00 1491.56,659.28
             1491.19,667.30 1491.00,675.23 1491.00,683.08
             1491.00,690.92 1491.09,698.76 1491.28,706.59
             1491.28,710.71 1491.33,714.77 1491.42,718.78
             1491.52,722.79 1491.66,726.85 1491.84,730.95
             1491.84,734.13 1491.98,737.36 1492.25,740.62
             1492.53,743.89 1492.77,747.11 1492.95,750.28
             1492.95,750.28 1493.14,750.38 1493.52,750.56
             1493.52,750.56 1498.56,750.56 1498.56,750.56
             1498.56,750.56 1512.84,749.72 1512.84,749.72
             1517.88,749.34 1522.92,749.06 1527.95,748.88
             1532.99,748.69 1538.04,748.88 1543.08,749.44 Z
           M 1634.31,596.55
           C 1634.69,596.55 1635.38,596.69 1636.41,596.97
             1637.44,597.25 1637.95,597.76 1637.95,598.50
             1638.89,610.82 1639.17,623.01 1638.80,635.05
             1638.42,647.09 1637.39,659.27 1635.72,671.58
             1635.72,671.58 1635.72,670.47 1635.72,670.47
             1635.53,673.64 1635.16,676.76 1634.59,679.84
             1634.03,682.93 1633.38,686.05 1632.64,689.22
             1631.14,697.25 1629.36,705.23 1627.31,713.17
             1625.26,721.10 1622.65,728.98 1619.48,736.83
             1618.18,740.00 1616.73,743.12 1615.14,746.20
             1613.55,749.29 1611.64,752.14 1609.41,754.75
             1606.79,757.93 1603.34,760.26 1599.05,761.75
             1597.55,762.31 1595.97,762.83 1594.28,763.30
             1592.60,763.77 1590.83,764.00 1588.97,764.00
             1588.03,764.00 1587.00,763.95 1585.88,763.84
             1584.76,763.73 1583.74,763.45 1582.81,763.00
             1579.07,761.32 1576.27,758.53 1574.41,754.61
             1572.54,750.70 1570.86,746.96 1569.36,743.41
             1566.94,736.70 1565.08,729.80 1563.77,722.72
             1562.46,715.62 1561.44,708.44 1560.69,701.16
             1559.56,686.24 1559.47,671.37 1560.41,656.55
             1561.34,641.71 1562.46,626.84 1563.77,611.91
             1563.95,609.86 1564.14,607.90 1564.33,606.03
             1564.52,604.17 1564.70,602.21 1564.89,600.16
             1564.89,599.22 1565.07,598.57 1565.44,598.20
             1565.81,597.83 1566.38,597.36 1567.12,596.80
             1568.06,596.05 1569.13,595.49 1570.34,595.12
             1571.56,594.75 1572.73,594.38 1573.84,594.00
             1576.08,592.96 1578.51,592.62 1581.12,593.00
             1581.50,593.00 1582.24,593.12 1583.36,593.34
             1584.48,593.56 1584.95,594.12 1584.77,595.00
             1584.39,597.98 1584.16,600.96 1584.06,603.95
             1583.97,606.93 1583.73,609.92 1583.36,612.91
             1582.42,622.98 1581.58,633.10 1580.83,643.27
             1580.09,653.42 1579.81,663.63 1580.00,673.89
             1580.00,681.35 1580.28,688.77 1580.84,696.14
             1581.41,703.51 1582.43,710.92 1583.92,718.38
             1584.67,721.73 1585.46,725.14 1586.30,728.59
             1587.14,732.04 1588.21,735.35 1589.52,738.52
             1590.45,740.57 1591.29,742.57 1592.03,744.53
             1592.78,746.49 1593.72,748.40 1594.84,750.27
             1596.33,747.84 1597.59,745.37 1598.61,742.84
             1599.64,740.32 1600.62,737.76 1601.56,735.14
             1603.05,731.23 1604.35,727.26 1605.47,723.25
             1606.59,719.23 1607.62,715.17 1608.56,711.06
             1610.43,703.59 1612.10,696.04 1613.59,688.39
             1614.16,686.14 1614.62,683.90 1615.00,681.66
             1615.38,679.42 1615.66,677.18 1615.84,674.94
             1615.84,674.94 1615.84,675.78 1615.84,675.78
             1616.21,673.17 1616.53,670.55 1616.81,667.94
             1617.09,665.32 1617.33,662.71 1617.52,660.11
             1618.45,650.59 1618.92,641.21 1618.92,631.97
             1618.92,622.73 1618.64,613.35 1618.08,603.83
             1617.89,602.89 1618.08,602.19 1618.64,601.72
             1619.20,601.25 1619.76,600.84 1620.31,600.47
             1622.36,598.97 1624.60,597.95 1627.03,597.39
             1628.16,597.02 1629.32,596.73 1630.53,596.55
             1631.75,596.36 1633.01,596.36 1634.31,596.55 Z
           M 1721.80,592.92
           C 1722.73,592.73 1723.76,592.78 1724.88,593.06
             1726.00,593.34 1727.07,593.81 1728.09,594.47
             1729.12,595.12 1729.91,595.91 1730.47,596.84
             1731.03,597.78 1731.22,598.81 1731.05,599.92
             1730.67,602.54 1729.32,604.45 1726.98,605.67
             1724.65,606.88 1722.36,607.67 1720.12,608.05
             1712.28,609.35 1704.53,609.91 1696.88,609.72
             1689.23,609.53 1681.48,609.62 1673.64,610.00
             1672.89,618.73 1672.33,627.41 1671.95,636.05
             1671.59,644.68 1671.22,653.45 1670.84,662.36
             1670.84,662.36 1670.84,671.00 1670.84,671.00
             1679.05,670.45 1687.26,670.31 1695.47,670.59
             1703.69,670.87 1711.91,670.35 1720.12,669.05
             1722.18,668.68 1724.32,669.15 1726.56,670.45
             1728.80,671.75 1729.73,673.61 1729.36,676.03
             1728.98,678.65 1727.63,680.56 1725.30,681.78
             1722.96,682.99 1720.68,683.78 1718.44,684.16
             1710.41,685.46 1702.44,685.98 1694.50,685.70
             1686.56,685.42 1678.58,685.56 1670.56,686.11
             1670.56,686.11 1670.56,708.80 1670.56,708.80
             1670.75,712.90 1670.84,716.92 1670.84,720.84
             1670.84,724.76 1670.94,728.68 1671.12,732.59
             1671.31,735.77 1671.49,738.86 1671.67,741.84
             1671.86,744.82 1672.05,747.90 1672.23,751.08
             1672.23,751.08 1673.08,751.08 1673.08,751.08
             1673.83,751.27 1675.04,751.36 1676.72,751.36
             1676.72,751.36 1678.41,751.36 1678.41,751.36
             1680.83,751.17 1683.21,751.03 1685.55,750.94
             1687.88,750.84 1690.26,750.61 1692.69,750.23
             1697.53,749.86 1702.47,749.58 1707.52,749.39
             1712.55,749.20 1717.50,749.39 1722.36,749.95
             1723.30,750.14 1724.27,750.38 1725.30,750.66
             1726.33,750.94 1727.21,751.54 1727.95,752.47
             1729.08,753.78 1729.17,755.37 1728.23,757.23
             1726.93,759.29 1724.97,760.83 1722.36,761.86
             1719.74,762.88 1717.32,763.30 1715.08,763.11
             1713.77,762.73 1712.56,762.55 1711.44,762.55
             1710.32,762.55 1709.11,762.55 1707.80,762.55
             1707.05,762.37 1705.94,762.28 1704.44,762.28
             1704.44,762.28 1702.77,762.28 1702.77,762.28
             1700.34,762.46 1698.00,762.59 1695.77,762.69
             1693.52,762.78 1691.19,763.02 1688.77,763.39
             1683.72,763.77 1678.63,764.05 1673.50,764.23
             1668.36,764.42 1663.18,764.23 1657.95,763.67
             1657.02,763.48 1656.05,763.25 1655.02,762.97
             1653.99,762.69 1653.20,762.09 1652.64,761.16
             1651.34,759.84 1651.24,758.35 1652.36,756.67
             1652.17,753.32 1651.94,750.01 1651.66,746.73
             1651.38,743.46 1651.23,740.15 1651.23,736.80
             1651.05,732.70 1650.92,728.59 1650.83,724.48
             1650.73,720.37 1650.69,716.26 1650.69,712.16
             1650.12,677.48 1651.24,642.87 1654.05,608.33
             1653.11,607.02 1652.64,605.62 1652.64,604.12
             1653.02,601.51 1654.37,599.60 1656.70,598.39
             1659.04,597.17 1661.32,596.38 1663.56,596.00
             1673.27,594.70 1682.97,594.23 1692.67,594.61
             1702.38,594.98 1712.09,594.41 1721.80,592.92 Z
           M 1821.28,690.72
           C 1823.89,696.69 1825.66,703.22 1826.59,710.31
             1826.97,713.12 1827.16,715.96 1827.16,718.86
             1827.16,721.76 1826.97,724.60 1826.59,727.39
             1826.04,730.20 1825.25,732.90 1824.22,735.52
             1823.20,738.13 1821.75,740.56 1819.88,742.80
             1817.82,745.41 1815.54,747.65 1813.02,749.52
             1810.49,751.38 1807.84,753.06 1805.05,754.56
             1797.95,758.11 1790.30,760.62 1782.08,762.11
             1777.04,763.05 1771.99,763.61 1766.95,763.80
             1761.92,763.98 1756.79,763.61 1751.56,762.67
             1750.44,762.30 1749.41,761.93 1748.47,761.56
             1747.54,761.19 1746.71,760.53 1745.97,759.59
             1744.66,757.92 1744.47,755.96 1745.41,753.72
             1745.59,753.34 1745.69,753.11 1745.69,753.02
             1745.69,752.92 1745.77,752.69 1745.95,752.31
             1745.95,744.67 1745.81,737.11 1745.53,729.64
             1745.26,722.17 1745.12,714.61 1745.12,706.95
             1745.12,698.93 1745.26,690.91 1745.53,682.89
             1745.81,674.86 1746.05,666.83 1746.23,658.80
             1746.23,653.95 1746.09,649.09 1745.81,644.23
             1745.54,639.38 1745.41,634.53 1745.41,629.67
             1745.22,625.01 1745.17,620.34 1745.27,615.67
             1745.36,611.01 1745.96,606.53 1747.08,602.23
             1747.27,602.05 1747.36,601.77 1747.36,601.39
             1747.55,599.34 1748.52,597.52 1750.30,595.94
             1752.07,594.36 1753.89,593.38 1755.77,593.00
             1758.19,592.73 1760.57,592.50 1762.91,592.30
             1765.24,592.10 1767.71,592.00 1770.31,592.00
             1775.73,592.14 1781.00,592.71 1786.14,593.72
             1791.27,594.73 1796.27,596.54 1801.12,599.16
             1805.60,601.59 1809.38,604.95 1812.45,609.23
             1815.54,613.53 1817.55,618.29 1818.48,623.52
             1818.86,626.88 1818.95,630.25 1818.77,633.61
             1818.58,636.96 1817.73,640.23 1816.23,643.39
             1814.93,646.57 1813.30,649.56 1811.34,652.36
             1809.38,655.16 1807.10,657.78 1804.48,660.20
             1800.74,663.93 1796.82,667.29 1792.72,670.28
             1795.89,671.02 1798.93,671.95 1801.81,673.08
             1804.71,674.20 1807.46,675.69 1810.08,677.56
             1815.12,681.29 1818.85,685.68 1821.28,690.72 Z
           M 1765.28,617.00
           C 1765.28,622.97 1765.42,628.90 1765.70,634.78
             1765.98,640.66 1766.12,646.59 1766.12,652.56
             1766.12,655.18 1766.12,657.84 1766.12,660.55
             1766.12,663.25 1766.03,665.90 1765.84,668.52
             1766.41,668.14 1766.96,667.91 1767.52,667.83
             1768.08,667.73 1768.64,667.50 1769.20,667.12
             1769.77,666.75 1770.37,666.38 1771.02,666.00
             1771.67,665.62 1772.28,665.25 1772.84,664.88
             1773.22,664.69 1773.54,664.55 1773.81,664.45
             1774.09,664.36 1774.42,664.13 1774.80,663.77
             1777.22,662.27 1779.51,660.68 1781.66,659.00
             1783.80,657.32 1785.90,655.46 1787.95,653.41
             1789.45,652.09 1790.76,650.74 1791.88,649.34
             1793.00,647.94 1794.12,646.49 1795.23,645.00
             1796.17,642.95 1797.11,640.80 1798.05,638.56
             1798.41,637.06 1798.59,635.71 1798.59,634.50
             1798.59,633.29 1798.59,631.94 1798.59,630.44
             1798.23,628.95 1797.91,627.46 1797.62,625.97
             1797.34,624.47 1796.92,622.98 1796.36,621.48
             1795.24,619.62 1793.84,617.66 1792.16,615.59
             1790.29,614.11 1788.43,612.80 1786.56,611.69
             1785.25,611.12 1783.98,610.56 1782.77,610.00
             1781.55,609.44 1780.30,608.97 1779.00,608.59
             1778.06,608.41 1777.08,608.23 1776.05,608.05
             1775.02,607.86 1774.05,607.77 1773.12,607.77
             1772.38,607.58 1771.72,607.48 1771.16,607.48
             1770.59,607.48 1770.04,607.39 1769.48,607.20
             1769.48,607.20 1765.84,607.20 1765.84,607.20
             1765.66,608.88 1765.52,610.52 1765.42,612.11
             1765.33,613.70 1765.28,615.32 1765.28,617.00 Z
           M 1805.88,730.69
           C 1806.62,726.20 1806.91,721.81 1806.72,717.52
             1806.34,714.35 1805.88,711.23 1805.31,708.14
             1804.76,705.06 1803.83,702.12 1802.52,699.31
             1801.40,696.90 1799.72,694.48 1797.48,692.05
             1796.55,691.30 1795.66,690.59 1794.81,689.94
             1793.98,689.28 1793.09,688.68 1792.16,688.12
             1790.10,687.38 1787.86,686.53 1785.44,685.59
             1783.95,685.23 1782.36,684.95 1780.67,684.77
             1778.99,684.58 1777.32,684.39 1775.64,684.20
             1775.64,684.20 1765.28,684.20 1765.28,684.20
             1765.28,686.45 1765.28,688.68 1765.28,690.92
             1765.28,693.16 1765.19,695.40 1765.00,697.64
             1765.00,701.93 1765.00,706.27 1765.00,710.66
             1765.00,715.04 1765.19,719.39 1765.56,723.69
             1765.75,727.98 1765.89,732.13 1765.98,736.14
             1766.08,740.15 1766.12,744.30 1766.12,748.59
             1766.12,748.59 1773.12,748.59 1773.12,748.59
             1773.86,748.41 1774.56,748.31 1775.22,748.31
             1775.88,748.31 1776.57,748.23 1777.31,748.05
             1777.31,748.05 1777.59,748.05 1777.59,748.05
             1777.97,747.86 1778.53,747.77 1779.28,747.77
             1780.77,747.39 1782.16,747.02 1783.47,746.64
             1784.78,746.27 1786.09,745.89 1787.41,745.52
             1788.89,745.14 1790.02,744.77 1790.77,744.41
             1790.95,744.41 1791.13,744.31 1791.31,744.12
             1792.25,743.75 1793.09,743.38 1793.83,743.00
             1794.58,742.62 1795.42,742.25 1796.36,741.88
             1796.36,741.88 1798.05,741.05 1798.05,741.05
             1798.41,740.67 1798.69,740.48 1798.88,740.48
             1799.25,740.11 1799.67,739.73 1800.14,739.36
             1800.61,738.98 1801.03,738.61 1801.41,738.23
             1801.77,737.87 1802.19,737.41 1802.66,736.84
             1803.12,736.28 1803.55,735.81 1803.92,735.44
             1804.67,733.95 1805.32,732.37 1805.88,730.69 Z
           M 1909.80,592.92
           C 1910.73,592.73 1911.76,592.78 1912.88,593.06
             1914.00,593.34 1915.07,593.81 1916.09,594.47
             1917.12,595.12 1917.91,595.91 1918.47,596.84
             1919.03,597.78 1919.22,598.81 1919.05,599.92
             1918.67,602.54 1917.32,604.45 1914.98,605.67
             1912.65,606.88 1910.36,607.67 1908.12,608.05
             1900.28,609.35 1892.53,609.91 1884.88,609.72
             1877.23,609.53 1869.48,609.62 1861.64,610.00
             1860.89,618.73 1860.33,627.41 1859.95,636.05
             1859.59,644.68 1859.22,653.45 1858.84,662.36
             1858.84,662.36 1858.84,671.00 1858.84,671.00
             1867.05,670.45 1875.26,670.31 1883.47,670.59
             1891.69,670.87 1899.91,670.35 1908.12,669.05
             1910.18,668.68 1912.32,669.15 1914.56,670.45
             1916.80,671.75 1917.73,673.61 1917.36,676.03
             1916.98,678.65 1915.63,680.56 1913.30,681.78
             1910.96,682.99 1908.68,683.78 1906.44,684.16
             1898.41,685.46 1890.44,685.98 1882.50,685.70
             1874.56,685.42 1866.58,685.56 1858.56,686.11
             1858.56,686.11 1858.56,708.80 1858.56,708.80
             1858.75,712.90 1858.84,716.92 1858.84,720.84
             1858.84,724.76 1858.94,728.68 1859.12,732.59
             1859.31,735.77 1859.49,738.86 1859.67,741.84
             1859.86,744.82 1860.05,747.90 1860.23,751.08
             1860.23,751.08 1861.08,751.08 1861.08,751.08
             1861.83,751.27 1863.04,751.36 1864.72,751.36
             1864.72,751.36 1866.41,751.36 1866.41,751.36
             1868.83,751.17 1871.21,751.03 1873.55,750.94
             1875.88,750.84 1878.26,750.61 1880.69,750.23
             1885.53,749.86 1890.47,749.58 1895.52,749.39
             1900.55,749.20 1905.50,749.39 1910.36,749.95
             1911.30,750.14 1912.27,750.38 1913.30,750.66
             1914.33,750.94 1915.21,751.54 1915.95,752.47
             1917.08,753.78 1917.17,755.37 1916.23,757.23
             1914.93,759.29 1912.97,760.83 1910.36,761.86
             1907.74,762.88 1905.32,763.30 1903.08,763.11
             1901.77,762.73 1900.56,762.55 1899.44,762.55
             1898.32,762.55 1897.11,762.55 1895.80,762.55
             1895.05,762.37 1893.94,762.28 1892.44,762.28
             1892.44,762.28 1890.77,762.28 1890.77,762.28
             1888.34,762.46 1886.00,762.59 1883.77,762.69
             1881.52,762.78 1879.19,763.02 1876.77,763.39
             1871.72,763.77 1866.63,764.05 1861.50,764.23
             1856.36,764.42 1851.18,764.23 1845.95,763.67
             1845.02,763.48 1844.05,763.25 1843.02,762.97
             1841.99,762.69 1841.20,762.09 1840.64,761.16
             1839.34,759.84 1839.24,758.35 1840.36,756.67
             1840.17,753.32 1839.94,750.01 1839.66,746.73
             1839.38,743.46 1839.23,740.15 1839.23,736.80
             1839.05,732.70 1838.92,728.59 1838.83,724.48
             1838.73,720.37 1838.69,716.26 1838.69,712.16
             1838.12,677.48 1839.24,642.87 1842.05,608.33
             1841.11,607.02 1840.64,605.62 1840.64,604.12
             1841.02,601.51 1842.37,599.60 1844.70,598.39
             1847.04,597.17 1849.32,596.38 1851.56,596.00
             1861.27,594.70 1870.97,594.23 1880.67,594.61
             1890.38,594.98 1900.09,594.41 1909.80,592.92 Z
           M 2021.59,650.31
           C 2019.91,656.48 2017.30,662.23 2013.75,667.55
             2010.21,672.86 2006.01,677.48 2001.16,681.41
             2001.53,682.34 2001.91,683.73 2002.28,685.59
             2003.22,688.21 2004.01,690.82 2004.66,693.44
             2005.31,696.05 2006.02,698.67 2006.77,701.28
             2008.07,706.14 2009.32,710.85 2010.53,715.42
             2011.75,720.00 2013.01,724.62 2014.31,729.28
             2014.69,730.96 2015.11,732.59 2015.58,734.19
             2016.05,735.77 2016.47,737.40 2016.84,739.08
             2017.22,740.02 2017.49,741.05 2017.67,742.17
             2017.86,743.29 2018.14,744.31 2018.52,745.23
             2019.08,747.29 2019.68,749.30 2020.33,751.27
             2020.98,753.23 2021.50,755.23 2021.88,757.28
             2022.06,759.34 2020.99,760.97 2018.66,762.19
             2016.32,763.40 2014.41,764.19 2012.92,764.56
             2010.30,765.31 2007.88,765.50 2005.64,765.12
             2005.08,764.94 2004.33,764.70 2003.39,764.42
             2002.46,764.14 2001.91,763.53 2001.72,762.59
             2001.34,759.99 2000.73,757.57 1999.89,755.33
             1999.05,753.08 1998.36,750.65 1997.80,748.05
             1997.61,747.11 1997.42,746.27 1997.23,745.53
             1997.05,744.78 1996.77,743.94 1996.41,743.00
             1995.84,740.76 1995.28,738.52 1994.72,736.28
             1994.16,734.04 1993.50,731.80 1992.77,729.56
             1991.45,724.90 1990.19,720.23 1988.97,715.56
             1987.76,710.90 1986.50,706.14 1985.20,701.28
             1984.83,699.79 1984.41,698.30 1983.94,696.81
             1983.47,695.31 1983.05,693.81 1982.69,692.31
             1978.76,694.19 1974.93,695.50 1971.20,696.23
             1965.41,697.55 1959.44,698.39 1953.28,698.77
             1953.28,698.77 1953.28,709.69 1953.28,709.69
             1953.28,713.61 1953.33,717.52 1953.42,721.44
             1953.52,725.36 1953.66,729.37 1953.84,733.48
             1954.03,737.21 1954.26,740.90 1954.53,744.55
             1954.81,748.18 1954.95,751.87 1954.95,755.59
             1954.95,757.09 1954.30,758.40 1953.00,759.52
             1952.06,760.45 1950.98,761.11 1949.77,761.48
             1948.55,761.86 1947.39,762.23 1946.28,762.59
             1943.66,763.53 1941.14,763.72 1938.72,763.16
             1938.16,763.16 1937.41,762.98 1936.47,762.61
             1935.54,762.23 1935.08,761.67 1935.08,760.92
             1934.89,757.18 1934.66,753.40 1934.38,749.58
             1934.10,745.76 1933.88,741.98 1933.69,738.23
             1933.50,734.32 1933.41,730.36 1933.41,726.34
             1933.41,722.32 1933.31,718.36 1933.12,714.44
             1932.94,695.96 1933.17,677.62 1933.83,659.42
             1934.48,641.23 1935.55,622.98 1937.05,604.69
             1937.42,603.94 1937.61,603.56 1937.61,603.56
             1937.42,601.51 1938.30,599.70 1940.27,598.11
             1942.22,596.52 1944.13,595.53 1946.00,595.16
             1950.29,594.23 1954.68,593.48 1959.16,592.92
             1963.63,592.36 1968.21,592.27 1972.88,592.64
             1979.97,593.02 1986.88,594.70 1993.59,597.69
             2000.32,600.67 2006.11,604.87 2010.95,610.28
             2015.80,615.70 2019.26,621.95 2021.31,629.05
             2023.38,636.14 2023.47,643.23 2021.59,650.31 Z
           M 2000.88,652.84
           C 2002.00,648.92 2002.56,644.90 2002.56,640.80
             2002.00,636.51 2000.88,632.40 1999.20,628.48
             1996.77,624.01 1993.97,620.18 1990.80,617.00
             1987.80,614.57 1984.91,612.62 1982.12,611.12
             1980.81,610.56 1979.50,610.05 1978.19,609.58
             1976.88,609.11 1975.49,608.69 1974.00,608.31
             1973.81,608.14 1973.62,608.05 1973.44,608.05
             1973.06,608.05 1972.59,608.00 1972.03,607.91
             1971.48,607.81 1971.02,607.77 1970.64,607.77
             1968.77,607.39 1967.19,607.20 1965.88,607.20
             1965.88,607.20 1962.52,607.20 1962.52,607.20
             1961.59,607.20 1960.75,607.20 1960.00,607.20
             1959.25,607.20 1958.41,607.30 1957.48,607.48
             1957.48,607.48 1956.64,607.48 1956.64,607.48
             1955.89,617.01 1955.28,626.43 1954.81,635.77
             1954.35,645.10 1953.94,654.53 1953.56,664.05
             1953.38,667.40 1953.28,670.81 1953.28,674.27
             1953.28,677.71 1953.28,681.12 1953.28,684.48
             1955.14,684.30 1956.96,684.16 1958.73,684.06
             1960.52,683.97 1962.43,683.73 1964.48,683.36
             1964.48,683.36 1964.67,683.27 1965.05,683.08
             1965.60,683.08 1966.44,682.89 1967.56,682.52
             1969.43,682.14 1970.83,681.77 1971.77,681.41
             1972.32,681.41 1972.78,681.22 1973.16,680.84
             1973.53,680.84 1973.81,680.75 1974.00,680.56
             1974.00,680.56 1978.20,678.88 1978.20,678.88
             1978.94,678.32 1980.06,677.67 1981.56,676.92
             1981.75,676.92 1981.94,676.83 1982.12,676.64
             1982.31,676.64 1982.50,676.55 1982.69,676.36
             1983.61,675.61 1984.59,674.91 1985.61,674.27
             1986.64,673.61 1987.62,672.81 1988.56,671.88
             1988.56,671.69 1988.66,671.59 1988.84,671.59
             1989.03,671.59 1989.22,671.50 1989.41,671.31
             1989.41,670.95 1989.59,670.77 1989.95,670.77
             1990.33,670.39 1990.70,669.97 1991.08,669.50
             1991.45,669.03 1991.83,668.61 1992.20,668.23
             1993.69,666.37 1994.91,664.79 1995.84,663.48
             1998.08,660.12 1999.76,656.57 2000.88,652.84 Z
           M 2120.59,650.31
           C 2118.91,656.48 2116.30,662.23 2112.75,667.55
             2109.21,672.86 2105.01,677.48 2100.16,681.41
             2100.53,682.34 2100.91,683.73 2101.28,685.59
             2102.22,688.21 2103.01,690.82 2103.66,693.44
             2104.31,696.05 2105.02,698.67 2105.77,701.28
             2107.07,706.14 2108.32,710.85 2109.53,715.42
             2110.75,720.00 2112.01,724.62 2113.31,729.28
             2113.69,730.96 2114.11,732.59 2114.58,734.19
             2115.05,735.77 2115.47,737.40 2115.84,739.08
             2116.22,740.02 2116.49,741.05 2116.67,742.17
             2116.86,743.29 2117.14,744.31 2117.52,745.23
             2118.08,747.29 2118.68,749.30 2119.33,751.27
             2119.98,753.23 2120.50,755.23 2120.88,757.28
             2121.06,759.34 2119.99,760.97 2117.66,762.19
             2115.32,763.40 2113.41,764.19 2111.92,764.56
             2109.30,765.31 2106.88,765.50 2104.64,765.12
             2104.08,764.94 2103.33,764.70 2102.39,764.42
             2101.46,764.14 2100.91,763.53 2100.72,762.59
             2100.34,759.99 2099.73,757.57 2098.89,755.33
             2098.05,753.08 2097.36,750.65 2096.80,748.05
             2096.61,747.11 2096.42,746.27 2096.23,745.53
             2096.05,744.78 2095.77,743.94 2095.41,743.00
             2094.84,740.76 2094.28,738.52 2093.72,736.28
             2093.16,734.04 2092.50,731.80 2091.77,729.56
             2090.45,724.90 2089.19,720.23 2087.97,715.56
             2086.76,710.90 2085.50,706.14 2084.20,701.28
             2083.83,699.79 2083.41,698.30 2082.94,696.81
             2082.47,695.31 2082.05,693.81 2081.69,692.31
             2077.76,694.19 2073.93,695.50 2070.20,696.23
             2064.41,697.55 2058.44,698.39 2052.28,698.77
             2052.28,698.77 2052.28,709.69 2052.28,709.69
             2052.28,713.61 2052.33,717.52 2052.42,721.44
             2052.52,725.36 2052.66,729.37 2052.84,733.48
             2053.03,737.21 2053.26,740.90 2053.53,744.55
             2053.81,748.18 2053.95,751.87 2053.95,755.59
             2053.95,757.09 2053.30,758.40 2052.00,759.52
             2051.06,760.45 2049.98,761.11 2048.77,761.48
             2047.55,761.86 2046.39,762.23 2045.28,762.59
             2042.66,763.53 2040.14,763.72 2037.72,763.16
             2037.16,763.16 2036.41,762.98 2035.47,762.61
             2034.54,762.23 2034.08,761.67 2034.08,760.92
             2033.89,757.18 2033.66,753.40 2033.38,749.58
             2033.10,745.76 2032.88,741.98 2032.69,738.23
             2032.50,734.32 2032.41,730.36 2032.41,726.34
             2032.41,722.32 2032.31,718.36 2032.12,714.44
             2031.94,695.96 2032.17,677.62 2032.83,659.42
             2033.48,641.23 2034.55,622.98 2036.05,604.69
             2036.42,603.94 2036.61,603.56 2036.61,603.56
             2036.42,601.51 2037.30,599.70 2039.27,598.11
             2041.22,596.52 2043.13,595.53 2045.00,595.16
             2049.29,594.23 2053.68,593.48 2058.16,592.92
             2062.63,592.36 2067.21,592.27 2071.88,592.64
             2078.97,593.02 2085.88,594.70 2092.59,597.69
             2099.32,600.67 2105.11,604.87 2109.95,610.28
             2114.80,615.70 2118.26,621.95 2120.31,629.05
             2122.38,636.14 2122.47,643.23 2120.59,650.31 Z
           M 2099.88,652.84
           C 2101.00,648.92 2101.56,644.90 2101.56,640.80
             2101.00,636.51 2099.88,632.40 2098.20,628.48
             2095.77,624.01 2092.97,620.18 2089.80,617.00
             2086.80,614.57 2083.91,612.62 2081.12,611.12
             2079.81,610.56 2078.50,610.05 2077.19,609.58
             2075.88,609.11 2074.49,608.69 2073.00,608.31
             2072.81,608.14 2072.62,608.05 2072.44,608.05
             2072.06,608.05 2071.59,608.00 2071.03,607.91
             2070.48,607.81 2070.02,607.77 2069.64,607.77
             2067.77,607.39 2066.19,607.20 2064.88,607.20
             2064.88,607.20 2061.52,607.20 2061.52,607.20
             2060.59,607.20 2059.75,607.20 2059.00,607.20
             2058.25,607.20 2057.41,607.30 2056.48,607.48
             2056.48,607.48 2055.64,607.48 2055.64,607.48
             2054.89,617.01 2054.28,626.43 2053.81,635.77
             2053.35,645.10 2052.94,654.53 2052.56,664.05
             2052.38,667.40 2052.28,670.81 2052.28,674.27
             2052.28,677.71 2052.28,681.12 2052.28,684.48
             2054.14,684.30 2055.96,684.16 2057.73,684.06
             2059.52,683.97 2061.43,683.73 2063.48,683.36
             2063.48,683.36 2063.67,683.27 2064.05,683.08
             2064.60,683.08 2065.44,682.89 2066.56,682.52
             2068.43,682.14 2069.83,681.77 2070.77,681.41
             2071.32,681.41 2071.78,681.22 2072.16,680.84
             2072.53,680.84 2072.81,680.75 2073.00,680.56
             2073.00,680.56 2077.20,678.88 2077.20,678.88
             2077.94,678.32 2079.06,677.67 2080.56,676.92
             2080.75,676.92 2080.94,676.83 2081.12,676.64
             2081.31,676.64 2081.50,676.55 2081.69,676.36
             2082.61,675.61 2083.59,674.91 2084.61,674.27
             2085.64,673.61 2086.62,672.81 2087.56,671.88
             2087.56,671.69 2087.66,671.59 2087.84,671.59
             2088.03,671.59 2088.22,671.50 2088.41,671.31
             2088.41,670.95 2088.59,670.77 2088.95,670.77
             2089.33,670.39 2089.70,669.97 2090.08,669.50
             2090.45,669.03 2090.83,668.61 2091.20,668.23
             2092.69,666.37 2093.91,664.79 2094.84,663.48
             2097.08,660.12 2098.76,656.57 2099.88,652.84 Z
           M 2160.23,543.00
           C 2160.98,543.00 2161.96,543.00 2163.17,543.00
             2164.39,543.00 2165.28,543.34 2165.84,544.00
             2165.84,544.00 2165.84,544.56 2165.84,544.56
             2165.84,544.75 2165.75,544.93 2165.56,545.11
             2165.56,545.11 2165.56,548.20 2165.56,548.20
             2165.38,549.70 2165.19,551.19 2165.00,552.69
             2164.81,554.18 2164.62,555.67 2164.44,557.16
             2164.25,558.65 2164.11,560.14 2164.02,561.64
             2163.92,563.13 2163.78,564.62 2163.59,566.11
             2163.59,566.86 2163.59,567.70 2163.59,568.64
             2163.59,569.57 2163.41,570.31 2163.05,570.88
             2162.30,572.00 2161.55,572.66 2160.80,572.84
             2160.05,573.21 2159.36,573.53 2158.70,573.81
             2158.05,574.09 2157.34,574.42 2156.59,574.80
             2155.29,575.17 2154.03,575.55 2152.81,575.92
             2151.60,576.30 2150.25,576.57 2148.77,576.75
             2148.20,576.75 2147.22,576.80 2145.81,576.89
             2144.41,576.98 2143.53,576.57 2143.16,575.64
             2143.16,575.64 2143.16,574.80 2143.16,574.80
             2143.53,572.75 2143.81,570.60 2144.00,568.36
             2144.19,566.12 2144.38,563.98 2144.56,561.92
             2144.75,560.42 2144.89,558.93 2144.98,557.44
             2145.08,555.95 2145.22,554.45 2145.41,552.95
             2145.41,552.58 2145.45,552.16 2145.55,551.70
             2145.64,551.23 2145.69,550.81 2145.69,550.44
             2145.69,550.44 2145.69,549.88 2145.69,549.88
             2145.86,548.95 2146.09,548.30 2146.38,547.92
             2146.66,547.55 2147.27,547.08 2148.20,546.52
             2150.07,545.40 2152.02,544.61 2154.08,544.12
             2156.13,543.65 2158.18,543.27 2160.23,543.00 Z
           M 2143.44,575.00
           C 2143.44,575.00 2143.44,574.72 2143.44,574.72
             2143.44,574.72 2143.44,575.00 2143.44,575.00 Z
           M 2159.67,594.05
           C 2160.98,594.60 2161.55,595.62 2161.36,597.12
             2159.68,618.03 2158.56,639.22 2158.00,660.69
             2157.62,668.52 2157.44,676.41 2157.44,684.34
             2157.44,692.27 2157.53,700.25 2157.72,708.28
             2157.72,712.39 2157.77,716.45 2157.86,720.47
             2157.95,724.48 2158.09,728.54 2158.28,732.64
             2158.47,736.56 2158.70,740.43 2158.98,744.27
             2159.27,748.09 2159.41,751.96 2159.41,755.88
             2159.41,757.38 2158.66,758.68 2157.17,759.80
             2155.48,761.48 2153.24,762.59 2150.44,763.16
             2147.82,763.72 2145.39,763.91 2143.16,763.72
             2142.59,763.53 2141.80,763.30 2140.77,763.02
             2139.74,762.73 2139.23,762.13 2139.23,761.20
             2139.23,756.91 2139.09,752.67 2138.81,748.47
             2138.54,744.26 2138.31,740.01 2138.12,735.72
             2137.94,731.43 2137.80,727.14 2137.70,722.84
             2137.61,718.55 2137.56,714.26 2137.56,709.95
             2137.38,691.48 2137.61,673.09 2138.27,654.80
             2138.92,636.51 2139.99,618.21 2141.48,599.92
             2141.67,598.98 2142.23,598.20 2143.16,597.55
             2144.09,596.89 2144.84,596.38 2145.41,596.00
             2147.64,594.70 2150.16,593.86 2152.95,593.48
             2155.57,593.11 2157.80,593.30 2159.67,594.05 Z
           M 2248.80,592.92
           C 2249.73,592.73 2250.76,592.78 2251.88,593.06
             2253.00,593.34 2254.07,593.81 2255.09,594.47
             2256.12,595.12 2256.91,595.91 2257.47,596.84
             2258.03,597.78 2258.22,598.81 2258.05,599.92
             2257.67,602.54 2256.32,604.45 2253.98,605.67
             2251.65,606.88 2249.36,607.67 2247.12,608.05
             2239.28,609.35 2231.53,609.91 2223.88,609.72
             2216.23,609.53 2208.48,609.62 2200.64,610.00
             2199.89,618.73 2199.33,627.41 2198.95,636.05
             2198.59,644.68 2198.22,653.45 2197.84,662.36
             2197.84,662.36 2197.84,671.00 2197.84,671.00
             2206.05,670.45 2214.26,670.31 2222.47,670.59
             2230.69,670.87 2238.91,670.35 2247.12,669.05
             2249.18,668.68 2251.32,669.15 2253.56,670.45
             2255.80,671.75 2256.73,673.61 2256.36,676.03
             2255.98,678.65 2254.63,680.56 2252.30,681.78
             2249.96,682.99 2247.68,683.78 2245.44,684.16
             2237.41,685.46 2229.44,685.98 2221.50,685.70
             2213.56,685.42 2205.58,685.56 2197.56,686.11
             2197.56,686.11 2197.56,708.80 2197.56,708.80
             2197.75,712.90 2197.84,716.92 2197.84,720.84
             2197.84,724.76 2197.94,728.68 2198.12,732.59
             2198.31,735.77 2198.49,738.86 2198.67,741.84
             2198.86,744.82 2199.05,747.90 2199.23,751.08
             2199.23,751.08 2200.08,751.08 2200.08,751.08
             2200.83,751.27 2202.04,751.36 2203.72,751.36
             2203.72,751.36 2205.41,751.36 2205.41,751.36
             2207.83,751.17 2210.21,751.03 2212.55,750.94
             2214.88,750.84 2217.26,750.61 2219.69,750.23
             2224.53,749.86 2229.47,749.58 2234.52,749.39
             2239.55,749.20 2244.50,749.39 2249.36,749.95
             2250.30,750.14 2251.27,750.38 2252.30,750.66
             2253.33,750.94 2254.21,751.54 2254.95,752.47
             2256.08,753.78 2256.17,755.37 2255.23,757.23
             2253.93,759.29 2251.97,760.83 2249.36,761.86
             2246.74,762.88 2244.32,763.30 2242.08,763.11
             2240.77,762.73 2239.56,762.55 2238.44,762.55
             2237.32,762.55 2236.11,762.55 2234.80,762.55
             2234.05,762.37 2232.94,762.28 2231.44,762.28
             2231.44,762.28 2229.77,762.28 2229.77,762.28
             2227.34,762.46 2225.00,762.59 2222.77,762.69
             2220.52,762.78 2218.19,763.02 2215.77,763.39
             2210.72,763.77 2205.63,764.05 2200.50,764.23
             2195.36,764.42 2190.18,764.23 2184.95,763.67
             2184.02,763.48 2183.05,763.25 2182.02,762.97
             2180.99,762.69 2180.20,762.09 2179.64,761.16
             2178.34,759.84 2178.24,758.35 2179.36,756.67
             2179.17,753.32 2178.94,750.01 2178.66,746.73
             2178.38,743.46 2178.23,740.15 2178.23,736.80
             2178.05,732.70 2177.92,728.59 2177.83,724.48
             2177.73,720.37 2177.69,716.26 2177.69,712.16
             2177.12,677.48 2178.24,642.87 2181.05,608.33
             2180.11,607.02 2179.64,605.62 2179.64,604.12
             2180.02,601.51 2181.37,599.60 2183.70,598.39
             2186.04,597.17 2188.32,596.38 2190.56,596.00
             2200.27,594.70 2209.97,594.23 2219.67,594.61
             2229.38,594.98 2239.09,594.41 2248.80,592.92 Z
           M 2312.16,650.88
           C 2316.08,655.92 2320.33,660.87 2324.91,665.72
             2329.48,670.57 2333.82,675.52 2337.92,680.56
             2342.02,685.61 2345.71,690.93 2348.97,696.53
             2352.24,702.12 2354.44,708.28 2355.56,715.00
             2356.12,718.37 2356.45,721.82 2356.55,725.38
             2356.64,728.92 2356.22,732.37 2355.28,735.72
             2354.34,739.09 2353.13,742.26 2351.64,745.25
             2350.15,748.23 2348.19,750.93 2345.77,753.36
             2339.60,759.52 2332.22,763.16 2323.64,764.28
             2319.54,764.84 2315.52,764.66 2311.59,763.72
             2307.68,762.78 2303.95,761.38 2300.41,759.52
             2294.05,756.16 2288.59,751.69 2284.02,746.09
             2279.44,740.49 2276.13,734.32 2274.08,727.59
             2272.02,720.69 2271.28,713.73 2271.84,706.73
             2272.41,699.73 2274.08,692.97 2276.88,686.44
             2277.25,685.32 2277.99,684.39 2279.11,683.64
             2280.23,682.89 2281.27,682.33 2282.20,681.95
             2284.44,680.84 2287.05,680.28 2290.05,680.28
             2292.10,680.66 2293.82,681.50 2295.22,682.81
             2296.61,684.12 2296.85,685.89 2295.92,688.12
             2295.92,688.12 2294.23,692.31 2294.23,692.31
             2292.55,698.48 2291.81,704.45 2292.00,710.23
             2292.38,717.14 2294.05,723.49 2297.05,729.28
             2299.65,734.14 2303.01,738.52 2307.12,742.44
             2310.10,745.05 2313.37,747.20 2316.92,748.88
             2317.67,749.25 2318.79,749.62 2320.28,750.00
             2320.47,750.19 2320.70,750.28 2320.98,750.28
             2321.27,750.28 2321.50,750.38 2321.69,750.56
             2321.69,750.56 2325.05,750.56 2325.05,750.56
             2325.22,750.56 2325.41,750.47 2325.59,750.28
             2325.59,750.28 2325.88,750.28 2325.88,750.28
             2326.06,750.09 2326.25,750.00 2326.44,750.00
             2326.62,750.00 2326.81,749.91 2327.00,749.72
             2327.19,749.53 2327.38,749.39 2327.56,749.30
             2327.75,749.20 2327.94,749.06 2328.12,748.88
             2328.31,748.88 2328.59,748.69 2328.95,748.31
             2328.95,748.31 2329.52,747.77 2329.52,747.77
             2329.89,747.39 2330.22,747.02 2330.50,746.64
             2330.78,746.27 2331.11,745.89 2331.48,745.52
             2332.22,744.59 2332.83,743.57 2333.30,742.45
             2333.77,741.33 2334.28,740.11 2334.84,738.80
             2335.96,734.70 2336.42,730.50 2336.23,726.20
             2335.87,722.46 2335.17,718.78 2334.14,715.14
             2333.11,711.51 2331.85,708.01 2330.36,704.64
             2330.36,704.64 2328.69,702.12 2328.69,702.12
             2325.51,696.52 2321.77,691.34 2317.48,686.58
             2313.19,681.82 2308.89,677.11 2304.59,672.44
             2300.49,667.77 2296.48,662.96 2292.56,658.02
             2288.64,653.07 2285.66,647.61 2283.59,641.64
             2281.73,636.41 2280.84,630.86 2280.94,624.98
             2281.03,619.10 2282.48,613.73 2285.28,608.88
             2289.01,602.72 2294.14,598.05 2300.69,594.88
             2304.04,593.39 2307.72,592.23 2311.73,591.39
             2315.75,590.55 2319.63,590.40 2323.36,590.95
             2330.27,591.89 2335.68,594.60 2339.59,599.08
             2341.47,600.95 2343.01,603.00 2344.22,605.23
             2345.44,607.48 2346.51,609.81 2347.44,612.23
             2349.30,616.90 2350.66,621.57 2351.50,626.23
             2352.34,630.90 2353.13,635.66 2353.88,640.52
             2354.25,643.13 2353.50,645.19 2351.64,646.69
             2349.77,648.18 2347.82,649.20 2345.77,649.77
             2343.15,650.32 2340.63,650.32 2338.20,649.77
             2337.27,649.39 2336.38,648.88 2335.53,648.22
             2334.70,647.56 2334.19,646.77 2334.00,645.84
             2333.06,640.43 2332.08,635.02 2331.05,629.61
             2330.02,624.20 2328.30,619.06 2325.88,614.20
             2324.38,611.40 2322.71,608.98 2320.84,606.92
             2320.28,606.55 2319.25,605.98 2317.77,605.23
             2317.02,604.87 2316.45,604.69 2316.08,604.69
             2315.70,604.50 2315.33,604.41 2314.95,604.41
             2314.95,604.41 2314.41,604.41 2314.41,604.41
             2314.22,604.41 2314.03,604.45 2313.84,604.55
             2313.66,604.64 2313.47,604.69 2313.28,604.69
             2313.28,604.69 2313.00,604.69 2313.00,604.69
             2312.62,604.87 2312.25,604.95 2311.88,604.95
             2311.50,604.95 2311.13,605.05 2310.77,605.23
             2310.77,605.23 2310.48,605.23 2310.48,605.23
             2310.11,605.42 2309.88,605.56 2309.78,605.66
             2309.69,605.75 2309.45,605.89 2309.08,606.08
             2309.08,606.08 2308.80,606.08 2308.80,606.08
             2308.61,606.27 2308.42,606.41 2308.23,606.50
             2308.05,606.59 2307.86,606.73 2307.69,606.92
             2307.50,606.92 2307.41,606.97 2307.41,607.06
             2307.41,607.16 2307.31,607.20 2307.12,607.20
             2306.75,607.58 2306.56,607.77 2306.56,607.77
             2306.19,608.13 2305.91,608.45 2305.72,608.73
             2305.53,609.02 2305.25,609.34 2304.88,609.72
             2303.95,611.40 2303.20,612.98 2302.64,614.48
             2302.08,616.35 2301.70,618.12 2301.52,619.80
             2301.33,621.48 2301.23,623.25 2301.23,625.12
             2301.80,630.91 2303.29,636.23 2305.72,641.08
             2306.66,642.95 2307.63,644.67 2308.66,646.27
             2309.69,647.85 2310.85,649.39 2312.16,650.88 Z
           M 2325.59,750.56
           C 2325.59,750.56 2325.31,750.56 2325.31,750.56
             2325.31,750.56 2325.59,750.56 2325.59,750.56 Z
           M 2326.16,750.28
           C 2325.97,750.47 2325.83,750.56 2325.73,750.56
             2325.64,750.56 2325.69,750.47 2325.88,750.28
             2325.88,750.28 2325.59,750.28 2325.59,750.28
             2325.59,750.28 2326.44,750.28 2326.44,750.28
             2326.44,750.28 2326.16,750.28 2326.16,750.28 Z
           M 2326.44,750.00
           C 2326.44,750.00 2326.72,750.00 2326.72,750.00
             2326.72,750.00 2326.44,750.00 2326.44,750.00 Z" />
  <path id="Blueberry"
        fill="none" stroke="black" stroke-width="1"
        d="M 1023.00,490.00
           C 1031.74,490.09 1043.98,493.34 1051.99,496.80
             1055.14,498.17 1059.03,499.13 1061.00,502.00
             1070.94,502.32 1085.81,517.34 1091.63,525.00
             1093.54,527.52 1097.85,532.83 1097.80,536.00
             1097.75,538.58 1094.63,542.56 1093.32,545.00
             1090.64,550.01 1089.57,554.64 1088.00,560.00
             1088.00,560.00 1086.00,560.00 1086.00,560.00
             1080.18,551.71 1066.98,535.85 1059.82,529.08
             1059.82,529.08 1045.00,516.00 1045.00,516.00
             1045.00,516.00 1058.58,533.00 1058.58,533.00
             1058.58,533.00 1065.92,542.58 1065.92,542.58
             1065.92,542.58 1079.00,561.00 1079.00,561.00
             1069.78,561.75 1058.43,565.05 1052.00,572.00
             1045.52,568.20 1035.92,557.71 1035.00,550.00
             1030.77,547.25 1029.29,540.41 1027.80,535.72
             1022.92,520.35 1023.00,505.87 1023.00,490.00 Z
           M 1231.00,508.00
           C 1231.06,506.15 1230.84,505.90 1231.63,504.02
             1235.77,494.05 1243.61,503.13 1251.96,503.00
             1251.96,503.00 1251.96,507.91 1251.96,507.91
             1251.96,507.91 1238.63,527.20 1238.63,527.20
             1238.63,527.20 1216.42,556.00 1216.42,556.00
             1216.42,556.00 1204.39,569.75 1204.39,569.75
             1204.39,569.75 1189.00,575.00 1189.00,575.00
             1189.36,567.47 1188.72,564.41 1196.00,560.00
             1196.00,560.00 1195.00,558.00 1195.00,558.00
             1195.00,558.00 1219.43,523.72 1219.43,523.72
             1222.53,518.96 1226.17,510.84 1231.00,508.00 Z
           M 1120.00,532.00
           C 1122.70,528.00 1127.49,527.52 1132.00,526.87
             1141.69,525.48 1157.25,526.98 1163.00,536.00
             1172.07,537.72 1174.31,548.87 1178.00,553.00
             1177.97,557.97 1179.57,559.33 1179.89,563.99
             1180.70,575.68 1177.33,588.19 1169.00,596.71
             1166.98,598.77 1162.63,603.02 1159.71,603.35
             1156.79,603.68 1152.52,600.87 1149.59,599.95
             1143.59,598.08 1135.10,597.52 1129.00,599.00
             1126.49,584.57 1111.30,569.02 1097.00,566.00
             1098.09,553.73 1099.54,548.60 1108.27,539.34
             1112.03,535.35 1114.15,532.20 1120.00,532.00 Z
           M 1132.00,560.00
           C 1139.27,561.52 1140.36,555.88 1138.02,550.27
             1136.62,546.90 1136.54,542.97 1132.94,541.03
             1130.79,539.86 1128.35,540.19 1126.00,540.12
             1119.51,539.91 1114.34,540.84 1116.00,549.00
             1109.65,552.81 1111.41,561.76 1120.00,560.00
             1121.18,569.86 1131.55,567.67 1132.00,560.00 Z
           M 1125.00,547.00
           C 1133.44,548.18 1132.54,551.02 1133.00,558.00
             1128.47,559.91 1123.14,561.91 1121.00,556.00
             1123.76,556.51 1129.87,556.74 1128.68,552.05
             1128.33,550.68 1125.97,548.18 1125.00,547.00 Z
           M 1047.00,630.00
           C 1041.36,626.20 1040.60,612.29 1041.59,606.00
             1045.02,584.19 1061.03,570.47 1083.01,570.02
             1088.55,569.91 1097.40,570.30 1101.00,575.00
             1101.00,575.00 1116.68,585.96 1119.70,591.17
             1120.97,593.35 1123.09,597.03 1121.72,599.53
             1120.75,601.30 1116.85,602.82 1115.01,603.71
             1110.58,605.85 1109.73,606.56 1106.00,609.81
             1093.25,620.94 1086.83,635.17 1089.00,652.00
             1075.24,654.47 1064.22,651.42 1054.13,641.47
             1050.40,637.80 1047.26,635.54 1047.00,630.00 Z
           M 1179.00,597.00
           C 1185.95,590.27 1185.35,587.92 1196.08,582.44
             1210.11,575.28 1230.23,577.52 1242.00,588.11
             1246.61,592.26 1254.00,604.00 1254.00,604.00
             1254.00,604.00 1255.85,613.01 1255.85,613.01
             1256.95,619.60 1257.05,633.92 1251.00,638.00
             1250.77,646.39 1239.00,654.75 1231.99,658.05
             1229.24,659.34 1225.03,661.08 1222.00,660.17
             1219.19,659.33 1215.48,655.57 1213.00,653.68
             1209.76,651.20 1205.01,648.52 1201.29,646.81
             1197.49,645.06 1187.67,644.45 1185.59,642.40
             1183.12,639.95 1184.55,635.51 1180.76,627.91
             1180.76,627.91 1173.85,614.99 1173.85,614.99
             1172.91,610.14 1175.90,601.64 1180.00,599.00
             1180.00,599.00 1179.00,597.00 1179.00,597.00 Z
           M 1081.00,604.00
           C 1080.36,598.41 1078.64,593.52 1074.46,589.42
             1071.21,586.23 1066.58,586.15 1064.00,590.00
             1055.15,587.56 1054.25,592.75 1054.25,600.00
             1054.17,601.98 1053.62,604.10 1054.25,605.99
             1054.97,607.75 1056.37,609.26 1057.98,610.20
             1059.25,610.93 1068.68,613.77 1069.98,613.51
             1075.14,612.49 1073.18,608.73 1081.00,604.00 Z
           M 1067.00,595.00
           C 1068.66,595.10 1069.23,594.81 1070.86,595.83
             1079.66,601.38 1068.59,613.01 1063.00,605.00
             1072.74,603.42 1068.97,598.94 1067.00,595.00 Z
           M 1243.84,623.00
           C 1251.39,619.11 1247.69,613.71 1243.84,608.87
             1242.28,607.17 1241.12,605.50 1239.12,604.41
             1235.99,602.71 1229.06,605.79 1226.10,607.43
             1220.54,610.51 1221.94,614.09 1222.36,619.00
             1222.96,625.98 1224.66,631.08 1233.00,628.00
             1236.81,633.84 1244.14,630.97 1243.84,623.00 Z
           M 1098.00,664.00
           C 1097.41,658.18 1095.11,657.33 1095.00,648.00
             1094.87,636.26 1097.83,625.76 1106.17,617.09
             1123.08,599.51 1153.06,601.00 1168.76,619.29
             1175.93,627.64 1178.11,638.33 1178.00,649.00
             1177.95,653.49 1177.79,659.07 1174.00,662.00
             1173.94,669.19 1167.78,675.13 1162.42,679.20
             1147.80,690.57 1125.03,691.42 1110.59,679.20
             1106.00,675.24 1098.00,664.00 1098.00,664.00 Z
           M 1227.00,614.00
           C 1230.14,611.88 1231.20,610.66 1235.00,612.00
             1228.75,617.12 1230.25,622.40 1238.00,620.00
             1235.99,626.05 1230.48,625.18 1228.03,621.53
             1226.85,619.79 1227.20,616.22 1227.00,614.00 Z
           M 1148.00,633.00
           C 1152.84,632.70 1154.19,629.42 1152.48,625.00
             1150.46,619.80 1145.15,613.64 1139.00,614.85
             1134.83,615.67 1128.13,618.58 1127.00,623.00
             1126.30,624.97 1126.97,627.02 1127.00,629.00
             1127.65,635.50 1128.07,642.21 1137.00,638.00
             1141.53,644.62 1149.80,641.47 1148.00,633.00 Z
           M 1133.00,624.00
           C 1133.96,625.99 1134.71,628.99 1136.43,630.38
             1140.48,633.65 1142.91,630.00 1143.00,626.00
             1152.29,632.51 1133.42,642.60 1132.38,629.74
             1132.22,627.80 1132.63,625.89 1133.00,624.00 Z
           M 1046.00,641.00
           C 1052.11,649.45 1062.80,656.11 1073.00,658.33
             1076.43,659.08 1088.64,659.30 1090.21,660.75
             1091.58,662.01 1093.43,667.00 1094.44,668.99
             1100.24,680.41 1105.31,680.33 1105.48,686.01
             1105.60,690.23 1102.02,696.68 1099.72,700.17
             1092.48,711.13 1081.50,718.83 1068.00,719.00
             1051.96,719.19 1039.21,715.20 1029.90,701.00
             1019.34,684.90 1020.97,663.23 1034.24,649.20
             1037.85,645.39 1040.99,642.69 1046.00,641.00 Z
           M 1260.00,642.00
           C 1260.00,642.00 1276.91,646.56 1276.91,646.56
             1276.91,646.56 1289.00,651.00 1289.00,651.00
             1289.00,651.00 1297.89,656.39 1301.72,659.63
             1310.26,666.86 1318.12,677.49 1311.35,688.75
             1302.86,702.87 1279.96,705.98 1265.00,706.00
             1256.25,706.01 1251.52,706.28 1242.83,704.44
             1238.82,703.58 1235.63,703.32 1235.34,698.56
             1235.34,698.56 1235.34,692.00 1235.34,692.00
             1235.41,688.33 1234.65,683.64 1234.00,680.00
             1241.60,680.02 1244.83,680.99 1252.00,681.92
             1265.66,683.48 1292.16,685.65 1305.00,681.92
             1305.00,681.92 1249.00,675.87 1249.00,675.87
             1241.99,674.89 1232.83,675.52 1230.00,668.00
             1230.00,668.00 1237.00,667.00 1237.00,667.00
             1239.31,663.40 1242.94,662.40 1246.28,659.47
             1252.37,654.15 1256.46,649.27 1260.00,642.00 Z
           M 1184.00,650.00
           C 1188.68,650.45 1193.49,650.80 1198.01,652.27
             1207.21,655.27 1221.92,665.45 1222.00,676.00
             1224.82,678.18 1225.17,680.54 1225.71,684.00
             1226.76,690.77 1227.22,705.81 1221.00,710.00
             1220.82,715.06 1218.16,717.35 1214.72,720.87
             1206.56,729.19 1197.66,733.24 1186.00,733.91
             1181.01,734.19 1171.16,733.08 1168.00,729.00
             1158.27,728.67 1148.74,715.14 1145.77,706.73
             1144.82,704.04 1142.50,697.98 1144.06,695.43
             1145.20,693.57 1157.33,689.87 1160.58,687.84
             1173.19,679.95 1183.66,665.21 1184.00,650.00 Z
           M 1058.00,684.00
           C 1056.52,671.51 1048.10,678.76 1041.00,678.00
             1036.45,684.68 1036.65,682.94 1036.82,691.00
             1036.58,692.87 1036.36,694.11 1036.82,695.96
             1038.58,700.01 1047.91,704.00 1051.99,703.50
             1054.52,703.19 1056.90,701.35 1059.00,700.00
             1059.00,700.00 1058.00,696.00 1058.00,696.00
             1065.23,693.65 1065.23,686.35 1058.00,684.00 Z
           M 1046.00,683.00
           C 1046.00,683.00 1055.00,683.00 1055.00,683.00
             1056.93,689.20 1058.45,691.29 1053.00,696.00
             1053.99,686.66 1052.18,685.90 1044.00,689.00
             1044.00,689.00 1046.00,683.00 1046.00,683.00 Z
           M 1098.00,715.00
           C 1099.99,708.02 1106.14,703.30 1109.04,695.99
             1109.84,693.96 1110.80,689.65 1113.28,689.21
             1115.17,688.87 1120.79,691.55 1123.00,692.25
             1128.70,694.08 1131.19,694.00 1137.00,694.00
             1137.00,694.00 1138.00,708.00 1138.00,708.00
             1141.29,710.45 1142.33,714.45 1144.50,717.91
             1146.65,721.33 1151.20,725.37 1152.07,728.96
             1152.76,731.82 1150.77,738.02 1149.62,740.75
             1145.03,751.65 1136.09,759.82 1125.00,763.88
             1111.07,768.97 1101.68,763.64 1094.00,763.00
             1094.00,763.00 1074.90,747.25 1072.13,739.04
             1070.53,734.27 1070.02,729.99 1070.00,725.00
             1070.00,725.00 1077.00,724.00 1077.00,724.00
             1078.70,728.66 1082.11,734.50 1086.13,737.55
             1089.74,740.30 1092.84,739.19 1094.00,735.00
             1098.11,736.21 1104.09,735.20 1103.77,729.72
             1103.69,728.40 1102.56,726.23 1102.00,725.00
             1104.48,719.70 1103.08,717.55 1098.00,715.00 Z
           M 1201.00,704.00
           C 1200.30,695.37 1192.99,693.25 1189.00,701.00
             1181.86,698.05 1176.58,705.35 1183.00,711.00
             1178.88,716.88 1183.60,723.47 1191.00,720.00
             1195.72,727.77 1201.31,720.80 1204.38,716.00
             1207.60,710.97 1210.18,703.66 1201.00,704.00 Z
           M 1191.00,715.00
           C 1186.39,711.84 1183.26,706.24 1189.94,703.04
             1192.84,701.72 1195.09,702.81 1198.00,703.04
             1198.00,703.04 1199.00,708.00 1199.00,708.00
             1193.12,705.24 1192.99,705.60 1188.00,710.00
             1188.00,710.00 1191.00,715.00 1191.00,715.00 Z
           M 1233.00,713.00
           C 1233.00,713.00 1240.16,721.07 1240.16,721.07
             1247.31,730.53 1255.63,751.08 1254.68,763.00
             1254.54,764.67 1253.75,769.32 1253.17,770.83
             1248.25,783.72 1233.80,777.63 1226.00,771.59
             1220.16,767.08 1216.19,761.02 1211.00,756.00
             1211.00,756.00 1206.00,748.00 1206.00,748.00
             1205.57,745.51 1203.63,743.17 1203.99,741.09
             1204.49,738.15 1216.81,731.16 1220.00,729.00
             1220.02,735.33 1220.79,741.38 1223.19,747.28
             1226.81,756.17 1238.57,768.20 1247.00,773.00
             1247.00,773.00 1237.46,759.97 1237.46,759.97
             1232.71,753.26 1223.78,737.79 1222.26,729.99
             1221.38,725.49 1233.00,713.00 1233.00,713.00 Z
           M 1090.00,719.00
           C 1096.00,719.71 1094.92,719.49 1100.00,723.00
             1098.68,728.13 1098.72,733.13 1092.00,732.00
             1096.46,726.33 1096.46,722.16 1088.00,723.00
             1088.00,723.00 1090.00,719.00 1090.00,719.00 Z
           M 1037.00,721.00
           C 1046.01,724.14 1050.97,727.53 1061.00,728.00
             1060.57,737.04 1066.26,745.40 1066.22,748.99
             1066.19,751.83 1063.82,754.75 1062.14,756.92
             1057.90,762.38 1046.93,774.29 1040.00,775.00
             1038.05,777.96 1034.00,780.00 1034.00,780.00
             1027.99,780.43 1015.57,783.24 1015.00,774.00
             1011.27,770.66 1013.09,760.44 1014.44,756.00
             1015.30,753.17 1016.63,750.97 1017.00,748.00
             1017.00,748.00 1021.00,744.00 1021.00,744.00
             1021.75,735.30 1031.81,727.47 1037.00,721.00 Z
           M 1056.00,733.00
           C 1043.30,734.84 1030.08,748.47 1024.91,759.72
             1023.20,763.45 1020.83,771.87 1020.00,776.00
             1020.00,776.00 1031.41,760.17 1031.41,760.17
             1031.41,760.17 1056.00,733.00 1056.00,733.00 Z" />
</svg>
