<?xml version="1.0" encoding="UTF-8" standalone="no"?>
<!DOCTYPE svg PUBLIC "-//W3C//DTD SVG 20010904//EN"
              "http://www.w3.org/TR/2001/REC-SVG-20010904/DTD/svg10.dtd">

<svg xmlns="http://www.w3.org/2000/svg"
     width="20in" height="12in"
     viewBox="0 0 2560 1536">
  <path id="ChristmasCountDownStar"
        fill="none" stroke="black" stroke-width="1"
        d="M 1184.00,111.53
           C 1205.51,108.02 1220.75,124.63 1235.00,137.91
             1239.07,135.86 1382.00,280.67 1386.83,292.00
             1445.33,350.00 1457.33,401.33 1506.00,397.91
             1506.00,397.91 1743.00,408.04 1743.00,408.04
             1772.00,402.67 1842.67,415.33 1851.00,429.52
             1870.67,438.00 1886.78,477.14 1882.37,483.00
             1897.33,524.00 1851.33,657.33 1768.42,784.00
             1763.23,793.07 1756.56,801.15 1757.04,812.00
             1801.33,893.33 1906.67,1097.33 1895.00,1177.00
             1903.50,1327.50 1735.50,1357.50 1668.00,1326.37
             1579.50,1306.50 1294.50,1147.50 1255.00,1108.58
             1255.00,1108.58 1233.00,1094.33 1233.00,1094.33
             1223.00,1084.25 1203.50,1082.75 1192.87,1099.00
             1137.00,1177.00 942.00,1355.00 815.00,1415.73
             699.00,1466.00 578.00,1427.00 578.00,1294.00
             578.00,1294.00 578.00,1275.00 578.00,1275.00
             571.50,1152.00 674.50,918.50 700.25,876.00
             704.51,867.41 715.02,846.89 714.92,838.00
             714.80,827.81 702.69,817.22 696.42,810.00
             689.77,809.27 584.50,687.00 582.36,675.00
             545.50,633.00 516.95,536.24 523.01,527.00
             523.01,516.87 526.78,502.75 531.88,494.00
             582.00,429.50 681.00,419.50 740.00,418.96
             740.00,418.96 923.00,418.00 923.00,418.00
             923.00,418.00 938.00,419.00 938.00,419.00
             949.56,419.13 962.96,419.50 973.00,412.89
             983.48,406.01 988.24,392.05 993.31,381.00
             1017.33,318.00 1096.00,172.00 1138.00,148.00
             1138.00,148.00 1175.21,114.15 1184.00,111.53 Z
           M 1139.78,250.00
           C 1099.33,324.67 1192.00,355.33 1225.07,313.00
             1262.00,248.00 1184.39,197.05 1139.78,250.00 Z" />
</svg>
