<?xml version="1.0" encoding="UTF-8" standalone="no"?>
<!DOCTYPE svg PUBLIC "-//W3C//DTD SVG 20010904//EN"
              "http://www.w3.org/TR/2001/REC-SVG-20010904/DTD/svg10.dtd">

<svg xmlns="http://www.w3.org/2000/svg"
     width="20in" height="12in"
     viewBox="0 0 2560 1536">
  <path id="Sugar Free"
        fill="none" stroke="red" stroke-width="1"
        d="M 272.76,213.36
           C 266.57,213.36 261.55,210.75 257.69,205.54
             253.83,200.34 251.90,193.28 251.90,184.36
             251.90,179.19 252.35,174.69 253.24,170.86
             254.11,167.03 255.24,163.44 256.61,160.09
             256.61,160.09 271.27,160.09 271.27,160.09
             271.27,160.09 271.27,161.84 271.27,161.84
             268.60,165.16 266.54,168.88 265.10,172.98
             263.68,177.09 262.97,181.06 262.97,184.86
             262.97,185.83 263.05,187.11 263.22,188.70
             263.41,190.30 263.72,191.59 264.15,192.59
             264.70,193.82 265.38,194.84 266.19,195.63
             267.01,196.42 268.22,196.82 269.84,196.82
             271.22,196.82 272.41,196.24 273.41,195.07
             274.40,193.91 275.16,192.23 275.70,190.00
             276.26,187.66 276.78,185.19 277.27,182.57
             277.76,179.96 278.39,177.52 279.16,175.25
             280.87,170.01 283.20,166.23 286.14,163.93
             289.08,161.63 292.72,160.48 297.08,160.48
             302.91,160.48 307.67,163.08 311.36,168.27
             315.06,173.47 316.92,180.15 316.92,188.33
             316.92,192.44 316.53,196.48 315.75,200.49
             314.98,204.49 314.02,207.95 312.85,210.88
             312.85,210.88 298.93,210.88 298.93,210.88
             298.93,210.88 298.93,209.17 298.93,209.17
             300.89,206.65 302.53,203.57 303.86,199.93
             305.19,196.30 305.85,192.59 305.85,188.79
             305.85,187.45 305.75,186.11 305.55,184.79
             305.36,183.46 304.99,182.19 304.45,180.97
             303.98,179.87 303.29,178.94 302.37,178.16
             301.45,177.39 300.39,177.00 299.21,177.00
             297.56,177.00 296.28,177.62 295.39,178.88
             294.51,180.13 293.71,182.50 292.99,186.00
             292.50,188.29 292.03,190.48 291.58,192.59
             291.14,194.69 290.51,196.95 289.73,199.39
             288.15,204.15 286.01,207.67 283.31,209.95
             280.59,212.22 277.08,213.36 272.76,213.36 Z
           M 253.28,270.25
           C 253.28,270.25 253.28,255.20 253.28,255.20
             253.28,255.20 258.40,255.20 258.40,255.20
             256.27,252.41 254.65,249.85 253.54,247.54
             252.45,245.23 251.90,242.48 251.90,239.27
             251.90,234.07 253.39,230.07 256.37,227.26
             259.37,224.47 263.79,223.08 269.64,223.08
             269.64,223.08 300.32,223.08 300.32,223.08
             300.32,223.08 300.32,238.21 300.32,238.21
             300.32,238.21 277.10,238.21 277.10,238.21
             274.73,238.21 272.77,238.28 271.20,238.43
             269.63,238.58 268.33,238.95 267.31,239.51
             266.28,240.04 265.54,240.83 265.06,241.90
             264.59,242.98 264.35,244.48 264.35,246.42
             264.35,247.70 264.59,249.12 265.06,250.67
             265.54,252.24 266.23,253.75 267.14,255.20
             267.14,255.20 300.32,255.20 300.32,255.20
             300.32,255.20 300.32,270.25 300.32,270.25
             300.32,270.25 253.28,270.25 253.28,270.25 Z
           M 259.40,329.94
           C 255.06,329.94 251.42,329.31 248.46,328.06
             245.49,326.80 243.18,325.04 241.50,322.79
             239.80,320.53 238.58,317.80 237.83,314.61
             237.06,311.41 236.68,307.80 236.68,303.79
             236.68,300.53 236.87,297.32 237.26,294.16
             237.65,290.99 238.13,288.25 238.69,285.93
             238.69,285.93 250.51,285.93 250.51,285.93
             250.51,285.93 250.51,287.77 250.51,287.77
             249.82,289.61 249.19,291.85 248.61,294.50
             248.04,297.15 247.75,299.52 247.75,301.63
             247.75,304.40 247.97,306.66 248.42,308.41
             248.85,310.16 249.47,311.50 250.25,312.42
             251.02,313.29 251.99,313.91 253.17,314.30
             254.35,314.69 255.77,314.89 257.43,314.89
             257.43,314.89 258.17,314.89 258.17,314.89
             256.66,313.07 255.48,311.06 254.60,308.86
             253.72,306.66 253.28,304.20 253.28,301.50
             253.28,294.90 255.29,289.82 259.31,286.25
             263.34,282.68 269.48,280.90 277.71,280.90
             281.64,280.90 285.04,281.44 287.91,282.52
             290.77,283.61 293.28,285.15 295.41,287.14
             297.38,288.98 298.92,291.25 300.04,293.94
             301.14,296.63 301.70,299.39 301.70,302.21
             301.70,304.74 301.40,307.05 300.79,309.12
             300.19,311.20 299.34,313.10 298.26,314.80
             298.26,314.80 300.32,315.34 300.32,315.34
             300.32,315.34 300.32,329.94 300.32,329.94
             300.32,329.94 259.40,329.94 259.40,329.94 Z
           M 267.07,314.89
           C 267.07,314.89 289.40,314.89 289.40,314.89
             289.79,314.02 290.09,312.95 290.31,311.69
             290.53,310.44 290.63,309.31 290.63,308.32
             290.63,304.35 289.43,301.37 287.05,299.38
             284.67,297.41 281.34,296.42 277.08,296.42
             272.34,296.42 269.03,297.27 267.16,298.95
             265.28,300.65 264.35,303.15 264.35,306.46
             264.35,307.98 264.59,309.46 265.08,310.91
             265.59,312.36 266.25,313.69 267.07,314.89 Z
           M 265.10,372.13
           C 265.10,372.13 275.42,372.13 275.42,372.13
             275.24,370.10 274.99,367.89 274.68,365.52
             274.38,363.14 274.02,361.34 273.60,360.12
             273.11,358.61 272.38,357.45 271.42,356.67
             270.47,355.87 269.21,355.48 267.66,355.48
             266.63,355.48 265.80,355.55 265.15,355.72
             264.50,355.89 263.88,356.31 263.29,356.99
             262.71,357.62 262.28,358.38 261.99,359.28
             261.72,360.17 261.58,361.57 261.58,363.47
             261.58,364.98 261.91,366.50 262.55,368.05
             263.20,369.60 264.05,370.96 265.10,372.13 Z
           M 258.27,372.13
           C 257.65,371.32 256.91,370.31 256.05,369.10
             255.18,367.91 254.50,366.78 253.99,365.74
             253.30,364.25 252.78,362.71 252.44,361.11
             252.08,359.53 251.90,357.79 251.90,355.89
             251.90,351.43 253.27,347.69 256.00,344.68
             258.74,341.67 262.24,340.17 266.49,340.17
             269.87,340.17 272.64,340.93 274.79,342.46
             276.95,344.00 278.66,346.18 279.91,349.00
             281.15,351.79 282.03,355.25 282.55,359.37
             283.08,363.50 283.47,367.78 283.72,372.21
             283.72,372.21 284.02,372.21 284.02,372.21
             287.05,372.21 289.13,371.16 290.29,369.04
             291.44,366.92 292.02,363.80 292.02,359.67
             292.02,357.17 291.65,354.52 290.91,351.70
             290.19,348.89 289.64,346.87 289.25,345.65
             289.25,345.65 289.25,344.27 289.25,344.27
             289.25,344.27 299.56,344.27 299.56,344.27
             299.95,345.85 300.40,348.44 300.92,352.02
             301.44,355.61 301.70,359.20 301.70,362.80
             301.70,371.36 300.37,377.55 297.72,381.35
             295.09,385.16 290.95,387.07 285.32,387.07
             285.32,387.07 253.28,387.07 253.28,387.07
             253.28,387.07 253.28,372.13 253.28,372.13
             253.28,372.13 258.27,372.13 258.27,372.13 Z
           M 287.87,434.40
           C 287.87,434.40 287.87,433.06 287.87,433.06
             287.87,432.41 287.87,431.38 287.87,429.95
             287.87,428.54 287.87,427.36 287.87,426.41
             287.87,424.26 287.72,422.36 287.43,420.71
             287.14,419.07 286.66,417.30 285.96,415.40
             285.96,415.40 253.28,415.40 253.28,415.40
             253.28,415.40 253.28,400.33 253.28,400.33
             253.28,400.33 300.32,400.33 300.32,400.33
             300.32,400.33 300.32,415.40 300.32,415.40
             300.32,415.40 293.40,415.40 293.40,415.40
             296.25,418.72 298.12,421.61 299.00,424.06
             299.87,426.52 300.32,428.77 300.32,430.84
             300.32,431.37 300.30,431.96 300.27,432.63
             300.26,433.30 300.22,433.89 300.17,434.40
             300.17,434.40 287.87,434.40 287.87,434.40 Z
           M 303.08,517.66
           C 303.08,517.66 303.08,489.01 303.08,489.01
             303.08,489.01 292.02,489.01 292.02,489.01
             292.02,489.01 292.02,515.59 292.02,515.59
             292.02,515.59 279.57,515.59 279.57,515.59
             279.57,515.59 279.57,489.01 279.57,489.01
             279.57,489.01 253.28,489.01 253.28,489.01
             253.28,489.01 253.28,473.03 253.28,473.03
             253.28,473.03 315.54,473.03 315.54,473.03
             315.54,473.03 315.54,517.66 315.54,517.66
             315.54,517.66 303.08,517.66 303.08,517.66 Z
           M 287.87,561.53
           C 287.87,561.53 287.87,560.20 287.87,560.20
             287.87,559.55 287.87,558.51 287.87,557.09
             287.87,555.67 287.87,554.50 287.87,553.55
             287.87,551.40 287.72,549.50 287.43,547.85
             287.14,546.20 286.66,544.43 285.96,542.53
             285.96,542.53 253.28,542.53 253.28,542.53
             253.28,542.53 253.28,527.46 253.28,527.46
             253.28,527.46 300.32,527.46 300.32,527.46
             300.32,527.46 300.32,542.53 300.32,542.53
             300.32,542.53 293.40,542.53 293.40,542.53
             296.25,545.86 298.12,548.74 299.00,551.19
             299.87,553.65 300.32,555.91 300.32,557.97
             300.32,558.50 300.30,559.10 300.27,559.76
             300.26,560.44 300.22,561.03 300.17,561.53
             300.17,561.53 287.87,561.53 287.87,561.53 Z
           M 274.03,616.57
           C 274.03,616.57 274.03,582.11 274.03,582.11
             270.45,582.34 267.72,583.74 265.82,586.32
             263.92,588.90 262.97,592.70 262.97,597.72
             262.97,600.90 263.55,603.99 264.72,606.97
             265.89,609.94 267.16,612.30 268.50,614.03
             268.50,614.03 268.50,615.71 268.50,615.71
             268.50,615.71 255.94,615.71 255.94,615.71
             254.51,612.31 253.48,609.10 252.85,606.08
             252.22,603.07 251.90,599.74 251.90,596.08
             251.90,586.65 254.02,579.42 258.27,574.40
             262.52,569.39 268.57,566.89 276.43,566.89
             284.20,566.89 290.35,569.27 294.89,574.02
             299.43,578.77 301.70,585.29 301.70,593.58
             301.70,601.21 299.77,606.94 295.91,610.79
             292.06,614.64 286.52,616.57 279.29,616.57
             279.29,616.57 274.03,616.57 274.03,616.57 Z
           M 282.33,601.61
           C 285.54,601.52 287.96,600.74 289.57,599.26
             291.20,597.79 292.02,595.49 292.02,592.37
             292.02,589.46 291.24,587.07 289.70,585.20
             288.17,583.34 285.72,582.30 282.33,582.07
             282.33,582.07 282.33,601.61 282.33,601.61 Z
           M 274.03,673.23
           C 274.03,673.23 274.03,638.77 274.03,638.77
             270.45,639.00 267.72,640.40 265.82,642.98
             263.92,645.56 262.97,649.36 262.97,654.38
             262.97,657.56 263.55,660.64 264.72,663.62
             265.89,666.60 267.16,668.96 268.50,670.68
             268.50,670.68 268.50,672.37 268.50,672.37
             268.50,672.37 255.94,672.37 255.94,672.37
             254.51,668.97 253.48,665.76 252.85,662.74
             252.22,659.73 251.90,656.40 251.90,652.74
             251.90,643.31 254.02,636.08 258.27,631.06
             262.52,626.05 268.57,623.55 276.43,623.55
             284.20,623.55 290.35,625.92 294.89,630.67
             299.43,635.42 301.70,641.94 301.70,650.24
             301.70,657.86 299.77,663.60 295.91,667.45
             292.06,671.30 286.52,673.23 279.29,673.23
             279.29,673.23 274.03,673.23 274.03,673.23 Z
           M 282.33,658.27
           C 285.54,658.18 287.96,657.39 289.57,655.92
             291.20,654.45 292.02,652.15 292.02,649.03
             292.02,646.12 291.24,643.73 289.70,641.86
             288.17,640.00 285.72,638.95 282.33,638.73
             282.33,638.73 282.33,658.27 282.33,658.27 Z" />
  <path id="Glutten Free"
        fill="none" stroke="red" stroke-width="1"
        d="M 111.32,209.76
           C 109.95,207.34 108.58,204.16 107.22,200.19
             105.87,196.22 105.20,192.27 105.20,188.32
             105.20,179.19 108.80,172.03 116.02,166.86
             123.24,161.69 133.21,159.11 145.94,159.11
             158.07,159.11 167.84,161.72 175.26,166.93
             182.69,172.15 186.41,179.43 186.41,188.75
             186.41,192.29 185.93,195.65 184.98,198.84
             184.02,202.05 182.13,205.61 179.31,209.53
             179.31,209.53 160.49,209.53 160.49,209.53
             160.49,209.53 160.49,207.99 160.49,207.99
             161.20,207.30 162.22,206.31 163.51,205.01
             164.82,203.71 165.94,202.47 166.86,201.27
             167.95,199.87 168.89,198.25 169.67,196.39
             170.46,194.52 170.86,192.54 170.86,190.45
             170.86,188.00 170.33,185.78 169.29,183.78
             168.24,181.78 166.65,179.99 164.51,178.40
             162.44,176.88 159.79,175.69 156.57,174.81
             153.37,173.94 149.67,173.50 145.48,173.50
             136.93,173.50 130.37,175.07 125.82,178.21
             121.29,181.37 119.02,186.02 119.02,192.18
             119.02,192.71 119.03,193.30 119.07,193.93
             119.11,194.56 119.16,195.14 119.24,195.68
             119.24,195.68 134.57,195.68 134.57,195.68
             134.57,195.68 134.57,184.97 134.57,184.97
             134.57,184.97 150.12,184.97 150.12,184.97
             150.12,184.97 150.12,209.76 150.12,209.76
             150.12,209.76 111.32,209.76 111.32,209.76 Z
           M 106.92,234.09
           C 106.92,234.09 106.92,221.10 106.92,221.10
             106.92,221.10 188.14,221.10 188.14,221.10
             188.14,221.10 188.14,234.09 188.14,234.09
             188.14,234.09 106.92,234.09 106.92,234.09 Z
           M 106.92,286.49
           C 106.92,286.49 106.92,273.51 106.92,273.51
             106.92,273.51 113.32,273.51 113.32,273.51
             110.66,271.10 108.63,268.90 107.25,266.90
             105.88,264.91 105.20,262.53 105.20,259.77
             105.20,255.29 107.06,251.84 110.78,249.42
             114.52,247.00 120.05,245.80 127.36,245.80
             127.36,245.80 165.67,245.80 165.67,245.80
             165.67,245.80 165.67,258.86 165.67,258.86
             165.67,258.86 136.68,258.86 136.68,258.86
             133.72,258.86 131.26,258.92 129.31,259.04
             127.34,259.18 125.72,259.49 124.45,259.97
             123.16,260.43 122.23,261.12 121.64,262.04
             121.04,262.97 120.75,264.26 120.75,265.93
             120.75,267.03 121.04,268.26 121.64,269.60
             122.23,270.95 123.10,272.25 124.23,273.51
             124.23,273.51 165.67,273.51 165.67,273.51
             165.67,273.51 165.67,286.49 165.67,286.49
             165.67,286.49 106.92,286.49 106.92,286.49 Z
           M 106.79,324.47
           C 106.29,323.08 105.90,321.60 105.63,320.04
             105.34,318.48 105.20,316.56 105.20,314.29
             105.20,309.23 106.72,305.47 109.76,303.00
             112.80,300.55 118.01,299.32 125.39,299.32
             125.39,299.32 153.58,299.32 153.58,299.32
             153.58,299.32 153.58,293.97 153.58,293.97
             153.58,293.97 165.67,293.97 165.67,293.97
             165.67,293.97 165.67,299.32 165.67,299.32
             165.67,299.32 182.95,299.32 182.95,299.32
             182.95,299.32 182.95,312.31 182.95,312.31
             182.95,312.31 165.67,312.31 165.67,312.31
             165.67,312.31 165.67,324.47 165.67,324.47
             165.67,324.47 153.58,324.47 153.58,324.47
             153.58,324.47 153.58,312.31 153.58,312.31
             153.58,312.31 131.57,312.31 131.57,312.31
             129.39,312.31 127.48,312.32 125.85,312.35
             124.23,312.37 122.78,312.56 121.50,312.93
             120.21,313.26 119.18,313.86 118.43,314.72
             117.67,315.57 117.29,316.81 117.29,318.44
             117.29,319.12 117.49,320.01 117.89,321.10
             118.30,322.19 118.67,322.95 119.02,323.39
             119.02,323.39 119.02,324.47 119.02,324.47
             119.02,324.47 106.79,324.47 106.79,324.47 Z
           M 106.79,357.84
           C 106.29,356.45 105.90,354.97 105.63,353.41
             105.34,351.84 105.20,349.92 105.20,347.65
             105.20,342.60 106.72,338.84 109.76,336.37
             112.80,333.91 118.01,332.68 125.39,332.68
             125.39,332.68 153.58,332.68 153.58,332.68
             153.58,332.68 153.58,327.34 153.58,327.34
             153.58,327.34 165.67,327.34 165.67,327.34
             165.67,327.34 165.67,332.68 165.67,332.68
             165.67,332.68 182.95,332.68 182.95,332.68
             182.95,332.68 182.95,345.68 182.95,345.68
             182.95,345.68 165.67,345.68 165.67,345.68
             165.67,345.68 165.67,357.84 165.67,357.84
             165.67,357.84 153.58,357.84 153.58,357.84
             153.58,357.84 153.58,345.68 153.58,345.68
             153.58,345.68 131.57,345.68 131.57,345.68
             129.39,345.68 127.48,345.69 125.85,345.72
             124.23,345.74 122.78,345.93 121.50,346.29
             120.21,346.63 119.18,347.23 118.43,348.08
             117.67,348.94 117.29,350.18 117.29,351.81
             117.29,352.49 117.49,353.37 117.89,354.47
             118.30,355.56 118.67,356.32 119.02,356.76
             119.02,356.76 119.02,357.84 119.02,357.84
             119.02,357.84 106.79,357.84 106.79,357.84 Z
           M 132.84,405.19
           C 132.84,405.19 132.84,375.47 132.84,375.47
             128.37,375.67 124.96,376.88 122.58,379.10
             120.21,381.32 119.02,384.60 119.02,388.93
             119.02,391.67 119.75,394.33 121.21,396.90
             122.68,399.47 124.26,401.50 125.93,402.99
             125.93,402.99 125.93,404.44 125.93,404.44
             125.93,404.44 110.24,404.44 110.24,404.44
             108.46,401.51 107.17,398.75 106.38,396.14
             105.59,393.54 105.20,390.67 105.20,387.52
             105.20,379.39 107.85,373.15 113.16,368.82
             118.47,364.50 126.03,362.34 135.84,362.34
             145.54,362.34 153.23,364.39 158.90,368.49
             164.57,372.59 167.40,378.21 167.40,385.36
             167.40,391.94 164.98,396.88 160.17,400.20
             155.36,403.52 148.43,405.19 139.40,405.19
             139.40,405.19 132.84,405.19 132.84,405.19 Z
           M 143.21,392.28
           C 147.22,392.21 150.24,391.53 152.25,390.26
             154.29,388.99 155.31,387.01 155.31,384.32
             155.31,381.81 154.34,379.74 152.42,378.13
             150.51,376.53 147.44,375.63 143.21,375.43
             143.21,375.43 143.21,392.28 143.21,392.28 Z
           M 106.92,454.85
           C 106.92,454.85 106.92,441.79 106.92,441.79
             106.92,441.79 135.92,441.79 135.92,441.79
             138.28,441.79 140.62,441.71 142.97,441.53
             145.30,441.37 147.03,441.09 148.15,440.68
             149.43,440.19 150.36,439.49 150.96,438.55
             151.55,437.63 151.85,436.34 151.85,434.68
             151.85,433.50 151.57,432.30 151.01,431.09
             150.45,429.87 149.57,428.56 148.37,427.14
             148.37,427.14 106.92,427.14 106.92,427.14
             106.92,427.14 106.92,414.14 106.92,414.14
             106.92,414.14 165.67,414.14 165.67,414.14
             165.67,414.14 165.67,427.14 165.67,427.14
             165.67,427.14 159.27,427.14 159.27,427.14
             161.90,429.45 163.90,431.67 165.30,433.79
             166.70,435.92 167.40,438.28 167.40,440.88
             167.40,445.26 165.54,448.68 161.84,451.14
             158.13,453.61 152.59,454.85 145.24,454.85
             145.24,454.85 106.92,454.85 106.92,454.85 Z
           M 169.13,530.82
           C 169.13,530.82 169.13,506.11 169.13,506.11
             169.13,506.11 155.31,506.11 155.31,506.11
             155.31,506.11 155.31,529.03 155.31,529.03
             155.31,529.03 139.75,529.03 139.75,529.03
             139.75,529.03 139.75,506.11 139.75,506.11
             139.75,506.11 106.92,506.11 106.92,506.11
             106.92,506.11 106.92,492.33 106.92,492.33
             106.92,492.33 184.68,492.33 184.68,492.33
             184.68,492.33 184.68,530.82 184.68,530.82
             184.68,530.82 169.13,530.82 169.13,530.82 Z
           M 150.12,568.65
           C 150.12,568.65 150.12,567.50 150.12,567.50
             150.12,566.94 150.12,566.04 150.12,564.82
             150.12,563.60 150.12,562.58 150.12,561.76
             150.12,559.91 149.94,558.27 149.58,556.85
             149.22,555.43 148.61,553.90 147.75,552.27
             147.75,552.27 106.92,552.27 106.92,552.27
             106.92,552.27 106.92,539.27 106.92,539.27
             106.92,539.27 165.67,539.27 165.67,539.27
             165.67,539.27 165.67,552.27 165.67,552.27
             165.67,552.27 157.03,552.27 157.03,552.27
             160.60,555.13 162.93,557.62 164.03,559.73
             165.12,561.85 165.67,563.80 165.67,565.58
             165.67,566.03 165.65,566.55 165.62,567.12
             165.60,567.71 165.55,568.21 165.48,568.65
             165.48,568.65 150.12,568.65 150.12,568.65 Z
           M 132.84,616.11
           C 132.84,616.11 132.84,586.40 132.84,586.40
             128.37,586.59 124.96,587.80 122.58,590.03
             120.21,592.25 119.02,595.52 119.02,599.86
             119.02,602.60 119.75,605.26 121.21,607.83
             122.68,610.40 124.26,612.43 125.93,613.92
             125.93,613.92 125.93,615.37 125.93,615.37
             125.93,615.37 110.24,615.37 110.24,615.37
             108.46,612.44 107.17,609.67 106.38,607.06
             105.59,604.47 105.20,601.59 105.20,598.44
             105.20,590.31 107.85,584.08 113.16,579.75
             118.47,575.43 126.03,573.27 135.84,573.27
             145.54,573.27 153.23,575.32 158.90,579.41
             164.57,583.51 167.40,589.13 167.40,596.28
             167.40,602.86 164.98,607.81 160.17,611.12
             155.36,614.45 148.43,616.11 139.40,616.11
             139.40,616.11 132.84,616.11 132.84,616.11 Z
           M 143.21,603.21
           C 147.22,603.13 150.24,602.45 152.25,601.18
             154.29,599.91 155.31,597.93 155.31,595.24
             155.31,592.73 154.34,590.67 152.42,589.06
             150.51,587.46 147.44,586.55 143.21,586.36
             143.21,586.36 143.21,603.21 143.21,603.21 Z
           M 132.84,664.97
           C 132.84,664.97 132.84,635.25 132.84,635.25
             128.37,635.45 124.96,636.66 122.58,638.88
             120.21,641.10 119.02,644.38 119.02,648.72
             119.02,651.46 119.75,654.12 121.21,656.68
             122.68,659.25 124.26,661.28 125.93,662.77
             125.93,662.77 125.93,664.23 125.93,664.23
             125.93,664.23 110.24,664.23 110.24,664.23
             108.46,661.29 107.17,658.53 106.38,655.92
             105.59,653.32 105.20,650.45 105.20,647.30
             105.20,639.17 107.85,632.94 113.16,628.61
             118.47,624.29 126.03,622.13 135.84,622.13
             145.54,622.13 153.23,624.17 158.90,628.27
             164.57,632.37 167.40,637.99 167.40,645.14
             167.40,651.72 164.98,656.67 160.17,659.98
             155.36,663.30 148.43,664.97 139.40,664.97
             139.40,664.97 132.84,664.97 132.84,664.97 Z
           M 143.21,652.07
           C 147.22,651.99 150.24,651.31 152.25,650.04
             154.29,648.77 155.31,646.79 155.31,644.10
             155.31,641.59 154.34,639.53 152.42,637.92
             150.51,636.31 147.44,635.41 143.21,635.22
             143.21,635.22 143.21,652.07 143.21,652.07 Z" />
  <path id="SF Stake"
        fill="none" stroke="black" stroke-width="1"
        d="M 236.00,118.16
           C 236.00,118.16 317.00,118.16 317.00,118.16
             335.00,118.09 343.97,128.43 344.00,146.00
             344.00,146.00 344.00,730.00 344.00,730.00
             343.98,742.34 305.92,908.14 287.03,949.83
             287.03,949.83 268.96,949.74 268.96,949.74
             253.76,908.02 216.03,747.57 216.00,730.00
             216.00,730.00 216.00,144.00 216.00,144.00
             216.16,130.72 222.89,121.59 236.00,118.16 Z" />
  <path id="GF Stake"
        fill="none" stroke="black" stroke-width="1"
        d="M 100.00,118.16
           C 100.00,118.16 181.00,118.16 181.00,118.16
             199.00,118.09 207.97,128.43 208.00,146.00
             208.00,146.00 208.00,730.00 208.00,730.00
             207.98,742.34 169.92,908.14 151.03,949.83
             151.03,949.83 132.96,949.74 132.96,949.74
             117.76,908.02 80.03,747.57 80.00,730.00
             80.00,730.00 80.00,144.00 80.00,144.00
             80.16,130.72 86.89,121.59 100.00,118.16 Z" />
</svg>
