<?xml version="1.0" encoding="UTF-8" standalone="no"?>
<!DOCTYPE svg PUBLIC "-//W3C//DTD SVG 20010904//EN"
              "http://www.w3.org/TR/2001/REC-SVG-20010904/DTD/svg10.dtd">

<svg xmlns="http://www.w3.org/2000/svg"
     width="20in" height="20in"
     viewBox="0 0 2560 2560">
  <path id="Inner Cicrle"
        fill="none" stroke="black" stroke-width="1"
        d="M 192.00,1280.73
           C 192.00,1267.99 192.00,1255.00 192.00,1255.00
             192.00,1255.00 193.00,1229.00 193.00,1229.00
             193.00,1229.00 194.00,1212.00 194.00,1212.00
             194.00,1212.00 195.83,1190.00 195.83,1190.00
             195.83,1190.00 204.73,1114.00 204.73,1114.00
             218.72,1019.00 247.86,922.67 286.86,835.00
             391.49,599.83 580.37,407.13 813.00,297.22
             857.37,276.26 903.10,257.60 950.00,243.02
             1018.84,221.63 1081.47,208.11 1153.00,199.28
             1153.00,199.28 1216.00,194.00 1216.00,194.00
             1216.00,194.00 1229.00,193.00 1229.00,193.00
             1229.00,193.00 1247.00,192.14 1247.00,192.14
             1247.00,192.14 1275.00,192.14 1275.00,192.14
             1275.00,192.14 1305.00,192.14 1305.00,192.14
             1305.00,192.14 1320.00,193.00 1320.00,193.00
             1320.00,193.00 1331.00,193.00 1331.00,193.00
             1331.00,193.00 1348.00,194.00 1348.00,194.00
             1348.00,194.00 1358.00,194.91 1358.00,194.91
             1358.00,194.91 1425.00,201.72 1425.00,201.72
             1471.33,207.82 1516.82,217.24 1562.00,229.12
             1733.99,274.32 1893.04,363.88 2023.00,484.91
             2023.00,484.91 2068.91,530.00 2068.91,530.00
             2185.30,654.93 2268.32,793.84 2319.02,957.00
             2337.09,1015.13 2350.34,1074.64 2358.28,1135.00
             2358.28,1135.00 2365.09,1202.00 2365.09,1202.00
             2365.09,1202.00 2366.00,1212.00 2366.00,1212.00
             2366.00,1212.00 2367.00,1239.00 2367.00,1239.00
             2367.00,1239.00 2368.00,1255.00 2368.00,1255.00
             2368.00,1255.00 2368.00,1267.53 2368.00,1280.29" />
  <path id="OuterCircle"
        fill="none" stroke="black" stroke-width="1"
        d="M 0.00,1280.73
           C 0.00,1266.49 0.00,1252.00 0.00,1252.00
             0.00,1252.00 1.00,1236.00 1.00,1236.00
             1.00,1236.00 2.00,1206.00 2.00,1206.00
             2.00,1206.00 2.91,1196.00 2.91,1196.00
             5.27,1161.45 8.78,1127.34 13.73,1093.00
             31.02,973.04 66.75,854.11 117.31,744.00
             220.72,518.81 389.14,327.59 599.00,195.95
             642.71,168.53 688.09,143.23 735.00,121.69
             787.16,97.74 840.12,76.08 895.00,59.02
             970.69,35.50 1046.32,19.00 1125.00,9.28
             1149.34,6.28 1187.04,2.28 1211.00,2.00
             1211.00,2.00 1224.00,1.00 1224.00,1.00
             1224.00,1.00 1244.00,0.14 1244.00,0.14
             1244.00,0.14 1275.00,0.14 1275.00,0.14
             1275.00,0.14 1308.00,0.14 1308.00,0.14
             1308.00,0.14 1324.00,1.00 1324.00,1.00
             1324.00,1.00 1354.00,2.00 1354.00,2.00
             1354.00,2.00 1364.00,2.91 1364.00,2.91
             1364.00,2.91 1378.00,3.83 1378.00,3.83
             1378.00,3.83 1397.00,5.17 1397.00,5.17
             1397.00,5.17 1430.00,8.84 1430.00,8.84
             1496.15,15.91 1561.95,29.77 1626.00,47.58
             1818.19,101.02 1994.14,199.41 2142.00,333.17
             2142.00,333.17 2168.00,357.96 2168.00,357.96
             2168.00,357.96 2192.99,382.00 2192.99,382.00
             2192.99,382.00 2202.04,392.00 2202.04,392.00
             2202.04,392.00 2226.83,418.00 2226.83,418.00
             2357.78,562.74 2453.70,732.63 2508.42,920.00
             2528.40,988.38 2543.58,1059.11 2551.16,1130.00
             2551.16,1130.00 2554.83,1163.00 2554.83,1163.00
             2554.83,1163.00 2556.17,1182.00 2556.17,1182.00
             2556.17,1182.00 2557.09,1196.00 2557.09,1196.00
             2557.09,1196.00 2558.00,1206.00 2558.00,1206.00
             2558.00,1206.00 2559.00,1235.00 2559.00,1235.00
             2559.00,1235.00 2560.00,1252.00 2560.00,1252.00
             2560.00,1252.00 2560.00,1266.00 2560.00,1280.00
             2560.00,1280.00 0.00,1280.73 0.00,1280.73 Z" />
</svg>
