<?xml version="1.0" encoding="UTF-8" standalone="no"?>
<!DOCTYPE svg PUBLIC "-//W3C//DTD SVG 20010904//EN"
              "http://www.w3.org/TR/2001/REC-SVG-20010904/DTD/svg10.dtd">

<svg xmlns="http://www.w3.org/2000/svg"
     width="20in" height="12in"
     viewBox="0 0 2560 1536">
  <path id="Heritage"
        fill="none" stroke="black" stroke-width="1"
        d="M 213.92,704.56
           C 214.11,709.04 214.25,713.57 214.34,718.14
             214.44,722.71 214.67,727.24 215.05,731.72
             215.41,736.01 215.69,740.40 215.88,744.88
             216.06,749.36 216.16,753.75 216.16,758.05
             216.16,759.91 215.32,761.50 213.64,762.80
             211.21,764.66 208.60,765.88 205.80,766.44
             203.18,767.38 200.38,767.66 197.39,767.28
             196.65,767.09 195.72,766.81 194.59,766.44
             193.48,766.06 192.92,765.41 192.92,764.48
             192.92,759.45 192.78,754.40 192.50,749.36
             192.22,744.32 191.89,739.28 191.52,734.23
             191.15,729.76 190.92,725.23 190.83,720.66
             190.73,716.09 190.59,711.46 190.41,706.80
             190.41,702.13 190.36,697.56 190.27,693.08
             190.17,688.60 190.12,684.03 190.12,679.36
             190.12,670.21 190.12,661.12 190.12,652.06
             190.12,643.01 190.22,633.91 190.41,624.77
             191.16,587.98 193.11,551.12 196.28,514.16
             196.47,513.23 197.07,512.34 198.09,511.50
             199.12,510.66 200.02,510.05 200.77,509.69
             202.25,508.75 203.74,508.09 205.23,507.72
             206.73,507.34 208.23,506.97 209.72,506.59
             210.84,506.41 212.05,506.36 213.36,506.45
             214.66,506.55 215.97,506.78 217.28,507.16
             218.77,507.91 219.52,509.21 219.52,511.08
             218.02,527.51 216.86,543.89 216.02,560.22
             215.18,576.55 214.48,592.93 213.92,609.36
             213.92,612.54 213.88,615.57 213.78,618.47
             213.69,621.36 213.64,624.39 213.64,627.56
             225.21,626.44 236.74,626.06 248.22,626.44
             259.70,626.81 271.22,626.44 282.80,625.31
             282.80,625.31 282.89,625.13 283.08,624.77
             283.45,606.10 284.10,587.67 285.03,569.47
             285.97,551.26 287.19,532.82 288.69,514.16
             288.86,513.23 289.47,512.34 290.50,511.50
             291.53,510.66 292.41,510.05 293.16,509.69
             294.66,508.75 296.15,508.09 297.64,507.72
             299.14,507.34 300.63,506.97 302.12,506.59
             303.25,506.41 304.46,506.36 305.77,506.45
             307.08,506.55 308.38,506.78 309.69,507.16
             311.18,507.91 311.92,509.21 311.92,511.08
             310.43,527.51 309.27,543.89 308.42,560.22
             307.58,576.55 306.88,592.93 306.31,609.36
             306.13,616.08 306.00,622.80 305.91,629.52
             305.81,636.23 305.77,642.96 305.77,649.69
             305.77,658.84 305.77,667.93 305.77,676.98
             305.77,686.04 305.95,695.23 306.31,704.56
             306.50,709.04 306.64,713.57 306.73,718.14
             306.83,722.71 307.06,727.24 307.44,731.72
             307.81,736.01 308.09,740.40 308.28,744.88
             308.47,749.36 308.56,753.75 308.56,758.05
             308.56,759.91 307.72,761.50 306.05,762.80
             303.62,764.66 301.00,765.88 298.20,766.44
             295.59,767.38 292.79,767.66 289.80,767.28
             289.05,767.09 288.12,766.81 287.00,766.44
             285.88,766.06 285.33,765.41 285.33,764.48
             285.33,759.45 285.19,754.40 284.91,749.36
             284.62,744.32 284.30,739.28 283.92,734.23
             283.55,729.76 283.31,725.23 283.22,720.66
             283.12,716.09 282.98,711.46 282.80,706.80
             282.80,702.13 282.75,697.56 282.66,693.08
             282.56,688.60 282.52,684.03 282.52,679.36
             282.52,679.36 282.52,642.69 282.52,642.69
             270.94,643.99 259.41,644.45 247.94,644.08
             236.46,643.70 224.93,643.98 213.36,644.92
             213.36,644.92 213.36,649.69 213.36,649.69
             213.36,658.84 213.36,667.93 213.36,676.98
             213.36,686.04 213.55,695.23 213.92,704.56 Z
           M 395.80,595.92
           C 396.73,595.73 397.76,595.78 398.88,596.06
             400.00,596.34 401.07,596.81 402.09,597.47
             403.12,598.12 403.91,598.91 404.47,599.84
             405.03,600.78 405.22,601.81 405.05,602.92
             404.67,605.54 403.32,607.45 400.98,608.67
             398.65,609.88 396.36,610.67 394.12,611.05
             386.28,612.35 378.53,612.91 370.88,612.72
             363.23,612.53 355.48,612.62 347.64,613.00
             346.89,621.73 346.33,630.41 345.95,639.05
             345.59,647.68 345.22,656.45 344.84,665.36
             344.84,665.36 344.84,674.00 344.84,674.00
             353.05,673.45 361.26,673.31 369.47,673.59
             377.69,673.87 385.91,673.35 394.12,672.05
             396.18,671.68 398.32,672.15 400.56,673.45
             402.80,674.75 403.73,676.61 403.36,679.03
             402.98,681.65 401.63,683.56 399.30,684.78
             396.96,685.99 394.68,686.78 392.44,687.16
             384.41,688.46 376.44,688.98 368.50,688.70
             360.56,688.42 352.58,688.56 344.56,689.11
             344.56,689.11 344.56,711.80 344.56,711.80
             344.75,715.90 344.84,719.92 344.84,723.84
             344.84,727.76 344.94,731.68 345.12,735.59
             345.31,738.77 345.49,741.86 345.67,744.84
             345.86,747.82 346.05,750.90 346.23,754.08
             346.23,754.08 347.08,754.08 347.08,754.08
             347.83,754.27 349.04,754.36 350.72,754.36
             350.72,754.36 352.41,754.36 352.41,754.36
             354.83,754.17 357.21,754.03 359.55,753.94
             361.88,753.84 364.26,753.61 366.69,753.23
             371.53,752.86 376.47,752.58 381.52,752.39
             386.55,752.20 391.50,752.39 396.36,752.95
             397.30,753.14 398.27,753.38 399.30,753.66
             400.33,753.94 401.21,754.54 401.95,755.47
             403.08,756.78 403.17,758.37 402.23,760.23
             400.93,762.29 398.97,763.83 396.36,764.86
             393.74,765.88 391.32,766.30 389.08,766.11
             387.77,765.73 386.56,765.55 385.44,765.55
             384.32,765.55 383.11,765.55 381.80,765.55
             381.05,765.37 379.94,765.28 378.44,765.28
             378.44,765.28 376.77,765.28 376.77,765.28
             374.34,765.46 372.00,765.59 369.77,765.69
             367.52,765.78 365.19,766.02 362.77,766.39
             357.72,766.77 352.63,767.05 347.50,767.23
             342.36,767.42 337.18,767.23 331.95,766.67
             331.02,766.48 330.05,766.25 329.02,765.97
             327.99,765.69 327.20,765.09 326.64,764.16
             325.34,762.84 325.24,761.35 326.36,759.67
             326.17,756.32 325.94,753.01 325.66,749.73
             325.38,746.46 325.23,743.15 325.23,739.80
             325.05,735.70 324.92,731.59 324.83,727.48
             324.73,723.37 324.69,719.26 324.69,715.16
             324.12,680.48 325.24,645.87 328.05,611.33
             327.11,610.02 326.64,608.62 326.64,607.12
             327.02,604.51 328.37,602.60 330.70,601.39
             333.04,600.17 335.32,599.38 337.56,599.00
             347.27,597.70 356.97,597.23 366.67,597.61
             376.38,597.98 386.09,597.41 395.80,595.92 Z
           M 507.59,653.31
           C 505.91,659.48 503.30,665.23 499.75,670.55
             496.21,675.86 492.01,680.48 487.16,684.41
             487.53,685.34 487.91,686.73 488.28,688.59
             489.22,691.21 490.01,693.82 490.66,696.44
             491.31,699.05 492.02,701.67 492.77,704.28
             494.07,709.14 495.32,713.85 496.53,718.42
             497.75,723.00 499.01,727.62 500.31,732.28
             500.69,733.96 501.11,735.59 501.58,737.19
             502.05,738.77 502.47,740.40 502.84,742.08
             503.22,743.02 503.49,744.05 503.67,745.17
             503.86,746.29 504.14,747.31 504.52,748.23
             505.08,750.29 505.68,752.30 506.33,754.27
             506.98,756.23 507.50,758.23 507.88,760.28
             508.06,762.34 506.99,763.97 504.66,765.19
             502.32,766.40 500.41,767.19 498.92,767.56
             496.30,768.31 493.88,768.50 491.64,768.12
             491.08,767.94 490.33,767.70 489.39,767.42
             488.46,767.14 487.91,766.53 487.72,765.59
             487.34,762.99 486.73,760.57 485.89,758.33
             485.05,756.08 484.36,753.65 483.80,751.05
             483.61,750.11 483.42,749.27 483.23,748.53
             483.05,747.78 482.77,746.94 482.41,746.00
             481.84,743.76 481.28,741.52 480.72,739.28
             480.16,737.04 479.50,734.80 478.77,732.56
             477.45,727.90 476.19,723.23 474.97,718.56
             473.76,713.90 472.50,709.14 471.20,704.28
             470.83,702.79 470.41,701.30 469.94,699.81
             469.47,698.31 469.05,696.81 468.69,695.31
             464.76,697.19 460.93,698.50 457.20,699.23
             451.41,700.55 445.44,701.39 439.28,701.77
             439.28,701.77 439.28,712.69 439.28,712.69
             439.28,716.61 439.33,720.52 439.42,724.44
             439.52,728.36 439.66,732.37 439.84,736.48
             440.03,740.21 440.26,743.90 440.53,747.55
             440.81,751.18 440.95,754.87 440.95,758.59
             440.95,760.09 440.30,761.40 439.00,762.52
             438.06,763.45 436.98,764.11 435.77,764.48
             434.55,764.86 433.39,765.23 432.28,765.59
             429.66,766.53 427.14,766.72 424.72,766.16
             424.16,766.16 423.41,765.98 422.47,765.61
             421.54,765.23 421.08,764.67 421.08,763.92
             420.89,760.18 420.66,756.40 420.38,752.58
             420.10,748.76 419.88,744.98 419.69,741.23
             419.50,737.32 419.41,733.36 419.41,729.34
             419.41,725.32 419.31,721.36 419.12,717.44
             418.94,698.96 419.17,680.62 419.83,662.42
             420.48,644.23 421.55,625.98 423.05,607.69
             423.42,606.94 423.61,606.56 423.61,606.56
             423.42,604.51 424.30,602.70 426.27,601.11
             428.22,599.52 430.13,598.53 432.00,598.16
             436.29,597.23 440.68,596.48 445.16,595.92
             449.63,595.36 454.21,595.27 458.88,595.64
             465.97,596.02 472.88,597.70 479.59,600.69
             486.32,603.67 492.11,607.87 496.95,613.28
             501.80,618.70 505.26,624.95 507.31,632.05
             509.38,639.14 509.47,646.23 507.59,653.31 Z
           M 486.88,655.84
           C 488.00,651.92 488.56,647.90 488.56,643.80
             488.00,639.51 486.88,635.40 485.20,631.48
             482.77,627.01 479.97,623.18 476.80,620.00
             473.80,617.57 470.91,615.62 468.12,614.12
             466.81,613.56 465.50,613.05 464.19,612.58
             462.88,612.11 461.49,611.69 460.00,611.31
             459.81,611.14 459.62,611.05 459.44,611.05
             459.06,611.05 458.59,611.00 458.03,610.91
             457.48,610.81 457.02,610.77 456.64,610.77
             454.77,610.39 453.19,610.20 451.88,610.20
             451.88,610.20 448.52,610.20 448.52,610.20
             447.59,610.20 446.75,610.20 446.00,610.20
             445.25,610.20 444.41,610.30 443.48,610.48
             443.48,610.48 442.64,610.48 442.64,610.48
             441.89,620.01 441.28,629.43 440.81,638.77
             440.35,648.10 439.94,657.53 439.56,667.05
             439.38,670.40 439.28,673.81 439.28,677.27
             439.28,680.71 439.28,684.12 439.28,687.48
             441.14,687.30 442.96,687.16 444.73,687.06
             446.52,686.97 448.43,686.73 450.48,686.36
             450.48,686.36 450.67,686.27 451.05,686.08
             451.60,686.08 452.44,685.89 453.56,685.52
             455.43,685.14 456.83,684.77 457.77,684.41
             458.32,684.41 458.78,684.22 459.16,683.84
             459.53,683.84 459.81,683.75 460.00,683.56
             460.00,683.56 464.20,681.88 464.20,681.88
             464.94,681.32 466.06,680.67 467.56,679.92
             467.75,679.92 467.94,679.83 468.12,679.64
             468.31,679.64 468.50,679.55 468.69,679.36
             469.61,678.61 470.59,677.91 471.61,677.27
             472.64,676.61 473.62,675.81 474.56,674.88
             474.56,674.69 474.66,674.59 474.84,674.59
             475.03,674.59 475.22,674.50 475.41,674.31
             475.41,673.95 475.59,673.77 475.95,673.77
             476.33,673.39 476.70,672.97 477.08,672.50
             477.45,672.03 477.83,671.61 478.20,671.23
             479.69,669.37 480.91,667.79 481.84,666.48
             484.08,663.12 485.76,659.57 486.88,655.84 Z
           M 547.23,546.00
           C 547.98,546.00 548.96,546.00 550.17,546.00
             551.39,546.00 552.28,546.34 552.84,547.00
             552.84,547.00 552.84,547.56 552.84,547.56
             552.84,547.75 552.75,547.93 552.56,548.11
             552.56,548.11 552.56,551.20 552.56,551.20
             552.38,552.70 552.19,554.19 552.00,555.69
             551.81,557.18 551.62,558.67 551.44,560.16
             551.25,561.65 551.11,563.14 551.02,564.64
             550.92,566.13 550.78,567.62 550.59,569.11
             550.59,569.86 550.59,570.70 550.59,571.64
             550.59,572.57 550.41,573.31 550.05,573.88
             549.30,575.00 548.55,575.66 547.80,575.84
             547.05,576.21 546.36,576.53 545.70,576.81
             545.05,577.09 544.34,577.42 543.59,577.80
             542.29,578.17 541.03,578.55 539.81,578.92
             538.60,579.30 537.25,579.57 535.77,579.75
             535.20,579.75 534.22,579.80 532.81,579.89
             531.41,579.98 530.53,579.57 530.16,578.64
             530.16,578.64 530.16,577.80 530.16,577.80
             530.53,575.75 530.81,573.60 531.00,571.36
             531.19,569.12 531.38,566.98 531.56,564.92
             531.75,563.42 531.89,561.93 531.98,560.44
             532.08,558.95 532.22,557.45 532.41,555.95
             532.41,555.58 532.45,555.16 532.55,554.70
             532.64,554.23 532.69,553.81 532.69,553.44
             532.69,553.44 532.69,552.88 532.69,552.88
             532.86,551.95 533.09,551.30 533.38,550.92
             533.66,550.55 534.27,550.08 535.20,549.52
             537.07,548.40 539.02,547.61 541.08,547.12
             543.13,546.65 545.18,546.27 547.23,546.00 Z
           M 530.44,578.00
           C 530.44,578.00 530.44,577.72 530.44,577.72
             530.44,577.72 530.44,578.00 530.44,578.00 Z
           M 546.67,597.05
           C 547.98,597.60 548.55,598.62 548.36,600.12
             546.68,621.03 545.56,642.22 545.00,663.69
             544.62,671.52 544.44,679.41 544.44,687.34
             544.44,695.27 544.53,703.25 544.72,711.28
             544.72,715.39 544.77,719.45 544.86,723.47
             544.95,727.48 545.09,731.54 545.28,735.64
             545.47,739.56 545.70,743.43 545.98,747.27
             546.27,751.09 546.41,754.96 546.41,758.88
             546.41,760.38 545.66,761.68 544.17,762.80
             542.48,764.48 540.24,765.59 537.44,766.16
             534.82,766.72 532.39,766.91 530.16,766.72
             529.59,766.53 528.80,766.30 527.77,766.02
             526.74,765.73 526.23,765.13 526.23,764.20
             526.23,759.91 526.09,755.67 525.81,751.47
             525.54,747.26 525.31,743.01 525.12,738.72
             524.94,734.43 524.80,730.14 524.70,725.84
             524.61,721.55 524.56,717.26 524.56,712.95
             524.38,694.48 524.61,676.09 525.27,657.80
             525.92,639.51 526.99,621.21 528.48,602.92
             528.67,601.98 529.23,601.20 530.16,600.55
             531.09,599.89 531.84,599.38 532.41,599.00
             534.64,597.70 537.16,596.86 539.95,596.48
             542.57,596.11 544.80,596.30 546.67,597.05 Z
           M 649.23,593.95
           C 651.29,593.59 653.43,594.02 655.67,595.23
             657.92,596.45 658.86,598.26 658.48,600.69
             658.11,603.29 656.75,605.25 654.42,606.56
             652.09,607.87 649.80,608.70 647.56,609.08
             642.89,609.64 638.27,610.02 633.70,610.20
             629.13,610.39 624.51,610.48 619.84,610.48
             619.09,619.45 618.53,628.40 618.16,637.36
             617.79,646.32 617.42,655.28 617.05,664.23
             616.67,672.08 616.48,679.92 616.48,687.77
             616.48,695.60 616.58,703.44 616.77,711.28
             616.77,715.39 616.81,719.45 616.91,723.47
             617.00,727.48 617.13,731.54 617.31,735.64
             617.50,739.37 617.73,743.20 618.02,747.12
             618.30,751.04 618.44,754.96 618.44,758.88
             618.44,760.38 617.69,761.68 616.20,762.80
             615.27,763.73 614.23,764.44 613.11,764.91
             611.99,765.37 610.79,765.78 609.48,766.16
             606.87,766.72 604.44,766.91 602.20,766.72
             601.64,766.53 600.84,766.30 599.81,766.02
             598.79,765.73 598.28,765.13 598.28,764.20
             598.28,759.91 598.14,755.76 597.86,751.75
             597.58,747.73 597.34,743.57 597.16,739.28
             596.97,734.99 596.83,730.65 596.73,726.27
             596.64,721.88 596.59,717.54 596.59,713.23
             596.23,678.89 597.35,644.64 599.95,610.48
             595.29,610.48 590.66,610.58 586.09,610.77
             581.52,610.95 576.90,611.32 572.23,611.88
             571.30,612.06 570.28,612.06 569.16,611.88
             568.04,611.69 566.97,611.32 565.94,610.77
             564.91,610.20 564.12,609.46 563.56,608.53
             563.00,607.59 562.81,606.47 563.00,605.16
             563.38,602.54 564.73,600.59 567.06,599.28
             569.39,597.97 571.68,597.13 573.92,596.77
             586.43,595.45 598.98,595.03 611.58,595.50
             624.18,595.97 636.73,595.45 649.23,593.95 Z
           M 735.69,754.12
           C 736.05,754.50 736.38,754.97 736.66,755.53
             736.94,756.09 737.27,756.55 737.64,756.92
             739.13,758.98 739.13,760.98 737.64,762.94
             736.15,764.90 734.56,766.34 732.88,767.28
             730.82,768.22 728.44,768.69 725.73,768.69
             723.04,768.69 720.84,767.66 719.16,765.59
             717.66,764.11 716.55,762.34 715.80,760.28
             715.05,758.23 714.41,756.18 713.84,754.12
             713.28,752.25 712.72,750.38 712.16,748.52
             711.59,746.65 711.04,744.70 710.48,742.64
             709.73,739.84 709.03,737.04 708.38,734.25
             707.73,731.45 706.94,728.65 706.00,725.84
             699.28,726.41 692.56,726.59 685.84,726.41
             679.12,726.22 672.41,726.40 665.69,726.95
             664.00,732.75 662.60,738.16 661.48,743.20
             661.11,744.88 660.69,746.52 660.22,748.11
             659.75,749.70 659.33,751.23 658.95,752.72
             658.59,753.84 658.27,755.02 657.98,756.23
             657.70,757.45 657.38,758.51 657.00,759.44
             656.06,761.49 654.47,763.03 652.23,764.06
             649.99,765.09 647.75,765.78 645.52,766.16
             642.90,766.53 640.75,766.34 639.08,765.59
             638.52,765.23 637.91,764.72 637.25,764.06
             636.60,763.41 636.47,762.70 636.84,761.95
             637.58,760.46 638.14,758.93 638.52,757.34
             638.89,755.75 639.27,754.21 639.64,752.72
             640.20,750.67 640.71,748.71 641.17,746.84
             641.64,744.98 642.06,743.11 642.44,741.23
             643.75,735.83 645.15,730.56 646.64,725.42
             648.13,720.29 649.62,715.11 651.12,709.88
             655.98,692.90 660.92,676.01 665.95,659.20
             670.99,642.40 675.38,625.32 679.12,607.95
             678.94,607.59 678.84,606.94 678.84,606.00
             678.28,603.57 678.98,601.52 680.94,599.84
             682.89,598.16 684.90,597.04 686.95,596.48
             689.57,595.92 692.09,596.02 694.52,596.77
             695.45,597.13 696.34,597.64 697.17,598.30
             698.02,598.95 698.53,599.75 698.72,600.69
             698.72,601.05 698.77,601.33 698.86,601.52
             698.95,601.70 699.00,601.98 699.00,602.36
             699.19,602.55 699.28,603.11 699.28,604.05
             700.96,612.45 702.63,620.70 704.31,628.83
             706.00,636.95 707.77,645.20 709.64,653.59
             711.69,662.56 713.79,671.48 715.94,680.34
             718.08,689.21 720.27,698.12 722.52,707.08
             723.64,711.56 724.80,715.99 726.02,720.38
             727.23,724.76 728.40,729.20 729.52,733.69
             730.08,735.55 730.64,737.37 731.20,739.14
             731.77,740.91 732.23,742.73 732.59,744.59
             732.97,746.28 733.39,747.92 733.86,749.50
             734.33,751.09 734.94,752.62 735.69,754.12 Z
           M 669.88,711.84
           C 675.29,711.47 680.66,711.33 685.97,711.42
             691.29,711.52 696.66,711.47 702.08,711.28
             697.04,691.12 692.27,670.96 687.80,650.80
             686.87,653.98 685.98,657.11 685.14,660.19
             684.30,663.26 683.41,666.39 682.48,669.56
             680.43,676.66 678.33,683.70 676.17,690.70
             674.02,697.70 671.93,704.75 669.88,711.84 Z
           M 830.88,686.78
           C 831.44,687.71 831.72,688.82 831.72,690.11
             831.91,693.27 832.05,696.48 832.14,699.75
             832.23,703.01 832.28,706.23 832.28,709.41
             832.09,712.39 831.86,715.37 831.58,718.36
             831.30,721.35 830.79,724.34 830.05,727.31
             829.30,730.49 828.41,733.62 827.38,736.70
             826.35,739.78 825.00,742.62 823.33,745.23
             821.45,748.23 819.39,750.93 817.16,753.36
             814.91,755.79 812.30,757.93 809.33,759.80
             807.09,761.11 804.75,762.33 802.33,763.45
             799.90,764.57 797.38,765.40 794.77,765.95
             789.35,767.08 784.21,766.98 779.36,765.67
             777.30,765.12 775.48,764.34 773.89,763.31
             772.30,762.28 770.77,761.11 769.28,759.80
             766.66,757.18 764.47,754.25 762.70,750.98
             760.93,747.71 759.48,744.49 758.36,741.31
             755.38,733.29 753.28,725.09 752.06,716.69
             750.85,708.28 750.06,699.89 749.69,691.50
             749.31,684.46 749.03,677.40 748.84,670.31
             748.66,663.23 749.02,656.14 749.95,649.05
             750.70,643.63 751.77,638.12 753.17,632.53
             754.57,626.93 756.66,621.70 759.47,616.84
             760.97,614.04 762.74,611.43 764.80,609.00
             766.85,606.57 769.18,604.43 771.80,602.56
             774.96,600.32 778.27,598.60 781.72,597.39
             785.18,596.17 788.87,595.38 792.80,595.00
             796.15,594.62 799.60,594.72 803.14,595.28
             806.69,595.84 809.96,597.15 812.95,599.20
             815.38,600.88 817.38,602.84 818.97,605.08
             820.56,607.32 821.92,609.75 823.05,612.36
             824.72,616.48 825.88,620.77 826.53,625.25
             827.19,629.73 827.52,634.21 827.52,638.69
             827.52,638.88 827.56,639.02 827.66,639.11
             827.75,639.20 827.80,639.43 827.80,639.80
             827.80,639.80 827.80,643.72 827.80,643.72
             827.80,644.84 827.38,645.88 826.53,646.81
             825.70,647.74 824.91,648.48 824.16,649.05
             821.54,650.73 819.02,651.56 816.59,651.56
             813.98,651.94 811.74,651.48 809.88,650.17
             808.20,649.23 807.36,647.74 807.36,645.69
             807.36,645.69 807.36,638.41 807.36,638.41
             806.98,634.67 806.47,630.98 805.81,627.34
             805.16,623.71 804.09,620.12 802.59,616.56
             801.66,614.89 800.27,613.12 798.39,611.25
             798.39,611.25 795.88,609.56 795.88,609.56
             795.13,609.19 794.58,609.00 794.20,609.00
             794.02,609.00 793.83,608.95 793.64,608.86
             793.45,608.77 793.27,608.72 793.08,608.72
             793.08,608.72 792.52,608.72 792.52,608.72
             792.14,608.72 791.67,608.77 791.11,608.86
             790.55,608.95 790.09,609.00 789.72,609.00
             789.34,609.00 789.11,609.05 789.02,609.14
             788.92,609.23 788.78,609.28 788.59,609.28
             788.23,609.28 787.95,609.38 787.77,609.56
             787.58,609.56 787.44,609.61 787.34,609.70
             787.25,609.80 787.11,609.84 786.92,609.84
             786.73,609.84 786.59,609.89 786.50,609.98
             786.41,610.08 786.27,610.12 786.08,610.12
             785.70,610.50 785.42,610.69 785.23,610.69
             784.87,611.06 784.59,611.30 784.41,611.39
             784.22,611.48 784.03,611.71 783.84,612.08
             783.84,612.08 783.56,612.08 783.56,612.08
             783.38,612.45 783.19,612.69 783.00,612.78
             782.81,612.88 782.53,613.11 782.16,613.48
             781.79,613.86 781.47,614.28 781.19,614.75
             780.91,615.21 780.58,615.62 780.20,616.00
             777.59,619.93 775.63,624.13 774.33,628.61
             773.39,631.40 772.59,634.25 771.94,637.14
             771.29,640.04 770.78,643.07 770.41,646.25
             769.47,652.78 769.00,659.45 769.00,666.27
             769.00,673.08 769.19,679.73 769.56,686.22
             769.75,687.70 769.84,689.09 769.84,690.39
             769.84,691.68 769.94,692.98 770.12,694.28
             770.50,698.57 770.96,702.91 771.52,707.30
             772.08,711.68 772.83,716.02 773.77,720.31
             774.70,724.05 775.68,727.70 776.70,731.25
             777.73,734.79 779.09,738.34 780.77,741.88
             782.63,745.24 784.68,748.04 786.92,750.28
             787.67,751.03 788.60,751.68 789.72,752.23
             790.09,752.42 790.33,752.52 790.42,752.52
             790.52,752.52 790.75,752.61 791.12,752.80
             791.12,752.80 792.25,752.80 792.25,752.80
             792.61,752.61 793.08,752.52 793.64,752.52
             793.64,752.52 795.33,751.67 795.33,751.67
             795.52,751.50 795.70,751.36 795.88,751.27
             796.06,751.17 796.25,751.03 796.44,750.84
             796.62,750.84 796.81,750.75 797.00,750.56
             797.00,750.56 799.52,748.88 799.52,748.88
             799.89,748.50 800.08,748.31 800.08,748.31
             800.08,748.31 800.36,748.31 800.36,748.31
             800.92,747.57 801.48,746.92 802.05,746.36
             802.61,745.80 803.16,745.15 803.72,744.41
             805.77,741.04 807.36,737.68 808.48,734.31
             810.54,727.78 811.66,721.11 811.84,714.30
             812.03,707.48 811.94,700.72 811.56,694.00
             810.06,694.00 808.57,694.00 807.08,694.00
             805.59,694.00 804.09,694.00 802.59,694.00
             802.59,694.00 793.92,694.00 793.92,694.00
             792.98,694.19 792.19,694.28 791.53,694.28
             790.88,694.28 790.09,694.38 789.16,694.56
             788.97,694.56 788.69,694.56 788.31,694.56
             787.95,694.56 787.67,694.66 787.48,694.84
             787.48,694.84 786.64,694.84 786.64,694.84
             784.59,695.21 782.25,695.21 779.64,694.84
             777.02,694.47 775.44,692.98 774.88,690.39
             774.13,687.98 774.79,685.90 776.84,684.14
             778.89,682.38 780.95,681.31 783.00,680.94
             786.36,680.02 789.77,679.47 793.22,679.28
             796.68,679.09 800.18,679.00 803.72,679.00
             805.21,679.00 806.65,679.00 808.05,679.00
             809.45,679.00 810.91,679.00 812.41,679.00
             814.46,679.00 815.95,678.91 816.89,678.72
             817.25,678.72 817.53,678.67 817.72,678.58
             817.91,678.48 818.19,678.44 818.56,678.44
             818.94,678.44 819.22,678.35 819.41,678.17
             821.46,677.80 823.79,677.80 826.39,678.17
             829.00,678.54 830.59,680.02 831.16,682.61
             831.53,683.73 831.44,685.12 830.88,686.78 Z
           M 919.80,595.92
           C 920.73,595.73 921.76,595.78 922.88,596.06
             924.00,596.34 925.07,596.81 926.09,597.47
             927.12,598.12 927.91,598.91 928.47,599.84
             929.03,600.78 929.22,601.81 929.05,602.92
             928.67,605.54 927.32,607.45 924.98,608.67
             922.65,609.88 920.36,610.67 918.12,611.05
             910.28,612.35 902.53,612.91 894.88,612.72
             887.23,612.53 879.48,612.62 871.64,613.00
             870.89,621.73 870.33,630.41 869.95,639.05
             869.59,647.68 869.22,656.45 868.84,665.36
             868.84,665.36 868.84,674.00 868.84,674.00
             877.05,673.45 885.26,673.31 893.47,673.59
             901.69,673.87 909.91,673.35 918.12,672.05
             920.18,671.68 922.32,672.15 924.56,673.45
             926.80,674.75 927.73,676.61 927.36,679.03
             926.98,681.65 925.63,683.56 923.30,684.78
             920.96,685.99 918.68,686.78 916.44,687.16
             908.41,688.46 900.44,688.98 892.50,688.70
             884.56,688.42 876.58,688.56 868.56,689.11
             868.56,689.11 868.56,711.80 868.56,711.80
             868.75,715.90 868.84,719.92 868.84,723.84
             868.84,727.76 868.94,731.68 869.12,735.59
             869.31,738.77 869.49,741.86 869.67,744.84
             869.86,747.82 870.05,750.90 870.23,754.08
             870.23,754.08 871.08,754.08 871.08,754.08
             871.83,754.27 873.04,754.36 874.72,754.36
             874.72,754.36 876.41,754.36 876.41,754.36
             878.83,754.17 881.21,754.03 883.55,753.94
             885.88,753.84 888.26,753.61 890.69,753.23
             895.53,752.86 900.47,752.58 905.52,752.39
             910.55,752.20 915.50,752.39 920.36,752.95
             921.30,753.14 922.27,753.38 923.30,753.66
             924.33,753.94 925.21,754.54 925.95,755.47
             927.08,756.78 927.17,758.37 926.23,760.23
             924.93,762.29 922.97,763.83 920.36,764.86
             917.74,765.88 915.32,766.30 913.08,766.11
             911.77,765.73 910.56,765.55 909.44,765.55
             908.32,765.55 907.11,765.55 905.80,765.55
             905.05,765.37 903.94,765.28 902.44,765.28
             902.44,765.28 900.77,765.28 900.77,765.28
             898.34,765.46 896.00,765.59 893.77,765.69
             891.52,765.78 889.19,766.02 886.77,766.39
             881.72,766.77 876.63,767.05 871.50,767.23
             866.36,767.42 861.18,767.23 855.95,766.67
             855.02,766.48 854.05,766.25 853.02,765.97
             851.99,765.69 851.20,765.09 850.64,764.16
             849.34,762.84 849.24,761.35 850.36,759.67
             850.17,756.32 849.94,753.01 849.66,749.73
             849.38,746.46 849.23,743.15 849.23,739.80
             849.05,735.70 848.92,731.59 848.83,727.48
             848.73,723.37 848.69,719.26 848.69,715.16
             848.12,680.48 849.24,645.87 852.05,611.33
             851.11,610.02 850.64,608.62 850.64,607.12
             851.02,604.51 852.37,602.60 854.70,601.39
             857.04,600.17 859.32,599.38 861.56,599.00
             871.27,597.70 880.97,597.23 890.67,597.61
             900.38,597.98 910.09,597.41 919.80,595.92 Z" />
  <path id="Raspberries"
        fill="none" stroke="black" stroke-width="1"
        d="M 1290.95,712.20
           C 1290.77,707.54 1290.69,702.92 1290.69,698.34
             1290.69,693.77 1290.59,689.15 1290.41,684.48
             1290.41,675.34 1290.41,666.24 1290.41,657.19
             1290.41,648.12 1290.50,639.02 1290.69,629.88
             1291.44,593.11 1293.39,556.24 1296.56,519.28
             1296.56,518.72 1296.84,518.16 1297.41,517.59
             1297.22,515.17 1298.24,513.07 1300.48,511.30
             1302.72,509.53 1304.87,508.45 1306.92,508.08
             1314.02,506.40 1321.25,505.19 1328.62,504.44
             1336.00,503.69 1343.32,503.69 1350.59,504.44
             1357.50,505.19 1364.31,506.68 1371.03,508.92
             1377.76,511.16 1384.02,514.24 1389.80,518.16
             1395.96,522.45 1401.42,527.54 1406.17,533.42
             1410.93,539.30 1414.62,545.78 1417.23,552.88
             1422.09,565.95 1422.65,579.30 1418.92,592.92
             1417.98,596.28 1416.86,599.54 1415.55,602.72
             1414.24,605.90 1412.66,609.07 1410.80,612.23
             1408.74,615.41 1406.69,618.45 1404.64,621.34
             1402.59,624.24 1400.25,626.99 1397.64,629.59
             1395.96,631.09 1394.28,632.59 1392.59,634.08
             1390.91,635.57 1389.24,637.06 1387.56,638.56
             1387.75,638.75 1387.84,638.94 1387.84,639.12
             1387.84,639.31 1387.94,639.59 1388.12,639.95
             1388.50,641.45 1388.91,642.91 1389.38,644.31
             1389.84,645.71 1390.27,647.15 1390.64,648.64
             1393.25,657.60 1395.68,666.56 1397.92,675.52
             1400.16,684.48 1402.49,693.44 1404.92,702.41
             1406.04,706.14 1407.11,709.96 1408.14,713.89
             1409.17,717.81 1410.24,721.63 1411.36,725.36
             1411.73,726.85 1412.11,728.20 1412.48,729.42
             1412.86,730.63 1413.23,731.89 1413.59,733.20
             1414.53,737.31 1415.70,741.28 1417.09,745.11
             1418.50,748.93 1419.39,752.90 1419.77,757.00
             1419.95,759.62 1418.79,761.58 1416.27,762.89
             1413.74,764.19 1411.55,765.03 1409.69,765.41
             1406.88,766.33 1403.99,766.61 1401.00,766.23
             1400.25,766.05 1399.36,765.77 1398.33,765.39
             1397.30,765.02 1396.70,764.38 1396.52,763.44
             1396.14,759.34 1395.25,755.42 1393.86,751.69
             1392.46,747.95 1391.30,744.21 1390.36,740.48
             1389.98,738.98 1389.66,737.63 1389.38,736.42
             1389.09,735.20 1388.77,733.85 1388.41,732.36
             1385.79,723.78 1383.36,715.20 1381.12,706.61
             1378.88,698.02 1376.64,689.43 1374.41,680.84
             1373.28,676.55 1372.16,672.36 1371.03,668.25
             1369.91,664.14 1368.71,659.93 1367.41,655.64
             1367.03,653.78 1366.66,652.38 1366.28,651.44
             1364.97,652.00 1363.71,652.56 1362.50,653.12
             1361.29,653.68 1359.94,654.23 1358.44,654.80
             1353.58,656.48 1348.73,657.92 1343.88,659.14
             1339.02,660.35 1334.08,661.23 1329.05,661.80
             1326.43,662.17 1323.86,662.45 1321.34,662.64
             1318.82,662.83 1316.25,663.02 1313.64,663.20
             1313.64,669.55 1313.69,675.85 1313.78,682.11
             1313.88,688.36 1314.02,694.66 1314.20,701.00
             1314.39,705.48 1314.53,710.01 1314.62,714.58
             1314.72,719.15 1314.95,723.68 1315.31,728.16
             1315.69,732.45 1315.97,736.84 1316.16,741.33
             1316.34,745.81 1316.44,750.20 1316.44,754.48
             1316.44,756.35 1315.59,757.93 1313.91,759.23
             1312.79,760.17 1311.58,760.92 1310.27,761.48
             1308.96,762.04 1307.66,762.50 1306.36,762.88
             1303.37,763.81 1300.47,764.00 1297.67,763.44
             1297.12,763.44 1296.23,763.21 1295.02,762.75
             1293.80,762.28 1293.20,761.58 1293.20,760.64
             1293.20,753.55 1292.92,746.36 1292.36,739.08
             1292.17,737.03 1291.98,734.88 1291.80,732.64
             1291.61,730.40 1291.52,728.16 1291.52,725.92
             1291.33,723.68 1291.23,721.40 1291.23,719.06
             1291.23,716.73 1291.14,714.45 1290.95,712.20 Z
           M 1313.64,646.12
           C 1320.73,646.12 1327.83,645.56 1334.92,644.44
             1337.54,643.88 1340.05,643.32 1342.48,642.77
             1344.91,642.20 1347.43,641.45 1350.05,640.52
             1352.47,639.59 1354.89,638.57 1357.31,637.45
             1359.74,636.33 1362.07,635.02 1364.31,633.52
             1368.24,631.09 1372.07,628.20 1375.80,624.84
             1378.04,622.79 1380.09,620.70 1381.95,618.55
             1383.83,616.39 1385.60,614.01 1387.28,611.41
             1390.82,605.80 1393.53,600.20 1395.41,594.59
             1397.08,587.88 1397.83,581.44 1397.64,575.28
             1397.27,571.73 1396.66,568.32 1395.81,565.06
             1394.98,561.79 1393.81,558.57 1392.31,555.41
             1390.45,552.04 1388.39,548.78 1386.16,545.61
             1383.91,542.43 1381.39,539.54 1378.59,536.92
             1374.86,533.37 1370.48,530.29 1365.44,527.69
             1363.20,526.56 1360.91,525.63 1358.58,524.89
             1356.24,524.14 1353.86,523.39 1351.44,522.64
             1346.39,521.70 1341.27,521.14 1336.05,520.95
             1333.24,520.95 1330.44,521.09 1327.64,521.38
             1324.84,521.66 1322.04,521.98 1319.23,522.36
             1316.99,552.41 1315.32,582.46 1314.20,612.52
             1314.02,618.12 1313.92,623.73 1313.92,629.33
             1313.92,634.92 1313.83,640.52 1313.64,646.12 Z
           M 1534.69,751.12
           C 1535.05,751.50 1535.38,751.97 1535.66,752.53
             1535.94,753.09 1536.27,753.55 1536.64,753.92
             1538.13,755.98 1538.13,757.98 1536.64,759.94
             1535.15,761.90 1533.56,763.34 1531.88,764.28
             1529.82,765.22 1527.44,765.69 1524.73,765.69
             1522.04,765.69 1519.84,764.66 1518.16,762.59
             1516.66,761.11 1515.55,759.34 1514.80,757.28
             1514.05,755.23 1513.41,753.18 1512.84,751.12
             1512.28,749.25 1511.72,747.38 1511.16,745.52
             1510.59,743.65 1510.04,741.70 1509.48,739.64
             1508.73,736.84 1508.03,734.04 1507.38,731.25
             1506.73,728.45 1505.94,725.65 1505.00,722.84
             1498.28,723.41 1491.56,723.59 1484.84,723.41
             1478.12,723.22 1471.41,723.40 1464.69,723.95
             1463.00,729.75 1461.60,735.16 1460.48,740.20
             1460.11,741.88 1459.69,743.52 1459.22,745.11
             1458.75,746.70 1458.33,748.23 1457.95,749.72
             1457.59,750.84 1457.27,752.02 1456.98,753.23
             1456.70,754.45 1456.38,755.51 1456.00,756.44
             1455.06,758.49 1453.47,760.03 1451.23,761.06
             1448.99,762.09 1446.75,762.78 1444.52,763.16
             1441.90,763.53 1439.75,763.34 1438.08,762.59
             1437.52,762.23 1436.91,761.72 1436.25,761.06
             1435.60,760.41 1435.47,759.70 1435.84,758.95
             1436.58,757.46 1437.14,755.93 1437.52,754.34
             1437.89,752.75 1438.27,751.21 1438.64,749.72
             1439.20,747.67 1439.71,745.71 1440.17,743.84
             1440.64,741.98 1441.06,740.11 1441.44,738.23
             1442.75,732.83 1444.15,727.56 1445.64,722.42
             1447.13,717.29 1448.62,712.11 1450.12,706.88
             1454.98,689.90 1459.92,673.01 1464.95,656.20
             1469.99,639.40 1474.38,622.32 1478.12,604.95
             1477.94,604.59 1477.84,603.94 1477.84,603.00
             1477.28,600.57 1477.98,598.52 1479.94,596.84
             1481.89,595.16 1483.90,594.04 1485.95,593.48
             1488.57,592.92 1491.09,593.02 1493.52,593.77
             1494.45,594.13 1495.34,594.64 1496.17,595.30
             1497.02,595.95 1497.53,596.75 1497.72,597.69
             1497.72,598.05 1497.77,598.33 1497.86,598.52
             1497.95,598.70 1498.00,598.98 1498.00,599.36
             1498.19,599.55 1498.28,600.11 1498.28,601.05
             1499.96,609.45 1501.63,617.70 1503.31,625.83
             1505.00,633.95 1506.77,642.20 1508.64,650.59
             1510.69,659.56 1512.79,668.48 1514.94,677.34
             1517.08,686.21 1519.27,695.12 1521.52,704.08
             1522.64,708.56 1523.80,712.99 1525.02,717.38
             1526.23,721.76 1527.40,726.20 1528.52,730.69
             1529.08,732.55 1529.64,734.37 1530.20,736.14
             1530.77,737.91 1531.23,739.73 1531.59,741.59
             1531.97,743.28 1532.39,744.92 1532.86,746.50
             1533.33,748.09 1533.94,749.62 1534.69,751.12 Z
           M 1468.88,708.84
           C 1474.29,708.47 1479.66,708.33 1484.97,708.42
             1490.29,708.52 1495.66,708.47 1501.08,708.28
             1496.04,688.12 1491.27,667.96 1486.80,647.80
             1485.87,650.98 1484.98,654.11 1484.14,657.19
             1483.30,660.26 1482.41,663.39 1481.48,666.56
             1479.43,673.66 1477.33,680.70 1475.17,687.70
             1473.02,694.70 1470.93,701.75 1468.88,708.84 Z
           M 1588.16,650.88
           C 1592.08,655.92 1596.33,660.87 1600.91,665.72
             1605.48,670.57 1609.82,675.52 1613.92,680.56
             1618.02,685.61 1621.71,690.93 1624.97,696.53
             1628.24,702.12 1630.44,708.28 1631.56,715.00
             1632.12,718.37 1632.45,721.82 1632.55,725.38
             1632.64,728.92 1632.22,732.37 1631.28,735.72
             1630.34,739.09 1629.13,742.26 1627.64,745.25
             1626.15,748.23 1624.19,750.93 1621.77,753.36
             1615.60,759.52 1608.22,763.16 1599.64,764.28
             1595.54,764.84 1591.52,764.66 1587.59,763.72
             1583.68,762.78 1579.95,761.38 1576.41,759.52
             1570.05,756.16 1564.59,751.69 1560.02,746.09
             1555.44,740.49 1552.13,734.32 1550.08,727.59
             1548.02,720.69 1547.28,713.73 1547.84,706.73
             1548.41,699.73 1550.08,692.97 1552.88,686.44
             1553.25,685.32 1553.99,684.39 1555.11,683.64
             1556.23,682.89 1557.27,682.33 1558.20,681.95
             1560.44,680.84 1563.05,680.28 1566.05,680.28
             1568.10,680.66 1569.82,681.50 1571.22,682.81
             1572.61,684.12 1572.85,685.89 1571.92,688.12
             1571.92,688.12 1570.23,692.31 1570.23,692.31
             1568.55,698.48 1567.81,704.45 1568.00,710.23
             1568.38,717.14 1570.05,723.49 1573.05,729.28
             1575.65,734.14 1579.01,738.52 1583.12,742.44
             1586.10,745.05 1589.37,747.20 1592.92,748.88
             1593.67,749.25 1594.79,749.62 1596.28,750.00
             1596.47,750.19 1596.70,750.28 1596.98,750.28
             1597.27,750.28 1597.50,750.38 1597.69,750.56
             1597.69,750.56 1601.05,750.56 1601.05,750.56
             1601.22,750.56 1601.41,750.47 1601.59,750.28
             1601.59,750.28 1601.88,750.28 1601.88,750.28
             1602.06,750.09 1602.25,750.00 1602.44,750.00
             1602.62,750.00 1602.81,749.91 1603.00,749.72
             1603.19,749.53 1603.38,749.39 1603.56,749.30
             1603.75,749.20 1603.94,749.06 1604.12,748.88
             1604.31,748.88 1604.59,748.69 1604.95,748.31
             1604.95,748.31 1605.52,747.77 1605.52,747.77
             1605.89,747.39 1606.22,747.02 1606.50,746.64
             1606.78,746.27 1607.11,745.89 1607.48,745.52
             1608.22,744.59 1608.83,743.57 1609.30,742.45
             1609.77,741.33 1610.28,740.11 1610.84,738.80
             1611.96,734.70 1612.42,730.50 1612.23,726.20
             1611.87,722.46 1611.17,718.78 1610.14,715.14
             1609.11,711.51 1607.85,708.01 1606.36,704.64
             1606.36,704.64 1604.69,702.12 1604.69,702.12
             1601.51,696.52 1597.77,691.34 1593.48,686.58
             1589.19,681.82 1584.89,677.11 1580.59,672.44
             1576.49,667.77 1572.48,662.96 1568.56,658.02
             1564.64,653.07 1561.66,647.61 1559.59,641.64
             1557.73,636.41 1556.84,630.86 1556.94,624.98
             1557.03,619.10 1558.48,613.73 1561.28,608.88
             1565.01,602.72 1570.14,598.05 1576.69,594.88
             1580.04,593.39 1583.72,592.23 1587.73,591.39
             1591.75,590.55 1595.63,590.40 1599.36,590.95
             1606.27,591.89 1611.68,594.60 1615.59,599.08
             1617.47,600.95 1619.01,603.00 1620.22,605.23
             1621.44,607.48 1622.51,609.81 1623.44,612.23
             1625.30,616.90 1626.66,621.57 1627.50,626.23
             1628.34,630.90 1629.13,635.66 1629.88,640.52
             1630.25,643.13 1629.50,645.19 1627.64,646.69
             1625.77,648.18 1623.82,649.20 1621.77,649.77
             1619.15,650.32 1616.63,650.32 1614.20,649.77
             1613.27,649.39 1612.38,648.88 1611.53,648.22
             1610.70,647.56 1610.19,646.77 1610.00,645.84
             1609.06,640.43 1608.08,635.02 1607.05,629.61
             1606.02,624.20 1604.30,619.06 1601.88,614.20
             1600.38,611.40 1598.71,608.98 1596.84,606.92
             1596.28,606.55 1595.25,605.98 1593.77,605.23
             1593.02,604.87 1592.45,604.69 1592.08,604.69
             1591.70,604.50 1591.33,604.41 1590.95,604.41
             1590.95,604.41 1590.41,604.41 1590.41,604.41
             1590.22,604.41 1590.03,604.45 1589.84,604.55
             1589.66,604.64 1589.47,604.69 1589.28,604.69
             1589.28,604.69 1589.00,604.69 1589.00,604.69
             1588.62,604.87 1588.25,604.95 1587.88,604.95
             1587.50,604.95 1587.13,605.05 1586.77,605.23
             1586.77,605.23 1586.48,605.23 1586.48,605.23
             1586.11,605.42 1585.88,605.56 1585.78,605.66
             1585.69,605.75 1585.45,605.89 1585.08,606.08
             1585.08,606.08 1584.80,606.08 1584.80,606.08
             1584.61,606.27 1584.42,606.41 1584.23,606.50
             1584.05,606.59 1583.86,606.73 1583.69,606.92
             1583.50,606.92 1583.41,606.97 1583.41,607.06
             1583.41,607.16 1583.31,607.20 1583.12,607.20
             1582.75,607.58 1582.56,607.77 1582.56,607.77
             1582.19,608.13 1581.91,608.45 1581.72,608.73
             1581.53,609.02 1581.25,609.34 1580.88,609.72
             1579.95,611.40 1579.20,612.98 1578.64,614.48
             1578.08,616.35 1577.70,618.12 1577.52,619.80
             1577.33,621.48 1577.23,623.25 1577.23,625.12
             1577.80,630.91 1579.29,636.23 1581.72,641.08
             1582.66,642.95 1583.63,644.67 1584.66,646.27
             1585.69,647.85 1586.85,649.39 1588.16,650.88 Z
           M 1601.59,750.56
           C 1601.59,750.56 1601.31,750.56 1601.31,750.56
             1601.31,750.56 1601.59,750.56 1601.59,750.56 Z
           M 1602.16,750.28
           C 1601.97,750.47 1601.83,750.56 1601.73,750.56
             1601.64,750.56 1601.69,750.47 1601.88,750.28
             1601.88,750.28 1601.59,750.28 1601.59,750.28
             1601.59,750.28 1602.44,750.28 1602.44,750.28
             1602.44,750.28 1602.16,750.28 1602.16,750.28 Z
           M 1602.44,750.00
           C 1602.44,750.00 1602.72,750.00 1602.72,750.00
             1602.72,750.00 1602.44,750.00 1602.44,750.00 Z
           M 1720.23,608.88
           C 1725.09,614.29 1728.54,620.50 1730.59,627.50
             1732.66,634.50 1732.75,641.55 1730.88,648.64
             1729.01,655.73 1725.84,662.32 1721.36,668.39
             1716.88,674.45 1711.56,679.54 1705.41,683.64
             1701.66,686.26 1697.70,688.50 1693.50,690.36
             1689.30,692.23 1684.96,693.62 1680.48,694.56
             1674.69,695.87 1668.72,696.70 1662.56,697.08
             1662.56,697.08 1662.56,710.23 1662.56,710.23
             1662.75,714.16 1662.84,718.09 1662.84,722.00
             1662.84,725.92 1662.94,729.84 1663.12,733.77
             1663.31,737.50 1663.54,741.23 1663.81,744.97
             1664.09,748.70 1664.23,752.43 1664.23,756.16
             1664.23,757.66 1663.58,759.06 1662.28,760.36
             1660.23,761.85 1657.99,762.88 1655.56,763.44
             1652.76,764.00 1650.24,764.19 1648.00,764.00
             1647.62,763.81 1646.92,763.58 1645.89,763.30
             1644.87,763.02 1644.36,762.41 1644.36,761.48
             1644.36,757.56 1644.22,753.68 1643.94,749.86
             1643.66,746.04 1643.42,742.16 1643.23,738.23
             1643.05,733.95 1642.92,729.79 1642.83,725.78
             1642.73,721.77 1642.69,717.62 1642.69,713.31
             1642.31,694.84 1642.49,676.50 1643.23,658.30
             1643.98,640.10 1645.11,621.86 1646.61,603.56
             1646.61,603.00 1646.70,602.62 1646.89,602.44
             1646.89,600.39 1647.82,598.57 1649.69,596.98
             1651.55,595.39 1653.41,594.41 1655.28,594.05
             1663.86,592.17 1672.63,591.33 1681.59,591.52
             1688.88,591.89 1695.92,593.53 1702.73,596.42
             1709.55,599.32 1715.38,603.47 1720.23,608.88 Z
           M 1710.44,651.16
           C 1711.00,649.11 1711.38,647.15 1711.56,645.28
             1711.75,643.42 1711.84,641.46 1711.84,639.41
             1711.28,635.29 1710.16,631.28 1708.48,627.36
             1706.05,622.88 1703.25,619.05 1700.08,615.88
             1697.46,613.64 1694.66,611.68 1691.69,610.00
             1690.38,609.44 1689.06,608.93 1687.75,608.47
             1686.45,608.00 1685.05,607.58 1683.56,607.20
             1683.19,607.20 1682.95,607.16 1682.86,607.06
             1682.77,606.97 1682.62,606.92 1682.44,606.92
             1682.06,606.92 1681.64,606.88 1681.17,606.78
             1680.71,606.69 1680.30,606.64 1679.92,606.64
             1678.98,606.45 1678.14,606.31 1677.39,606.22
             1676.65,606.12 1675.81,606.08 1674.88,606.08
             1674.88,606.08 1671.80,606.08 1671.80,606.08
             1670.87,606.08 1670.03,606.12 1669.28,606.22
             1668.53,606.31 1667.69,606.36 1666.77,606.36
             1666.58,606.36 1666.44,606.41 1666.34,606.50
             1666.25,606.59 1666.11,606.64 1665.92,606.64
             1665.17,616.16 1664.56,625.64 1664.09,635.06
             1663.63,644.49 1663.22,653.96 1662.84,663.48
             1662.84,666.65 1662.80,669.82 1662.70,673.00
             1662.61,676.18 1662.56,679.35 1662.56,682.52
             1666.29,682.52 1670.02,682.24 1673.77,681.69
             1673.95,681.50 1674.13,681.41 1674.31,681.41
             1674.88,681.41 1675.72,681.22 1676.84,680.84
             1677.58,680.66 1678.28,680.52 1678.94,680.42
             1679.59,680.33 1680.38,680.09 1681.31,679.72
             1681.50,679.53 1681.69,679.44 1681.88,679.44
             1682.06,679.44 1682.34,679.34 1682.72,679.16
             1683.09,679.16 1683.28,679.06 1683.28,678.88
             1683.28,678.88 1687.48,677.20 1687.48,677.20
             1688.04,676.83 1688.64,676.50 1689.30,676.22
             1689.95,675.94 1690.56,675.61 1691.12,675.23
             1691.31,675.23 1691.41,675.19 1691.41,675.09
             1691.41,675.00 1691.50,674.95 1691.69,674.95
             1691.86,674.78 1692.05,674.69 1692.23,674.69
             1693.17,673.94 1694.10,673.23 1695.03,672.58
             1695.97,671.92 1696.91,671.23 1697.84,670.48
             1698.03,670.30 1698.17,670.11 1698.27,669.92
             1698.36,669.73 1698.59,669.55 1698.95,669.36
             1698.95,669.36 1699.23,669.08 1699.23,669.08
             1699.23,669.08 1701.77,666.56 1701.77,666.56
             1703.25,664.70 1704.47,663.11 1705.41,661.80
             1707.64,658.45 1709.32,654.90 1710.44,651.16 Z
           M 1821.28,690.72
           C 1823.89,696.69 1825.66,703.22 1826.59,710.31
             1826.97,713.12 1827.16,715.96 1827.16,718.86
             1827.16,721.76 1826.97,724.60 1826.59,727.39
             1826.04,730.20 1825.25,732.90 1824.22,735.52
             1823.20,738.13 1821.75,740.56 1819.88,742.80
             1817.82,745.41 1815.54,747.65 1813.02,749.52
             1810.49,751.38 1807.84,753.06 1805.05,754.56
             1797.95,758.11 1790.30,760.62 1782.08,762.11
             1777.04,763.05 1771.99,763.61 1766.95,763.80
             1761.92,763.98 1756.79,763.61 1751.56,762.67
             1750.44,762.30 1749.41,761.93 1748.47,761.56
             1747.54,761.19 1746.71,760.53 1745.97,759.59
             1744.66,757.92 1744.47,755.96 1745.41,753.72
             1745.59,753.34 1745.69,753.11 1745.69,753.02
             1745.69,752.92 1745.77,752.69 1745.95,752.31
             1745.95,744.67 1745.81,737.11 1745.53,729.64
             1745.26,722.17 1745.12,714.61 1745.12,706.95
             1745.12,698.93 1745.26,690.91 1745.53,682.89
             1745.81,674.86 1746.05,666.83 1746.23,658.80
             1746.23,653.95 1746.09,649.09 1745.81,644.23
             1745.54,639.38 1745.41,634.53 1745.41,629.67
             1745.22,625.01 1745.17,620.34 1745.27,615.67
             1745.36,611.01 1745.96,606.53 1747.08,602.23
             1747.27,602.05 1747.36,601.77 1747.36,601.39
             1747.55,599.34 1748.52,597.52 1750.30,595.94
             1752.07,594.36 1753.89,593.38 1755.77,593.00
             1758.19,592.73 1760.57,592.50 1762.91,592.30
             1765.24,592.10 1767.71,592.00 1770.31,592.00
             1775.73,592.14 1781.00,592.71 1786.14,593.72
             1791.27,594.73 1796.27,596.54 1801.12,599.16
             1805.60,601.59 1809.38,604.95 1812.45,609.23
             1815.54,613.53 1817.55,618.29 1818.48,623.52
             1818.86,626.88 1818.95,630.25 1818.77,633.61
             1818.58,636.96 1817.73,640.23 1816.23,643.39
             1814.93,646.57 1813.30,649.56 1811.34,652.36
             1809.38,655.16 1807.10,657.78 1804.48,660.20
             1800.74,663.93 1796.82,667.29 1792.72,670.28
             1795.89,671.02 1798.93,671.95 1801.81,673.08
             1804.71,674.20 1807.46,675.69 1810.08,677.56
             1815.12,681.29 1818.85,685.68 1821.28,690.72 Z
           M 1765.28,617.00
           C 1765.28,622.97 1765.42,628.90 1765.70,634.78
             1765.98,640.66 1766.12,646.59 1766.12,652.56
             1766.12,655.18 1766.12,657.84 1766.12,660.55
             1766.12,663.25 1766.03,665.90 1765.84,668.52
             1766.41,668.14 1766.96,667.91 1767.52,667.83
             1768.08,667.73 1768.64,667.50 1769.20,667.12
             1769.77,666.75 1770.37,666.38 1771.02,666.00
             1771.67,665.62 1772.28,665.25 1772.84,664.88
             1773.22,664.69 1773.54,664.55 1773.81,664.45
             1774.09,664.36 1774.42,664.13 1774.80,663.77
             1777.22,662.27 1779.51,660.68 1781.66,659.00
             1783.80,657.32 1785.90,655.46 1787.95,653.41
             1789.45,652.09 1790.76,650.74 1791.88,649.34
             1793.00,647.94 1794.12,646.49 1795.23,645.00
             1796.17,642.95 1797.11,640.80 1798.05,638.56
             1798.41,637.06 1798.59,635.71 1798.59,634.50
             1798.59,633.29 1798.59,631.94 1798.59,630.44
             1798.23,628.95 1797.91,627.46 1797.62,625.97
             1797.34,624.47 1796.92,622.98 1796.36,621.48
             1795.24,619.62 1793.84,617.66 1792.16,615.59
             1790.29,614.11 1788.43,612.80 1786.56,611.69
             1785.25,611.12 1783.98,610.56 1782.77,610.00
             1781.55,609.44 1780.30,608.97 1779.00,608.59
             1778.06,608.41 1777.08,608.23 1776.05,608.05
             1775.02,607.86 1774.05,607.77 1773.12,607.77
             1772.38,607.58 1771.72,607.48 1771.16,607.48
             1770.59,607.48 1770.04,607.39 1769.48,607.20
             1769.48,607.20 1765.84,607.20 1765.84,607.20
             1765.66,608.88 1765.52,610.52 1765.42,612.11
             1765.33,613.70 1765.28,615.32 1765.28,617.00 Z
           M 1805.88,730.69
           C 1806.62,726.20 1806.91,721.81 1806.72,717.52
             1806.34,714.35 1805.88,711.23 1805.31,708.14
             1804.76,705.06 1803.83,702.12 1802.52,699.31
             1801.40,696.90 1799.72,694.48 1797.48,692.05
             1796.55,691.30 1795.66,690.59 1794.81,689.94
             1793.98,689.28 1793.09,688.68 1792.16,688.12
             1790.10,687.38 1787.86,686.53 1785.44,685.59
             1783.95,685.23 1782.36,684.95 1780.67,684.77
             1778.99,684.58 1777.32,684.39 1775.64,684.20
             1775.64,684.20 1765.28,684.20 1765.28,684.20
             1765.28,686.45 1765.28,688.68 1765.28,690.92
             1765.28,693.16 1765.19,695.40 1765.00,697.64
             1765.00,701.93 1765.00,706.27 1765.00,710.66
             1765.00,715.04 1765.19,719.39 1765.56,723.69
             1765.75,727.98 1765.89,732.13 1765.98,736.14
             1766.08,740.15 1766.12,744.30 1766.12,748.59
             1766.12,748.59 1773.12,748.59 1773.12,748.59
             1773.86,748.41 1774.56,748.31 1775.22,748.31
             1775.88,748.31 1776.57,748.23 1777.31,748.05
             1777.31,748.05 1777.59,748.05 1777.59,748.05
             1777.97,747.86 1778.53,747.77 1779.28,747.77
             1780.77,747.39 1782.16,747.02 1783.47,746.64
             1784.78,746.27 1786.09,745.89 1787.41,745.52
             1788.89,745.14 1790.02,744.77 1790.77,744.41
             1790.95,744.41 1791.13,744.31 1791.31,744.12
             1792.25,743.75 1793.09,743.38 1793.83,743.00
             1794.58,742.62 1795.42,742.25 1796.36,741.88
             1796.36,741.88 1798.05,741.05 1798.05,741.05
             1798.41,740.67 1798.69,740.48 1798.88,740.48
             1799.25,740.11 1799.67,739.73 1800.14,739.36
             1800.61,738.98 1801.03,738.61 1801.41,738.23
             1801.77,737.87 1802.19,737.41 1802.66,736.84
             1803.12,736.28 1803.55,735.81 1803.92,735.44
             1804.67,733.95 1805.32,732.37 1805.88,730.69 Z
           M 1909.80,592.92
           C 1910.73,592.73 1911.76,592.78 1912.88,593.06
             1914.00,593.34 1915.07,593.81 1916.09,594.47
             1917.12,595.12 1917.91,595.91 1918.47,596.84
             1919.03,597.78 1919.22,598.81 1919.05,599.92
             1918.67,602.54 1917.32,604.45 1914.98,605.67
             1912.65,606.88 1910.36,607.67 1908.12,608.05
             1900.28,609.35 1892.53,609.91 1884.88,609.72
             1877.23,609.53 1869.48,609.62 1861.64,610.00
             1860.89,618.73 1860.33,627.41 1859.95,636.05
             1859.59,644.68 1859.22,653.45 1858.84,662.36
             1858.84,662.36 1858.84,671.00 1858.84,671.00
             1867.05,670.45 1875.26,670.31 1883.47,670.59
             1891.69,670.87 1899.91,670.35 1908.12,669.05
             1910.18,668.68 1912.32,669.15 1914.56,670.45
             1916.80,671.75 1917.73,673.61 1917.36,676.03
             1916.98,678.65 1915.63,680.56 1913.30,681.78
             1910.96,682.99 1908.68,683.78 1906.44,684.16
             1898.41,685.46 1890.44,685.98 1882.50,685.70
             1874.56,685.42 1866.58,685.56 1858.56,686.11
             1858.56,686.11 1858.56,708.80 1858.56,708.80
             1858.75,712.90 1858.84,716.92 1858.84,720.84
             1858.84,724.76 1858.94,728.68 1859.12,732.59
             1859.31,735.77 1859.49,738.86 1859.67,741.84
             1859.86,744.82 1860.05,747.90 1860.23,751.08
             1860.23,751.08 1861.08,751.08 1861.08,751.08
             1861.83,751.27 1863.04,751.36 1864.72,751.36
             1864.72,751.36 1866.41,751.36 1866.41,751.36
             1868.83,751.17 1871.21,751.03 1873.55,750.94
             1875.88,750.84 1878.26,750.61 1880.69,750.23
             1885.53,749.86 1890.47,749.58 1895.52,749.39
             1900.55,749.20 1905.50,749.39 1910.36,749.95
             1911.30,750.14 1912.27,750.38 1913.30,750.66
             1914.33,750.94 1915.21,751.54 1915.95,752.47
             1917.08,753.78 1917.17,755.37 1916.23,757.23
             1914.93,759.29 1912.97,760.83 1910.36,761.86
             1907.74,762.88 1905.32,763.30 1903.08,763.11
             1901.77,762.73 1900.56,762.55 1899.44,762.55
             1898.32,762.55 1897.11,762.55 1895.80,762.55
             1895.05,762.37 1893.94,762.28 1892.44,762.28
             1892.44,762.28 1890.77,762.28 1890.77,762.28
             1888.34,762.46 1886.00,762.59 1883.77,762.69
             1881.52,762.78 1879.19,763.02 1876.77,763.39
             1871.72,763.77 1866.63,764.05 1861.50,764.23
             1856.36,764.42 1851.18,764.23 1845.95,763.67
             1845.02,763.48 1844.05,763.25 1843.02,762.97
             1841.99,762.69 1841.20,762.09 1840.64,761.16
             1839.34,759.84 1839.24,758.35 1840.36,756.67
             1840.17,753.32 1839.94,750.01 1839.66,746.73
             1839.38,743.46 1839.23,740.15 1839.23,736.80
             1839.05,732.70 1838.92,728.59 1838.83,724.48
             1838.73,720.37 1838.69,716.26 1838.69,712.16
             1838.12,677.48 1839.24,642.87 1842.05,608.33
             1841.11,607.02 1840.64,605.62 1840.64,604.12
             1841.02,601.51 1842.37,599.60 1844.70,598.39
             1847.04,597.17 1849.32,596.38 1851.56,596.00
             1861.27,594.70 1870.97,594.23 1880.67,594.61
             1890.38,594.98 1900.09,594.41 1909.80,592.92 Z
           M 2021.59,650.31
           C 2019.91,656.48 2017.30,662.23 2013.75,667.55
             2010.21,672.86 2006.01,677.48 2001.16,681.41
             2001.53,682.34 2001.91,683.73 2002.28,685.59
             2003.22,688.21 2004.01,690.82 2004.66,693.44
             2005.31,696.05 2006.02,698.67 2006.77,701.28
             2008.07,706.14 2009.32,710.85 2010.53,715.42
             2011.75,720.00 2013.01,724.62 2014.31,729.28
             2014.69,730.96 2015.11,732.59 2015.58,734.19
             2016.05,735.77 2016.47,737.40 2016.84,739.08
             2017.22,740.02 2017.49,741.05 2017.67,742.17
             2017.86,743.29 2018.14,744.31 2018.52,745.23
             2019.08,747.29 2019.68,749.30 2020.33,751.27
             2020.98,753.23 2021.50,755.23 2021.88,757.28
             2022.06,759.34 2020.99,760.97 2018.66,762.19
             2016.32,763.40 2014.41,764.19 2012.92,764.56
             2010.30,765.31 2007.88,765.50 2005.64,765.12
             2005.08,764.94 2004.33,764.70 2003.39,764.42
             2002.46,764.14 2001.91,763.53 2001.72,762.59
             2001.34,759.99 2000.73,757.57 1999.89,755.33
             1999.05,753.08 1998.36,750.65 1997.80,748.05
             1997.61,747.11 1997.42,746.27 1997.23,745.53
             1997.05,744.78 1996.77,743.94 1996.41,743.00
             1995.84,740.76 1995.28,738.52 1994.72,736.28
             1994.16,734.04 1993.50,731.80 1992.77,729.56
             1991.45,724.90 1990.19,720.23 1988.97,715.56
             1987.76,710.90 1986.50,706.14 1985.20,701.28
             1984.83,699.79 1984.41,698.30 1983.94,696.81
             1983.47,695.31 1983.05,693.81 1982.69,692.31
             1978.76,694.19 1974.93,695.50 1971.20,696.23
             1965.41,697.55 1959.44,698.39 1953.28,698.77
             1953.28,698.77 1953.28,709.69 1953.28,709.69
             1953.28,713.61 1953.33,717.52 1953.42,721.44
             1953.52,725.36 1953.66,729.37 1953.84,733.48
             1954.03,737.21 1954.26,740.90 1954.53,744.55
             1954.81,748.18 1954.95,751.87 1954.95,755.59
             1954.95,757.09 1954.30,758.40 1953.00,759.52
             1952.06,760.45 1950.98,761.11 1949.77,761.48
             1948.55,761.86 1947.39,762.23 1946.28,762.59
             1943.66,763.53 1941.14,763.72 1938.72,763.16
             1938.16,763.16 1937.41,762.98 1936.47,762.61
             1935.54,762.23 1935.08,761.67 1935.08,760.92
             1934.89,757.18 1934.66,753.40 1934.38,749.58
             1934.10,745.76 1933.88,741.98 1933.69,738.23
             1933.50,734.32 1933.41,730.36 1933.41,726.34
             1933.41,722.32 1933.31,718.36 1933.12,714.44
             1932.94,695.96 1933.17,677.62 1933.83,659.42
             1934.48,641.23 1935.55,622.98 1937.05,604.69
             1937.42,603.94 1937.61,603.56 1937.61,603.56
             1937.42,601.51 1938.30,599.70 1940.27,598.11
             1942.22,596.52 1944.13,595.53 1946.00,595.16
             1950.29,594.23 1954.68,593.48 1959.16,592.92
             1963.63,592.36 1968.21,592.27 1972.88,592.64
             1979.97,593.02 1986.88,594.70 1993.59,597.69
             2000.32,600.67 2006.11,604.87 2010.95,610.28
             2015.80,615.70 2019.26,621.95 2021.31,629.05
             2023.38,636.14 2023.47,643.23 2021.59,650.31 Z
           M 2000.88,652.84
           C 2002.00,648.92 2002.56,644.90 2002.56,640.80
             2002.00,636.51 2000.88,632.40 1999.20,628.48
             1996.77,624.01 1993.97,620.18 1990.80,617.00
             1987.80,614.57 1984.91,612.62 1982.12,611.12
             1980.81,610.56 1979.50,610.05 1978.19,609.58
             1976.88,609.11 1975.49,608.69 1974.00,608.31
             1973.81,608.14 1973.62,608.05 1973.44,608.05
             1973.06,608.05 1972.59,608.00 1972.03,607.91
             1971.48,607.81 1971.02,607.77 1970.64,607.77
             1968.77,607.39 1967.19,607.20 1965.88,607.20
             1965.88,607.20 1962.52,607.20 1962.52,607.20
             1961.59,607.20 1960.75,607.20 1960.00,607.20
             1959.25,607.20 1958.41,607.30 1957.48,607.48
             1957.48,607.48 1956.64,607.48 1956.64,607.48
             1955.89,617.01 1955.28,626.43 1954.81,635.77
             1954.35,645.10 1953.94,654.53 1953.56,664.05
             1953.38,667.40 1953.28,670.81 1953.28,674.27
             1953.28,677.71 1953.28,681.12 1953.28,684.48
             1955.14,684.30 1956.96,684.16 1958.73,684.06
             1960.52,683.97 1962.43,683.73 1964.48,683.36
             1964.48,683.36 1964.67,683.27 1965.05,683.08
             1965.60,683.08 1966.44,682.89 1967.56,682.52
             1969.43,682.14 1970.83,681.77 1971.77,681.41
             1972.32,681.41 1972.78,681.22 1973.16,680.84
             1973.53,680.84 1973.81,680.75 1974.00,680.56
             1974.00,680.56 1978.20,678.88 1978.20,678.88
             1978.94,678.32 1980.06,677.67 1981.56,676.92
             1981.75,676.92 1981.94,676.83 1982.12,676.64
             1982.31,676.64 1982.50,676.55 1982.69,676.36
             1983.61,675.61 1984.59,674.91 1985.61,674.27
             1986.64,673.61 1987.62,672.81 1988.56,671.88
             1988.56,671.69 1988.66,671.59 1988.84,671.59
             1989.03,671.59 1989.22,671.50 1989.41,671.31
             1989.41,670.95 1989.59,670.77 1989.95,670.77
             1990.33,670.39 1990.70,669.97 1991.08,669.50
             1991.45,669.03 1991.83,668.61 1992.20,668.23
             1993.69,666.37 1994.91,664.79 1995.84,663.48
             1998.08,660.12 1999.76,656.57 2000.88,652.84 Z
           M 2120.59,650.31
           C 2118.91,656.48 2116.30,662.23 2112.75,667.55
             2109.21,672.86 2105.01,677.48 2100.16,681.41
             2100.53,682.34 2100.91,683.73 2101.28,685.59
             2102.22,688.21 2103.01,690.82 2103.66,693.44
             2104.31,696.05 2105.02,698.67 2105.77,701.28
             2107.07,706.14 2108.32,710.85 2109.53,715.42
             2110.75,720.00 2112.01,724.62 2113.31,729.28
             2113.69,730.96 2114.11,732.59 2114.58,734.19
             2115.05,735.77 2115.47,737.40 2115.84,739.08
             2116.22,740.02 2116.49,741.05 2116.67,742.17
             2116.86,743.29 2117.14,744.31 2117.52,745.23
             2118.08,747.29 2118.68,749.30 2119.33,751.27
             2119.98,753.23 2120.50,755.23 2120.88,757.28
             2121.06,759.34 2119.99,760.97 2117.66,762.19
             2115.32,763.40 2113.41,764.19 2111.92,764.56
             2109.30,765.31 2106.88,765.50 2104.64,765.12
             2104.08,764.94 2103.33,764.70 2102.39,764.42
             2101.46,764.14 2100.91,763.53 2100.72,762.59
             2100.34,759.99 2099.73,757.57 2098.89,755.33
             2098.05,753.08 2097.36,750.65 2096.80,748.05
             2096.61,747.11 2096.42,746.27 2096.23,745.53
             2096.05,744.78 2095.77,743.94 2095.41,743.00
             2094.84,740.76 2094.28,738.52 2093.72,736.28
             2093.16,734.04 2092.50,731.80 2091.77,729.56
             2090.45,724.90 2089.19,720.23 2087.97,715.56
             2086.76,710.90 2085.50,706.14 2084.20,701.28
             2083.83,699.79 2083.41,698.30 2082.94,696.81
             2082.47,695.31 2082.05,693.81 2081.69,692.31
             2077.76,694.19 2073.93,695.50 2070.20,696.23
             2064.41,697.55 2058.44,698.39 2052.28,698.77
             2052.28,698.77 2052.28,709.69 2052.28,709.69
             2052.28,713.61 2052.33,717.52 2052.42,721.44
             2052.52,725.36 2052.66,729.37 2052.84,733.48
             2053.03,737.21 2053.26,740.90 2053.53,744.55
             2053.81,748.18 2053.95,751.87 2053.95,755.59
             2053.95,757.09 2053.30,758.40 2052.00,759.52
             2051.06,760.45 2049.98,761.11 2048.77,761.48
             2047.55,761.86 2046.39,762.23 2045.28,762.59
             2042.66,763.53 2040.14,763.72 2037.72,763.16
             2037.16,763.16 2036.41,762.98 2035.47,762.61
             2034.54,762.23 2034.08,761.67 2034.08,760.92
             2033.89,757.18 2033.66,753.40 2033.38,749.58
             2033.10,745.76 2032.88,741.98 2032.69,738.23
             2032.50,734.32 2032.41,730.36 2032.41,726.34
             2032.41,722.32 2032.31,718.36 2032.12,714.44
             2031.94,695.96 2032.17,677.62 2032.83,659.42
             2033.48,641.23 2034.55,622.98 2036.05,604.69
             2036.42,603.94 2036.61,603.56 2036.61,603.56
             2036.42,601.51 2037.30,599.70 2039.27,598.11
             2041.22,596.52 2043.13,595.53 2045.00,595.16
             2049.29,594.23 2053.68,593.48 2058.16,592.92
             2062.63,592.36 2067.21,592.27 2071.88,592.64
             2078.97,593.02 2085.88,594.70 2092.59,597.69
             2099.32,600.67 2105.11,604.87 2109.95,610.28
             2114.80,615.70 2118.26,621.95 2120.31,629.05
             2122.38,636.14 2122.47,643.23 2120.59,650.31 Z
           M 2099.88,652.84
           C 2101.00,648.92 2101.56,644.90 2101.56,640.80
             2101.00,636.51 2099.88,632.40 2098.20,628.48
             2095.77,624.01 2092.97,620.18 2089.80,617.00
             2086.80,614.57 2083.91,612.62 2081.12,611.12
             2079.81,610.56 2078.50,610.05 2077.19,609.58
             2075.88,609.11 2074.49,608.69 2073.00,608.31
             2072.81,608.14 2072.62,608.05 2072.44,608.05
             2072.06,608.05 2071.59,608.00 2071.03,607.91
             2070.48,607.81 2070.02,607.77 2069.64,607.77
             2067.77,607.39 2066.19,607.20 2064.88,607.20
             2064.88,607.20 2061.52,607.20 2061.52,607.20
             2060.59,607.20 2059.75,607.20 2059.00,607.20
             2058.25,607.20 2057.41,607.30 2056.48,607.48
             2056.48,607.48 2055.64,607.48 2055.64,607.48
             2054.89,617.01 2054.28,626.43 2053.81,635.77
             2053.35,645.10 2052.94,654.53 2052.56,664.05
             2052.38,667.40 2052.28,670.81 2052.28,674.27
             2052.28,677.71 2052.28,681.12 2052.28,684.48
             2054.14,684.30 2055.96,684.16 2057.73,684.06
             2059.52,683.97 2061.43,683.73 2063.48,683.36
             2063.48,683.36 2063.67,683.27 2064.05,683.08
             2064.60,683.08 2065.44,682.89 2066.56,682.52
             2068.43,682.14 2069.83,681.77 2070.77,681.41
             2071.32,681.41 2071.78,681.22 2072.16,680.84
             2072.53,680.84 2072.81,680.75 2073.00,680.56
             2073.00,680.56 2077.20,678.88 2077.20,678.88
             2077.94,678.32 2079.06,677.67 2080.56,676.92
             2080.75,676.92 2080.94,676.83 2081.12,676.64
             2081.31,676.64 2081.50,676.55 2081.69,676.36
             2082.61,675.61 2083.59,674.91 2084.61,674.27
             2085.64,673.61 2086.62,672.81 2087.56,671.88
             2087.56,671.69 2087.66,671.59 2087.84,671.59
             2088.03,671.59 2088.22,671.50 2088.41,671.31
             2088.41,670.95 2088.59,670.77 2088.95,670.77
             2089.33,670.39 2089.70,669.97 2090.08,669.50
             2090.45,669.03 2090.83,668.61 2091.20,668.23
             2092.69,666.37 2093.91,664.79 2094.84,663.48
             2097.08,660.12 2098.76,656.57 2099.88,652.84 Z
           M 2160.23,543.00
           C 2160.98,543.00 2161.96,543.00 2163.17,543.00
             2164.39,543.00 2165.28,543.34 2165.84,544.00
             2165.84,544.00 2165.84,544.56 2165.84,544.56
             2165.84,544.75 2165.75,544.93 2165.56,545.11
             2165.56,545.11 2165.56,548.20 2165.56,548.20
             2165.38,549.70 2165.19,551.19 2165.00,552.69
             2164.81,554.18 2164.62,555.67 2164.44,557.16
             2164.25,558.65 2164.11,560.14 2164.02,561.64
             2163.92,563.13 2163.78,564.62 2163.59,566.11
             2163.59,566.86 2163.59,567.70 2163.59,568.64
             2163.59,569.57 2163.41,570.31 2163.05,570.88
             2162.30,572.00 2161.55,572.66 2160.80,572.84
             2160.05,573.21 2159.36,573.53 2158.70,573.81
             2158.05,574.09 2157.34,574.42 2156.59,574.80
             2155.29,575.17 2154.03,575.55 2152.81,575.92
             2151.60,576.30 2150.25,576.57 2148.77,576.75
             2148.20,576.75 2147.22,576.80 2145.81,576.89
             2144.41,576.98 2143.53,576.57 2143.16,575.64
             2143.16,575.64 2143.16,574.80 2143.16,574.80
             2143.53,572.75 2143.81,570.60 2144.00,568.36
             2144.19,566.12 2144.38,563.98 2144.56,561.92
             2144.75,560.42 2144.89,558.93 2144.98,557.44
             2145.08,555.95 2145.22,554.45 2145.41,552.95
             2145.41,552.58 2145.45,552.16 2145.55,551.70
             2145.64,551.23 2145.69,550.81 2145.69,550.44
             2145.69,550.44 2145.69,549.88 2145.69,549.88
             2145.86,548.95 2146.09,548.30 2146.38,547.92
             2146.66,547.55 2147.27,547.08 2148.20,546.52
             2150.07,545.40 2152.02,544.61 2154.08,544.12
             2156.13,543.65 2158.18,543.27 2160.23,543.00 Z
           M 2143.44,575.00
           C 2143.44,575.00 2143.44,574.72 2143.44,574.72
             2143.44,574.72 2143.44,575.00 2143.44,575.00 Z
           M 2159.67,594.05
           C 2160.98,594.60 2161.55,595.62 2161.36,597.12
             2159.68,618.03 2158.56,639.22 2158.00,660.69
             2157.62,668.52 2157.44,676.41 2157.44,684.34
             2157.44,692.27 2157.53,700.25 2157.72,708.28
             2157.72,712.39 2157.77,716.45 2157.86,720.47
             2157.95,724.48 2158.09,728.54 2158.28,732.64
             2158.47,736.56 2158.70,740.43 2158.98,744.27
             2159.27,748.09 2159.41,751.96 2159.41,755.88
             2159.41,757.38 2158.66,758.68 2157.17,759.80
             2155.48,761.48 2153.24,762.59 2150.44,763.16
             2147.82,763.72 2145.39,763.91 2143.16,763.72
             2142.59,763.53 2141.80,763.30 2140.77,763.02
             2139.74,762.73 2139.23,762.13 2139.23,761.20
             2139.23,756.91 2139.09,752.67 2138.81,748.47
             2138.54,744.26 2138.31,740.01 2138.12,735.72
             2137.94,731.43 2137.80,727.14 2137.70,722.84
             2137.61,718.55 2137.56,714.26 2137.56,709.95
             2137.38,691.48 2137.61,673.09 2138.27,654.80
             2138.92,636.51 2139.99,618.21 2141.48,599.92
             2141.67,598.98 2142.23,598.20 2143.16,597.55
             2144.09,596.89 2144.84,596.38 2145.41,596.00
             2147.64,594.70 2150.16,593.86 2152.95,593.48
             2155.57,593.11 2157.80,593.30 2159.67,594.05 Z
           M 2248.80,592.92
           C 2249.73,592.73 2250.76,592.78 2251.88,593.06
             2253.00,593.34 2254.07,593.81 2255.09,594.47
             2256.12,595.12 2256.91,595.91 2257.47,596.84
             2258.03,597.78 2258.22,598.81 2258.05,599.92
             2257.67,602.54 2256.32,604.45 2253.98,605.67
             2251.65,606.88 2249.36,607.67 2247.12,608.05
             2239.28,609.35 2231.53,609.91 2223.88,609.72
             2216.23,609.53 2208.48,609.62 2200.64,610.00
             2199.89,618.73 2199.33,627.41 2198.95,636.05
             2198.59,644.68 2198.22,653.45 2197.84,662.36
             2197.84,662.36 2197.84,671.00 2197.84,671.00
             2206.05,670.45 2214.26,670.31 2222.47,670.59
             2230.69,670.87 2238.91,670.35 2247.12,669.05
             2249.18,668.68 2251.32,669.15 2253.56,670.45
             2255.80,671.75 2256.73,673.61 2256.36,676.03
             2255.98,678.65 2254.63,680.56 2252.30,681.78
             2249.96,682.99 2247.68,683.78 2245.44,684.16
             2237.41,685.46 2229.44,685.98 2221.50,685.70
             2213.56,685.42 2205.58,685.56 2197.56,686.11
             2197.56,686.11 2197.56,708.80 2197.56,708.80
             2197.75,712.90 2197.84,716.92 2197.84,720.84
             2197.84,724.76 2197.94,728.68 2198.12,732.59
             2198.31,735.77 2198.49,738.86 2198.67,741.84
             2198.86,744.82 2199.05,747.90 2199.23,751.08
             2199.23,751.08 2200.08,751.08 2200.08,751.08
             2200.83,751.27 2202.04,751.36 2203.72,751.36
             2203.72,751.36 2205.41,751.36 2205.41,751.36
             2207.83,751.17 2210.21,751.03 2212.55,750.94
             2214.88,750.84 2217.26,750.61 2219.69,750.23
             2224.53,749.86 2229.47,749.58 2234.52,749.39
             2239.55,749.20 2244.50,749.39 2249.36,749.95
             2250.30,750.14 2251.27,750.38 2252.30,750.66
             2253.33,750.94 2254.21,751.54 2254.95,752.47
             2256.08,753.78 2256.17,755.37 2255.23,757.23
             2253.93,759.29 2251.97,760.83 2249.36,761.86
             2246.74,762.88 2244.32,763.30 2242.08,763.11
             2240.77,762.73 2239.56,762.55 2238.44,762.55
             2237.32,762.55 2236.11,762.55 2234.80,762.55
             2234.05,762.37 2232.94,762.28 2231.44,762.28
             2231.44,762.28 2229.77,762.28 2229.77,762.28
             2227.34,762.46 2225.00,762.59 2222.77,762.69
             2220.52,762.78 2218.19,763.02 2215.77,763.39
             2210.72,763.77 2205.63,764.05 2200.50,764.23
             2195.36,764.42 2190.18,764.23 2184.95,763.67
             2184.02,763.48 2183.05,763.25 2182.02,762.97
             2180.99,762.69 2180.20,762.09 2179.64,761.16
             2178.34,759.84 2178.24,758.35 2179.36,756.67
             2179.17,753.32 2178.94,750.01 2178.66,746.73
             2178.38,743.46 2178.23,740.15 2178.23,736.80
             2178.05,732.70 2177.92,728.59 2177.83,724.48
             2177.73,720.37 2177.69,716.26 2177.69,712.16
             2177.12,677.48 2178.24,642.87 2181.05,608.33
             2180.11,607.02 2179.64,605.62 2179.64,604.12
             2180.02,601.51 2181.37,599.60 2183.70,598.39
             2186.04,597.17 2188.32,596.38 2190.56,596.00
             2200.27,594.70 2209.97,594.23 2219.67,594.61
             2229.38,594.98 2239.09,594.41 2248.80,592.92 Z
           M 2312.16,650.88
           C 2316.08,655.92 2320.33,660.87 2324.91,665.72
             2329.48,670.57 2333.82,675.52 2337.92,680.56
             2342.02,685.61 2345.71,690.93 2348.97,696.53
             2352.24,702.12 2354.44,708.28 2355.56,715.00
             2356.12,718.37 2356.45,721.82 2356.55,725.38
             2356.64,728.92 2356.22,732.37 2355.28,735.72
             2354.34,739.09 2353.13,742.26 2351.64,745.25
             2350.15,748.23 2348.19,750.93 2345.77,753.36
             2339.60,759.52 2332.22,763.16 2323.64,764.28
             2319.54,764.84 2315.52,764.66 2311.59,763.72
             2307.68,762.78 2303.95,761.38 2300.41,759.52
             2294.05,756.16 2288.59,751.69 2284.02,746.09
             2279.44,740.49 2276.13,734.32 2274.08,727.59
             2272.02,720.69 2271.28,713.73 2271.84,706.73
             2272.41,699.73 2274.08,692.97 2276.88,686.44
             2277.25,685.32 2277.99,684.39 2279.11,683.64
             2280.23,682.89 2281.27,682.33 2282.20,681.95
             2284.44,680.84 2287.05,680.28 2290.05,680.28
             2292.10,680.66 2293.82,681.50 2295.22,682.81
             2296.61,684.12 2296.85,685.89 2295.92,688.12
             2295.92,688.12 2294.23,692.31 2294.23,692.31
             2292.55,698.48 2291.81,704.45 2292.00,710.23
             2292.38,717.14 2294.05,723.49 2297.05,729.28
             2299.65,734.14 2303.01,738.52 2307.12,742.44
             2310.10,745.05 2313.37,747.20 2316.92,748.88
             2317.67,749.25 2318.79,749.62 2320.28,750.00
             2320.47,750.19 2320.70,750.28 2320.98,750.28
             2321.27,750.28 2321.50,750.38 2321.69,750.56
             2321.69,750.56 2325.05,750.56 2325.05,750.56
             2325.22,750.56 2325.41,750.47 2325.59,750.28
             2325.59,750.28 2325.88,750.28 2325.88,750.28
             2326.06,750.09 2326.25,750.00 2326.44,750.00
             2326.62,750.00 2326.81,749.91 2327.00,749.72
             2327.19,749.53 2327.38,749.39 2327.56,749.30
             2327.75,749.20 2327.94,749.06 2328.12,748.88
             2328.31,748.88 2328.59,748.69 2328.95,748.31
             2328.95,748.31 2329.52,747.77 2329.52,747.77
             2329.89,747.39 2330.22,747.02 2330.50,746.64
             2330.78,746.27 2331.11,745.89 2331.48,745.52
             2332.22,744.59 2332.83,743.57 2333.30,742.45
             2333.77,741.33 2334.28,740.11 2334.84,738.80
             2335.96,734.70 2336.42,730.50 2336.23,726.20
             2335.87,722.46 2335.17,718.78 2334.14,715.14
             2333.11,711.51 2331.85,708.01 2330.36,704.64
             2330.36,704.64 2328.69,702.12 2328.69,702.12
             2325.51,696.52 2321.77,691.34 2317.48,686.58
             2313.19,681.82 2308.89,677.11 2304.59,672.44
             2300.49,667.77 2296.48,662.96 2292.56,658.02
             2288.64,653.07 2285.66,647.61 2283.59,641.64
             2281.73,636.41 2280.84,630.86 2280.94,624.98
             2281.03,619.10 2282.48,613.73 2285.28,608.88
             2289.01,602.72 2294.14,598.05 2300.69,594.88
             2304.04,593.39 2307.72,592.23 2311.73,591.39
             2315.75,590.55 2319.63,590.40 2323.36,590.95
             2330.27,591.89 2335.68,594.60 2339.59,599.08
             2341.47,600.95 2343.01,603.00 2344.22,605.23
             2345.44,607.48 2346.51,609.81 2347.44,612.23
             2349.30,616.90 2350.66,621.57 2351.50,626.23
             2352.34,630.90 2353.13,635.66 2353.88,640.52
             2354.25,643.13 2353.50,645.19 2351.64,646.69
             2349.77,648.18 2347.82,649.20 2345.77,649.77
             2343.15,650.32 2340.63,650.32 2338.20,649.77
             2337.27,649.39 2336.38,648.88 2335.53,648.22
             2334.70,647.56 2334.19,646.77 2334.00,645.84
             2333.06,640.43 2332.08,635.02 2331.05,629.61
             2330.02,624.20 2328.30,619.06 2325.88,614.20
             2324.38,611.40 2322.71,608.98 2320.84,606.92
             2320.28,606.55 2319.25,605.98 2317.77,605.23
             2317.02,604.87 2316.45,604.69 2316.08,604.69
             2315.70,604.50 2315.33,604.41 2314.95,604.41
             2314.95,604.41 2314.41,604.41 2314.41,604.41
             2314.22,604.41 2314.03,604.45 2313.84,604.55
             2313.66,604.64 2313.47,604.69 2313.28,604.69
             2313.28,604.69 2313.00,604.69 2313.00,604.69
             2312.62,604.87 2312.25,604.95 2311.88,604.95
             2311.50,604.95 2311.13,605.05 2310.77,605.23
             2310.77,605.23 2310.48,605.23 2310.48,605.23
             2310.11,605.42 2309.88,605.56 2309.78,605.66
             2309.69,605.75 2309.45,605.89 2309.08,606.08
             2309.08,606.08 2308.80,606.08 2308.80,606.08
             2308.61,606.27 2308.42,606.41 2308.23,606.50
             2308.05,606.59 2307.86,606.73 2307.69,606.92
             2307.50,606.92 2307.41,606.97 2307.41,607.06
             2307.41,607.16 2307.31,607.20 2307.12,607.20
             2306.75,607.58 2306.56,607.77 2306.56,607.77
             2306.19,608.13 2305.91,608.45 2305.72,608.73
             2305.53,609.02 2305.25,609.34 2304.88,609.72
             2303.95,611.40 2303.20,612.98 2302.64,614.48
             2302.08,616.35 2301.70,618.12 2301.52,619.80
             2301.33,621.48 2301.23,623.25 2301.23,625.12
             2301.80,630.91 2303.29,636.23 2305.72,641.08
             2306.66,642.95 2307.63,644.67 2308.66,646.27
             2309.69,647.85 2310.85,649.39 2312.16,650.88 Z
           M 2325.59,750.56
           C 2325.59,750.56 2325.31,750.56 2325.31,750.56
             2325.31,750.56 2325.59,750.56 2325.59,750.56 Z
           M 2326.16,750.28
           C 2325.97,750.47 2325.83,750.56 2325.73,750.56
             2325.64,750.56 2325.69,750.47 2325.88,750.28
             2325.88,750.28 2325.59,750.28 2325.59,750.28
             2325.59,750.28 2326.44,750.28 2326.44,750.28
             2326.44,750.28 2326.16,750.28 2326.16,750.28 Z
           M 2326.44,750.00
           C 2326.44,750.00 2326.72,750.00 2326.72,750.00
             2326.72,750.00 2326.44,750.00 2326.44,750.00 Z" />
  <path id="Raspberry"
        fill="none" stroke="black" stroke-width="1"
        d="M 1118.21,550.00
           C 1115.13,542.33 1116.70,537.80 1118.21,530.00
             1121.72,515.04 1128.46,498.72 1140.04,488.28
             1144.79,484.00 1150.13,480.37 1156.00,477.70
             1158.20,476.83 1161.07,475.54 1163.07,477.70
             1165.07,479.69 1166.77,486.68 1164.42,488.93
             1164.42,488.93 1156.00,493.60 1156.00,493.60
             1151.33,496.72 1144.90,502.77 1141.18,507.00
             1129.63,520.13 1126.64,534.57 1120.00,550.00
             1120.00,550.00 1118.21,550.00 1118.21,550.00 Z
           M 1030.88,494.00
           C 1037.16,500.64 1035.33,504.71 1049.00,511.74
             1069.56,522.31 1097.32,518.62 1112.45,542.00
             1116.17,547.74 1117.15,551.66 1119.00,558.00
             1113.27,559.89 1108.40,560.34 1103.00,563.61
             1100.27,565.26 1095.03,570.11 1093.00,570.71
             1090.33,571.50 1087.43,569.47 1085.00,568.46
             1080.36,566.55 1077.03,565.84 1072.00,566.04
             1064.72,566.33 1060.76,569.08 1057.00,569.34
             1054.16,569.53 1045.58,567.35 1042.00,566.75
             1028.21,564.43 1010.68,563.18 1003.68,549.00
             1000.42,542.40 1001.00,533.22 1001.00,526.00
             1006.87,529.63 1007.29,538.13 1018.00,542.52
             1026.23,545.89 1041.80,544.99 1051.00,545.00
             1062.17,545.02 1068.65,547.55 1079.00,551.00
             1065.28,535.32 1044.99,536.43 1034.53,518.00
             1032.36,514.17 1031.47,510.28 1030.88,506.00
             1029.88,500.76 1029.73,499.21 1030.88,494.00 Z
           M 1206.00,494.00
           C 1208.56,499.03 1207.75,501.68 1207.00,507.00
             1203.66,530.62 1184.52,532.47 1168.00,543.24
             1164.11,545.78 1162.24,547.79 1159.00,551.00
             1168.51,547.34 1176.73,545.02 1187.00,545.00
             1196.09,544.99 1210.72,545.81 1219.00,542.89
             1230.49,538.84 1231.55,529.50 1237.00,526.00
             1237.00,534.66 1237.91,544.32 1232.88,551.91
             1225.44,563.15 1207.29,565.01 1195.00,567.08
             1195.00,567.08 1181.00,569.62 1181.00,569.62
             1175.84,569.43 1172.93,565.64 1163.00,566.04
             1152.95,566.44 1149.00,571.23 1145.00,570.27
             1142.53,569.68 1138.49,565.74 1136.00,564.11
             1131.07,560.88 1125.81,559.49 1120.00,559.00
             1120.25,553.84 1120.94,551.74 1123.04,547.00
             1135.83,518.09 1170.02,522.67 1191.00,510.83
             1199.47,506.05 1201.41,501.98 1206.00,494.00 Z
           M 1159.00,551.00
           C 1159.00,551.00 1158.00,551.00 1158.00,551.00
             1158.00,551.00 1159.00,552.00 1159.00,552.00
             1159.00,552.00 1159.00,551.00 1159.00,551.00 Z
           M 1112.00,561.52
           C 1118.33,560.51 1125.01,560.63 1131.00,563.09
             1160.24,575.10 1158.09,624.14 1125.00,631.18
             1103.60,635.74 1087.09,617.39 1087.00,597.00
             1086.93,579.95 1094.74,566.17 1112.00,561.52 Z
           M 1066.00,568.53
           C 1071.82,567.58 1079.54,567.49 1085.00,569.88
             1086.87,570.70 1089.66,571.99 1090.13,574.21
             1090.54,576.17 1088.10,580.85 1087.36,583.00
             1085.43,588.63 1084.88,592.06 1085.01,598.00
             1085.18,605.02 1087.36,611.08 1091.06,617.00
             1092.63,619.50 1097.27,624.24 1096.55,627.02
             1095.46,631.27 1086.06,636.27 1082.00,637.39
             1047.27,647.00 1027.71,601.05 1051.09,577.04
             1055.32,572.70 1060.26,570.22 1066.00,568.53 Z
           M 1140.00,625.00
           C 1150.52,617.10 1154.95,601.66 1152.54,589.00
             1151.80,585.12 1147.26,575.53 1148.23,573.22
             1150.29,568.31 1161.51,567.95 1166.00,568.00
             1173.37,568.09 1178.03,570.12 1183.82,574.72
             1203.00,589.97 1200.54,622.97 1179.00,634.82
             1167.12,641.35 1145.30,639.28 1140.00,625.00 Z
           M 1014.00,637.00
           C 1009.57,631.83 1005.74,626.70 1003.93,620.00
             999.50,603.64 1006.32,582.64 1023.00,576.06
             1032.12,572.55 1038.94,573.96 1048.00,576.06
             1048.00,576.06 1040.77,592.00 1040.77,592.00
             1037.17,603.68 1039.53,608.08 1042.00,619.00
             1042.00,619.00 1028.00,624.11 1028.00,624.11
             1028.00,624.11 1014.00,637.00 1014.00,637.00 Z
           M 1184.00,633.00
           C 1195.56,623.96 1200.21,609.28 1197.53,595.00
             1195.75,585.50 1190.45,581.93 1192.15,578.39
             1194.14,574.27 1204.04,573.92 1208.00,574.01
             1214.85,574.17 1220.58,576.30 1226.00,580.53
             1244.45,594.92 1243.18,625.87 1224.00,639.23
             1212.30,647.37 1190.88,647.22 1184.00,633.00 Z
           M 1130.00,612.00
           C 1131.84,611.85 1133.25,611.89 1134.96,610.98
             1143.98,606.17 1144.01,584.75 1135.79,578.74
             1133.84,577.31 1132.26,577.26 1130.00,577.00
             1130.00,577.00 1131.99,596.00 1131.99,596.00
             1131.99,596.00 1130.00,612.00 1130.00,612.00 Z
           M 1176.33,583.82
           C 1173.53,585.94 1174.62,587.81 1175.37,591.00
             1179.03,606.39 1174.81,606.22 1174.61,614.94
             1174.55,617.27 1175.50,618.77 1178.05,618.12
             1181.65,617.20 1183.88,613.26 1184.94,610.00
             1187.48,602.28 1187.21,584.64 1176.33,583.82 Z
           M 1215.00,627.00
           C 1217.26,626.74 1218.84,626.69 1220.79,625.26
             1228.52,619.62 1228.55,602.04 1222.58,595.13
             1220.56,592.78 1218.75,592.12 1216.00,591.00
             1216.00,591.00 1216.96,611.00 1216.96,611.00
             1216.96,611.00 1215.00,627.00 1215.00,627.00 Z
           M 1060.00,637.00
           C 1058.70,646.22 1056.27,653.49 1059.36,663.00
             1060.63,666.91 1062.39,670.52 1064.58,674.00
             1065.82,675.97 1067.87,678.32 1067.26,680.83
             1066.69,683.15 1062.93,685.91 1061.00,687.16
             1053.56,691.97 1044.40,693.06 1036.00,690.56
             1015.52,684.46 1007.48,660.86 1014.93,642.00
             1018.50,632.95 1025.68,625.47 1035.00,622.36
             1036.86,621.74 1039.85,620.89 1041.79,621.33
             1044.65,621.99 1046.49,625.82 1048.33,628.00
             1051.99,632.35 1054.96,634.53 1060.00,637.00 Z
           M 1061.00,639.00
           C 1070.76,639.45 1076.14,641.79 1086.00,637.53
             1093.27,634.40 1096.57,628.82 1100.17,628.50
             1102.47,628.29 1109.73,631.48 1111.04,633.49
             1111.57,634.69 1111.39,635.74 1111.04,637.02
             1109.81,646.47 1108.28,651.30 1111.70,661.00
             1114.98,670.32 1119.34,671.79 1115.55,676.91
             1113.97,679.05 1110.31,681.69 1108.00,683.07
             1094.26,691.32 1076.30,688.12 1066.79,675.00
             1058.21,663.16 1059.21,652.56 1061.00,639.00 Z
           M 1177.00,638.00
           C 1177.73,642.05 1177.95,642.79 1178.00,647.00
             1178.08,654.35 1177.56,659.28 1174.19,666.00
             1162.52,689.33 1130.57,691.52 1116.93,669.00
             1112.46,661.63 1110.09,651.56 1111.44,643.00
             1111.83,640.51 1112.53,636.33 1114.51,634.63
             1116.47,632.96 1121.27,633.34 1124.00,632.89
             1130.22,631.86 1134.08,629.29 1136.00,628.95
             1141.24,628.02 1142.05,633.18 1151.00,637.12
             1161.04,641.56 1166.85,640.28 1177.00,638.00 Z
           M 1180.60,637.17
           C 1184.68,636.68 1187.54,640.14 1191.00,642.12
             1195.91,644.93 1202.30,646.91 1208.00,646.48
             1208.00,646.48 1221.70,643.81 1221.70,643.81
             1225.39,644.88 1225.00,652.97 1225.00,656.00
             1225.02,672.44 1216.93,686.97 1200.00,691.10
             1191.34,693.22 1182.19,691.33 1175.00,686.07
             1172.83,684.49 1169.35,681.77 1168.82,679.00
             1168.16,675.52 1173.30,670.26 1175.10,667.00
             1178.24,661.30 1180.21,653.51 1179.96,647.00
             1179.81,643.20 1178.24,640.32 1180.60,637.17 Z
           M 1155.00,669.00
           C 1156.80,668.85 1158.24,668.90 1159.90,667.98
             1165.64,664.79 1167.90,652.61 1163.91,647.42
             1162.65,645.77 1161.77,645.68 1160.00,645.00
             1160.00,645.00 1159.00,646.00 1159.00,646.00
             1160.89,656.57 1158.36,659.32 1155.00,669.00 Z
           M 1205.00,676.00
           C 1217.03,674.05 1216.29,658.01 1213.26,654.31
             1211.91,652.66 1210.85,652.58 1209.00,652.00
             1209.00,652.00 1208.47,665.00 1208.47,665.00
             1208.47,665.00 1205.00,676.00 1205.00,676.00 Z
           M 1149.00,686.00
           C 1151.71,691.83 1151.98,696.72 1151.13,703.00
             1149.28,716.64 1140.26,729.77 1126.00,732.81
             1123.60,733.10 1119.54,733.03 1117.00,732.81
             1109.92,732.91 1105.70,731.24 1100.09,726.84
             1096.45,723.99 1093.13,720.05 1090.90,716.00
             1088.15,710.99 1087.07,705.67 1087.00,700.00
             1086.98,697.75 1086.66,692.31 1088.02,690.60
             1089.64,688.56 1093.63,689.11 1096.00,688.91
             1099.79,688.59 1102.64,687.45 1106.00,685.73
             1112.70,682.30 1115.11,678.17 1118.00,677.17
             1121.53,675.94 1125.91,680.35 1129.00,682.12
             1135.14,685.64 1142.01,687.64 1149.00,686.00 Z
           M 1163.96,680.96
           C 1168.77,680.92 1171.08,685.07 1175.00,687.78
             1180.50,691.58 1187.27,693.87 1194.00,693.49
             1196.03,693.37 1198.63,692.69 1200.66,694.03
             1204.92,697.38 1202.53,713.31 1200.66,718.00
             1195.85,732.54 1184.00,740.17 1169.00,740.00
             1161.47,739.91 1154.57,737.07 1149.09,731.82
             1147.07,729.88 1144.54,727.01 1144.78,724.00
             1145.05,720.60 1150.37,715.42 1152.49,706.00
             1153.27,702.52 1153.63,698.54 1153.12,695.00
             1152.94,692.72 1151.74,688.62 1153.12,686.65
             1154.21,684.84 1161.72,681.81 1163.96,680.96 Z
           M 1036.00,693.00
           C 1044.42,693.18 1048.51,694.54 1057.00,690.83
             1065.11,687.28 1066.91,682.68 1071.00,682.82
             1072.82,682.88 1075.36,684.54 1077.00,685.37
             1079.02,686.40 1082.73,687.68 1083.98,689.50
             1085.39,691.54 1084.97,696.48 1085.00,699.00
             1085.06,703.94 1085.49,706.34 1087.23,711.00
             1088.73,715.03 1094.00,722.57 1092.94,725.96
             1091.88,729.33 1085.97,734.10 1082.99,735.91
             1067.62,745.19 1048.49,738.95 1039.48,724.00
             1035.24,716.98 1034.96,710.89 1035.00,703.00
             1035.02,698.01 1035.13,697.83 1036.00,693.00 Z
           M 1095.00,726.00
           C 1100.91,728.50 1103.21,731.42 1110.00,733.64
             1112.30,734.39 1117.53,734.92 1118.83,736.57
             1120.16,738.27 1119.99,741.90 1120.00,744.00
             1120.02,747.68 1120.15,751.39 1119.32,755.00
             1116.10,769.02 1103.50,780.38 1089.00,780.96
             1074.50,781.55 1061.79,771.57 1057.36,758.00
             1056.37,754.96 1053.76,744.19 1056.60,742.00
             1058.38,740.68 1066.06,742.08 1069.00,742.00
             1080.30,741.50 1088.45,734.65 1095.00,726.00 Z
           M 1121.00,735.00
           C 1125.77,734.60 1128.71,733.92 1133.00,731.68
             1135.41,730.42 1139.26,727.41 1141.96,727.87
             1144.35,728.29 1146.44,731.11 1148.17,732.71
             1150.85,735.17 1153.75,737.10 1157.00,738.72
             1167.35,743.90 1171.66,741.47 1182.00,741.00
             1182.00,752.81 1182.59,760.71 1175.21,771.00
             1163.70,787.06 1139.75,788.84 1126.46,773.91
             1123.96,771.09 1120.34,765.78 1119.79,762.00
             1119.33,758.80 1121.20,754.48 1121.70,751.00
             1122.52,745.35 1121.73,740.53 1121.00,735.00 Z
           M 1117.00,765.00
           C 1117.00,765.00 1119.00,765.00 1119.00,765.00
             1124.15,774.58 1132.63,783.80 1144.00,785.00
             1137.86,805.89 1098.90,806.16 1091.00,783.00
             1104.42,778.53 1107.92,776.99 1117.00,765.00 Z" />
</svg>
