<?xml version="1.0" encoding="UTF-8" standalone="no"?>
<!DOCTYPE svg PUBLIC "-//W3C//DTD SVG 20010904//EN"
              "http://www.w3.org/TR/2001/REC-SVG-20010904/DTD/svg10.dtd">

<svg xmlns="http://www.w3.org/2000/svg"
     width="20in" height="12in"
     viewBox="0 0 2560 1536">
  <path id="Northblue"
        fill="none" stroke="black" stroke-width="1"
        d="M 97.69,702.52
           C 97.50,697.85 97.36,693.28 97.27,688.80
             97.17,684.32 97.12,679.75 97.12,675.08
             97.12,665.93 97.12,656.84 97.12,647.78
             97.12,638.73 97.31,629.63 97.69,620.48
             98.06,601.82 98.71,583.34 99.64,565.05
             100.58,546.75 101.79,528.36 103.28,509.88
             103.47,508.95 104.07,508.06 105.09,507.22
             106.12,506.38 107.02,505.77 107.77,505.41
             109.25,504.47 110.74,503.81 112.23,503.44
             113.73,503.06 115.23,502.69 116.72,502.31
             117.84,502.14 119.05,502.09 120.36,502.19
             121.67,502.27 122.98,502.50 124.28,502.88
             125.77,503.62 126.52,504.84 126.52,506.52
             126.52,506.52 126.52,506.80 126.52,506.80
             126.89,507.36 127.27,508.02 127.64,508.77
             130.82,517.16 133.85,525.61 136.73,534.11
             139.63,542.60 142.38,551.14 145.00,559.72
             150.23,576.34 155.18,592.90 159.84,609.42
             164.51,625.95 169.27,642.51 174.12,659.12
             175.80,665.09 177.52,670.93 179.30,676.62
             181.08,682.31 182.90,688.05 184.77,693.84
             184.58,690.86 184.48,687.96 184.48,685.16
             184.48,682.36 184.48,679.46 184.48,676.48
             184.48,667.34 184.48,658.24 184.48,649.19
             184.48,640.12 184.67,631.12 185.05,622.16
             185.42,603.49 186.07,585.01 187.00,566.72
             187.94,548.43 189.15,530.04 190.64,511.56
             190.83,510.62 191.43,509.74 192.45,508.91
             193.48,508.06 194.38,507.45 195.12,507.08
             196.61,506.15 198.10,505.50 199.59,505.12
             201.09,504.75 202.59,504.38 204.08,504.00
             205.20,503.81 206.41,503.77 207.72,503.86
             209.03,503.95 210.34,504.19 211.64,504.56
             213.13,505.31 213.88,506.53 213.88,508.20
             212.38,524.63 211.22,541.01 210.38,557.34
             209.54,573.68 208.84,590.06 208.28,606.48
             208.09,613.20 207.95,619.88 207.86,626.50
             207.77,633.12 207.72,639.70 207.72,646.23
             207.72,655.38 207.72,664.53 207.72,673.69
             207.72,682.84 207.91,691.98 208.28,701.12
             208.47,705.61 208.61,710.13 208.70,714.70
             208.80,719.28 209.03,723.80 209.41,728.28
             209.78,732.57 210.05,736.96 210.23,741.44
             210.42,745.92 210.52,750.30 210.52,754.59
             210.52,756.09 210.14,757.21 209.41,757.95
             209.59,758.89 209.36,759.83 208.70,760.77
             208.05,761.70 207.44,762.44 206.89,763.00
             205.77,763.94 204.55,764.73 203.23,765.38
             201.93,766.03 200.54,766.55 199.05,766.92
             197.17,767.48 194.74,767.77 191.75,767.77
             188.77,767.77 186.81,766.55 185.88,764.12
             182.70,755.17 179.20,746.35 175.38,737.67
             171.55,728.98 168.05,720.07 164.88,710.92
             159.46,694.50 154.41,678.07 149.75,661.64
             145.08,645.21 140.32,628.60 135.47,611.80
             133.41,604.52 131.32,597.24 129.17,589.97
             127.02,582.69 124.83,575.50 122.59,568.41
             122.23,574.38 121.95,580.40 121.77,586.47
             121.58,592.53 121.30,598.55 120.92,604.52
             120.73,611.23 120.59,617.96 120.50,624.69
             120.41,631.41 120.36,638.12 120.36,644.84
             120.36,653.99 120.36,663.09 120.36,672.14
             120.36,681.20 120.55,690.39 120.92,699.72
             121.11,704.20 121.25,708.73 121.34,713.30
             121.44,717.87 121.67,722.40 122.05,726.88
             122.42,731.17 122.70,735.56 122.88,740.05
             123.06,744.53 123.16,748.91 123.16,753.20
             123.16,755.07 122.32,756.65 120.64,757.95
             119.52,758.89 118.30,759.64 116.98,760.20
             115.68,760.77 114.29,761.23 112.80,761.59
             109.99,762.53 107.19,762.72 104.39,762.16
             103.65,762.16 102.72,761.93 101.59,761.47
             100.48,761.00 99.92,760.30 99.92,759.36
             99.92,754.51 99.78,749.61 99.50,744.66
             99.22,739.71 98.89,734.81 98.52,729.95
             97.96,720.81 97.69,711.66 97.69,702.52 Z
           M 320.41,646.75
           C 320.77,649.74 321.09,652.73 321.38,655.72
             321.66,658.70 321.80,661.78 321.80,664.95
             321.80,670.93 321.52,677.00 320.95,683.16
             320.59,686.34 320.17,689.56 319.70,692.83
             319.23,696.09 318.72,699.40 318.16,702.75
             317.41,706.12 316.58,709.39 315.64,712.56
             314.70,715.73 313.68,718.90 312.56,722.08
             309.95,729.17 306.77,735.61 303.05,741.39
             298.93,747.92 294.08,753.06 288.48,756.80
             284.00,759.96 278.96,761.92 273.36,762.67
             269.25,763.61 265.15,763.52 261.05,762.39
             260.11,762.02 259.22,761.65 258.38,761.28
             257.54,760.91 256.66,760.53 255.72,760.16
             254.23,759.59 252.73,758.57 251.23,757.08
             248.80,755.39 246.66,753.06 244.80,750.08
             240.50,744.10 237.43,737.56 235.56,730.47
             234.62,726.93 233.73,723.43 232.89,719.98
             232.05,716.53 231.45,713.02 231.08,709.47
             228.84,694.92 228.46,679.61 229.95,663.55
             230.89,656.28 232.01,649.37 233.31,642.83
             234.62,636.11 237.05,629.67 240.59,623.52
             243.58,617.73 247.79,612.50 253.20,607.83
             255.82,605.78 258.47,603.77 261.17,601.81
             263.88,599.86 266.82,598.13 270.00,596.64
             270.19,596.45 270.38,596.36 270.56,596.36
             270.75,596.36 271.03,596.27 271.41,596.08
             271.77,595.89 272.09,595.70 272.38,595.52
             272.66,595.33 272.98,595.14 273.36,594.95
             274.30,594.58 275.23,594.21 276.16,593.84
             277.09,593.47 278.12,593.19 279.23,593.00
             280.17,592.67 281.15,592.42 282.17,592.25
             283.20,592.09 284.28,592.00 285.41,592.00
             291.19,592.67 296.04,594.96 299.95,598.88
             302.02,600.93 303.70,602.98 305.00,605.03
             305.75,606.16 306.45,607.28 307.09,608.41
             307.75,609.52 308.45,610.73 309.20,612.03
             311.63,617.45 313.87,623.05 315.92,628.83
             316.85,631.82 317.69,634.76 318.44,637.66
             319.19,640.55 319.84,643.59 320.41,646.75 Z
           M 300.80,686.28
           C 301.36,681.05 301.64,675.73 301.64,670.31
             301.64,660.98 300.52,651.65 298.28,642.31
             297.53,639.71 296.83,637.24 296.17,634.91
             295.52,632.57 294.73,630.29 293.80,628.05
             292.87,625.62 291.89,623.29 290.86,621.05
             289.84,618.81 288.77,616.66 287.64,614.59
             286.52,612.73 285.22,610.87 283.72,609.00
             282.41,607.32 280.92,605.83 279.23,604.52
             279.23,604.52 278.97,604.23 278.97,604.23
             278.22,604.61 277.28,605.17 276.16,605.92
             275.41,606.30 274.48,606.86 273.36,607.59
             273.17,607.78 272.98,607.88 272.80,607.88
             272.61,607.88 272.52,607.97 272.52,608.16
             272.34,608.34 272.16,608.44 271.97,608.44
             271.78,608.44 271.69,608.53 271.69,608.72
             271.31,609.09 271.12,609.28 271.12,609.28
             270.75,609.66 270.42,609.94 270.14,610.12
             269.86,610.31 269.53,610.50 269.16,610.69
             269.16,610.69 265.80,614.05 265.80,614.05
             265.61,614.23 265.52,614.41 265.52,614.59
             265.52,614.59 265.25,614.59 265.25,614.59
             264.88,614.97 264.64,615.25 264.55,615.44
             264.45,615.62 264.22,615.91 263.84,616.28
             263.66,616.66 263.47,616.98 263.28,617.27
             263.09,617.55 262.81,617.87 262.44,618.23
             262.07,618.80 261.70,619.36 261.33,619.92
             260.95,620.48 260.58,621.04 260.20,621.59
             259.83,622.16 259.50,622.72 259.22,623.28
             258.94,623.84 258.61,624.50 258.25,625.23
             256.19,629.16 254.79,633.18 254.05,637.28
             252.92,641.20 252.08,645.30 251.53,649.59
             250.78,654.07 250.22,658.65 249.84,663.31
             249.47,665.56 249.28,667.81 249.28,670.05
             249.28,672.29 249.28,674.62 249.28,677.05
             249.28,679.84 249.33,682.64 249.42,685.44
             249.52,688.24 249.66,691.04 249.84,693.84
             250.22,696.65 250.55,699.40 250.83,702.11
             251.11,704.81 251.52,707.46 252.08,710.08
             252.45,712.70 252.92,715.21 253.48,717.64
             254.05,720.07 254.79,722.59 255.72,725.20
             257.22,730.43 259.27,735.20 261.88,739.48
             262.81,741.54 264.02,743.40 265.52,745.08
             267.20,747.13 268.88,748.62 270.56,749.56
             271.68,750.68 272.70,751.23 273.64,751.23
             273.64,751.23 273.83,751.33 274.20,751.52
             274.20,751.52 275.05,751.52 275.05,751.52
             275.05,751.52 275.59,750.95 275.59,750.95
             275.78,750.95 276.16,750.68 276.72,750.12
             277.66,749.56 278.59,748.72 279.52,747.59
             279.52,747.59 279.80,747.31 279.80,747.31
             279.80,747.31 279.89,747.13 280.08,746.77
             280.08,746.77 280.27,746.58 280.64,746.20
             280.64,746.20 284.00,742.00 284.00,742.00
             284.38,741.25 284.79,740.55 285.25,739.91
             285.72,739.25 286.14,738.45 286.52,737.52
             286.89,736.78 287.31,736.03 287.78,735.28
             288.25,734.53 288.66,733.70 289.03,732.77
             291.09,728.29 293.05,723.34 294.92,717.92
             295.66,715.31 296.31,712.70 296.88,710.08
             297.44,707.46 298.00,704.85 298.56,702.23
             298.93,699.45 299.30,696.74 299.67,694.12
             300.05,691.51 300.42,688.90 300.80,686.28 Z
           M 421.59,649.31
           C 419.91,655.48 417.30,661.23 413.75,666.55
             410.21,671.86 406.01,676.48 401.16,680.41
             401.53,681.34 401.91,682.73 402.28,684.59
             403.22,687.21 404.01,689.82 404.66,692.44
             405.31,695.05 406.02,697.67 406.77,700.28
             408.07,705.14 409.32,709.85 410.53,714.42
             411.75,719.00 413.01,723.62 414.31,728.28
             414.69,729.96 415.11,731.59 415.58,733.19
             416.05,734.77 416.47,736.40 416.84,738.08
             417.22,739.02 417.49,740.05 417.67,741.17
             417.86,742.29 418.14,743.31 418.52,744.23
             419.08,746.29 419.68,748.30 420.33,750.27
             420.98,752.23 421.50,754.23 421.88,756.28
             422.06,758.34 420.99,759.97 418.66,761.19
             416.32,762.40 414.41,763.19 412.92,763.56
             410.30,764.31 407.88,764.50 405.64,764.12
             405.08,763.94 404.33,763.70 403.39,763.42
             402.46,763.14 401.91,762.53 401.72,761.59
             401.34,758.99 400.73,756.57 399.89,754.33
             399.05,752.08 398.36,749.65 397.80,747.05
             397.61,746.11 397.42,745.27 397.23,744.53
             397.05,743.78 396.77,742.94 396.41,742.00
             395.84,739.76 395.28,737.52 394.72,735.28
             394.16,733.04 393.50,730.80 392.77,728.56
             391.45,723.90 390.19,719.23 388.97,714.56
             387.76,709.90 386.50,705.14 385.20,700.28
             384.83,698.79 384.41,697.30 383.94,695.81
             383.47,694.31 383.05,692.81 382.69,691.31
             378.76,693.19 374.93,694.50 371.20,695.23
             365.41,696.55 359.44,697.39 353.28,697.77
             353.28,697.77 353.28,708.69 353.28,708.69
             353.28,712.61 353.33,716.52 353.42,720.44
             353.52,724.36 353.66,728.37 353.84,732.48
             354.03,736.21 354.26,739.90 354.53,743.55
             354.81,747.18 354.95,750.87 354.95,754.59
             354.95,756.09 354.30,757.40 353.00,758.52
             352.06,759.45 350.98,760.11 349.77,760.48
             348.55,760.86 347.39,761.23 346.28,761.59
             343.66,762.53 341.14,762.72 338.72,762.16
             338.16,762.16 337.41,761.98 336.47,761.61
             335.54,761.23 335.08,760.67 335.08,759.92
             334.89,756.18 334.66,752.40 334.38,748.58
             334.10,744.76 333.88,740.98 333.69,737.23
             333.50,733.32 333.41,729.36 333.41,725.34
             333.41,721.32 333.31,717.36 333.12,713.44
             332.94,694.96 333.17,676.62 333.83,658.42
             334.48,640.23 335.55,621.98 337.05,603.69
             337.42,602.94 337.61,602.56 337.61,602.56
             337.42,600.51 338.30,598.70 340.27,597.11
             342.22,595.52 344.13,594.53 346.00,594.16
             350.29,593.23 354.68,592.48 359.16,591.92
             363.63,591.36 368.21,591.27 372.88,591.64
             379.97,592.02 386.88,593.70 393.59,596.69
             400.32,599.67 406.11,603.87 410.95,609.28
             415.80,614.70 419.26,620.95 421.31,628.05
             423.38,635.14 423.47,642.23 421.59,649.31 Z
           M 400.88,651.84
           C 402.00,647.92 402.56,643.90 402.56,639.80
             402.00,635.51 400.88,631.40 399.20,627.48
             396.77,623.01 393.97,619.18 390.80,616.00
             387.80,613.57 384.91,611.62 382.12,610.12
             380.81,609.56 379.50,609.05 378.19,608.58
             376.88,608.11 375.49,607.69 374.00,607.31
             373.81,607.14 373.62,607.05 373.44,607.05
             373.06,607.05 372.59,607.00 372.03,606.91
             371.48,606.81 371.02,606.77 370.64,606.77
             368.77,606.39 367.19,606.20 365.88,606.20
             365.88,606.20 362.52,606.20 362.52,606.20
             361.59,606.20 360.75,606.20 360.00,606.20
             359.25,606.20 358.41,606.30 357.48,606.48
             357.48,606.48 356.64,606.48 356.64,606.48
             355.89,616.01 355.28,625.43 354.81,634.77
             354.35,644.10 353.94,653.53 353.56,663.05
             353.38,666.40 353.28,669.81 353.28,673.27
             353.28,676.71 353.28,680.12 353.28,683.48
             355.14,683.30 356.96,683.16 358.73,683.06
             360.52,682.97 362.43,682.73 364.48,682.36
             364.48,682.36 364.67,682.27 365.05,682.08
             365.60,682.08 366.44,681.89 367.56,681.52
             369.43,681.14 370.83,680.77 371.77,680.41
             372.32,680.41 372.78,680.22 373.16,679.84
             373.53,679.84 373.81,679.75 374.00,679.56
             374.00,679.56 378.20,677.88 378.20,677.88
             378.94,677.32 380.06,676.67 381.56,675.92
             381.75,675.92 381.94,675.83 382.12,675.64
             382.31,675.64 382.50,675.55 382.69,675.36
             383.61,674.61 384.59,673.91 385.61,673.27
             386.64,672.61 387.62,671.81 388.56,670.88
             388.56,670.69 388.66,670.59 388.84,670.59
             389.03,670.59 389.22,670.50 389.41,670.31
             389.41,669.95 389.59,669.77 389.95,669.77
             390.33,669.39 390.70,668.97 391.08,668.50
             391.45,668.03 391.83,667.61 392.20,667.23
             393.69,665.37 394.91,663.79 395.84,662.48
             398.08,659.12 399.76,655.57 400.88,651.84 Z
           M 517.23,589.95
           C 519.29,589.59 521.43,590.02 523.67,591.23
             525.92,592.45 526.86,594.26 526.48,596.69
             526.11,599.29 524.75,601.25 522.42,602.56
             520.09,603.87 517.80,604.70 515.56,605.08
             510.89,605.64 506.27,606.02 501.70,606.20
             497.13,606.39 492.51,606.48 487.84,606.48
             487.09,615.45 486.53,624.40 486.16,633.36
             485.79,642.32 485.42,651.28 485.05,660.23
             484.67,668.08 484.48,675.92 484.48,683.77
             484.48,691.60 484.58,699.44 484.77,707.28
             484.77,711.39 484.81,715.45 484.91,719.47
             485.00,723.48 485.13,727.54 485.31,731.64
             485.50,735.37 485.73,739.20 486.02,743.12
             486.30,747.04 486.44,750.96 486.44,754.88
             486.44,756.38 485.69,757.68 484.20,758.80
             483.27,759.73 482.23,760.44 481.11,760.91
             479.99,761.37 478.79,761.78 477.48,762.16
             474.87,762.72 472.44,762.91 470.20,762.72
             469.64,762.53 468.84,762.30 467.81,762.02
             466.79,761.73 466.28,761.13 466.28,760.20
             466.28,755.91 466.14,751.76 465.86,747.75
             465.58,743.73 465.34,739.57 465.16,735.28
             464.97,730.99 464.83,726.65 464.73,722.27
             464.64,717.88 464.59,713.54 464.59,709.23
             464.23,674.89 465.35,640.64 467.95,606.48
             463.29,606.48 458.66,606.58 454.09,606.77
             449.52,606.95 444.90,607.32 440.23,607.88
             439.30,608.06 438.28,608.06 437.16,607.88
             436.04,607.69 434.97,607.32 433.94,606.77
             432.91,606.20 432.12,605.46 431.56,604.53
             431.00,603.59 430.81,602.47 431.00,601.16
             431.38,598.54 432.73,596.59 435.06,595.28
             437.39,593.97 439.68,593.13 441.92,592.77
             454.43,591.45 466.98,591.03 479.58,591.50
             492.18,591.97 504.73,591.45 517.23,589.95 Z
           M 617.88,591.12
           C 619.19,591.88 619.75,593.00 619.56,594.48
             617.88,615.39 616.77,636.48 616.20,657.77
             615.83,666.00 615.64,674.10 615.64,682.08
             615.64,690.06 615.73,698.06 615.92,706.08
             615.92,710.37 615.97,714.57 616.06,718.69
             616.16,722.79 616.30,726.90 616.48,731.00
             616.67,734.73 616.90,738.56 617.17,742.48
             617.45,746.40 617.59,750.23 617.59,753.95
             617.59,755.45 616.85,756.76 615.36,757.88
             614.42,758.81 613.39,759.52 612.27,759.98
             611.15,760.45 609.94,760.87 608.64,761.23
             606.02,761.80 603.60,761.98 601.36,761.80
             600.80,761.61 600.00,761.38 598.97,761.11
             597.95,760.83 597.44,760.22 597.44,759.28
             597.44,754.99 597.30,750.70 597.02,746.41
             596.73,742.11 596.50,737.81 596.31,733.52
             596.13,729.23 596.00,724.84 595.91,720.36
             595.81,715.88 595.77,711.50 595.77,707.20
             595.77,707.20 595.77,682.00 595.77,682.00
             589.23,682.50 582.60,682.71 575.88,682.62
             569.16,682.54 562.53,682.67 556.00,683.00
             556.00,683.00 556.00,705.95 556.00,705.95
             556.19,710.25 556.33,714.45 556.42,718.56
             556.52,722.67 556.66,726.77 556.84,730.88
             556.84,734.61 557.02,738.43 557.39,742.36
             557.77,746.28 557.95,750.10 557.95,753.83
             557.95,755.33 557.21,756.64 555.72,757.75
             554.78,758.69 553.75,759.39 552.62,759.86
             551.51,760.33 550.30,760.75 549.00,761.11
             546.38,761.86 543.96,762.05 541.72,761.67
             541.16,761.48 540.36,761.26 539.33,760.98
             538.30,760.70 537.80,760.09 537.80,759.16
             537.80,754.87 537.66,750.57 537.38,746.28
             537.10,741.98 536.88,737.68 536.69,733.39
             536.50,729.10 536.36,724.71 536.27,720.23
             536.17,715.76 536.12,711.37 536.12,707.08
             535.94,688.62 536.16,670.31 536.81,652.14
             537.47,633.96 538.55,615.73 540.05,597.44
             540.05,596.51 540.55,595.72 541.58,595.06
             542.61,594.41 543.40,593.89 543.95,593.52
             546.19,592.21 548.71,591.38 551.52,591.00
             552.45,590.81 553.52,590.72 554.73,590.72
             555.94,590.72 557.02,590.91 557.95,591.28
             559.45,592.03 560.11,593.15 559.92,594.64
             558.23,615.55 557.11,636.64 556.56,657.92
             556.38,659.60 556.28,661.28 556.28,662.97
             556.28,664.65 556.28,666.32 556.28,668.00
             562.81,667.55 569.44,667.39 576.16,667.50
             582.88,667.62 589.52,667.45 596.05,667.00
             596.42,655.24 596.88,643.62 597.44,632.14
             598.00,620.66 598.75,609.04 599.69,597.28
             599.88,596.36 600.43,595.56 601.36,594.91
             602.30,594.25 603.05,593.73 603.61,593.36
             605.85,592.06 608.36,591.22 611.16,590.84
             612.28,590.66 613.40,590.56 614.52,590.56
             615.64,590.56 616.76,590.75 617.88,591.12 Z
           M 713.28,689.72
           C 715.89,695.69 717.66,702.22 718.59,709.31
             718.97,712.12 719.16,714.96 719.16,717.86
             719.16,720.76 718.97,723.60 718.59,726.39
             718.04,729.20 717.25,731.90 716.22,734.52
             715.20,737.13 713.75,739.56 711.88,741.80
             709.82,744.41 707.54,746.65 705.02,748.52
             702.49,750.38 699.84,752.06 697.05,753.56
             689.95,757.11 682.30,759.62 674.08,761.11
             669.04,762.05 663.99,762.61 658.95,762.80
             653.92,762.98 648.79,762.61 643.56,761.67
             642.44,761.30 641.41,760.93 640.47,760.56
             639.54,760.19 638.71,759.53 637.97,758.59
             636.66,756.92 636.47,754.96 637.41,752.72
             637.59,752.34 637.69,752.11 637.69,752.02
             637.69,751.92 637.77,751.69 637.95,751.31
             637.95,743.67 637.81,736.11 637.53,728.64
             637.26,721.17 637.12,713.61 637.12,705.95
             637.12,697.93 637.26,689.91 637.53,681.89
             637.81,673.86 638.05,665.83 638.23,657.80
             638.23,652.95 638.09,648.09 637.81,643.23
             637.54,638.38 637.41,633.53 637.41,628.67
             637.22,624.01 637.17,619.34 637.27,614.67
             637.36,610.01 637.96,605.53 639.08,601.23
             639.27,601.05 639.36,600.77 639.36,600.39
             639.55,598.34 640.52,596.52 642.30,594.94
             644.07,593.36 645.89,592.38 647.77,592.00
             650.19,591.73 652.57,591.50 654.91,591.30
             657.24,591.10 659.71,591.00 662.31,591.00
             667.73,591.14 673.00,591.71 678.14,592.72
             683.27,593.73 688.27,595.54 693.12,598.16
             697.60,600.59 701.38,603.95 704.45,608.23
             707.54,612.53 709.55,617.29 710.48,622.52
             710.86,625.88 710.95,629.25 710.77,632.61
             710.58,635.96 709.73,639.23 708.23,642.39
             706.93,645.57 705.30,648.56 703.34,651.36
             701.38,654.16 699.10,656.78 696.48,659.20
             692.74,662.93 688.82,666.29 684.72,669.28
             687.89,670.02 690.93,670.95 693.81,672.08
             696.71,673.20 699.46,674.69 702.08,676.56
             707.12,680.29 710.85,684.68 713.28,689.72 Z
           M 657.28,616.00
           C 657.28,621.97 657.42,627.90 657.70,633.78
             657.98,639.66 658.12,645.59 658.12,651.56
             658.12,654.18 658.12,656.84 658.12,659.55
             658.12,662.25 658.03,664.90 657.84,667.52
             658.41,667.14 658.96,666.91 659.52,666.83
             660.08,666.73 660.64,666.50 661.20,666.12
             661.77,665.75 662.37,665.38 663.02,665.00
             663.67,664.62 664.28,664.25 664.84,663.88
             665.22,663.69 665.54,663.55 665.81,663.45
             666.09,663.36 666.42,663.13 666.80,662.77
             669.22,661.27 671.51,659.68 673.66,658.00
             675.80,656.32 677.90,654.46 679.95,652.41
             681.45,651.09 682.76,649.74 683.88,648.34
             685.00,646.94 686.12,645.49 687.23,644.00
             688.17,641.95 689.11,639.80 690.05,637.56
             690.41,636.06 690.59,634.71 690.59,633.50
             690.59,632.29 690.59,630.94 690.59,629.44
             690.23,627.95 689.91,626.46 689.62,624.97
             689.34,623.47 688.92,621.98 688.36,620.48
             687.24,618.62 685.84,616.66 684.16,614.59
             682.29,613.11 680.43,611.80 678.56,610.69
             677.25,610.12 675.98,609.56 674.77,609.00
             673.55,608.44 672.30,607.97 671.00,607.59
             670.06,607.41 669.08,607.23 668.05,607.05
             667.02,606.86 666.05,606.77 665.12,606.77
             664.38,606.58 663.72,606.48 663.16,606.48
             662.59,606.48 662.04,606.39 661.48,606.20
             661.48,606.20 657.84,606.20 657.84,606.20
             657.66,607.88 657.52,609.52 657.42,611.11
             657.33,612.70 657.28,614.32 657.28,616.00 Z
           M 697.88,729.69
           C 698.62,725.20 698.91,720.81 698.72,716.52
             698.34,713.35 697.88,710.23 697.31,707.14
             696.76,704.06 695.83,701.12 694.52,698.31
             693.40,695.90 691.72,693.48 689.48,691.05
             688.55,690.30 687.66,689.59 686.81,688.94
             685.98,688.28 685.09,687.68 684.16,687.12
             682.10,686.38 679.86,685.53 677.44,684.59
             675.95,684.23 674.36,683.95 672.67,683.77
             670.99,683.58 669.32,683.39 667.64,683.20
             667.64,683.20 657.28,683.20 657.28,683.20
             657.28,685.45 657.28,687.68 657.28,689.92
             657.28,692.16 657.19,694.40 657.00,696.64
             657.00,700.93 657.00,705.27 657.00,709.66
             657.00,714.04 657.19,718.39 657.56,722.69
             657.75,726.98 657.89,731.13 657.98,735.14
             658.08,739.15 658.12,743.30 658.12,747.59
             658.12,747.59 665.12,747.59 665.12,747.59
             665.86,747.41 666.56,747.31 667.22,747.31
             667.88,747.31 668.57,747.23 669.31,747.05
             669.31,747.05 669.59,747.05 669.59,747.05
             669.97,746.86 670.53,746.77 671.28,746.77
             672.77,746.39 674.16,746.02 675.47,745.64
             676.78,745.27 678.09,744.89 679.41,744.52
             680.89,744.14 682.02,743.77 682.77,743.41
             682.95,743.41 683.13,743.31 683.31,743.12
             684.25,742.75 685.09,742.38 685.83,742.00
             686.58,741.62 687.42,741.25 688.36,740.88
             688.36,740.88 690.05,740.05 690.05,740.05
             690.41,739.67 690.69,739.48 690.88,739.48
             691.25,739.11 691.67,738.73 692.14,738.36
             692.61,737.98 693.03,737.61 693.41,737.23
             693.77,736.87 694.19,736.41 694.66,735.84
             695.12,735.28 695.55,734.81 695.92,734.44
             696.67,732.95 697.32,731.37 697.88,729.69 Z
           M 802.08,748.44
           C 803.02,748.62 803.99,748.81 805.02,749.00
             806.05,749.19 806.94,749.75 807.69,750.69
             808.24,751.43 808.47,752.22 808.38,753.06
             808.28,753.90 808.05,754.69 807.69,755.44
             806.56,757.49 804.69,759.08 802.08,760.20
             799.46,761.32 796.94,761.69 794.52,761.31
             793.40,761.14 792.23,761.00 791.02,760.91
             789.80,760.81 788.64,760.77 787.52,760.77
             787.52,760.77 782.77,760.77 782.77,760.77
             777.91,760.77 773.15,761.04 768.48,761.59
             763.44,761.97 758.35,762.25 753.22,762.44
             748.08,762.62 742.90,762.44 737.67,761.88
             736.74,761.69 735.77,761.46 734.73,761.19
             733.71,760.91 732.83,760.39 732.08,759.64
             730.96,758.15 730.87,756.56 731.80,754.88
             731.61,751.34 731.42,747.79 731.23,744.25
             731.05,740.70 730.88,737.15 730.69,733.59
             730.50,729.30 730.36,724.96 730.27,720.58
             730.17,716.20 730.12,711.86 730.12,707.56
             729.94,689.09 730.17,670.75 730.83,652.55
             731.48,634.34 732.55,616.09 734.05,597.80
             734.23,596.87 734.79,596.08 735.72,595.42
             736.66,594.77 737.41,594.25 737.97,593.88
             740.21,592.57 742.72,591.73 745.52,591.36
             746.64,591.17 747.76,591.08 748.88,591.08
             750.00,591.08 751.03,591.27 751.97,591.64
             753.46,592.39 754.11,593.51 753.92,595.00
             752.24,615.91 751.12,637.00 750.56,658.28
             750.19,666.30 750.00,674.23 750.00,682.08
             750.00,689.92 750.09,697.76 750.28,705.59
             750.28,709.71 750.33,713.77 750.42,717.78
             750.52,721.79 750.66,725.85 750.84,729.95
             750.84,733.13 750.98,736.36 751.25,739.62
             751.53,742.89 751.77,746.11 751.95,749.28
             751.95,749.28 752.14,749.38 752.52,749.56
             752.52,749.56 757.56,749.56 757.56,749.56
             757.56,749.56 771.84,748.72 771.84,748.72
             776.88,748.34 781.92,748.06 786.95,747.88
             791.99,747.69 797.04,747.88 802.08,748.44 Z
           M 893.31,595.55
           C 893.69,595.55 894.38,595.69 895.41,595.97
             896.44,596.25 896.95,596.76 896.95,597.50
             897.89,609.82 898.17,622.01 897.80,634.05
             897.42,646.09 896.39,658.27 894.72,670.58
             894.72,670.58 894.72,669.47 894.72,669.47
             894.53,672.64 894.16,675.76 893.59,678.84
             893.03,681.93 892.38,685.05 891.64,688.22
             890.14,696.25 888.36,704.23 886.31,712.17
             884.26,720.10 881.65,727.98 878.48,735.83
             877.18,739.00 875.73,742.12 874.14,745.20
             872.55,748.29 870.64,751.14 868.41,753.75
             865.79,756.93 862.34,759.26 858.05,760.75
             856.55,761.31 854.97,761.83 853.28,762.30
             851.60,762.77 849.83,763.00 847.97,763.00
             847.03,763.00 846.00,762.95 844.88,762.84
             843.76,762.73 842.74,762.45 841.81,762.00
             838.07,760.32 835.27,757.53 833.41,753.61
             831.54,749.70 829.86,745.96 828.36,742.41
             825.94,735.70 824.08,728.80 822.77,721.72
             821.46,714.62 820.44,707.44 819.69,700.16
             818.56,685.24 818.47,670.37 819.41,655.55
             820.34,640.71 821.46,625.84 822.77,610.91
             822.95,608.86 823.14,606.90 823.33,605.03
             823.52,603.17 823.70,601.21 823.89,599.16
             823.89,598.22 824.07,597.57 824.44,597.20
             824.81,596.83 825.38,596.36 826.12,595.80
             827.06,595.05 828.13,594.49 829.34,594.12
             830.56,593.75 831.73,593.38 832.84,593.00
             835.08,591.96 837.51,591.62 840.12,592.00
             840.50,592.00 841.24,592.12 842.36,592.34
             843.48,592.56 843.95,593.12 843.77,594.00
             843.39,596.98 843.16,599.96 843.06,602.95
             842.97,605.93 842.73,608.92 842.36,611.91
             841.42,621.98 840.58,632.10 839.83,642.27
             839.09,652.42 838.81,662.63 839.00,672.89
             839.00,680.35 839.28,687.77 839.84,695.14
             840.41,702.51 841.43,709.92 842.92,717.38
             843.67,720.73 844.46,724.14 845.30,727.59
             846.14,731.04 847.21,734.35 848.52,737.52
             849.45,739.57 850.29,741.57 851.03,743.53
             851.78,745.49 852.72,747.40 853.84,749.27
             855.33,746.84 856.59,744.37 857.61,741.84
             858.64,739.32 859.62,736.76 860.56,734.14
             862.05,730.23 863.35,726.26 864.47,722.25
             865.59,718.23 866.62,714.17 867.56,710.06
             869.43,702.59 871.10,695.04 872.59,687.39
             873.16,685.14 873.62,682.90 874.00,680.66
             874.38,678.42 874.66,676.18 874.84,673.94
             874.84,673.94 874.84,674.78 874.84,674.78
             875.21,672.17 875.53,669.55 875.81,666.94
             876.09,664.32 876.33,661.71 876.52,659.11
             877.45,649.59 877.92,640.21 877.92,630.97
             877.92,621.73 877.64,612.35 877.08,602.83
             876.89,601.89 877.08,601.19 877.64,600.72
             878.20,600.25 878.76,599.84 879.31,599.47
             881.36,597.97 883.60,596.95 886.03,596.39
             887.16,596.02 888.32,595.73 889.53,595.55
             890.75,595.36 892.01,595.36 893.31,595.55 Z
           M 980.80,591.92
           C 981.73,591.73 982.76,591.78 983.88,592.06
             985.00,592.34 986.07,592.81 987.09,593.47
             988.12,594.12 988.91,594.91 989.47,595.84
             990.03,596.78 990.22,597.81 990.05,598.92
             989.67,601.54 988.32,603.45 985.98,604.67
             983.65,605.88 981.36,606.67 979.12,607.05
             971.28,608.35 963.53,608.91 955.88,608.72
             948.23,608.53 940.48,608.62 932.64,609.00
             931.89,617.73 931.33,626.41 930.95,635.05
             930.59,643.68 930.22,652.45 929.84,661.36
             929.84,661.36 929.84,670.00 929.84,670.00
             938.05,669.45 946.26,669.31 954.47,669.59
             962.69,669.87 970.91,669.35 979.12,668.05
             981.18,667.68 983.32,668.15 985.56,669.45
             987.80,670.75 988.73,672.61 988.36,675.03
             987.98,677.65 986.63,679.56 984.30,680.78
             981.96,681.99 979.68,682.78 977.44,683.16
             969.41,684.46 961.44,684.98 953.50,684.70
             945.56,684.42 937.58,684.56 929.56,685.11
             929.56,685.11 929.56,707.80 929.56,707.80
             929.75,711.90 929.84,715.92 929.84,719.84
             929.84,723.76 929.94,727.68 930.12,731.59
             930.31,734.77 930.49,737.86 930.67,740.84
             930.86,743.82 931.05,746.90 931.23,750.08
             931.23,750.08 932.08,750.08 932.08,750.08
             932.83,750.27 934.04,750.36 935.72,750.36
             935.72,750.36 937.41,750.36 937.41,750.36
             939.83,750.17 942.21,750.03 944.55,749.94
             946.88,749.84 949.26,749.61 951.69,749.23
             956.53,748.86 961.47,748.58 966.52,748.39
             971.55,748.20 976.50,748.39 981.36,748.95
             982.30,749.14 983.27,749.38 984.30,749.66
             985.33,749.94 986.21,750.54 986.95,751.47
             988.08,752.78 988.17,754.37 987.23,756.23
             985.93,758.29 983.97,759.83 981.36,760.86
             978.74,761.88 976.32,762.30 974.08,762.11
             972.77,761.73 971.56,761.55 970.44,761.55
             969.32,761.55 968.11,761.55 966.80,761.55
             966.05,761.37 964.94,761.28 963.44,761.28
             963.44,761.28 961.77,761.28 961.77,761.28
             959.34,761.46 957.00,761.59 954.77,761.69
             952.52,761.78 950.19,762.02 947.77,762.39
             942.72,762.77 937.63,763.05 932.50,763.23
             927.36,763.42 922.18,763.23 916.95,762.67
             916.02,762.48 915.05,762.25 914.02,761.97
             912.99,761.69 912.20,761.09 911.64,760.16
             910.34,758.84 910.24,757.35 911.36,755.67
             911.17,752.32 910.94,749.01 910.66,745.73
             910.38,742.46 910.23,739.15 910.23,735.80
             910.05,731.70 909.92,727.59 909.83,723.48
             909.73,719.37 909.69,715.26 909.69,711.16
             909.12,676.48 910.24,641.87 913.05,607.33
             912.11,606.02 911.64,604.62 911.64,603.12
             912.02,600.51 913.37,598.60 915.70,597.39
             918.04,596.17 920.32,595.38 922.56,595.00
             932.27,593.70 941.97,593.23 951.67,593.61
             961.38,593.98 971.09,593.41 980.80,591.92 Z" />
  <path id="Blueberries"
        fill="none" stroke="black" stroke-width="1"
        d="M 1335.23,759.23
           C 1333.93,757.37 1333.75,755.13 1334.69,752.52
             1334.86,752.14 1335.05,751.77 1335.23,751.41
             1335.42,751.03 1335.61,750.66 1335.80,750.28
             1335.80,750.28 1335.80,732.92 1335.80,732.92
             1335.80,729.56 1335.70,726.20 1335.52,722.84
             1335.33,719.48 1335.14,716.12 1334.95,712.77
             1334.59,703.25 1334.41,693.87 1334.41,684.62
             1334.41,675.39 1334.50,666.10 1334.69,656.77
             1334.88,647.80 1335.10,639.02 1335.38,630.44
             1335.66,621.86 1335.89,613.09 1336.08,604.12
             1336.08,604.12 1336.08,597.95 1336.08,597.95
             1335.89,590.86 1335.66,583.77 1335.38,576.69
             1335.10,569.59 1334.88,562.50 1334.69,555.41
             1334.69,551.67 1334.69,548.03 1334.69,544.48
             1334.69,540.93 1334.87,537.39 1335.23,533.84
             1335.42,531.04 1335.66,528.24 1335.94,525.44
             1336.22,522.64 1336.83,519.84 1337.77,517.05
             1337.77,516.86 1337.95,516.39 1338.31,515.64
             1338.31,513.40 1339.38,511.40 1341.53,509.62
             1343.69,507.84 1345.79,506.68 1347.84,506.12
             1352.32,505.19 1356.85,504.58 1361.42,504.30
             1365.99,504.02 1370.61,503.97 1375.28,504.16
             1384.99,504.72 1394.55,506.68 1403.98,510.05
             1413.41,513.40 1421.48,518.72 1428.20,526.00
             1431.74,529.73 1434.54,534.02 1436.59,538.88
             1438.66,543.73 1439.87,548.68 1440.23,553.72
             1440.61,556.90 1440.84,560.03 1440.94,563.11
             1441.03,566.18 1440.61,569.31 1439.69,572.48
             1439.31,574.35 1438.89,576.12 1438.42,577.80
             1437.95,579.48 1437.25,581.06 1436.31,582.56
             1435.38,584.24 1434.50,585.92 1433.66,587.61
             1432.82,589.29 1431.84,590.87 1430.72,592.36
             1429.04,594.98 1427.18,597.50 1425.12,599.92
             1423.07,602.35 1420.83,604.68 1418.41,606.92
             1415.79,609.54 1413.08,612.06 1410.28,614.48
             1407.48,616.91 1404.58,619.25 1401.59,621.48
             1400.66,622.04 1399.83,622.59 1399.08,623.16
             1398.33,623.72 1397.58,624.19 1396.84,624.56
             1398.89,624.94 1400.85,625.36 1402.72,625.83
             1404.58,626.29 1406.54,626.80 1408.59,627.36
             1414.20,628.85 1419.47,631.09 1424.42,634.08
             1429.37,637.07 1433.71,640.80 1437.44,645.28
             1441.73,649.95 1444.95,655.23 1447.09,661.11
             1449.24,666.98 1450.78,673.00 1451.72,679.16
             1452.66,684.57 1453.30,690.18 1453.67,695.97
             1454.05,701.75 1453.68,707.45 1452.56,713.05
             1452.00,715.48 1451.34,717.90 1450.59,720.33
             1449.85,722.75 1448.73,725.07 1447.23,727.31
             1444.25,732.54 1440.43,737.21 1435.77,741.31
             1430.72,745.80 1425.07,749.40 1418.81,752.11
             1412.56,754.81 1406.17,757.18 1399.64,759.23
             1390.30,762.04 1380.79,763.81 1371.08,764.56
             1361.37,765.31 1351.66,764.75 1341.95,762.88
             1340.65,762.50 1339.44,762.09 1338.31,761.62
             1337.20,761.16 1336.17,760.36 1335.23,759.23 Z
           M 1357.92,540.84
           C 1357.92,545.14 1357.97,549.52 1358.06,554.00
             1358.16,558.48 1358.30,562.96 1358.48,567.44
             1358.48,567.44 1359.31,588.44 1359.31,588.44
             1359.31,592.18 1359.31,595.91 1359.31,599.64
             1359.31,603.37 1359.22,607.11 1359.05,610.84
             1358.86,613.09 1358.77,615.37 1358.77,617.70
             1358.77,620.04 1358.77,622.42 1358.77,624.84
             1359.13,624.47 1359.88,624.09 1361.00,623.72
             1364.18,622.61 1367.21,621.26 1370.09,619.67
             1372.99,618.08 1375.93,616.45 1378.92,614.77
             1382.65,612.15 1386.29,609.54 1389.83,606.92
             1393.38,604.31 1396.74,601.41 1399.92,598.23
             1404.21,593.95 1408.04,589.28 1411.41,584.23
             1413.46,580.70 1415.04,577.15 1416.16,573.59
             1416.72,571.36 1417.05,569.12 1417.14,566.88
             1417.23,564.64 1417.19,562.40 1417.00,560.16
             1416.81,557.54 1416.39,555.07 1415.73,552.73
             1415.09,550.40 1414.30,548.02 1413.36,545.59
             1411.49,541.87 1409.25,538.70 1406.64,536.08
             1405.15,534.78 1403.66,533.52 1402.16,532.31
             1400.66,531.09 1398.99,530.02 1397.12,529.08
             1392.83,527.03 1388.63,525.44 1384.52,524.31
             1378.73,523.01 1373.23,522.27 1368.00,522.08
             1366.51,522.08 1365.06,522.08 1363.66,522.08
             1362.26,522.08 1360.81,522.17 1359.31,522.36
             1358.76,525.54 1358.44,528.62 1358.34,531.61
             1358.25,534.59 1358.11,537.67 1357.92,540.84 Z
           M 1357.64,665.72
           C 1357.64,672.44 1357.64,679.20 1357.64,686.02
             1357.64,692.83 1357.83,699.69 1358.20,706.59
             1358.39,709.77 1358.58,713.04 1358.77,716.41
             1358.95,719.76 1359.05,723.12 1359.05,726.48
             1359.22,729.84 1359.31,733.20 1359.31,736.56
             1359.31,739.92 1359.31,743.18 1359.31,746.36
             1360.06,746.55 1360.77,746.64 1361.42,746.64
             1362.08,746.64 1362.77,746.73 1363.52,746.92
             1366.50,746.92 1369.45,746.83 1372.34,746.64
             1375.24,746.45 1378.18,746.08 1381.16,745.52
             1388.25,744.40 1395.34,742.54 1402.44,739.92
             1406.91,738.06 1411.02,736.10 1414.77,734.05
             1415.88,733.30 1416.95,732.55 1417.97,731.81
             1419.00,731.06 1419.98,730.22 1420.92,729.28
             1420.92,729.28 1425.12,724.23 1425.12,724.23
             1425.86,722.75 1426.52,721.35 1427.08,720.05
             1427.64,718.73 1428.11,717.34 1428.48,715.84
             1429.41,712.48 1429.92,709.07 1430.02,705.62
             1430.11,702.17 1429.97,698.67 1429.59,695.12
             1429.23,690.09 1428.58,685.09 1427.64,680.14
             1426.70,675.20 1425.21,670.48 1423.16,666.00
             1422.04,663.95 1420.83,661.95 1419.52,659.98
             1418.21,658.03 1416.72,656.20 1415.05,654.52
             1412.62,652.09 1409.63,649.85 1406.08,647.80
             1402.35,645.75 1398.61,644.34 1394.88,643.59
             1391.71,642.67 1388.58,642.06 1385.50,641.78
             1382.41,641.50 1379.29,641.27 1376.12,641.08
             1373.88,640.89 1371.64,640.84 1369.41,640.94
             1367.16,641.03 1364.93,641.08 1362.69,641.08
             1361.56,641.27 1360.07,641.17 1358.20,640.80
             1358.02,644.90 1357.92,649.01 1357.92,653.12
             1357.92,657.23 1357.83,661.43 1357.64,665.72 Z
           M 1543.08,749.44
           C 1544.02,749.62 1544.99,749.81 1546.02,750.00
             1547.05,750.19 1547.94,750.75 1548.69,751.69
             1549.24,752.43 1549.47,753.22 1549.38,754.06
             1549.28,754.90 1549.05,755.69 1548.69,756.44
             1547.56,758.49 1545.69,760.08 1543.08,761.20
             1540.46,762.32 1537.94,762.69 1535.52,762.31
             1534.40,762.14 1533.23,762.00 1532.02,761.91
             1530.80,761.81 1529.64,761.77 1528.52,761.77
             1528.52,761.77 1523.77,761.77 1523.77,761.77
             1518.91,761.77 1514.15,762.04 1509.48,762.59
             1504.44,762.97 1499.35,763.25 1494.22,763.44
             1489.08,763.62 1483.90,763.44 1478.67,762.88
             1477.74,762.69 1476.77,762.46 1475.73,762.19
             1474.71,761.91 1473.83,761.39 1473.08,760.64
             1471.96,759.15 1471.87,757.56 1472.80,755.88
             1472.61,752.34 1472.42,748.79 1472.23,745.25
             1472.05,741.70 1471.88,738.15 1471.69,734.59
             1471.50,730.30 1471.36,725.96 1471.27,721.58
             1471.17,717.20 1471.12,712.86 1471.12,708.56
             1470.94,690.09 1471.17,671.75 1471.83,653.55
             1472.48,635.34 1473.55,617.09 1475.05,598.80
             1475.23,597.87 1475.79,597.08 1476.72,596.42
             1477.66,595.77 1478.41,595.25 1478.97,594.88
             1481.21,593.57 1483.72,592.73 1486.52,592.36
             1487.64,592.17 1488.76,592.08 1489.88,592.08
             1491.00,592.08 1492.03,592.27 1492.97,592.64
             1494.46,593.39 1495.11,594.51 1494.92,596.00
             1493.24,616.91 1492.12,638.00 1491.56,659.28
             1491.19,667.30 1491.00,675.23 1491.00,683.08
             1491.00,690.92 1491.09,698.76 1491.28,706.59
             1491.28,710.71 1491.33,714.77 1491.42,718.78
             1491.52,722.79 1491.66,726.85 1491.84,730.95
             1491.84,734.13 1491.98,737.36 1492.25,740.62
             1492.53,743.89 1492.77,747.11 1492.95,750.28
             1492.95,750.28 1493.14,750.38 1493.52,750.56
             1493.52,750.56 1498.56,750.56 1498.56,750.56
             1498.56,750.56 1512.84,749.72 1512.84,749.72
             1517.88,749.34 1522.92,749.06 1527.95,748.88
             1532.99,748.69 1538.04,748.88 1543.08,749.44 Z
           M 1634.31,596.55
           C 1634.69,596.55 1635.38,596.69 1636.41,596.97
             1637.44,597.25 1637.95,597.76 1637.95,598.50
             1638.89,610.82 1639.17,623.01 1638.80,635.05
             1638.42,647.09 1637.39,659.27 1635.72,671.58
             1635.72,671.58 1635.72,670.47 1635.72,670.47
             1635.53,673.64 1635.16,676.76 1634.59,679.84
             1634.03,682.93 1633.38,686.05 1632.64,689.22
             1631.14,697.25 1629.36,705.23 1627.31,713.17
             1625.26,721.10 1622.65,728.98 1619.48,736.83
             1618.18,740.00 1616.73,743.12 1615.14,746.20
             1613.55,749.29 1611.64,752.14 1609.41,754.75
             1606.79,757.93 1603.34,760.26 1599.05,761.75
             1597.55,762.31 1595.97,762.83 1594.28,763.30
             1592.60,763.77 1590.83,764.00 1588.97,764.00
             1588.03,764.00 1587.00,763.95 1585.88,763.84
             1584.76,763.73 1583.74,763.45 1582.81,763.00
             1579.07,761.32 1576.27,758.53 1574.41,754.61
             1572.54,750.70 1570.86,746.96 1569.36,743.41
             1566.94,736.70 1565.08,729.80 1563.77,722.72
             1562.46,715.62 1561.44,708.44 1560.69,701.16
             1559.56,686.24 1559.47,671.37 1560.41,656.55
             1561.34,641.71 1562.46,626.84 1563.77,611.91
             1563.95,609.86 1564.14,607.90 1564.33,606.03
             1564.52,604.17 1564.70,602.21 1564.89,600.16
             1564.89,599.22 1565.07,598.57 1565.44,598.20
             1565.81,597.83 1566.38,597.36 1567.12,596.80
             1568.06,596.05 1569.13,595.49 1570.34,595.12
             1571.56,594.75 1572.73,594.38 1573.84,594.00
             1576.08,592.96 1578.51,592.62 1581.12,593.00
             1581.50,593.00 1582.24,593.12 1583.36,593.34
             1584.48,593.56 1584.95,594.12 1584.77,595.00
             1584.39,597.98 1584.16,600.96 1584.06,603.95
             1583.97,606.93 1583.73,609.92 1583.36,612.91
             1582.42,622.98 1581.58,633.10 1580.83,643.27
             1580.09,653.42 1579.81,663.63 1580.00,673.89
             1580.00,681.35 1580.28,688.77 1580.84,696.14
             1581.41,703.51 1582.43,710.92 1583.92,718.38
             1584.67,721.73 1585.46,725.14 1586.30,728.59
             1587.14,732.04 1588.21,735.35 1589.52,738.52
             1590.45,740.57 1591.29,742.57 1592.03,744.53
             1592.78,746.49 1593.72,748.40 1594.84,750.27
             1596.33,747.84 1597.59,745.37 1598.61,742.84
             1599.64,740.32 1600.62,737.76 1601.56,735.14
             1603.05,731.23 1604.35,727.26 1605.47,723.25
             1606.59,719.23 1607.62,715.17 1608.56,711.06
             1610.43,703.59 1612.10,696.04 1613.59,688.39
             1614.16,686.14 1614.62,683.90 1615.00,681.66
             1615.38,679.42 1615.66,677.18 1615.84,674.94
             1615.84,674.94 1615.84,675.78 1615.84,675.78
             1616.21,673.17 1616.53,670.55 1616.81,667.94
             1617.09,665.32 1617.33,662.71 1617.52,660.11
             1618.45,650.59 1618.92,641.21 1618.92,631.97
             1618.92,622.73 1618.64,613.35 1618.08,603.83
             1617.89,602.89 1618.08,602.19 1618.64,601.72
             1619.20,601.25 1619.76,600.84 1620.31,600.47
             1622.36,598.97 1624.60,597.95 1627.03,597.39
             1628.16,597.02 1629.32,596.73 1630.53,596.55
             1631.75,596.36 1633.01,596.36 1634.31,596.55 Z
           M 1721.80,592.92
           C 1722.73,592.73 1723.76,592.78 1724.88,593.06
             1726.00,593.34 1727.07,593.81 1728.09,594.47
             1729.12,595.12 1729.91,595.91 1730.47,596.84
             1731.03,597.78 1731.22,598.81 1731.05,599.92
             1730.67,602.54 1729.32,604.45 1726.98,605.67
             1724.65,606.88 1722.36,607.67 1720.12,608.05
             1712.28,609.35 1704.53,609.91 1696.88,609.72
             1689.23,609.53 1681.48,609.62 1673.64,610.00
             1672.89,618.73 1672.33,627.41 1671.95,636.05
             1671.59,644.68 1671.22,653.45 1670.84,662.36
             1670.84,662.36 1670.84,671.00 1670.84,671.00
             1679.05,670.45 1687.26,670.31 1695.47,670.59
             1703.69,670.87 1711.91,670.35 1720.12,669.05
             1722.18,668.68 1724.32,669.15 1726.56,670.45
             1728.80,671.75 1729.73,673.61 1729.36,676.03
             1728.98,678.65 1727.63,680.56 1725.30,681.78
             1722.96,682.99 1720.68,683.78 1718.44,684.16
             1710.41,685.46 1702.44,685.98 1694.50,685.70
             1686.56,685.42 1678.58,685.56 1670.56,686.11
             1670.56,686.11 1670.56,708.80 1670.56,708.80
             1670.75,712.90 1670.84,716.92 1670.84,720.84
             1670.84,724.76 1670.94,728.68 1671.12,732.59
             1671.31,735.77 1671.49,738.86 1671.67,741.84
             1671.86,744.82 1672.05,747.90 1672.23,751.08
             1672.23,751.08 1673.08,751.08 1673.08,751.08
             1673.83,751.27 1675.04,751.36 1676.72,751.36
             1676.72,751.36 1678.41,751.36 1678.41,751.36
             1680.83,751.17 1683.21,751.03 1685.55,750.94
             1687.88,750.84 1690.26,750.61 1692.69,750.23
             1697.53,749.86 1702.47,749.58 1707.52,749.39
             1712.55,749.20 1717.50,749.39 1722.36,749.95
             1723.30,750.14 1724.27,750.38 1725.30,750.66
             1726.33,750.94 1727.21,751.54 1727.95,752.47
             1729.08,753.78 1729.17,755.37 1728.23,757.23
             1726.93,759.29 1724.97,760.83 1722.36,761.86
             1719.74,762.88 1717.32,763.30 1715.08,763.11
             1713.77,762.73 1712.56,762.55 1711.44,762.55
             1710.32,762.55 1709.11,762.55 1707.80,762.55
             1707.05,762.37 1705.94,762.28 1704.44,762.28
             1704.44,762.28 1702.77,762.28 1702.77,762.28
             1700.34,762.46 1698.00,762.59 1695.77,762.69
             1693.52,762.78 1691.19,763.02 1688.77,763.39
             1683.72,763.77 1678.63,764.05 1673.50,764.23
             1668.36,764.42 1663.18,764.23 1657.95,763.67
             1657.02,763.48 1656.05,763.25 1655.02,762.97
             1653.99,762.69 1653.20,762.09 1652.64,761.16
             1651.34,759.84 1651.24,758.35 1652.36,756.67
             1652.17,753.32 1651.94,750.01 1651.66,746.73
             1651.38,743.46 1651.23,740.15 1651.23,736.80
             1651.05,732.70 1650.92,728.59 1650.83,724.48
             1650.73,720.37 1650.69,716.26 1650.69,712.16
             1650.12,677.48 1651.24,642.87 1654.05,608.33
             1653.11,607.02 1652.64,605.62 1652.64,604.12
             1653.02,601.51 1654.37,599.60 1656.70,598.39
             1659.04,597.17 1661.32,596.38 1663.56,596.00
             1673.27,594.70 1682.97,594.23 1692.67,594.61
             1702.38,594.98 1712.09,594.41 1721.80,592.92 Z
           M 1821.28,690.72
           C 1823.89,696.69 1825.66,703.22 1826.59,710.31
             1826.97,713.12 1827.16,715.96 1827.16,718.86
             1827.16,721.76 1826.97,724.60 1826.59,727.39
             1826.04,730.20 1825.25,732.90 1824.22,735.52
             1823.20,738.13 1821.75,740.56 1819.88,742.80
             1817.82,745.41 1815.54,747.65 1813.02,749.52
             1810.49,751.38 1807.84,753.06 1805.05,754.56
             1797.95,758.11 1790.30,760.62 1782.08,762.11
             1777.04,763.05 1771.99,763.61 1766.95,763.80
             1761.92,763.98 1756.79,763.61 1751.56,762.67
             1750.44,762.30 1749.41,761.93 1748.47,761.56
             1747.54,761.19 1746.71,760.53 1745.97,759.59
             1744.66,757.92 1744.47,755.96 1745.41,753.72
             1745.59,753.34 1745.69,753.11 1745.69,753.02
             1745.69,752.92 1745.77,752.69 1745.95,752.31
             1745.95,744.67 1745.81,737.11 1745.53,729.64
             1745.26,722.17 1745.12,714.61 1745.12,706.95
             1745.12,698.93 1745.26,690.91 1745.53,682.89
             1745.81,674.86 1746.05,666.83 1746.23,658.80
             1746.23,653.95 1746.09,649.09 1745.81,644.23
             1745.54,639.38 1745.41,634.53 1745.41,629.67
             1745.22,625.01 1745.17,620.34 1745.27,615.67
             1745.36,611.01 1745.96,606.53 1747.08,602.23
             1747.27,602.05 1747.36,601.77 1747.36,601.39
             1747.55,599.34 1748.52,597.52 1750.30,595.94
             1752.07,594.36 1753.89,593.38 1755.77,593.00
             1758.19,592.73 1760.57,592.50 1762.91,592.30
             1765.24,592.10 1767.71,592.00 1770.31,592.00
             1775.73,592.14 1781.00,592.71 1786.14,593.72
             1791.27,594.73 1796.27,596.54 1801.12,599.16
             1805.60,601.59 1809.38,604.95 1812.45,609.23
             1815.54,613.53 1817.55,618.29 1818.48,623.52
             1818.86,626.88 1818.95,630.25 1818.77,633.61
             1818.58,636.96 1817.73,640.23 1816.23,643.39
             1814.93,646.57 1813.30,649.56 1811.34,652.36
             1809.38,655.16 1807.10,657.78 1804.48,660.20
             1800.74,663.93 1796.82,667.29 1792.72,670.28
             1795.89,671.02 1798.93,671.95 1801.81,673.08
             1804.71,674.20 1807.46,675.69 1810.08,677.56
             1815.12,681.29 1818.85,685.68 1821.28,690.72 Z
           M 1765.28,617.00
           C 1765.28,622.97 1765.42,628.90 1765.70,634.78
             1765.98,640.66 1766.12,646.59 1766.12,652.56
             1766.12,655.18 1766.12,657.84 1766.12,660.55
             1766.12,663.25 1766.03,665.90 1765.84,668.52
             1766.41,668.14 1766.96,667.91 1767.52,667.83
             1768.08,667.73 1768.64,667.50 1769.20,667.12
             1769.77,666.75 1770.37,666.38 1771.02,666.00
             1771.67,665.62 1772.28,665.25 1772.84,664.88
             1773.22,664.69 1773.54,664.55 1773.81,664.45
             1774.09,664.36 1774.42,664.13 1774.80,663.77
             1777.22,662.27 1779.51,660.68 1781.66,659.00
             1783.80,657.32 1785.90,655.46 1787.95,653.41
             1789.45,652.09 1790.76,650.74 1791.88,649.34
             1793.00,647.94 1794.12,646.49 1795.23,645.00
             1796.17,642.95 1797.11,640.80 1798.05,638.56
             1798.41,637.06 1798.59,635.71 1798.59,634.50
             1798.59,633.29 1798.59,631.94 1798.59,630.44
             1798.23,628.95 1797.91,627.46 1797.62,625.97
             1797.34,624.47 1796.92,622.98 1796.36,621.48
             1795.24,619.62 1793.84,617.66 1792.16,615.59
             1790.29,614.11 1788.43,612.80 1786.56,611.69
             1785.25,611.12 1783.98,610.56 1782.77,610.00
             1781.55,609.44 1780.30,608.97 1779.00,608.59
             1778.06,608.41 1777.08,608.23 1776.05,608.05
             1775.02,607.86 1774.05,607.77 1773.12,607.77
             1772.38,607.58 1771.72,607.48 1771.16,607.48
             1770.59,607.48 1770.04,607.39 1769.48,607.20
             1769.48,607.20 1765.84,607.20 1765.84,607.20
             1765.66,608.88 1765.52,610.52 1765.42,612.11
             1765.33,613.70 1765.28,615.32 1765.28,617.00 Z
           M 1805.88,730.69
           C 1806.62,726.20 1806.91,721.81 1806.72,717.52
             1806.34,714.35 1805.88,711.23 1805.31,708.14
             1804.76,705.06 1803.83,702.12 1802.52,699.31
             1801.40,696.90 1799.72,694.48 1797.48,692.05
             1796.55,691.30 1795.66,690.59 1794.81,689.94
             1793.98,689.28 1793.09,688.68 1792.16,688.12
             1790.10,687.38 1787.86,686.53 1785.44,685.59
             1783.95,685.23 1782.36,684.95 1780.67,684.77
             1778.99,684.58 1777.32,684.39 1775.64,684.20
             1775.64,684.20 1765.28,684.20 1765.28,684.20
             1765.28,686.45 1765.28,688.68 1765.28,690.92
             1765.28,693.16 1765.19,695.40 1765.00,697.64
             1765.00,701.93 1765.00,706.27 1765.00,710.66
             1765.00,715.04 1765.19,719.39 1765.56,723.69
             1765.75,727.98 1765.89,732.13 1765.98,736.14
             1766.08,740.15 1766.12,744.30 1766.12,748.59
             1766.12,748.59 1773.12,748.59 1773.12,748.59
             1773.86,748.41 1774.56,748.31 1775.22,748.31
             1775.88,748.31 1776.57,748.23 1777.31,748.05
             1777.31,748.05 1777.59,748.05 1777.59,748.05
             1777.97,747.86 1778.53,747.77 1779.28,747.77
             1780.77,747.39 1782.16,747.02 1783.47,746.64
             1784.78,746.27 1786.09,745.89 1787.41,745.52
             1788.89,745.14 1790.02,744.77 1790.77,744.41
             1790.95,744.41 1791.13,744.31 1791.31,744.12
             1792.25,743.75 1793.09,743.38 1793.83,743.00
             1794.58,742.62 1795.42,742.25 1796.36,741.88
             1796.36,741.88 1798.05,741.05 1798.05,741.05
             1798.41,740.67 1798.69,740.48 1798.88,740.48
             1799.25,740.11 1799.67,739.73 1800.14,739.36
             1800.61,738.98 1801.03,738.61 1801.41,738.23
             1801.77,737.87 1802.19,737.41 1802.66,736.84
             1803.12,736.28 1803.55,735.81 1803.92,735.44
             1804.67,733.95 1805.32,732.37 1805.88,730.69 Z
           M 1909.80,592.92
           C 1910.73,592.73 1911.76,592.78 1912.88,593.06
             1914.00,593.34 1915.07,593.81 1916.09,594.47
             1917.12,595.12 1917.91,595.91 1918.47,596.84
             1919.03,597.78 1919.22,598.81 1919.05,599.92
             1918.67,602.54 1917.32,604.45 1914.98,605.67
             1912.65,606.88 1910.36,607.67 1908.12,608.05
             1900.28,609.35 1892.53,609.91 1884.88,609.72
             1877.23,609.53 1869.48,609.62 1861.64,610.00
             1860.89,618.73 1860.33,627.41 1859.95,636.05
             1859.59,644.68 1859.22,653.45 1858.84,662.36
             1858.84,662.36 1858.84,671.00 1858.84,671.00
             1867.05,670.45 1875.26,670.31 1883.47,670.59
             1891.69,670.87 1899.91,670.35 1908.12,669.05
             1910.18,668.68 1912.32,669.15 1914.56,670.45
             1916.80,671.75 1917.73,673.61 1917.36,676.03
             1916.98,678.65 1915.63,680.56 1913.30,681.78
             1910.96,682.99 1908.68,683.78 1906.44,684.16
             1898.41,685.46 1890.44,685.98 1882.50,685.70
             1874.56,685.42 1866.58,685.56 1858.56,686.11
             1858.56,686.11 1858.56,708.80 1858.56,708.80
             1858.75,712.90 1858.84,716.92 1858.84,720.84
             1858.84,724.76 1858.94,728.68 1859.12,732.59
             1859.31,735.77 1859.49,738.86 1859.67,741.84
             1859.86,744.82 1860.05,747.90 1860.23,751.08
             1860.23,751.08 1861.08,751.08 1861.08,751.08
             1861.83,751.27 1863.04,751.36 1864.72,751.36
             1864.72,751.36 1866.41,751.36 1866.41,751.36
             1868.83,751.17 1871.21,751.03 1873.55,750.94
             1875.88,750.84 1878.26,750.61 1880.69,750.23
             1885.53,749.86 1890.47,749.58 1895.52,749.39
             1900.55,749.20 1905.50,749.39 1910.36,749.95
             1911.30,750.14 1912.27,750.38 1913.30,750.66
             1914.33,750.94 1915.21,751.54 1915.95,752.47
             1917.08,753.78 1917.17,755.37 1916.23,757.23
             1914.93,759.29 1912.97,760.83 1910.36,761.86
             1907.74,762.88 1905.32,763.30 1903.08,763.11
             1901.77,762.73 1900.56,762.55 1899.44,762.55
             1898.32,762.55 1897.11,762.55 1895.80,762.55
             1895.05,762.37 1893.94,762.28 1892.44,762.28
             1892.44,762.28 1890.77,762.28 1890.77,762.28
             1888.34,762.46 1886.00,762.59 1883.77,762.69
             1881.52,762.78 1879.19,763.02 1876.77,763.39
             1871.72,763.77 1866.63,764.05 1861.50,764.23
             1856.36,764.42 1851.18,764.23 1845.95,763.67
             1845.02,763.48 1844.05,763.25 1843.02,762.97
             1841.99,762.69 1841.20,762.09 1840.64,761.16
             1839.34,759.84 1839.24,758.35 1840.36,756.67
             1840.17,753.32 1839.94,750.01 1839.66,746.73
             1839.38,743.46 1839.23,740.15 1839.23,736.80
             1839.05,732.70 1838.92,728.59 1838.83,724.48
             1838.73,720.37 1838.69,716.26 1838.69,712.16
             1838.12,677.48 1839.24,642.87 1842.05,608.33
             1841.11,607.02 1840.64,605.62 1840.64,604.12
             1841.02,601.51 1842.37,599.60 1844.70,598.39
             1847.04,597.17 1849.32,596.38 1851.56,596.00
             1861.27,594.70 1870.97,594.23 1880.67,594.61
             1890.38,594.98 1900.09,594.41 1909.80,592.92 Z
           M 2021.59,650.31
           C 2019.91,656.48 2017.30,662.23 2013.75,667.55
             2010.21,672.86 2006.01,677.48 2001.16,681.41
             2001.53,682.34 2001.91,683.73 2002.28,685.59
             2003.22,688.21 2004.01,690.82 2004.66,693.44
             2005.31,696.05 2006.02,698.67 2006.77,701.28
             2008.07,706.14 2009.32,710.85 2010.53,715.42
             2011.75,720.00 2013.01,724.62 2014.31,729.28
             2014.69,730.96 2015.11,732.59 2015.58,734.19
             2016.05,735.77 2016.47,737.40 2016.84,739.08
             2017.22,740.02 2017.49,741.05 2017.67,742.17
             2017.86,743.29 2018.14,744.31 2018.52,745.23
             2019.08,747.29 2019.68,749.30 2020.33,751.27
             2020.98,753.23 2021.50,755.23 2021.88,757.28
             2022.06,759.34 2020.99,760.97 2018.66,762.19
             2016.32,763.40 2014.41,764.19 2012.92,764.56
             2010.30,765.31 2007.88,765.50 2005.64,765.12
             2005.08,764.94 2004.33,764.70 2003.39,764.42
             2002.46,764.14 2001.91,763.53 2001.72,762.59
             2001.34,759.99 2000.73,757.57 1999.89,755.33
             1999.05,753.08 1998.36,750.65 1997.80,748.05
             1997.61,747.11 1997.42,746.27 1997.23,745.53
             1997.05,744.78 1996.77,743.94 1996.41,743.00
             1995.84,740.76 1995.28,738.52 1994.72,736.28
             1994.16,734.04 1993.50,731.80 1992.77,729.56
             1991.45,724.90 1990.19,720.23 1988.97,715.56
             1987.76,710.90 1986.50,706.14 1985.20,701.28
             1984.83,699.79 1984.41,698.30 1983.94,696.81
             1983.47,695.31 1983.05,693.81 1982.69,692.31
             1978.76,694.19 1974.93,695.50 1971.20,696.23
             1965.41,697.55 1959.44,698.39 1953.28,698.77
             1953.28,698.77 1953.28,709.69 1953.28,709.69
             1953.28,713.61 1953.33,717.52 1953.42,721.44
             1953.52,725.36 1953.66,729.37 1953.84,733.48
             1954.03,737.21 1954.26,740.90 1954.53,744.55
             1954.81,748.18 1954.95,751.87 1954.95,755.59
             1954.95,757.09 1954.30,758.40 1953.00,759.52
             1952.06,760.45 1950.98,761.11 1949.77,761.48
             1948.55,761.86 1947.39,762.23 1946.28,762.59
             1943.66,763.53 1941.14,763.72 1938.72,763.16
             1938.16,763.16 1937.41,762.98 1936.47,762.61
             1935.54,762.23 1935.08,761.67 1935.08,760.92
             1934.89,757.18 1934.66,753.40 1934.38,749.58
             1934.10,745.76 1933.88,741.98 1933.69,738.23
             1933.50,734.32 1933.41,730.36 1933.41,726.34
             1933.41,722.32 1933.31,718.36 1933.12,714.44
             1932.94,695.96 1933.17,677.62 1933.83,659.42
             1934.48,641.23 1935.55,622.98 1937.05,604.69
             1937.42,603.94 1937.61,603.56 1937.61,603.56
             1937.42,601.51 1938.30,599.70 1940.27,598.11
             1942.22,596.52 1944.13,595.53 1946.00,595.16
             1950.29,594.23 1954.68,593.48 1959.16,592.92
             1963.63,592.36 1968.21,592.27 1972.88,592.64
             1979.97,593.02 1986.88,594.70 1993.59,597.69
             2000.32,600.67 2006.11,604.87 2010.95,610.28
             2015.80,615.70 2019.26,621.95 2021.31,629.05
             2023.38,636.14 2023.47,643.23 2021.59,650.31 Z
           M 2000.88,652.84
           C 2002.00,648.92 2002.56,644.90 2002.56,640.80
             2002.00,636.51 2000.88,632.40 1999.20,628.48
             1996.77,624.01 1993.97,620.18 1990.80,617.00
             1987.80,614.57 1984.91,612.62 1982.12,611.12
             1980.81,610.56 1979.50,610.05 1978.19,609.58
             1976.88,609.11 1975.49,608.69 1974.00,608.31
             1973.81,608.14 1973.62,608.05 1973.44,608.05
             1973.06,608.05 1972.59,608.00 1972.03,607.91
             1971.48,607.81 1971.02,607.77 1970.64,607.77
             1968.77,607.39 1967.19,607.20 1965.88,607.20
             1965.88,607.20 1962.52,607.20 1962.52,607.20
             1961.59,607.20 1960.75,607.20 1960.00,607.20
             1959.25,607.20 1958.41,607.30 1957.48,607.48
             1957.48,607.48 1956.64,607.48 1956.64,607.48
             1955.89,617.01 1955.28,626.43 1954.81,635.77
             1954.35,645.10 1953.94,654.53 1953.56,664.05
             1953.38,667.40 1953.28,670.81 1953.28,674.27
             1953.28,677.71 1953.28,681.12 1953.28,684.48
             1955.14,684.30 1956.96,684.16 1958.73,684.06
             1960.52,683.97 1962.43,683.73 1964.48,683.36
             1964.48,683.36 1964.67,683.27 1965.05,683.08
             1965.60,683.08 1966.44,682.89 1967.56,682.52
             1969.43,682.14 1970.83,681.77 1971.77,681.41
             1972.32,681.41 1972.78,681.22 1973.16,680.84
             1973.53,680.84 1973.81,680.75 1974.00,680.56
             1974.00,680.56 1978.20,678.88 1978.20,678.88
             1978.94,678.32 1980.06,677.67 1981.56,676.92
             1981.75,676.92 1981.94,676.83 1982.12,676.64
             1982.31,676.64 1982.50,676.55 1982.69,676.36
             1983.61,675.61 1984.59,674.91 1985.61,674.27
             1986.64,673.61 1987.62,672.81 1988.56,671.88
             1988.56,671.69 1988.66,671.59 1988.84,671.59
             1989.03,671.59 1989.22,671.50 1989.41,671.31
             1989.41,670.95 1989.59,670.77 1989.95,670.77
             1990.33,670.39 1990.70,669.97 1991.08,669.50
             1991.45,669.03 1991.83,668.61 1992.20,668.23
             1993.69,666.37 1994.91,664.79 1995.84,663.48
             1998.08,660.12 1999.76,656.57 2000.88,652.84 Z
           M 2120.59,650.31
           C 2118.91,656.48 2116.30,662.23 2112.75,667.55
             2109.21,672.86 2105.01,677.48 2100.16,681.41
             2100.53,682.34 2100.91,683.73 2101.28,685.59
             2102.22,688.21 2103.01,690.82 2103.66,693.44
             2104.31,696.05 2105.02,698.67 2105.77,701.28
             2107.07,706.14 2108.32,710.85 2109.53,715.42
             2110.75,720.00 2112.01,724.62 2113.31,729.28
             2113.69,730.96 2114.11,732.59 2114.58,734.19
             2115.05,735.77 2115.47,737.40 2115.84,739.08
             2116.22,740.02 2116.49,741.05 2116.67,742.17
             2116.86,743.29 2117.14,744.31 2117.52,745.23
             2118.08,747.29 2118.68,749.30 2119.33,751.27
             2119.98,753.23 2120.50,755.23 2120.88,757.28
             2121.06,759.34 2119.99,760.97 2117.66,762.19
             2115.32,763.40 2113.41,764.19 2111.92,764.56
             2109.30,765.31 2106.88,765.50 2104.64,765.12
             2104.08,764.94 2103.33,764.70 2102.39,764.42
             2101.46,764.14 2100.91,763.53 2100.72,762.59
             2100.34,759.99 2099.73,757.57 2098.89,755.33
             2098.05,753.08 2097.36,750.65 2096.80,748.05
             2096.61,747.11 2096.42,746.27 2096.23,745.53
             2096.05,744.78 2095.77,743.94 2095.41,743.00
             2094.84,740.76 2094.28,738.52 2093.72,736.28
             2093.16,734.04 2092.50,731.80 2091.77,729.56
             2090.45,724.90 2089.19,720.23 2087.97,715.56
             2086.76,710.90 2085.50,706.14 2084.20,701.28
             2083.83,699.79 2083.41,698.30 2082.94,696.81
             2082.47,695.31 2082.05,693.81 2081.69,692.31
             2077.76,694.19 2073.93,695.50 2070.20,696.23
             2064.41,697.55 2058.44,698.39 2052.28,698.77
             2052.28,698.77 2052.28,709.69 2052.28,709.69
             2052.28,713.61 2052.33,717.52 2052.42,721.44
             2052.52,725.36 2052.66,729.37 2052.84,733.48
             2053.03,737.21 2053.26,740.90 2053.53,744.55
             2053.81,748.18 2053.95,751.87 2053.95,755.59
             2053.95,757.09 2053.30,758.40 2052.00,759.52
             2051.06,760.45 2049.98,761.11 2048.77,761.48
             2047.55,761.86 2046.39,762.23 2045.28,762.59
             2042.66,763.53 2040.14,763.72 2037.72,763.16
             2037.16,763.16 2036.41,762.98 2035.47,762.61
             2034.54,762.23 2034.08,761.67 2034.08,760.92
             2033.89,757.18 2033.66,753.40 2033.38,749.58
             2033.10,745.76 2032.88,741.98 2032.69,738.23
             2032.50,734.32 2032.41,730.36 2032.41,726.34
             2032.41,722.32 2032.31,718.36 2032.12,714.44
             2031.94,695.96 2032.17,677.62 2032.83,659.42
             2033.48,641.23 2034.55,622.98 2036.05,604.69
             2036.42,603.94 2036.61,603.56 2036.61,603.56
             2036.42,601.51 2037.30,599.70 2039.27,598.11
             2041.22,596.52 2043.13,595.53 2045.00,595.16
             2049.29,594.23 2053.68,593.48 2058.16,592.92
             2062.63,592.36 2067.21,592.27 2071.88,592.64
             2078.97,593.02 2085.88,594.70 2092.59,597.69
             2099.32,600.67 2105.11,604.87 2109.95,610.28
             2114.80,615.70 2118.26,621.95 2120.31,629.05
             2122.38,636.14 2122.47,643.23 2120.59,650.31 Z
           M 2099.88,652.84
           C 2101.00,648.92 2101.56,644.90 2101.56,640.80
             2101.00,636.51 2099.88,632.40 2098.20,628.48
             2095.77,624.01 2092.97,620.18 2089.80,617.00
             2086.80,614.57 2083.91,612.62 2081.12,611.12
             2079.81,610.56 2078.50,610.05 2077.19,609.58
             2075.88,609.11 2074.49,608.69 2073.00,608.31
             2072.81,608.14 2072.62,608.05 2072.44,608.05
             2072.06,608.05 2071.59,608.00 2071.03,607.91
             2070.48,607.81 2070.02,607.77 2069.64,607.77
             2067.77,607.39 2066.19,607.20 2064.88,607.20
             2064.88,607.20 2061.52,607.20 2061.52,607.20
             2060.59,607.20 2059.75,607.20 2059.00,607.20
             2058.25,607.20 2057.41,607.30 2056.48,607.48
             2056.48,607.48 2055.64,607.48 2055.64,607.48
             2054.89,617.01 2054.28,626.43 2053.81,635.77
             2053.35,645.10 2052.94,654.53 2052.56,664.05
             2052.38,667.40 2052.28,670.81 2052.28,674.27
             2052.28,677.71 2052.28,681.12 2052.28,684.48
             2054.14,684.30 2055.96,684.16 2057.73,684.06
             2059.52,683.97 2061.43,683.73 2063.48,683.36
             2063.48,683.36 2063.67,683.27 2064.05,683.08
             2064.60,683.08 2065.44,682.89 2066.56,682.52
             2068.43,682.14 2069.83,681.77 2070.77,681.41
             2071.32,681.41 2071.78,681.22 2072.16,680.84
             2072.53,680.84 2072.81,680.75 2073.00,680.56
             2073.00,680.56 2077.20,678.88 2077.20,678.88
             2077.94,678.32 2079.06,677.67 2080.56,676.92
             2080.75,676.92 2080.94,676.83 2081.12,676.64
             2081.31,676.64 2081.50,676.55 2081.69,676.36
             2082.61,675.61 2083.59,674.91 2084.61,674.27
             2085.64,673.61 2086.62,672.81 2087.56,671.88
             2087.56,671.69 2087.66,671.59 2087.84,671.59
             2088.03,671.59 2088.22,671.50 2088.41,671.31
             2088.41,670.95 2088.59,670.77 2088.95,670.77
             2089.33,670.39 2089.70,669.97 2090.08,669.50
             2090.45,669.03 2090.83,668.61 2091.20,668.23
             2092.69,666.37 2093.91,664.79 2094.84,663.48
             2097.08,660.12 2098.76,656.57 2099.88,652.84 Z
           M 2160.23,543.00
           C 2160.98,543.00 2161.96,543.00 2163.17,543.00
             2164.39,543.00 2165.28,543.34 2165.84,544.00
             2165.84,544.00 2165.84,544.56 2165.84,544.56
             2165.84,544.75 2165.75,544.93 2165.56,545.11
             2165.56,545.11 2165.56,548.20 2165.56,548.20
             2165.38,549.70 2165.19,551.19 2165.00,552.69
             2164.81,554.18 2164.62,555.67 2164.44,557.16
             2164.25,558.65 2164.11,560.14 2164.02,561.64
             2163.92,563.13 2163.78,564.62 2163.59,566.11
             2163.59,566.86 2163.59,567.70 2163.59,568.64
             2163.59,569.57 2163.41,570.31 2163.05,570.88
             2162.30,572.00 2161.55,572.66 2160.80,572.84
             2160.05,573.21 2159.36,573.53 2158.70,573.81
             2158.05,574.09 2157.34,574.42 2156.59,574.80
             2155.29,575.17 2154.03,575.55 2152.81,575.92
             2151.60,576.30 2150.25,576.57 2148.77,576.75
             2148.20,576.75 2147.22,576.80 2145.81,576.89
             2144.41,576.98 2143.53,576.57 2143.16,575.64
             2143.16,575.64 2143.16,574.80 2143.16,574.80
             2143.53,572.75 2143.81,570.60 2144.00,568.36
             2144.19,566.12 2144.38,563.98 2144.56,561.92
             2144.75,560.42 2144.89,558.93 2144.98,557.44
             2145.08,555.95 2145.22,554.45 2145.41,552.95
             2145.41,552.58 2145.45,552.16 2145.55,551.70
             2145.64,551.23 2145.69,550.81 2145.69,550.44
             2145.69,550.44 2145.69,549.88 2145.69,549.88
             2145.86,548.95 2146.09,548.30 2146.38,547.92
             2146.66,547.55 2147.27,547.08 2148.20,546.52
             2150.07,545.40 2152.02,544.61 2154.08,544.12
             2156.13,543.65 2158.18,543.27 2160.23,543.00 Z
           M 2143.44,575.00
           C 2143.44,575.00 2143.44,574.72 2143.44,574.72
             2143.44,574.72 2143.44,575.00 2143.44,575.00 Z
           M 2159.67,594.05
           C 2160.98,594.60 2161.55,595.62 2161.36,597.12
             2159.68,618.03 2158.56,639.22 2158.00,660.69
             2157.62,668.52 2157.44,676.41 2157.44,684.34
             2157.44,692.27 2157.53,700.25 2157.72,708.28
             2157.72,712.39 2157.77,716.45 2157.86,720.47
             2157.95,724.48 2158.09,728.54 2158.28,732.64
             2158.47,736.56 2158.70,740.43 2158.98,744.27
             2159.27,748.09 2159.41,751.96 2159.41,755.88
             2159.41,757.38 2158.66,758.68 2157.17,759.80
             2155.48,761.48 2153.24,762.59 2150.44,763.16
             2147.82,763.72 2145.39,763.91 2143.16,763.72
             2142.59,763.53 2141.80,763.30 2140.77,763.02
             2139.74,762.73 2139.23,762.13 2139.23,761.20
             2139.23,756.91 2139.09,752.67 2138.81,748.47
             2138.54,744.26 2138.31,740.01 2138.12,735.72
             2137.94,731.43 2137.80,727.14 2137.70,722.84
             2137.61,718.55 2137.56,714.26 2137.56,709.95
             2137.38,691.48 2137.61,673.09 2138.27,654.80
             2138.92,636.51 2139.99,618.21 2141.48,599.92
             2141.67,598.98 2142.23,598.20 2143.16,597.55
             2144.09,596.89 2144.84,596.38 2145.41,596.00
             2147.64,594.70 2150.16,593.86 2152.95,593.48
             2155.57,593.11 2157.80,593.30 2159.67,594.05 Z
           M 2248.80,592.92
           C 2249.73,592.73 2250.76,592.78 2251.88,593.06
             2253.00,593.34 2254.07,593.81 2255.09,594.47
             2256.12,595.12 2256.91,595.91 2257.47,596.84
             2258.03,597.78 2258.22,598.81 2258.05,599.92
             2257.67,602.54 2256.32,604.45 2253.98,605.67
             2251.65,606.88 2249.36,607.67 2247.12,608.05
             2239.28,609.35 2231.53,609.91 2223.88,609.72
             2216.23,609.53 2208.48,609.62 2200.64,610.00
             2199.89,618.73 2199.33,627.41 2198.95,636.05
             2198.59,644.68 2198.22,653.45 2197.84,662.36
             2197.84,662.36 2197.84,671.00 2197.84,671.00
             2206.05,670.45 2214.26,670.31 2222.47,670.59
             2230.69,670.87 2238.91,670.35 2247.12,669.05
             2249.18,668.68 2251.32,669.15 2253.56,670.45
             2255.80,671.75 2256.73,673.61 2256.36,676.03
             2255.98,678.65 2254.63,680.56 2252.30,681.78
             2249.96,682.99 2247.68,683.78 2245.44,684.16
             2237.41,685.46 2229.44,685.98 2221.50,685.70
             2213.56,685.42 2205.58,685.56 2197.56,686.11
             2197.56,686.11 2197.56,708.80 2197.56,708.80
             2197.75,712.90 2197.84,716.92 2197.84,720.84
             2197.84,724.76 2197.94,728.68 2198.12,732.59
             2198.31,735.77 2198.49,738.86 2198.67,741.84
             2198.86,744.82 2199.05,747.90 2199.23,751.08
             2199.23,751.08 2200.08,751.08 2200.08,751.08
             2200.83,751.27 2202.04,751.36 2203.72,751.36
             2203.72,751.36 2205.41,751.36 2205.41,751.36
             2207.83,751.17 2210.21,751.03 2212.55,750.94
             2214.88,750.84 2217.26,750.61 2219.69,750.23
             2224.53,749.86 2229.47,749.58 2234.52,749.39
             2239.55,749.20 2244.50,749.39 2249.36,749.95
             2250.30,750.14 2251.27,750.38 2252.30,750.66
             2253.33,750.94 2254.21,751.54 2254.95,752.47
             2256.08,753.78 2256.17,755.37 2255.23,757.23
             2253.93,759.29 2251.97,760.83 2249.36,761.86
             2246.74,762.88 2244.32,763.30 2242.08,763.11
             2240.77,762.73 2239.56,762.55 2238.44,762.55
             2237.32,762.55 2236.11,762.55 2234.80,762.55
             2234.05,762.37 2232.94,762.28 2231.44,762.28
             2231.44,762.28 2229.77,762.28 2229.77,762.28
             2227.34,762.46 2225.00,762.59 2222.77,762.69
             2220.52,762.78 2218.19,763.02 2215.77,763.39
             2210.72,763.77 2205.63,764.05 2200.50,764.23
             2195.36,764.42 2190.18,764.23 2184.95,763.67
             2184.02,763.48 2183.05,763.25 2182.02,762.97
             2180.99,762.69 2180.20,762.09 2179.64,761.16
             2178.34,759.84 2178.24,758.35 2179.36,756.67
             2179.17,753.32 2178.94,750.01 2178.66,746.73
             2178.38,743.46 2178.23,740.15 2178.23,736.80
             2178.05,732.70 2177.92,728.59 2177.83,724.48
             2177.73,720.37 2177.69,716.26 2177.69,712.16
             2177.12,677.48 2178.24,642.87 2181.05,608.33
             2180.11,607.02 2179.64,605.62 2179.64,604.12
             2180.02,601.51 2181.37,599.60 2183.70,598.39
             2186.04,597.17 2188.32,596.38 2190.56,596.00
             2200.27,594.70 2209.97,594.23 2219.67,594.61
             2229.38,594.98 2239.09,594.41 2248.80,592.92 Z
           M 2312.16,650.88
           C 2316.08,655.92 2320.33,660.87 2324.91,665.72
             2329.48,670.57 2333.82,675.52 2337.92,680.56
             2342.02,685.61 2345.71,690.93 2348.97,696.53
             2352.24,702.12 2354.44,708.28 2355.56,715.00
             2356.12,718.37 2356.45,721.82 2356.55,725.38
             2356.64,728.92 2356.22,732.37 2355.28,735.72
             2354.34,739.09 2353.13,742.26 2351.64,745.25
             2350.15,748.23 2348.19,750.93 2345.77,753.36
             2339.60,759.52 2332.22,763.16 2323.64,764.28
             2319.54,764.84 2315.52,764.66 2311.59,763.72
             2307.68,762.78 2303.95,761.38 2300.41,759.52
             2294.05,756.16 2288.59,751.69 2284.02,746.09
             2279.44,740.49 2276.13,734.32 2274.08,727.59
             2272.02,720.69 2271.28,713.73 2271.84,706.73
             2272.41,699.73 2274.08,692.97 2276.88,686.44
             2277.25,685.32 2277.99,684.39 2279.11,683.64
             2280.23,682.89 2281.27,682.33 2282.20,681.95
             2284.44,680.84 2287.05,680.28 2290.05,680.28
             2292.10,680.66 2293.82,681.50 2295.22,682.81
             2296.61,684.12 2296.85,685.89 2295.92,688.12
             2295.92,688.12 2294.23,692.31 2294.23,692.31
             2292.55,698.48 2291.81,704.45 2292.00,710.23
             2292.38,717.14 2294.05,723.49 2297.05,729.28
             2299.65,734.14 2303.01,738.52 2307.12,742.44
             2310.10,745.05 2313.37,747.20 2316.92,748.88
             2317.67,749.25 2318.79,749.62 2320.28,750.00
             2320.47,750.19 2320.70,750.28 2320.98,750.28
             2321.27,750.28 2321.50,750.38 2321.69,750.56
             2321.69,750.56 2325.05,750.56 2325.05,750.56
             2325.22,750.56 2325.41,750.47 2325.59,750.28
             2325.59,750.28 2325.88,750.28 2325.88,750.28
             2326.06,750.09 2326.25,750.00 2326.44,750.00
             2326.62,750.00 2326.81,749.91 2327.00,749.72
             2327.19,749.53 2327.38,749.39 2327.56,749.30
             2327.75,749.20 2327.94,749.06 2328.12,748.88
             2328.31,748.88 2328.59,748.69 2328.95,748.31
             2328.95,748.31 2329.52,747.77 2329.52,747.77
             2329.89,747.39 2330.22,747.02 2330.50,746.64
             2330.78,746.27 2331.11,745.89 2331.48,745.52
             2332.22,744.59 2332.83,743.57 2333.30,742.45
             2333.77,741.33 2334.28,740.11 2334.84,738.80
             2335.96,734.70 2336.42,730.50 2336.23,726.20
             2335.87,722.46 2335.17,718.78 2334.14,715.14
             2333.11,711.51 2331.85,708.01 2330.36,704.64
             2330.36,704.64 2328.69,702.12 2328.69,702.12
             2325.51,696.52 2321.77,691.34 2317.48,686.58
             2313.19,681.82 2308.89,677.11 2304.59,672.44
             2300.49,667.77 2296.48,662.96 2292.56,658.02
             2288.64,653.07 2285.66,647.61 2283.59,641.64
             2281.73,636.41 2280.84,630.86 2280.94,624.98
             2281.03,619.10 2282.48,613.73 2285.28,608.88
             2289.01,602.72 2294.14,598.05 2300.69,594.88
             2304.04,593.39 2307.72,592.23 2311.73,591.39
             2315.75,590.55 2319.63,590.40 2323.36,590.95
             2330.27,591.89 2335.68,594.60 2339.59,599.08
             2341.47,600.95 2343.01,603.00 2344.22,605.23
             2345.44,607.48 2346.51,609.81 2347.44,612.23
             2349.30,616.90 2350.66,621.57 2351.50,626.23
             2352.34,630.90 2353.13,635.66 2353.88,640.52
             2354.25,643.13 2353.50,645.19 2351.64,646.69
             2349.77,648.18 2347.82,649.20 2345.77,649.77
             2343.15,650.32 2340.63,650.32 2338.20,649.77
             2337.27,649.39 2336.38,648.88 2335.53,648.22
             2334.70,647.56 2334.19,646.77 2334.00,645.84
             2333.06,640.43 2332.08,635.02 2331.05,629.61
             2330.02,624.20 2328.30,619.06 2325.88,614.20
             2324.38,611.40 2322.71,608.98 2320.84,606.92
             2320.28,606.55 2319.25,605.98 2317.77,605.23
             2317.02,604.87 2316.45,604.69 2316.08,604.69
             2315.70,604.50 2315.33,604.41 2314.95,604.41
             2314.95,604.41 2314.41,604.41 2314.41,604.41
             2314.22,604.41 2314.03,604.45 2313.84,604.55
             2313.66,604.64 2313.47,604.69 2313.28,604.69
             2313.28,604.69 2313.00,604.69 2313.00,604.69
             2312.62,604.87 2312.25,604.95 2311.88,604.95
             2311.50,604.95 2311.13,605.05 2310.77,605.23
             2310.77,605.23 2310.48,605.23 2310.48,605.23
             2310.11,605.42 2309.88,605.56 2309.78,605.66
             2309.69,605.75 2309.45,605.89 2309.08,606.08
             2309.08,606.08 2308.80,606.08 2308.80,606.08
             2308.61,606.27 2308.42,606.41 2308.23,606.50
             2308.05,606.59 2307.86,606.73 2307.69,606.92
             2307.50,606.92 2307.41,606.97 2307.41,607.06
             2307.41,607.16 2307.31,607.20 2307.12,607.20
             2306.75,607.58 2306.56,607.77 2306.56,607.77
             2306.19,608.13 2305.91,608.45 2305.72,608.73
             2305.53,609.02 2305.25,609.34 2304.88,609.72
             2303.95,611.40 2303.20,612.98 2302.64,614.48
             2302.08,616.35 2301.70,618.12 2301.52,619.80
             2301.33,621.48 2301.23,623.25 2301.23,625.12
             2301.80,630.91 2303.29,636.23 2305.72,641.08
             2306.66,642.95 2307.63,644.67 2308.66,646.27
             2309.69,647.85 2310.85,649.39 2312.16,650.88 Z
           M 2325.59,750.56
           C 2325.59,750.56 2325.31,750.56 2325.31,750.56
             2325.31,750.56 2325.59,750.56 2325.59,750.56 Z
           M 2326.16,750.28
           C 2325.97,750.47 2325.83,750.56 2325.73,750.56
             2325.64,750.56 2325.69,750.47 2325.88,750.28
             2325.88,750.28 2325.59,750.28 2325.59,750.28
             2325.59,750.28 2326.44,750.28 2326.44,750.28
             2326.44,750.28 2326.16,750.28 2326.16,750.28 Z
           M 2326.44,750.00
           C 2326.44,750.00 2326.72,750.00 2326.72,750.00
             2326.72,750.00 2326.44,750.00 2326.44,750.00 Z" />
  <path id="Blueberry"
        fill="none" stroke="black" stroke-width="1"
        d="M 1023.00,490.00
           C 1031.74,490.09 1043.98,493.34 1051.99,496.80
             1055.14,498.17 1059.03,499.13 1061.00,502.00
             1070.94,502.32 1085.81,517.34 1091.63,525.00
             1093.54,527.52 1097.85,532.83 1097.80,536.00
             1097.75,538.58 1094.63,542.56 1093.32,545.00
             1090.64,550.01 1089.57,554.64 1088.00,560.00
             1088.00,560.00 1086.00,560.00 1086.00,560.00
             1080.18,551.71 1066.98,535.85 1059.82,529.08
             1059.82,529.08 1045.00,516.00 1045.00,516.00
             1045.00,516.00 1058.58,533.00 1058.58,533.00
             1058.58,533.00 1065.92,542.58 1065.92,542.58
             1065.92,542.58 1079.00,561.00 1079.00,561.00
             1069.78,561.75 1058.43,565.05 1052.00,572.00
             1045.52,568.20 1035.92,557.71 1035.00,550.00
             1030.77,547.25 1029.29,540.41 1027.80,535.72
             1022.92,520.35 1023.00,505.87 1023.00,490.00 Z
           M 1231.00,508.00
           C 1231.06,506.15 1230.84,505.90 1231.63,504.02
             1235.77,494.05 1243.61,503.13 1251.96,503.00
             1251.96,503.00 1251.96,507.91 1251.96,507.91
             1251.96,507.91 1238.63,527.20 1238.63,527.20
             1238.63,527.20 1216.42,556.00 1216.42,556.00
             1216.42,556.00 1204.39,569.75 1204.39,569.75
             1204.39,569.75 1189.00,575.00 1189.00,575.00
             1189.36,567.47 1188.72,564.41 1196.00,560.00
             1196.00,560.00 1195.00,558.00 1195.00,558.00
             1195.00,558.00 1219.43,523.72 1219.43,523.72
             1222.53,518.96 1226.17,510.84 1231.00,508.00 Z
           M 1120.00,532.00
           C 1122.70,528.00 1127.49,527.52 1132.00,526.87
             1141.69,525.48 1157.25,526.98 1163.00,536.00
             1172.07,537.72 1174.31,548.87 1178.00,553.00
             1177.97,557.97 1179.57,559.33 1179.89,563.99
             1180.70,575.68 1177.33,588.19 1169.00,596.71
             1166.98,598.77 1162.63,603.02 1159.71,603.35
             1156.79,603.68 1152.52,600.87 1149.59,599.95
             1143.59,598.08 1135.10,597.52 1129.00,599.00
             1126.49,584.57 1111.30,569.02 1097.00,566.00
             1098.09,553.73 1099.54,548.60 1108.27,539.34
             1112.03,535.35 1114.15,532.20 1120.00,532.00 Z
           M 1132.00,560.00
           C 1139.27,561.52 1140.36,555.88 1138.02,550.27
             1136.62,546.90 1136.54,542.97 1132.94,541.03
             1130.79,539.86 1128.35,540.19 1126.00,540.12
             1119.51,539.91 1114.34,540.84 1116.00,549.00
             1109.65,552.81 1111.41,561.76 1120.00,560.00
             1121.18,569.86 1131.55,567.67 1132.00,560.00 Z
           M 1125.00,547.00
           C 1133.44,548.18 1132.54,551.02 1133.00,558.00
             1128.47,559.91 1123.14,561.91 1121.00,556.00
             1123.76,556.51 1129.87,556.74 1128.68,552.05
             1128.33,550.68 1125.97,548.18 1125.00,547.00 Z
           M 1047.00,630.00
           C 1041.36,626.20 1040.60,612.29 1041.59,606.00
             1045.02,584.19 1061.03,570.47 1083.01,570.02
             1088.55,569.91 1097.40,570.30 1101.00,575.00
             1101.00,575.00 1116.68,585.96 1119.70,591.17
             1120.97,593.35 1123.09,597.03 1121.72,599.53
             1120.75,601.30 1116.85,602.82 1115.01,603.71
             1110.58,605.85 1109.73,606.56 1106.00,609.81
             1093.25,620.94 1086.83,635.17 1089.00,652.00
             1075.24,654.47 1064.22,651.42 1054.13,641.47
             1050.40,637.80 1047.26,635.54 1047.00,630.00 Z
           M 1179.00,597.00
           C 1185.95,590.27 1185.35,587.92 1196.08,582.44
             1210.11,575.28 1230.23,577.52 1242.00,588.11
             1246.61,592.26 1254.00,604.00 1254.00,604.00
             1254.00,604.00 1255.85,613.01 1255.85,613.01
             1256.95,619.60 1257.05,633.92 1251.00,638.00
             1250.77,646.39 1239.00,654.75 1231.99,658.05
             1229.24,659.34 1225.03,661.08 1222.00,660.17
             1219.19,659.33 1215.48,655.57 1213.00,653.68
             1209.76,651.20 1205.01,648.52 1201.29,646.81
             1197.49,645.06 1187.67,644.45 1185.59,642.40
             1183.12,639.95 1184.55,635.51 1180.76,627.91
             1180.76,627.91 1173.85,614.99 1173.85,614.99
             1172.91,610.14 1175.90,601.64 1180.00,599.00
             1180.00,599.00 1179.00,597.00 1179.00,597.00 Z
           M 1081.00,604.00
           C 1080.36,598.41 1078.64,593.52 1074.46,589.42
             1071.21,586.23 1066.58,586.15 1064.00,590.00
             1055.15,587.56 1054.25,592.75 1054.25,600.00
             1054.17,601.98 1053.62,604.10 1054.25,605.99
             1054.97,607.75 1056.37,609.26 1057.98,610.20
             1059.25,610.93 1068.68,613.77 1069.98,613.51
             1075.14,612.49 1073.18,608.73 1081.00,604.00 Z
           M 1067.00,595.00
           C 1068.66,595.10 1069.23,594.81 1070.86,595.83
             1079.66,601.38 1068.59,613.01 1063.00,605.00
             1072.74,603.42 1068.97,598.94 1067.00,595.00 Z
           M 1243.84,623.00
           C 1251.39,619.11 1247.69,613.71 1243.84,608.87
             1242.28,607.17 1241.12,605.50 1239.12,604.41
             1235.99,602.71 1229.06,605.79 1226.10,607.43
             1220.54,610.51 1221.94,614.09 1222.36,619.00
             1222.96,625.98 1224.66,631.08 1233.00,628.00
             1236.81,633.84 1244.14,630.97 1243.84,623.00 Z
           M 1098.00,664.00
           C 1097.41,658.18 1095.11,657.33 1095.00,648.00
             1094.87,636.26 1097.83,625.76 1106.17,617.09
             1123.08,599.51 1153.06,601.00 1168.76,619.29
             1175.93,627.64 1178.11,638.33 1178.00,649.00
             1177.95,653.49 1177.79,659.07 1174.00,662.00
             1173.94,669.19 1167.78,675.13 1162.42,679.20
             1147.80,690.57 1125.03,691.42 1110.59,679.20
             1106.00,675.24 1098.00,664.00 1098.00,664.00 Z
           M 1227.00,614.00
           C 1230.14,611.88 1231.20,610.66 1235.00,612.00
             1228.75,617.12 1230.25,622.40 1238.00,620.00
             1235.99,626.05 1230.48,625.18 1228.03,621.53
             1226.85,619.79 1227.20,616.22 1227.00,614.00 Z
           M 1148.00,633.00
           C 1152.84,632.70 1154.19,629.42 1152.48,625.00
             1150.46,619.80 1145.15,613.64 1139.00,614.85
             1134.83,615.67 1128.13,618.58 1127.00,623.00
             1126.30,624.97 1126.97,627.02 1127.00,629.00
             1127.65,635.50 1128.07,642.21 1137.00,638.00
             1141.53,644.62 1149.80,641.47 1148.00,633.00 Z
           M 1133.00,624.00
           C 1133.96,625.99 1134.71,628.99 1136.43,630.38
             1140.48,633.65 1142.91,630.00 1143.00,626.00
             1152.29,632.51 1133.42,642.60 1132.38,629.74
             1132.22,627.80 1132.63,625.89 1133.00,624.00 Z
           M 1046.00,641.00
           C 1052.11,649.45 1062.80,656.11 1073.00,658.33
             1076.43,659.08 1088.64,659.30 1090.21,660.75
             1091.58,662.01 1093.43,667.00 1094.44,668.99
             1100.24,680.41 1105.31,680.33 1105.48,686.01
             1105.60,690.23 1102.02,696.68 1099.72,700.17
             1092.48,711.13 1081.50,718.83 1068.00,719.00
             1051.96,719.19 1039.21,715.20 1029.90,701.00
             1019.34,684.90 1020.97,663.23 1034.24,649.20
             1037.85,645.39 1040.99,642.69 1046.00,641.00 Z
           M 1260.00,642.00
           C 1260.00,642.00 1276.91,646.56 1276.91,646.56
             1276.91,646.56 1289.00,651.00 1289.00,651.00
             1289.00,651.00 1297.89,656.39 1301.72,659.63
             1310.26,666.86 1318.12,677.49 1311.35,688.75
             1302.86,702.87 1279.96,705.98 1265.00,706.00
             1256.25,706.01 1251.52,706.28 1242.83,704.44
             1238.82,703.58 1235.63,703.32 1235.34,698.56
             1235.34,698.56 1235.34,692.00 1235.34,692.00
             1235.41,688.33 1234.65,683.64 1234.00,680.00
             1241.60,680.02 1244.83,680.99 1252.00,681.92
             1265.66,683.48 1292.16,685.65 1305.00,681.92
             1305.00,681.92 1249.00,675.87 1249.00,675.87
             1241.99,674.89 1232.83,675.52 1230.00,668.00
             1230.00,668.00 1237.00,667.00 1237.00,667.00
             1239.31,663.40 1242.94,662.40 1246.28,659.47
             1252.37,654.15 1256.46,649.27 1260.00,642.00 Z
           M 1184.00,650.00
           C 1188.68,650.45 1193.49,650.80 1198.01,652.27
             1207.21,655.27 1221.92,665.45 1222.00,676.00
             1224.82,678.18 1225.17,680.54 1225.71,684.00
             1226.76,690.77 1227.22,705.81 1221.00,710.00
             1220.82,715.06 1218.16,717.35 1214.72,720.87
             1206.56,729.19 1197.66,733.24 1186.00,733.91
             1181.01,734.19 1171.16,733.08 1168.00,729.00
             1158.27,728.67 1148.74,715.14 1145.77,706.73
             1144.82,704.04 1142.50,697.98 1144.06,695.43
             1145.20,693.57 1157.33,689.87 1160.58,687.84
             1173.19,679.95 1183.66,665.21 1184.00,650.00 Z
           M 1058.00,684.00
           C 1056.52,671.51 1048.10,678.76 1041.00,678.00
             1036.45,684.68 1036.65,682.94 1036.82,691.00
             1036.58,692.87 1036.36,694.11 1036.82,695.96
             1038.58,700.01 1047.91,704.00 1051.99,703.50
             1054.52,703.19 1056.90,701.35 1059.00,700.00
             1059.00,700.00 1058.00,696.00 1058.00,696.00
             1065.23,693.65 1065.23,686.35 1058.00,684.00 Z
           M 1046.00,683.00
           C 1046.00,683.00 1055.00,683.00 1055.00,683.00
             1056.93,689.20 1058.45,691.29 1053.00,696.00
             1053.99,686.66 1052.18,685.90 1044.00,689.00
             1044.00,689.00 1046.00,683.00 1046.00,683.00 Z
           M 1098.00,715.00
           C 1099.99,708.02 1106.14,703.30 1109.04,695.99
             1109.84,693.96 1110.80,689.65 1113.28,689.21
             1115.17,688.87 1120.79,691.55 1123.00,692.25
             1128.70,694.08 1131.19,694.00 1137.00,694.00
             1137.00,694.00 1138.00,708.00 1138.00,708.00
             1141.29,710.45 1142.33,714.45 1144.50,717.91
             1146.65,721.33 1151.20,725.37 1152.07,728.96
             1152.76,731.82 1150.77,738.02 1149.62,740.75
             1145.03,751.65 1136.09,759.82 1125.00,763.88
             1111.07,768.97 1101.68,763.64 1094.00,763.00
             1094.00,763.00 1074.90,747.25 1072.13,739.04
             1070.53,734.27 1070.02,729.99 1070.00,725.00
             1070.00,725.00 1077.00,724.00 1077.00,724.00
             1078.70,728.66 1082.11,734.50 1086.13,737.55
             1089.74,740.30 1092.84,739.19 1094.00,735.00
             1098.11,736.21 1104.09,735.20 1103.77,729.72
             1103.69,728.40 1102.56,726.23 1102.00,725.00
             1104.48,719.70 1103.08,717.55 1098.00,715.00 Z
           M 1201.00,704.00
           C 1200.30,695.37 1192.99,693.25 1189.00,701.00
             1181.86,698.05 1176.58,705.35 1183.00,711.00
             1178.88,716.88 1183.60,723.47 1191.00,720.00
             1195.72,727.77 1201.31,720.80 1204.38,716.00
             1207.60,710.97 1210.18,703.66 1201.00,704.00 Z
           M 1191.00,715.00
           C 1186.39,711.84 1183.26,706.24 1189.94,703.04
             1192.84,701.72 1195.09,702.81 1198.00,703.04
             1198.00,703.04 1199.00,708.00 1199.00,708.00
             1193.12,705.24 1192.99,705.60 1188.00,710.00
             1188.00,710.00 1191.00,715.00 1191.00,715.00 Z
           M 1233.00,713.00
           C 1233.00,713.00 1240.16,721.07 1240.16,721.07
             1247.31,730.53 1255.63,751.08 1254.68,763.00
             1254.54,764.67 1253.75,769.32 1253.17,770.83
             1248.25,783.72 1233.80,777.63 1226.00,771.59
             1220.16,767.08 1216.19,761.02 1211.00,756.00
             1211.00,756.00 1206.00,748.00 1206.00,748.00
             1205.57,745.51 1203.63,743.17 1203.99,741.09
             1204.49,738.15 1216.81,731.16 1220.00,729.00
             1220.02,735.33 1220.79,741.38 1223.19,747.28
             1226.81,756.17 1238.57,768.20 1247.00,773.00
             1247.00,773.00 1237.46,759.97 1237.46,759.97
             1232.71,753.26 1223.78,737.79 1222.26,729.99
             1221.38,725.49 1233.00,713.00 1233.00,713.00 Z
           M 1090.00,719.00
           C 1096.00,719.71 1094.92,719.49 1100.00,723.00
             1098.68,728.13 1098.72,733.13 1092.00,732.00
             1096.46,726.33 1096.46,722.16 1088.00,723.00
             1088.00,723.00 1090.00,719.00 1090.00,719.00 Z
           M 1037.00,721.00
           C 1046.01,724.14 1050.97,727.53 1061.00,728.00
             1060.57,737.04 1066.26,745.40 1066.22,748.99
             1066.19,751.83 1063.82,754.75 1062.14,756.92
             1057.90,762.38 1046.93,774.29 1040.00,775.00
             1038.05,777.96 1034.00,780.00 1034.00,780.00
             1027.99,780.43 1015.57,783.24 1015.00,774.00
             1011.27,770.66 1013.09,760.44 1014.44,756.00
             1015.30,753.17 1016.63,750.97 1017.00,748.00
             1017.00,748.00 1021.00,744.00 1021.00,744.00
             1021.75,735.30 1031.81,727.47 1037.00,721.00 Z
           M 1056.00,733.00
           C 1043.30,734.84 1030.08,748.47 1024.91,759.72
             1023.20,763.45 1020.83,771.87 1020.00,776.00
             1020.00,776.00 1031.41,760.17 1031.41,760.17
             1031.41,760.17 1056.00,733.00 1056.00,733.00 Z" />
</svg>
