<?xml version="1.0" encoding="UTF-8" standalone="no"?>
<!DOCTYPE svg PUBLIC "-//W3C//DTD SVG 20010904//EN"
              "http://www.w3.org/TR/2001/REC-SVG-20010904/DTD/svg10.dtd">

<svg xmlns="http://www.w3.org/2000/svg"
     width="9.98611in" height="9.98611in"
     viewBox="0 0 719 719">
  <path id="QRCode"
        fill="none" stroke="black" stroke-width="1"
        d="M 208.00,207.42
           C 214.89,206.58 228.38,207.21 234.00,211.43
             236.96,213.66 239.29,216.58 240.72,220.00
             244.67,229.48 244.46,252.12 236.79,259.79
             230.06,266.52 218.78,266.10 210.00,266.00
             202.02,265.90 194.65,264.32 189.22,257.98
             185.84,254.03 185.56,250.89 184.87,246.00
             183.57,236.71 183.28,222.66 189.68,215.17
             195.55,208.31 199.98,208.59 208.00,207.42 Z
           M 253.00,207.00
           C 253.00,207.00 269.00,207.00 269.00,207.00
             269.00,207.00 269.00,232.00 269.00,232.00
             269.00,232.00 253.00,232.00 253.00,232.00
             253.00,232.00 253.00,207.00 253.00,207.00 Z
           M 279.00,207.00
           C 279.00,207.00 295.00,207.00 295.00,207.00
             295.00,207.00 295.00,215.00 295.00,215.00
             295.00,215.00 286.00,215.00 286.00,215.00
             286.00,215.00 286.00,224.00 286.00,224.00
             286.00,224.00 295.00,224.00 295.00,224.00
             295.00,224.00 295.00,232.00 295.00,232.00
             295.00,232.00 286.00,232.00 286.00,232.00
             286.00,232.00 286.00,250.00 286.00,250.00
             286.00,250.00 296.00,250.00 296.00,250.00
             296.00,250.00 296.00,242.00 296.00,242.00
             296.00,242.00 303.00,242.00 303.00,242.00
             303.00,242.00 303.00,250.00 303.00,250.00
             303.00,250.00 313.00,250.00 313.00,250.00
             313.00,250.00 313.00,242.00 313.00,242.00
             313.00,242.00 321.00,242.00 321.00,242.00
             321.00,242.00 321.00,250.00 321.00,250.00
             321.00,250.00 338.00,250.00 338.00,250.00
             338.00,250.00 338.00,258.00 338.00,258.00
             338.00,258.00 329.00,258.00 329.00,258.00
             329.00,258.00 329.00,266.00 329.00,266.00
             329.00,266.00 321.00,266.00 321.00,266.00
             321.00,266.00 321.00,258.00 321.00,258.00
             321.00,258.00 312.00,258.00 312.00,258.00
             312.00,258.00 312.00,266.00 312.00,266.00
             312.00,266.00 304.00,266.00 304.00,266.00
             304.00,266.00 304.00,258.00 304.00,258.00
             304.00,258.00 295.00,258.00 295.00,258.00
             295.00,258.00 295.00,275.00 295.00,275.00
             295.00,275.00 287.00,275.00 287.00,275.00
             287.00,275.00 287.00,258.00 287.00,258.00
             287.00,258.00 279.00,258.00 279.00,258.00
             279.00,258.00 279.00,241.00 279.00,241.00
             279.00,241.00 270.00,241.00 270.00,241.00
             270.00,241.00 270.00,233.00 270.00,233.00
             270.00,233.00 279.00,233.00 279.00,233.00
             279.00,233.00 279.00,207.00 279.00,207.00 Z
           M 304.00,207.00
           C 304.00,207.00 319.40,208.02 319.40,208.02
             319.40,208.02 321.00,216.00 321.00,216.00
             321.00,216.00 321.00,232.00 321.00,232.00
             321.00,232.00 304.00,232.00 304.00,232.00
             304.00,232.00 304.00,224.00 304.00,224.00
             304.00,224.00 313.00,224.00 313.00,224.00
             313.00,224.00 313.00,215.00 313.00,215.00
             313.00,215.00 304.00,215.00 304.00,215.00
             304.00,215.00 304.00,207.00 304.00,207.00 Z
           M 364.00,207.00
           C 364.00,207.00 398.00,207.00 398.00,207.00
             398.00,207.00 398.00,232.00 398.00,232.00
             398.00,232.00 390.00,232.00 390.00,232.00
             389.86,221.54 387.34,223.00 373.00,223.00
             373.00,223.00 373.00,215.00 373.00,215.00
             373.00,215.00 364.00,215.00 364.00,215.00
             364.00,215.00 364.00,207.00 364.00,207.00 Z
           M 416.00,207.00
           C 416.00,207.00 466.00,207.00 466.00,207.00
             466.00,207.00 466.00,215.00 466.00,215.00
             466.00,215.00 440.00,215.00 440.00,215.00
             440.00,215.00 440.00,224.00 440.00,224.00
             440.00,224.00 449.00,224.00 449.00,224.00
             449.00,224.00 449.00,232.00 449.00,232.00
             449.00,232.00 433.00,232.00 433.00,232.00
             432.86,221.54 430.34,223.00 416.00,223.00
             416.00,223.00 416.00,207.00 416.00,207.00 Z
           M 499.00,207.42
           C 507.11,206.43 520.44,207.16 526.91,212.53
             535.70,219.83 535.64,234.60 534.28,245.00
             533.47,251.22 533.40,254.73 528.53,259.52
             521.34,266.61 510.34,266.11 501.00,266.00
             494.66,265.92 486.86,264.43 482.21,259.79
             475.07,252.65 475.53,236.36 476.87,227.00
             477.54,222.32 478.15,218.81 481.27,215.02
             486.69,208.44 491.33,208.58 499.00,207.42 Z
           M 205.00,215.30
           C 190.39,218.20 191.86,229.03 192.00,241.00
             192.06,245.60 192.41,249.20 195.42,252.96
             199.44,257.99 203.93,258.92 210.00,259.00
             216.61,259.08 224.43,259.78 229.91,255.43
             232.10,253.69 233.63,251.60 234.76,249.00
             236.48,244.41 236.65,229.57 234.76,225.00
             233.82,222.36 232.17,220.19 229.96,218.42
             224.29,213.89 212.02,214.60 205.00,215.30 Z
           M 496.00,215.33
           C 482.55,218.68 482.87,228.60 483.00,240.00
             483.06,245.03 483.84,249.92 487.39,253.79
             491.24,257.98 496.60,258.93 502.00,259.00
             508.72,259.08 516.25,259.79 521.84,255.20
             529.16,249.10 529.22,224.50 521.84,218.43
             516.57,214.01 502.72,214.58 496.00,215.33 Z
           M 330.00,216.00
           C 330.00,216.00 346.00,216.00 346.00,216.00
             346.00,216.00 346.00,223.00 346.00,223.00
             346.00,223.00 338.00,223.00 338.00,223.00
             338.00,223.00 338.00,232.00 338.00,232.00
             338.00,232.00 330.00,232.00 330.00,232.00
             330.00,232.00 330.00,216.00 330.00,216.00 Z
           M 356.00,216.00
           C 356.00,216.00 363.00,216.00 363.00,216.00
             363.00,216.00 363.00,223.00 363.00,223.00
             363.00,223.00 356.00,223.00 356.00,223.00
             356.00,223.00 356.00,216.00 356.00,216.00 Z
           M 347.00,224.00
           C 347.00,224.00 355.00,224.00 355.00,224.00
             355.00,224.00 355.00,233.00 355.00,233.00
             355.00,233.00 363.00,233.00 363.00,233.00
             363.00,233.00 363.00,241.00 363.00,241.00
             363.00,241.00 355.00,241.00 355.00,241.00
             355.00,241.00 355.00,250.00 355.00,250.00
             355.00,250.00 363.00,250.00 363.00,250.00
             363.00,250.00 363.00,266.00 363.00,266.00
             363.00,266.00 356.00,266.00 356.00,266.00
             356.00,266.00 356.00,258.00 356.00,258.00
             356.00,258.00 347.00,258.00 347.00,258.00
             347.00,258.00 347.00,249.00 347.00,249.00
             347.00,249.00 339.00,249.00 339.00,249.00
             339.00,249.00 339.00,233.00 339.00,233.00
             339.00,233.00 347.00,233.00 347.00,233.00
             347.00,233.00 347.00,224.00 347.00,224.00 Z
           M 364.00,224.00
           C 364.00,224.00 372.00,224.00 372.00,224.00
             372.00,224.00 372.00,232.00 372.00,232.00
             372.00,232.00 364.00,232.00 364.00,232.00
             364.00,232.00 364.00,224.00 364.00,224.00 Z
           M 407.00,224.00
           C 407.00,224.00 415.00,224.00 415.00,224.00
             415.00,224.00 415.00,232.00 415.00,232.00
             415.00,232.00 407.00,232.00 407.00,232.00
             407.00,232.00 407.00,224.00 407.00,224.00 Z
           M 459.00,224.00
           C 459.00,224.00 466.00,224.00 466.00,224.00
             466.00,224.00 466.00,266.00 466.00,266.00
             466.00,266.00 459.00,266.00 459.00,266.00
             459.00,266.00 459.00,224.00 459.00,224.00 Z
           M 207.09,225.85
           C 211.26,224.67 219.36,223.99 222.63,227.31
             225.92,230.55 226.15,243.22 222.63,246.26
             220.50,248.02 217.55,247.96 215.00,248.00
             211.39,248.04 207.08,248.45 204.31,245.69
             201.27,242.65 201.18,232.76 203.31,229.19
             204.48,227.23 205.30,226.96 207.09,225.85 Z
           M 498.06,226.02
           C 502.79,224.40 511.84,223.93 515.26,228.34
             516.80,230.32 521.87,247.73 507.00,248.00
             503.88,248.05 498.91,248.37 496.43,246.26
             493.33,243.62 493.17,232.44 495.02,229.06
             496.05,227.18 496.56,227.19 498.06,226.02 Z
           M 424.00,233.00
           C 424.00,233.00 432.00,233.00 432.00,233.00
             432.00,233.00 432.00,241.00 432.00,241.00
             432.00,241.00 424.00,241.00 424.00,241.00
             424.00,241.00 424.00,233.00 424.00,233.00 Z
           M 261.00,242.00
           C 261.00,242.00 269.00,242.00 269.00,242.00
             269.00,242.00 269.00,258.00 269.00,258.00
             269.00,258.00 261.00,258.00 261.00,258.00
             261.00,258.00 261.00,276.00 261.00,276.00
             261.00,276.00 259.98,282.40 259.98,282.40
             259.98,282.40 253.00,284.00 253.00,284.00
             253.00,284.00 253.00,250.00 253.00,250.00
             253.00,250.00 261.00,250.00 261.00,250.00
             261.00,250.00 261.00,242.00 261.00,242.00 Z
           M 373.00,242.00
           C 373.00,242.00 389.00,242.00 389.00,242.00
             389.00,242.00 389.00,249.00 389.00,249.00
             386.27,249.04 382.76,248.71 381.02,251.31
             379.79,253.16 380.00,256.81 380.00,259.00
             380.00,259.00 380.00,292.00 380.00,292.00
             380.00,292.00 373.00,292.00 373.00,292.00
             373.00,292.00 373.00,284.00 373.00,284.00
             373.00,284.00 364.00,284.00 364.00,284.00
             364.00,284.00 364.00,276.00 364.00,276.00
             364.00,276.00 373.00,276.00 373.00,276.00
             373.00,276.00 373.00,242.00 373.00,242.00 Z
           M 399.00,242.00
           C 399.00,242.00 415.00,242.00 415.00,242.00
             415.00,242.00 415.00,250.00 415.00,250.00
             415.00,250.00 432.00,250.00 432.00,250.00
             432.00,250.00 432.00,266.00 432.00,266.00
             432.00,266.00 424.00,266.00 424.00,266.00
             424.00,266.00 424.00,258.00 424.00,258.00
             424.00,258.00 415.00,258.00 415.00,258.00
             415.00,258.00 415.00,266.00 415.00,266.00
             415.00,266.00 407.00,266.00 407.00,266.00
             407.00,266.00 407.00,249.00 407.00,249.00
             407.00,249.00 399.00,249.00 399.00,249.00
             399.00,249.00 399.00,242.00 399.00,242.00 Z
           M 433.00,242.00
           C 433.00,242.00 449.00,242.00 449.00,242.00
             449.00,242.00 449.00,267.00 449.00,267.00
             449.00,267.00 458.00,267.00 458.00,267.00
             458.00,267.00 458.00,284.00 458.00,284.00
             458.00,284.00 466.00,284.00 466.00,284.00
             466.00,284.00 466.00,292.00 466.00,292.00
             466.00,292.00 441.00,292.00 441.00,292.00
             441.00,292.00 441.00,285.00 441.00,285.00
             441.00,285.00 450.00,284.00 450.00,284.00
             450.00,284.00 450.00,275.00 450.00,275.00
             450.00,275.00 442.08,273.49 442.08,273.49
             442.08,273.49 441.23,267.40 441.23,267.40
             441.23,267.40 442.00,250.00 442.00,250.00
             442.00,250.00 433.00,249.00 433.00,249.00
             433.00,249.00 433.00,242.00 433.00,242.00 Z
           M 270.00,259.00
           C 270.00,259.00 278.00,259.00 278.00,259.00
             278.00,259.00 278.00,275.00 278.00,275.00
             278.00,275.00 270.00,275.00 270.00,275.00
             270.00,275.00 270.00,259.00 270.00,259.00 Z
           M 339.00,259.00
           C 339.00,259.00 346.00,259.00 346.00,259.00
             346.00,259.00 346.00,267.00 346.00,267.00
             346.00,267.00 355.00,267.00 355.00,267.00
             355.00,267.00 355.00,275.00 355.00,275.00
             355.00,275.00 346.00,275.00 346.00,275.00
             346.00,275.00 346.00,284.00 346.00,284.00
             346.00,284.00 363.00,284.00 363.00,284.00
             363.00,284.00 363.00,292.00 363.00,292.00
             363.00,292.00 346.00,292.00 346.00,292.00
             346.00,292.00 346.00,301.00 346.00,301.00
             346.00,301.00 339.00,301.00 339.00,301.00
             339.00,301.00 339.00,259.00 339.00,259.00 Z
           M 390.00,259.00
           C 390.00,259.00 398.00,259.00 398.00,259.00
             398.00,259.00 398.00,267.00 398.00,267.00
             398.00,267.00 406.00,267.00 406.00,267.00
             406.00,267.00 406.00,276.00 406.00,276.00
             406.00,276.00 416.00,276.00 416.00,276.00
             416.00,276.00 416.00,267.00 416.00,267.00
             416.00,267.00 423.00,267.00 423.00,267.00
             423.00,267.00 423.00,284.00 423.00,284.00
             423.00,284.00 398.00,284.00 398.00,284.00
             398.00,284.00 398.00,292.00 398.00,292.00
             398.00,292.00 390.00,292.00 390.00,292.00
             390.00,292.00 390.00,259.00 390.00,259.00 Z
           M 313.00,267.00
           C 313.00,267.00 321.00,267.00 321.00,267.00
             321.00,270.29 321.88,281.02 319.40,282.98
             317.81,284.24 313.99,283.99 312.00,284.00
             312.00,284.00 312.00,292.00 312.00,292.00
             312.00,292.00 304.00,292.00 304.00,292.00
             304.00,292.00 304.00,284.00 304.00,284.00
             304.00,284.00 296.00,284.00 296.00,284.00
             296.00,284.00 296.00,276.00 296.00,276.00
             296.00,276.00 313.00,276.00 313.00,276.00
             313.00,276.00 313.00,267.00 313.00,267.00 Z
           M 201.00,276.00
           C 201.00,276.00 226.00,276.00 226.00,276.00
             226.00,276.00 226.00,284.00 226.00,284.00
             226.00,284.00 235.00,284.00 235.00,284.00
             235.00,284.00 235.00,292.00 235.00,292.00
             235.00,292.00 219.00,292.00 219.00,292.00
             219.00,292.00 219.00,284.00 219.00,284.00
             219.00,284.00 201.00,284.00 201.00,284.00
             201.00,284.00 201.00,276.00 201.00,276.00 Z
           M 236.00,276.00
           C 236.00,276.00 243.00,276.00 243.00,276.00
             243.00,276.00 243.00,284.00 243.00,284.00
             243.00,284.00 236.00,284.00 236.00,284.00
             236.00,284.00 236.00,276.00 236.00,276.00 Z
           M 433.00,276.00
           C 433.00,276.00 440.00,276.00 440.00,276.00
             440.00,276.00 440.00,284.00 440.00,284.00
             440.00,284.00 433.00,284.00 433.00,284.00
             433.00,284.00 433.00,276.00 433.00,276.00 Z
           M 467.00,276.00
           C 467.00,276.00 492.00,276.00 492.00,276.00
             492.00,276.00 492.00,284.00 492.00,284.00
             492.00,284.00 509.00,284.00 509.00,284.00
             509.00,284.00 509.00,293.00 509.00,293.00
             509.00,293.00 518.00,293.00 518.00,293.00
             518.00,293.00 518.00,301.00 518.00,301.00
             518.00,301.00 509.00,301.00 509.00,301.00
             509.00,301.00 509.00,309.00 509.00,309.00
             509.00,309.00 501.00,309.00 501.00,309.00
             501.00,309.00 501.00,292.00 501.00,292.00
             501.00,292.00 492.00,292.00 492.00,292.00
             492.00,292.00 492.00,319.00 492.00,319.00
             492.00,319.00 509.00,319.00 509.00,319.00
             509.00,319.00 509.00,335.00 509.00,335.00
             509.00,335.00 501.00,335.00 501.00,335.00
             501.00,335.00 501.00,326.00 501.00,326.00
             501.00,326.00 492.00,326.00 492.00,326.00
             492.00,326.00 492.00,352.00 492.00,352.00
             492.00,352.00 484.00,352.00 484.00,352.00
             484.00,352.00 484.00,344.00 484.00,344.00
             484.00,344.00 467.00,344.00 467.00,344.00
             467.00,344.00 467.00,335.00 467.00,335.00
             467.00,335.00 459.00,335.00 459.00,335.00
             459.00,335.00 459.00,327.00 459.00,327.00
             459.00,327.00 467.00,327.00 467.00,327.00
             467.00,327.00 467.00,319.00 467.00,319.00
             467.00,319.00 484.00,319.00 484.00,319.00
             484.00,319.00 484.00,309.00 484.00,309.00
             484.00,309.00 476.00,309.00 476.00,309.00
             476.00,309.00 476.00,302.00 476.00,302.00
             476.00,302.00 484.00,302.00 484.00,302.00
             484.00,302.00 484.00,292.00 484.00,292.00
             484.00,292.00 476.00,292.00 476.00,292.00
             476.00,292.00 476.00,284.00 476.00,284.00
             476.00,284.00 467.00,284.00 467.00,284.00
             467.00,284.00 467.00,276.00 467.00,276.00 Z
           M 510.00,276.00
           C 510.00,276.00 535.00,276.00 535.00,276.00
             535.00,276.00 535.00,292.00 535.00,292.00
             535.00,292.00 519.00,292.00 519.00,292.00
             519.00,292.00 519.00,284.00 519.00,284.00
             519.00,284.00 510.00,284.00 510.00,284.00
             510.00,284.00 510.00,276.00 510.00,276.00 Z
           M 184.00,284.00
           C 184.00,284.00 200.00,284.00 200.00,284.00
             200.00,284.00 200.00,292.00 200.00,292.00
             200.00,292.00 192.00,292.00 192.00,292.00
             192.00,292.00 192.00,309.00 192.00,309.00
             192.00,309.00 184.00,309.00 184.00,309.00
             184.00,309.00 184.00,284.00 184.00,284.00 Z
           M 270.00,284.00
           C 270.00,284.00 278.00,284.00 278.00,284.00
             278.00,284.00 278.00,292.00 278.00,292.00
             278.00,292.00 270.00,292.00 270.00,292.00
             270.00,292.00 270.00,284.00 270.00,284.00 Z
           M 424.00,284.00
           C 424.00,284.00 432.00,284.00 432.00,284.00
             432.00,284.00 432.00,292.00 432.00,292.00
             432.00,292.00 424.00,292.00 424.00,292.00
             424.00,292.00 424.00,284.00 424.00,284.00 Z
           M 236.00,293.00
           C 236.00,293.00 252.00,293.00 252.00,293.00
             252.00,293.00 252.00,302.00 252.00,302.00
             252.00,302.00 261.00,302.00 261.00,302.00
             261.00,302.00 261.00,309.00 261.00,309.00
             261.00,309.00 244.00,309.00 244.00,309.00
             244.00,309.00 244.00,301.00 244.00,301.00
             244.00,301.00 236.00,301.00 236.00,301.00
             236.00,301.00 236.00,293.00 236.00,293.00 Z
           M 261.00,293.00
           C 261.00,293.00 269.00,293.00 269.00,293.00
             269.00,293.00 269.00,301.00 269.00,301.00
             269.00,301.00 261.00,301.00 261.00,301.00
             261.00,301.00 261.00,293.00 261.00,293.00 Z
           M 279.00,293.00
           C 279.00,293.00 286.00,293.00 286.00,293.00
             286.00,293.00 286.00,301.00 286.00,301.00
             286.00,301.00 279.00,301.00 279.00,301.00
             279.00,301.00 279.00,293.00 279.00,293.00 Z
           M 296.00,293.00
           C 296.00,293.00 303.00,293.00 303.00,293.00
             303.00,293.00 303.00,301.00 303.00,301.00
             303.00,301.00 296.00,301.00 296.00,301.00
             296.00,301.00 296.00,293.00 296.00,293.00 Z
           M 382.00,293.00
           C 382.00,293.00 389.00,293.00 389.00,293.00
             389.00,293.00 389.00,302.00 389.00,302.00
             389.00,302.00 398.00,302.00 398.00,302.00
             398.00,302.00 398.00,310.00 398.00,310.00
             398.00,310.00 415.00,310.00 415.00,310.00
             415.00,310.00 415.00,319.00 415.00,319.00
             415.00,319.00 433.00,319.00 433.00,319.00
             433.00,319.00 433.00,310.00 433.00,310.00
             433.00,310.00 441.00,310.00 441.00,310.00
             441.53,302.75 441.06,302.10 449.00,302.00
             449.00,302.00 449.00,318.00 449.00,318.00
             449.00,318.00 440.00,318.00 440.00,318.00
             440.00,318.00 440.00,326.00 440.00,326.00
             440.00,326.00 415.00,326.00 415.00,326.00
             415.00,326.00 415.00,335.00 415.00,335.00
             415.00,335.00 407.00,335.00 407.00,335.00
             407.00,335.00 407.00,318.00 407.00,318.00
             407.00,318.00 390.00,318.00 390.00,318.00
             390.00,318.00 390.00,309.00 390.00,309.00
             381.70,309.03 380.11,309.23 380.00,318.00
             380.00,318.00 363.00,318.00 363.00,318.00
             363.00,318.00 363.00,326.00 363.00,326.00
             363.00,326.00 347.00,326.00 347.00,326.00
             347.00,326.00 347.00,302.00 347.00,302.00
             347.00,302.00 355.00,302.00 355.00,302.00
             355.00,302.00 355.00,310.00 355.00,310.00
             355.00,310.00 364.00,310.00 364.00,310.00
             364.00,310.00 364.00,302.00 364.00,302.00
             379.57,302.00 381.86,303.47 382.00,293.00 Z
           M 399.00,293.00
           C 399.00,293.00 423.00,293.00 423.00,293.00
             423.00,293.00 423.00,309.00 423.00,309.00
             423.00,309.00 416.00,309.00 416.00,309.00
             416.00,309.00 416.00,301.00 416.00,301.00
             416.00,301.00 399.00,301.00 399.00,301.00
             399.00,301.00 399.00,293.00 399.00,293.00 Z
           M 467.00,293.00
           C 467.00,293.00 475.00,293.00 475.00,293.00
             475.00,293.00 475.00,301.00 475.00,301.00
             475.00,301.00 467.00,301.00 467.00,301.00
             467.00,301.00 467.00,293.00 467.00,293.00 Z
           M 201.00,302.00
           C 201.00,302.00 209.00,302.00 209.00,302.00
             209.00,302.00 209.00,309.00 209.00,309.00
             209.00,309.00 201.00,309.00 201.00,309.00
             201.00,309.00 201.00,302.00 201.00,302.00 Z
           M 287.00,302.00
           C 287.00,302.00 295.00,302.00 295.00,302.00
             295.00,302.00 295.00,310.00 295.00,310.00
             295.00,310.00 303.00,310.00 303.00,310.00
             303.00,310.00 303.00,326.00 303.00,326.00
             303.00,326.00 270.00,326.00 270.00,326.00
             270.00,326.00 270.00,319.00 270.00,319.00
             270.00,319.00 287.00,319.00 287.00,319.00
             287.00,319.00 287.00,302.00 287.00,302.00 Z
           M 321.00,302.00
           C 321.00,302.00 338.00,302.00 338.00,302.00
             338.00,302.00 338.00,318.00 338.00,318.00
             338.00,318.00 329.00,318.00 329.00,318.00
             329.00,318.00 329.00,335.00 329.00,335.00
             329.00,335.00 304.00,335.00 304.00,335.00
             304.00,335.00 304.00,327.00 304.00,327.00
             304.00,327.00 313.00,327.00 313.00,327.00
             313.00,327.00 313.00,319.00 313.00,319.00
             313.00,319.00 321.00,319.00 321.00,319.00
             321.00,319.00 321.00,302.00 321.00,302.00 Z
           M 459.00,302.00
           C 459.00,302.00 466.00,302.00 466.00,302.00
             466.00,302.00 466.00,309.00 466.00,309.00
             466.00,309.00 459.00,309.00 459.00,309.00
             459.00,309.00 459.00,302.00 459.00,302.00 Z
           M 519.00,302.00
           C 519.00,302.00 535.00,302.00 535.00,302.00
             535.00,302.00 535.00,326.00 535.00,326.00
             535.00,326.00 527.00,326.00 527.00,326.00
             527.00,326.00 527.00,318.00 527.00,318.00
             527.00,318.00 519.00,318.00 519.00,318.00
             519.00,318.00 519.00,302.00 519.00,302.00 Z
           M 193.00,310.00
           C 193.00,310.00 200.00,310.00 200.00,310.00
             200.00,310.00 200.00,318.00 200.00,318.00
             200.00,318.00 193.00,318.00 193.00,318.00
             193.00,318.00 193.00,310.00 193.00,310.00 Z
           M 210.00,310.00
           C 210.00,310.00 226.00,310.00 226.00,310.00
             226.00,310.00 226.00,318.00 226.00,318.00
             226.00,318.00 210.00,318.00 210.00,318.00
             210.00,318.00 210.00,310.00 210.00,310.00 Z
           M 236.00,310.00
           C 236.00,310.00 243.00,310.00 243.00,310.00
             243.00,310.00 243.00,318.00 243.00,318.00
             243.00,318.00 236.00,318.00 236.00,318.00
             236.00,318.00 236.00,310.00 236.00,310.00 Z
           M 227.00,319.00
           C 227.00,319.00 235.00,319.00 235.00,319.00
             235.00,319.00 235.00,326.00 235.00,326.00
             235.00,326.00 227.00,326.00 227.00,326.00
             227.00,326.00 227.00,319.00 227.00,319.00 Z
           M 184.00,327.00
           C 184.00,327.00 209.00,327.00 209.00,327.00
             209.00,327.00 209.00,336.00 209.00,336.00
             209.00,336.00 218.00,336.00 218.00,336.00
             218.00,336.00 218.00,344.00 218.00,344.00
             218.00,344.00 192.00,344.00 192.00,344.00
             192.00,344.00 185.02,342.40 185.02,342.40
             185.02,342.40 184.00,327.00 184.00,327.00 Z
           M 219.00,327.00
           C 219.00,327.00 226.00,327.00 226.00,327.00
             226.00,327.00 226.00,335.00 226.00,335.00
             226.00,335.00 219.00,335.00 219.00,335.00
             219.00,335.00 219.00,327.00 219.00,327.00 Z
           M 236.00,327.00
           C 236.00,327.00 261.00,327.00 261.00,327.00
             261.00,327.00 261.00,353.00 261.00,353.00
             261.00,353.00 259.40,359.98 259.40,359.98
             259.40,359.98 244.00,361.00 244.00,361.00
             244.00,361.00 244.00,353.00 244.00,353.00
             244.00,353.00 253.00,353.00 253.00,353.00
             253.00,353.00 253.00,335.00 253.00,335.00
             253.00,335.00 236.00,335.00 236.00,335.00
             236.00,335.00 236.00,327.00 236.00,327.00 Z
           M 339.00,327.00
           C 339.00,327.00 346.00,327.00 346.00,327.00
             346.00,327.00 346.00,336.00 346.00,336.00
             346.00,336.00 339.00,337.00 339.00,337.00
             339.00,337.00 339.00,327.00 339.00,327.00 Z
           M 373.00,327.00
           C 373.00,327.00 380.00,327.00 380.00,327.00
             380.00,327.00 380.00,335.00 380.00,335.00
             380.00,335.00 373.00,335.00 373.00,335.00
             373.00,335.00 373.00,327.00 373.00,327.00 Z
           M 390.00,327.00
           C 390.00,327.00 398.00,327.00 398.00,327.00
             398.00,329.96 398.56,340.45 396.98,342.40
             393.51,346.68 383.89,339.24 382.00,336.00
             382.00,336.00 390.00,336.00 390.00,336.00
             390.00,336.00 390.00,327.00 390.00,327.00 Z
           M 441.00,327.00
           C 441.00,327.00 449.00,327.00 449.00,327.00
             449.00,327.00 449.00,336.00 449.00,336.00
             449.00,336.00 458.00,336.00 458.00,336.00
             458.00,336.00 458.00,344.00 458.00,344.00
             458.00,344.00 466.00,344.00 466.00,344.00
             466.00,344.00 466.00,361.00 466.00,361.00
             466.00,361.00 450.00,361.00 450.00,361.00
             450.00,361.00 450.00,352.00 450.00,352.00
             450.00,352.00 424.00,352.00 424.00,352.00
             424.00,352.00 424.00,336.00 424.00,336.00
             424.00,336.00 432.00,336.00 432.00,336.00
             432.00,336.00 432.00,344.00 432.00,344.00
             432.00,344.00 442.00,343.00 442.00,343.00
             442.00,343.00 441.00,327.00 441.00,327.00 Z
           M 519.00,327.00
           C 519.00,327.00 526.00,327.00 526.00,327.00
             526.00,327.00 526.00,353.00 526.00,353.00
             526.00,353.00 535.00,353.00 535.00,353.00
             535.00,353.00 535.00,361.00 535.00,361.00
             535.00,361.00 518.00,361.00 518.00,361.00
             518.00,361.00 518.00,369.00 518.00,369.00
             518.00,369.00 510.00,369.00 510.00,369.00
             510.00,369.00 510.00,344.00 510.00,344.00
             510.00,344.00 519.00,344.00 519.00,344.00
             519.00,344.00 519.00,327.00 519.00,327.00 Z
           M 279.00,336.00
           C 279.00,336.00 286.00,336.00 286.00,336.00
             286.00,336.00 286.00,352.00 286.00,352.00
             286.00,352.00 278.00,352.00 278.00,352.00
             277.97,359.80 278.14,360.89 270.00,361.00
             270.00,361.00 270.00,344.00 270.00,344.00
             270.00,344.00 279.00,344.00 279.00,344.00
             279.00,344.00 279.00,336.00 279.00,336.00 Z
           M 354.00,342.42
           C 365.25,341.05 381.78,343.56 389.90,352.04
             396.15,358.58 397.25,365.47 398.16,374.00
             399.55,386.94 399.05,403.24 388.96,412.90
             381.66,419.88 367.84,422.34 358.00,421.96
             348.08,421.58 336.49,420.02 329.04,412.90
             315.71,400.14 315.70,363.86 329.04,351.10
             336.53,343.95 344.57,343.77 354.00,342.42 Z
           M 227.00,344.00
           C 227.00,344.00 243.00,344.00 243.00,344.00
             243.00,344.00 243.00,352.00 243.00,352.00
             243.00,352.00 227.00,352.00 227.00,352.00
             227.00,352.00 227.00,344.00 227.00,344.00 Z
           M 296.00,344.00
           C 296.00,344.00 325.00,344.00 325.00,344.00
             316.01,358.17 312.06,359.40 312.00,378.00
             312.00,378.00 304.00,378.00 304.00,378.00
             304.00,378.00 304.00,369.00 304.00,369.00
             304.00,369.00 295.00,369.00 295.00,369.00
             295.00,369.00 295.00,379.00 295.00,379.00
             295.00,379.00 303.00,379.00 303.00,379.00
             303.00,379.00 303.00,387.00 303.00,387.00
             303.00,387.00 312.00,387.00 312.00,387.00
             312.00,387.00 313.44,401.00 313.44,401.00
             313.44,401.00 312.00,412.00 312.00,412.00
             312.00,412.00 295.00,412.00 295.00,412.00
             295.00,412.00 295.00,421.00 295.00,421.00
             295.00,421.00 286.00,421.00 286.00,421.00
             286.00,421.00 286.00,438.00 286.00,438.00
             286.00,438.00 279.00,438.00 279.00,438.00
             279.00,438.00 279.00,421.00 279.00,421.00
             275.61,421.00 264.00,421.90 262.02,419.40
             260.84,417.91 261.02,414.83 261.00,413.00
             261.00,413.00 287.00,413.00 287.00,413.00
             287.00,413.00 287.00,405.00 287.00,405.00
             295.77,404.89 295.97,403.30 296.00,395.00
             296.00,395.00 287.00,395.00 287.00,395.00
             287.00,395.00 287.00,386.00 287.00,386.00
             287.00,386.00 261.00,386.00 261.00,386.00
             261.00,386.00 261.00,395.00 261.00,395.00
             261.00,395.00 244.00,395.00 244.00,395.00
             244.00,395.00 244.00,386.00 244.00,386.00
             244.00,386.00 235.00,386.00 235.00,386.00
             235.00,386.00 235.00,396.00 235.00,396.00
             235.00,396.00 243.00,396.00 243.00,396.00
             243.00,396.00 243.00,403.00 243.00,403.00
             243.00,403.00 227.00,403.00 227.00,403.00
             227.00,403.00 227.00,386.00 227.00,386.00
             227.00,386.00 218.00,386.00 218.00,386.00
             218.00,386.00 218.00,395.00 218.00,395.00
             218.00,395.00 210.00,395.00 210.00,395.00
             210.00,395.00 210.00,386.00 210.00,386.00
             210.00,386.00 201.00,386.00 201.00,386.00
             201.00,386.00 201.00,369.00 201.00,369.00
             201.00,369.00 193.00,369.00 193.00,369.00
             193.00,369.00 193.00,362.00 193.00,362.00
             193.00,362.00 201.00,362.00 201.00,362.00
             201.00,362.00 201.00,353.00 201.00,353.00
             201.00,353.00 218.00,353.00 218.00,353.00
             218.00,353.00 218.00,361.00 218.00,361.00
             218.00,361.00 209.00,361.00 209.00,361.00
             209.00,361.00 209.00,370.00 209.00,370.00
             209.00,370.00 226.00,370.00 226.00,370.00
             226.00,370.00 226.00,379.00 226.00,379.00
             226.00,379.00 244.00,379.00 244.00,379.00
             244.00,379.00 244.00,370.00 244.00,370.00
             244.00,370.00 252.00,370.00 252.00,370.00
             252.00,370.00 252.00,379.00 252.00,379.00
             252.00,379.00 270.00,379.00 270.00,379.00
             270.00,379.00 270.00,370.00 270.00,370.00
             270.00,370.00 278.00,370.00 278.00,370.00
             278.00,370.00 278.00,379.00 278.00,379.00
             278.00,379.00 287.00,379.00 287.00,379.00
             287.00,379.00 287.00,369.00 287.00,369.00
             287.00,369.00 279.00,369.00 279.00,369.00
             279.00,369.00 279.00,362.00 279.00,362.00
             279.00,362.00 287.00,362.00 287.00,362.00
             287.00,362.00 287.00,353.00 287.00,353.00
             287.00,353.00 295.00,353.00 295.00,353.00
             295.00,353.00 295.00,362.00 295.00,362.00
             295.00,362.00 304.00,362.00 304.00,362.00
             304.00,362.00 304.00,352.00 304.00,352.00
             304.00,352.00 296.00,352.00 296.00,352.00
             296.00,352.00 296.00,344.00 296.00,344.00 Z
           M 399.00,344.00
           C 399.00,344.00 415.00,344.00 415.00,344.00
             415.00,344.00 415.00,362.00 415.00,362.00
             415.00,362.00 432.00,362.00 432.00,362.00
             432.00,362.00 432.00,369.00 432.00,369.00
             432.00,369.00 415.00,369.00 415.00,369.00
             415.00,369.00 415.00,378.00 415.00,378.00
             415.00,378.00 407.00,378.00 407.00,378.00
             406.95,364.08 399.04,357.06 399.00,344.00 Z
           M 492.93,353.00
           C 492.93,353.00 500.00,353.00 500.00,353.00
             500.00,353.00 500.00,369.00 500.00,369.00
             500.00,369.00 484.00,369.00 484.00,369.00
             484.00,369.00 484.00,362.00 484.00,362.00
             488.37,361.94 492.00,362.29 492.93,356.98
             492.93,356.98 492.93,353.00 492.93,353.00 Z
           M 236.00,362.00
           C 236.00,362.00 243.00,362.00 243.00,362.00
             243.00,362.00 243.00,369.00 243.00,369.00
             243.00,369.00 236.00,369.00 236.00,369.00
             236.00,369.00 236.00,362.00 236.00,362.00 Z
           M 441.00,369.00
           C 441.60,362.33 441.76,362.09 449.00,362.00
             449.00,362.00 449.00,369.00 449.00,369.00
             449.00,369.00 441.00,369.00 441.00,369.00 Z
           M 355.00,364.29
           C 349.01,365.28 342.92,366.91 338.06,370.79
             335.72,372.65 333.04,377.57 338.06,377.84
             340.24,377.96 343.97,375.01 346.00,373.90
             350.15,371.64 356.25,369.74 361.00,370.31
             365.06,370.80 369.52,372.43 373.00,374.55
             375.04,375.80 378.27,378.65 380.81,377.70
             386.40,375.61 379.10,370.11 377.00,368.88
             370.24,364.94 362.72,363.56 355.00,364.29 Z
           M 184.00,370.00
           C 184.00,370.00 192.00,370.00 192.00,370.00
             192.00,370.00 192.00,386.00 192.00,386.00
             192.00,386.00 184.00,386.00 184.00,386.00
             184.00,386.00 184.00,370.00 184.00,370.00 Z
           M 450.00,370.00
           C 450.00,370.00 466.00,370.00 466.00,370.00
             466.00,370.00 466.00,386.00 466.00,386.00
             466.00,386.00 458.00,386.00 458.00,386.00
             458.00,386.00 458.00,395.00 458.00,395.00
             458.00,395.00 450.00,395.00 450.00,395.00
             450.00,395.00 450.00,386.00 450.00,386.00
             450.00,386.00 441.00,386.00 441.00,386.00
             441.00,386.00 441.00,379.00 441.00,379.00
             441.00,379.00 450.00,379.00 450.00,379.00
             450.00,379.00 450.00,370.00 450.00,370.00 Z
           M 519.00,370.00
           C 519.00,370.00 526.00,370.00 526.00,370.00
             526.00,370.00 526.00,378.00 526.00,378.00
             526.00,378.00 519.00,378.00 519.00,378.00
             519.00,378.00 519.00,370.00 519.00,370.00 Z
           M 354.00,374.33
           C 350.69,375.12 345.64,376.73 343.37,379.39
             341.03,382.12 342.59,384.69 345.06,384.85
             348.24,385.05 352.39,379.86 360.00,380.53
             367.82,381.21 370.57,385.81 373.84,384.68
             378.49,383.07 374.17,378.70 371.98,377.36
             366.26,373.87 360.46,373.61 354.00,374.33 Z
           M 416.00,379.00
           C 416.00,379.00 423.00,379.00 423.00,379.00
             423.00,379.00 423.00,387.00 423.00,387.00
             423.00,387.00 432.00,387.00 432.00,387.00
             432.00,387.00 432.00,395.00 432.00,395.00
             432.00,395.00 423.00,395.00 423.00,395.00
             423.00,395.00 423.00,421.00 423.00,421.00
             423.00,421.00 415.00,421.00 415.00,421.00
             415.00,421.00 415.00,429.00 415.00,429.00
             415.00,429.00 406.00,429.00 406.00,429.00
             406.00,429.00 406.00,439.00 406.00,439.00
             406.00,439.00 415.00,439.00 415.00,439.00
             415.00,439.00 415.00,447.00 415.00,447.00
             415.00,447.00 424.00,447.00 424.00,447.00
             424.00,447.00 424.00,438.00 424.00,438.00
             424.00,438.00 416.00,438.00 416.00,438.00
             416.00,438.00 416.00,430.00 416.00,430.00
             416.00,430.00 424.00,430.00 424.00,430.00
             424.00,430.00 424.00,422.00 424.00,422.00
             431.73,421.90 432.90,420.73 433.00,413.00
             433.00,413.00 449.00,413.00 449.00,413.00
             449.00,413.00 449.00,439.00 449.00,439.00
             449.00,439.00 458.00,439.00 458.00,439.00
             458.00,439.00 458.00,447.00 458.00,447.00
             458.00,447.00 475.00,447.00 475.00,447.00
             475.00,447.00 475.00,455.00 475.00,455.00
             475.00,455.00 458.00,455.00 458.00,455.00
             458.00,455.00 458.00,463.00 458.00,463.00
             458.00,463.00 450.00,463.00 450.00,463.00
             450.00,463.00 450.00,446.00 450.00,446.00
             450.00,446.00 441.00,446.00 441.00,446.00
             441.00,446.00 441.00,438.00 441.00,438.00
             441.00,438.00 432.00,438.00 432.00,438.00
             432.00,438.00 432.00,455.00 432.00,455.00
             432.00,455.00 423.00,455.00 423.00,455.00
             423.00,455.00 423.00,464.00 423.00,464.00
             423.00,464.00 431.00,464.00 431.00,464.00
             431.00,464.00 432.00,472.00 432.00,472.00
             432.00,472.00 423.00,472.00 423.00,472.00
             423.01,474.54 422.67,478.47 424.60,480.40
             426.39,482.19 429.65,481.98 432.00,482.00
             448.09,482.11 449.87,483.13 450.00,473.00
             450.00,473.00 458.00,473.00 458.00,473.00
             458.00,473.00 458.00,482.00 458.00,482.00
             473.57,482.00 475.86,483.47 476.00,473.00
             476.00,473.00 483.00,473.00 483.00,473.00
             483.14,483.46 485.66,482.00 500.00,482.00
             500.00,482.00 500.00,507.00 500.00,507.00
             500.00,507.00 509.00,507.00 509.00,507.00
             509.00,507.00 509.00,515.00 509.00,515.00
             509.00,515.00 500.00,515.00 500.00,515.00
             500.00,530.57 498.53,532.86 509.00,533.00
             509.00,533.00 509.00,549.00 509.00,549.00
             509.00,549.00 501.00,549.00 501.00,549.00
             501.00,549.00 501.00,541.00 501.00,541.00
             501.00,541.00 476.00,541.00 476.00,541.00
             476.00,541.00 476.00,533.00 476.00,533.00
             476.00,533.00 493.00,533.00 493.00,533.00
             492.99,530.81 493.21,527.17 491.98,525.31
             489.68,521.86 478.96,523.00 475.00,523.00
             475.00,523.00 475.00,532.00 475.00,532.00
             475.00,532.00 467.00,532.00 467.00,532.00
             467.00,532.00 467.00,523.00 467.00,523.00
             467.00,523.00 459.00,523.00 459.00,523.00
             459.00,523.00 457.40,516.60 457.40,516.60
             457.40,516.60 449.00,515.00 449.00,515.00
             449.00,515.00 433.00,515.00 433.00,515.00
             433.00,515.00 433.00,506.00 433.00,506.00
             427.66,506.02 423.64,505.40 423.03,512.00
             423.03,512.00 423.03,516.00 423.03,516.00
             423.03,516.00 432.00,516.00 432.00,516.00
             432.00,516.00 432.00,558.00 432.00,558.00
             432.00,558.00 407.00,558.00 407.00,558.00
             407.00,558.00 407.00,550.00 407.00,550.00
             407.00,550.00 424.00,550.00 424.00,550.00
             424.00,550.00 424.00,541.00 424.00,541.00
             424.00,541.00 398.00,541.00 398.00,541.00
             398.00,541.00 398.00,558.00 398.00,558.00
             398.00,558.00 373.00,558.00 373.00,558.00
             373.00,558.00 373.00,549.00 373.00,549.00
             373.00,549.00 364.00,549.00 364.00,549.00
             364.00,549.00 364.00,541.00 364.00,541.00
             364.00,541.00 347.00,541.00 347.00,541.00
             347.00,541.00 347.00,524.00 347.00,524.00
             347.00,524.00 363.00,524.00 363.00,524.00
             363.00,524.00 363.00,533.00 363.00,533.00
             363.00,533.00 373.00,533.00 373.00,533.00
             372.97,524.70 372.77,523.11 364.00,523.00
             364.00,523.00 364.00,516.00 364.00,516.00
             364.00,516.00 380.00,516.00 380.00,516.00
             380.00,516.00 380.00,524.00 380.00,524.00
             383.39,524.00 395.00,523.10 396.98,525.60
             398.24,527.19 397.99,531.01 398.00,533.00
             398.00,533.00 416.00,533.00 416.00,533.00
             416.00,533.00 416.00,499.00 416.00,499.00
             416.00,499.00 433.00,499.00 433.00,499.00
             433.00,499.00 433.00,489.00 433.00,489.00
             433.00,489.00 416.00,489.00 416.00,489.00
             416.00,489.00 416.00,472.00 416.00,472.00
             416.00,472.00 406.00,472.00 406.00,472.00
             406.00,472.00 406.00,481.00 406.00,481.00
             406.00,481.00 398.00,481.00 398.00,481.00
             398.00,481.00 398.00,490.00 398.00,490.00
             398.00,490.00 406.00,490.00 406.00,490.00
             406.00,490.00 406.00,498.00 406.00,498.00
             406.00,498.00 398.00,498.00 398.00,498.00
             398.00,498.00 398.00,507.00 398.00,507.00
             398.00,507.00 406.00,507.00 406.00,507.00
             406.00,507.00 406.00,515.00 406.00,515.00
             406.00,515.00 390.00,515.00 390.00,515.00
             390.00,515.00 390.00,489.00 390.00,489.00
             387.81,489.01 384.17,488.79 382.31,490.02
             378.90,492.30 380.00,502.14 380.00,506.00
             380.00,506.00 373.00,506.00 373.00,506.00
             373.00,506.00 373.00,481.00 373.00,481.00
             373.00,481.00 364.00,481.00 364.00,481.00
             364.00,481.00 364.00,472.00 364.00,472.00
             364.00,472.00 339.00,472.00 339.00,472.00
             339.00,472.00 340.00,464.00 340.00,464.00
             340.00,464.00 347.00,464.00 347.00,464.00
             347.00,464.00 347.00,456.00 347.00,456.00
             347.00,456.00 356.00,456.00 356.00,456.00
             356.00,456.00 356.00,447.00 356.00,447.00
             356.00,447.00 363.00,447.00 363.00,447.00
             363.00,450.33 362.34,460.91 364.28,463.17
             365.59,464.71 369.96,464.28 371.97,464.16
             371.97,464.16 389.00,464.16 389.00,464.16
             389.00,464.16 389.00,473.00 389.00,473.00
             391.57,472.99 395.45,473.33 397.40,471.40
             400.19,468.65 397.68,464.72 403.26,464.33
             413.37,463.61 415.95,467.16 416.00,455.00
             416.00,455.00 407.00,455.00 407.00,455.00
             407.00,455.00 407.00,446.00 407.00,446.00
             407.00,446.00 399.00,446.00 399.00,446.00
             399.00,446.00 399.00,438.00 399.00,438.00
             399.00,438.00 382.00,438.00 382.00,438.00
             382.00,438.00 382.00,430.00 382.00,430.00
             382.00,430.00 399.00,430.00 399.00,430.00
             399.00,430.00 399.00,422.00 399.00,422.00
             399.00,422.00 407.00,422.00 407.00,422.00
             407.00,422.00 407.00,413.00 407.00,413.00
             407.00,413.00 416.00,413.00 416.00,413.00
             415.96,402.25 413.98,403.00 404.00,403.00
             404.00,403.00 407.00,387.00 407.00,387.00
             407.00,387.00 416.00,387.00 416.00,387.00
             416.00,387.00 416.00,379.00 416.00,379.00 Z
           M 484.00,379.00
           C 484.00,379.00 492.00,379.00 492.00,379.00
             492.00,379.00 492.00,387.00 492.00,387.00
             492.00,387.00 501.00,387.00 501.00,387.00
             501.00,387.00 501.00,379.00 501.00,379.00
             501.00,379.00 518.00,379.00 518.00,379.00
             518.00,379.00 518.00,386.00 518.00,386.00
             518.00,386.00 509.00,386.00 509.00,386.00
             509.00,386.00 509.00,395.00 509.00,395.00
             509.00,395.00 500.00,395.00 500.00,395.00
             500.00,395.00 500.00,403.00 500.00,403.00
             500.00,403.00 493.00,403.00 493.00,403.00
             493.00,403.00 493.00,395.00 493.00,395.00
             493.00,395.00 476.00,395.00 476.00,395.00
             476.00,395.00 476.00,387.00 476.00,387.00
             476.00,387.00 484.00,387.00 484.00,387.00
             484.00,387.00 484.00,379.00 484.00,379.00 Z
           M 354.00,384.43
           C 351.27,385.55 345.95,389.62 351.16,391.72
             353.48,392.65 356.00,390.67 359.00,390.67
             362.01,390.67 364.50,392.65 366.84,391.72
             369.17,390.79 370.06,387.75 365.94,385.45
             362.48,383.52 357.77,383.85 354.00,384.43 Z
           M 358.13,393.74
           C 353.14,396.89 356.53,400.32 359.79,399.65
             362.89,399.01 364.01,393.99 358.13,393.74 Z
           M 193.00,396.00
           C 193.00,396.00 209.07,396.00 209.07,396.00
             209.07,396.00 209.07,399.98 209.07,399.98
             210.00,405.29 213.63,404.94 218.00,405.00
             218.00,405.00 218.00,421.00 218.00,421.00
             218.00,421.00 201.00,421.00 201.00,421.00
             201.00,421.00 201.00,412.00 201.00,412.00
             201.00,412.00 184.00,412.00 184.00,412.00
             184.00,412.00 184.00,405.00 184.00,405.00
             191.49,404.90 192.90,403.49 193.00,396.00 Z
           M 459.00,396.00
           C 459.00,396.00 475.00,396.00 475.00,396.00
             475.14,406.46 477.66,405.00 492.00,405.00
             492.00,405.00 492.00,412.00 492.00,412.00
             492.00,412.00 466.00,412.00 466.00,412.00
             466.00,412.00 467.60,420.40 467.60,420.40
             467.60,420.40 474.00,422.00 474.00,422.00
             474.00,422.00 500.00,422.00 500.00,422.00
             500.00,422.00 500.00,429.00 500.00,429.00
             500.00,429.00 492.00,429.00 492.00,429.00
             492.00,429.00 492.00,438.00 492.00,438.00
             492.00,438.00 484.00,438.00 484.00,438.00
             484.00,438.00 484.00,429.00 484.00,429.00
             484.00,429.00 459.00,429.00 459.00,429.00
             459.00,429.00 459.00,396.00 459.00,396.00 Z
           M 510.00,396.00
           C 510.00,396.00 518.00,396.00 518.00,396.00
             518.00,396.00 518.00,403.00 518.00,403.00
             518.00,403.00 510.00,403.00 510.00,403.00
             510.00,403.00 510.00,396.00 510.00,396.00 Z
           M 244.00,405.00
           C 244.00,405.00 252.00,405.00 252.00,405.00
             252.00,405.00 252.00,412.00 252.00,412.00
             252.00,412.00 244.00,412.00 244.00,412.00
             244.00,412.00 244.00,405.00 244.00,405.00 Z
           M 501.00,405.00
           C 501.00,405.00 509.00,405.00 509.00,405.00
             509.00,405.00 509.00,412.00 509.00,412.00
             509.00,412.00 501.00,412.00 501.00,412.00
             501.00,412.00 501.00,405.00 501.00,405.00 Z
           M 519.00,405.00
           C 519.00,405.00 526.00,405.00 526.00,405.00
             526.00,405.00 526.00,412.00 526.00,412.00
             526.00,412.00 519.00,412.00 519.00,412.00
             519.00,412.00 519.00,405.00 519.00,405.00 Z
           M 227.00,413.00
           C 227.00,413.00 243.00,413.00 243.00,413.00
             243.00,413.00 243.00,421.00 243.00,421.00
             243.00,421.00 227.00,421.00 227.00,421.00
             227.00,421.00 227.00,413.00 227.00,413.00 Z
           M 313.00,413.00
           C 319.98,413.09 322.59,414.61 326.00,421.00
             326.00,421.00 313.00,421.00 313.00,421.00
             313.00,421.00 313.00,413.00 313.00,413.00 Z
           M 510.00,413.00
           C 510.00,413.00 518.00,413.00 518.00,413.00
             518.00,413.00 518.00,429.00 518.00,429.00
             518.00,429.00 510.00,429.00 510.00,429.00
             510.00,429.00 510.00,413.00 510.00,413.00 Z
           M 193.00,422.00
           C 193.00,422.00 200.00,422.00 200.00,422.00
             200.00,422.00 200.00,429.00 200.00,429.00
             200.00,429.00 193.00,429.00 193.00,429.00
             193.00,429.00 193.00,422.00 193.00,422.00 Z
           M 296.00,422.00
           C 296.00,422.00 312.00,422.00 312.00,422.00
             312.00,422.00 312.00,439.00 312.00,439.00
             312.00,439.00 321.00,439.00 321.00,439.00
             321.00,439.00 321.00,430.00 321.00,430.00
             321.00,430.00 329.00,430.00 329.00,430.00
             329.00,430.00 329.00,439.00 329.00,439.00
             331.19,438.99 334.84,439.21 336.69,437.98
             338.91,436.49 342.30,429.16 330.00,429.00
             330.00,429.00 330.00,423.00 330.00,423.00
             336.63,425.85 338.52,427.37 346.00,428.00
             346.00,428.00 346.00,439.00 346.00,439.00
             346.00,439.00 355.00,439.00 355.00,439.00
             355.00,439.00 355.00,446.00 355.00,446.00
             355.00,446.00 338.00,446.00 338.00,446.00
             338.00,446.00 338.00,463.00 338.00,463.00
             338.00,463.00 330.00,463.00 330.00,463.00
             330.00,463.00 330.00,455.00 330.00,455.00
             330.00,455.00 321.00,455.00 321.00,455.00
             321.00,455.00 321.00,446.00 321.00,446.00
             321.00,446.00 312.00,446.00 312.00,446.00
             312.00,446.00 312.00,455.00 312.00,455.00
             312.00,455.00 304.00,455.00 304.00,455.00
             304.00,455.00 304.00,446.00 304.00,446.00
             304.00,446.00 287.00,446.00 287.00,446.00
             287.00,446.00 287.00,439.00 287.00,439.00
             287.00,439.00 296.00,439.00 296.00,439.00
             296.00,439.00 296.00,422.00 296.00,422.00 Z
           M 527.00,422.00
           C 527.00,422.00 535.00,422.00 535.00,422.00
             535.00,422.00 535.00,429.00 535.00,429.00
             535.00,429.00 527.00,429.00 527.00,429.00
             527.00,429.00 527.00,422.00 527.00,422.00 Z
           M 373.00,428.00
           C 373.00,428.00 380.00,427.00 380.00,427.00
             377.74,429.52 375.99,429.18 373.00,428.00 Z
           M 356.00,428.00
           C 356.00,428.00 363.00,429.00 363.00,429.00
             363.00,429.00 356.00,428.00 356.00,428.00 Z
           M 219.00,430.00
           C 219.00,430.00 252.00,430.00 252.00,430.00
             252.00,430.00 252.00,439.00 252.00,439.00
             252.00,439.00 269.00,439.00 269.00,439.00
             269.00,439.00 269.00,446.00 269.00,446.00
             269.00,446.00 244.00,446.00 244.00,446.00
             244.00,446.00 244.00,438.00 244.00,438.00
             244.00,438.00 235.00,438.00 235.00,438.00
             235.00,438.00 235.00,447.00 235.00,447.00
             235.00,447.00 243.00,447.00 243.00,447.00
             243.00,447.00 243.00,455.00 243.00,455.00
             243.00,455.00 227.00,455.00 227.00,455.00
             227.00,455.00 227.00,438.00 227.00,438.00
             227.00,438.00 219.00,438.00 219.00,438.00
             219.00,438.00 219.00,430.00 219.00,430.00 Z
           M 364.00,430.00
           C 364.00,430.00 372.00,430.00 372.00,430.00
             372.00,430.00 372.00,439.00 372.00,439.00
             372.00,439.00 380.00,439.00 380.00,439.00
             380.00,439.00 380.00,446.00 380.00,446.00
             380.00,446.00 364.00,446.00 364.00,446.00
             364.00,446.00 364.00,430.00 364.00,430.00 Z
           M 501.00,430.00
           C 501.00,430.00 509.00,430.00 509.00,430.00
             509.00,430.00 509.00,446.00 509.00,446.00
             509.00,446.00 493.00,446.00 493.00,446.00
             493.00,446.00 493.00,439.00 493.00,439.00
             493.00,439.00 501.00,439.00 501.00,439.00
             501.00,439.00 501.00,430.00 501.00,430.00 Z
           M 519.00,430.00
           C 519.00,430.00 526.00,430.00 526.00,430.00
             526.00,430.00 526.00,447.00 526.00,447.00
             526.00,447.00 535.00,447.00 535.00,447.00
             535.00,447.00 535.00,455.00 535.00,455.00
             535.00,455.00 519.00,455.00 519.00,455.00
             519.00,455.00 519.00,430.00 519.00,430.00 Z
           M 184.00,439.00
           C 184.00,439.00 209.00,439.00 209.00,439.00
             209.00,439.00 209.00,456.00 209.00,456.00
             209.00,456.00 226.00,456.00 226.00,456.00
             226.00,456.00 227.00,465.00 227.00,465.00
             227.00,465.00 243.00,464.00 243.00,464.00
             243.00,464.00 243.00,472.00 243.00,472.00
             243.00,472.00 235.00,472.00 235.00,472.00
             235.00,472.00 235.00,481.00 235.00,481.00
             235.00,481.00 219.00,481.00 219.00,481.00
             219.00,477.74 219.55,467.66 217.98,465.31
             216.49,463.09 209.16,459.70 209.00,472.00
             209.00,472.00 201.00,472.00 201.00,472.00
             201.00,472.00 201.00,455.00 201.00,455.00
             201.00,455.00 192.00,455.00 192.00,455.00
             192.00,455.00 192.00,489.00 192.00,489.00
             192.00,489.00 184.00,489.00 184.00,489.00
             184.00,489.00 184.00,439.00 184.00,439.00 Z
           M 270.00,447.00
           C 270.00,447.00 286.00,447.00 286.00,447.00
             286.00,447.00 286.00,455.00 286.00,455.00
             286.00,455.00 270.00,455.00 270.00,455.00
             270.00,455.00 270.00,447.00 270.00,447.00 Z
           M 390.00,447.00
           C 390.00,447.00 398.00,447.00 398.00,447.00
             398.00,447.00 398.00,463.00 398.00,463.00
             398.00,463.00 390.00,463.00 390.00,463.00
             390.00,463.00 390.00,447.00 390.00,447.00 Z
           M 244.00,456.00
           C 244.00,456.00 261.00,456.00 261.00,456.00
             261.00,456.00 261.00,463.00 261.00,463.00
             261.00,463.00 244.00,463.00 244.00,463.00
             244.00,463.00 244.00,456.00 244.00,456.00 Z
           M 287.00,456.00
           C 287.00,456.00 303.00,456.00 303.00,456.00
             303.00,456.00 303.00,463.00 303.00,463.00
             303.00,463.00 295.00,463.00 295.00,463.00
             295.00,463.00 295.00,489.00 295.00,489.00
             295.00,489.00 287.00,489.00 287.00,489.00
             287.00,489.00 287.00,456.00 287.00,456.00 Z
           M 433.00,456.00
           C 433.00,456.00 440.00,456.00 440.00,456.00
             440.00,456.00 440.00,463.00 440.00,463.00
             440.00,463.00 433.00,463.00 433.00,463.00
             433.00,463.00 433.00,456.00 433.00,456.00 Z
           M 476.00,456.00
           C 476.00,456.00 500.00,456.00 500.00,456.00
             500.00,456.00 500.00,472.00 500.00,472.00
             500.00,472.00 493.00,472.00 493.00,472.00
             492.86,461.54 490.34,463.00 476.00,463.00
             476.00,463.00 476.00,456.00 476.00,456.00 Z
           M 270.00,464.00
           C 270.00,464.00 277.00,464.00 277.00,464.00
             277.00,464.00 278.00,472.00 278.00,472.00
             278.00,472.00 270.00,472.00 270.00,472.00
             270.00,472.00 270.00,464.00 270.00,464.00 Z
           M 313.00,464.00
           C 320.77,464.88 320.97,464.24 321.00,473.00
             321.00,473.00 329.00,473.00 329.00,473.00
             329.00,473.00 329.00,481.00 329.00,481.00
             329.00,481.00 304.00,481.00 304.00,481.00
             304.00,481.00 304.00,473.00 304.00,473.00
             304.00,473.00 313.00,473.00 313.00,473.00
             313.00,473.00 313.00,464.00 313.00,464.00 Z
           M 442.00,464.00
           C 442.00,464.00 449.00,464.00 449.00,464.00
             449.00,464.00 449.00,472.00 449.00,472.00
             449.00,472.00 441.00,472.00 441.00,472.00
             441.00,472.00 441.00,465.00 441.00,465.00
             441.00,465.00 442.00,464.00 442.00,464.00 Z
           M 460.00,464.00
           C 460.00,464.00 475.00,464.00 475.00,464.00
             475.00,464.00 475.00,472.00 475.00,472.00
             475.00,472.00 459.00,472.00 459.00,472.00
             459.00,472.00 460.00,464.00 460.00,464.00 Z
           M 244.00,473.00
           C 244.00,473.00 269.00,473.00 269.00,473.00
             269.00,473.00 269.00,481.00 269.00,481.00
             269.00,481.00 244.00,481.00 244.00,481.00
             244.00,481.00 244.00,473.00 244.00,473.00 Z
           M 501.00,473.00
           C 501.00,473.00 509.00,473.00 509.00,473.00
             509.00,473.00 509.00,481.00 509.00,481.00
             509.00,481.00 501.00,481.00 501.00,481.00
             501.00,481.00 501.00,473.00 501.00,473.00 Z
           M 527.00,473.00
           C 527.00,473.00 535.00,473.00 535.00,473.00
             535.00,473.00 535.00,498.00 535.00,498.00
             535.00,498.00 527.00,498.00 527.00,498.00
             527.00,498.00 527.00,489.00 527.00,489.00
             527.00,489.00 519.00,489.00 519.00,489.00
             519.00,489.00 519.00,482.00 519.00,482.00
             519.00,482.00 527.00,482.00 527.00,482.00
             527.00,482.00 527.00,473.00 527.00,473.00 Z
           M 210.00,482.00
           C 210.00,482.00 218.00,482.00 218.00,482.00
             218.00,482.00 218.00,489.00 218.00,489.00
             218.00,489.00 210.00,489.00 210.00,489.00
             210.00,489.00 210.00,482.00 210.00,482.00 Z
           M 236.00,482.00
           C 236.00,482.00 243.00,482.00 243.00,482.00
             243.00,482.00 243.00,489.00 243.00,489.00
             243.00,489.00 236.00,489.00 236.00,489.00
             236.00,489.00 236.00,482.00 236.00,482.00 Z
           M 330.00,482.00
           C 330.00,482.00 363.00,482.00 363.00,482.00
             363.00,482.00 363.00,489.00 363.00,489.00
             363.00,489.00 355.00,489.00 355.00,489.00
             355.00,489.00 355.00,498.00 355.00,498.00
             355.00,498.00 339.00,498.00 339.00,498.00
             338.90,490.27 337.73,489.10 330.00,489.00
             330.00,489.00 330.00,482.00 330.00,482.00 Z
           M 450.00,498.93
           C 450.00,498.93 454.94,498.93 454.94,498.93
             460.10,497.98 459.33,492.31 457.98,490.60
             456.10,488.22 442.90,488.22 441.02,490.60
             439.42,492.62 440.00,503.90 440.00,507.00
             440.00,507.00 450.00,507.00 450.00,507.00
             450.00,507.00 450.00,498.93 450.00,498.93 Z
           M 493.00,489.00
           C 493.00,489.00 466.00,489.00 466.00,489.00
             466.00,489.00 466.00,516.00 466.00,516.00
             466.00,516.00 493.00,516.00 493.00,516.00
             493.00,516.00 493.00,489.00 493.00,489.00 Z
           M 253.00,490.00
           C 253.00,490.00 261.00,490.00 261.00,490.00
             261.00,490.00 261.00,498.00 261.00,498.00
             261.00,498.00 253.00,498.00 253.00,498.00
             253.00,498.00 253.00,490.00 253.00,490.00 Z
           M 304.00,490.00
           C 304.00,490.00 312.00,490.00 312.00,490.00
             312.00,490.00 312.00,499.00 312.00,499.00
             312.00,499.00 321.00,499.00 321.00,499.00
             321.00,499.00 321.00,506.00 321.00,506.00
             321.00,506.00 312.00,506.00 312.00,506.00
             312.00,506.00 312.00,523.00 312.00,523.00
             304.27,523.10 303.10,524.27 303.00,532.00
             303.00,532.00 295.00,532.00 295.00,532.00
             295.00,532.00 295.00,542.00 295.00,542.00
             295.00,542.00 303.00,542.00 303.00,542.00
             303.00,542.00 303.00,550.00 303.00,550.00
             303.00,550.00 312.00,550.00 312.00,550.00
             312.00,550.00 312.00,558.00 312.00,558.00
             312.00,558.00 287.00,558.00 287.00,558.00
             287.00,558.00 287.00,532.00 287.00,532.00
             287.00,532.00 261.00,532.00 261.00,532.00
             261.00,532.00 261.00,541.00 261.00,541.00
             261.00,541.00 253.00,541.00 253.00,541.00
             253.00,541.00 253.00,516.00 253.00,516.00
             253.00,516.00 261.00,516.00 261.00,516.00
             261.00,516.00 261.00,507.00 261.00,507.00
             261.00,507.00 270.00,507.00 270.00,507.00
             270.00,507.00 270.00,499.00 270.00,499.00
             270.00,499.00 278.00,499.00 278.00,499.00
             278.00,499.00 278.00,507.00 278.00,507.00
             278.00,507.00 295.00,507.00 295.00,507.00
             295.00,507.00 295.00,515.00 295.00,515.00
             295.00,515.00 269.00,515.00 269.00,515.00
             269.00,515.00 269.00,524.00 269.00,524.00
             269.00,524.00 296.00,524.00 296.00,524.00
             296.00,524.00 296.00,516.00 296.00,516.00
             296.00,516.00 304.00,516.00 304.00,516.00
             304.00,516.00 304.00,506.00 304.00,506.00
             304.00,506.00 296.00,506.00 296.00,506.00
             296.00,506.00 296.00,499.00 296.00,499.00
             296.00,499.00 304.00,499.00 304.00,499.00
             304.00,499.00 304.00,490.00 304.00,490.00 Z
           M 207.00,499.42
           C 216.42,498.27 232.21,498.75 238.35,507.04
             243.20,513.58 243.01,522.30 243.00,530.00
             242.98,541.98 239.93,554.74 226.00,556.83
             215.27,558.45 198.38,559.39 190.33,550.82
             183.29,543.32 183.52,528.60 184.87,519.00
             185.56,514.11 185.84,510.97 189.22,507.02
             194.62,500.71 199.47,500.56 207.00,499.42 Z
           M 356.00,499.00
           C 356.00,499.00 363.00,499.00 363.00,499.00
             363.00,499.00 363.00,506.00 363.00,506.00
             363.00,506.00 356.00,506.00 356.00,506.00
             356.00,506.00 356.00,499.00 356.00,499.00 Z
           M 476.00,499.00
           C 476.00,499.00 483.00,499.00 483.00,499.00
             483.00,499.00 483.00,506.00 483.00,506.00
             483.00,506.00 476.00,506.00 476.00,506.00
             476.00,506.00 476.00,499.00 476.00,499.00 Z
           M 510.00,499.00
           C 510.00,499.00 518.00,499.00 518.00,499.00
             518.00,499.00 518.00,506.00 518.00,506.00
             518.00,506.00 510.00,506.00 510.00,506.00
             510.00,506.00 510.00,499.00 510.00,499.00 Z
           M 206.00,506.30
           C 190.95,509.29 191.86,519.69 192.00,532.00
             192.06,536.46 192.46,541.31 195.43,544.89
             199.13,549.35 204.59,549.93 210.00,550.00
             216.57,550.07 225.37,550.87 230.67,546.35
             238.55,539.65 238.16,516.05 229.90,509.65
             224.01,505.08 213.13,505.59 206.00,506.30 Z
           M 330.00,507.00
           C 330.00,507.00 338.00,507.00 338.00,507.00
             338.00,507.00 338.00,549.00 338.00,549.00
             338.00,549.00 321.00,549.00 321.00,549.00
             321.00,549.00 321.00,542.00 321.00,542.00
             329.77,541.89 329.97,540.30 330.00,532.00
             330.00,532.00 321.00,532.00 321.00,532.00
             321.00,532.00 321.00,516.00 321.00,516.00
             321.00,516.00 330.00,516.00 330.00,516.00
             330.00,516.00 330.00,507.00 330.00,507.00 Z
           M 347.00,507.00
           C 347.00,507.00 355.00,507.00 355.00,507.00
             355.00,507.00 355.00,515.00 355.00,515.00
             355.00,515.00 347.00,515.00 347.00,515.00
             347.00,515.00 347.00,507.00 347.00,507.00 Z
           M 510.00,516.00
           C 510.00,516.00 535.00,516.00 535.00,516.00
             535.00,516.00 535.00,532.00 535.00,532.00
             535.00,532.00 527.00,532.00 527.00,532.00
             527.00,532.00 527.00,523.00 527.00,523.00
             527.00,523.00 510.00,523.00 510.00,523.00
             510.00,523.00 510.00,516.00 510.00,516.00 Z
           M 206.06,518.02
           C 209.82,516.73 219.35,516.00 222.57,518.74
             226.84,522.37 225.99,536.21 220.94,538.98
             217.40,540.92 207.37,540.51 204.43,537.57
             201.49,534.63 201.08,524.60 203.02,521.06
             204.05,519.18 204.56,519.19 206.06,518.02 Z
           M 441.00,525.00
           C 441.00,525.00 458.00,524.00 458.00,524.00
             458.00,524.00 458.00,532.00 458.00,532.00
             458.00,532.00 449.00,532.00 449.00,532.00
             449.00,532.00 449.00,549.00 449.00,549.00
             449.00,549.00 441.00,549.00 441.00,549.00
             441.00,549.00 441.00,525.00 441.00,525.00 Z
           M 390.00,532.00
           C 387.86,532.00 383.27,531.70 381.60,533.02
             379.26,534.87 379.26,547.13 381.60,548.98
             383.27,550.30 387.86,550.00 390.00,550.00
             390.00,550.00 390.00,532.00 390.00,532.00 Z
           M 304.00,533.00
           C 304.00,533.00 321.00,533.00 321.00,533.00
             321.00,533.00 321.00,541.00 321.00,541.00
             321.00,541.00 304.00,541.00 304.00,541.00
             304.00,541.00 304.00,533.00 304.00,533.00 Z
           M 459.00,533.00
           C 459.00,533.00 466.00,533.00 466.00,533.00
             466.06,537.37 465.71,541.00 471.02,541.93
             471.02,541.93 475.00,541.93 475.00,541.93
             475.00,541.93 475.00,549.00 475.00,549.00
             475.00,549.00 459.00,549.00 459.00,549.00
             459.00,549.00 459.00,533.00 459.00,533.00 Z
           M 519.00,533.00
           C 519.00,533.00 526.00,533.00 526.00,533.00
             526.00,533.00 526.00,549.00 526.00,549.00
             526.00,549.00 519.00,549.00 519.00,549.00
             519.00,549.00 519.00,533.00 519.00,533.00 Z
           M 261.00,542.00
           C 261.00,542.00 269.00,542.00 269.00,542.00
             269.00,542.00 269.00,549.00 269.00,549.00
             269.00,549.00 261.00,549.00 261.00,549.00
             261.00,549.00 261.00,542.00 261.00,542.00 Z
           M 270.00,550.00
           C 270.00,550.00 278.00,550.00 278.00,550.00
             278.00,550.00 278.00,558.00 278.00,558.00
             278.00,558.00 270.00,558.00 270.00,558.00
             270.00,558.00 270.00,550.00 270.00,550.00 Z
           M 339.00,550.00
           C 339.00,550.00 346.00,550.00 346.00,550.00
             346.00,550.00 346.00,558.00 346.00,558.00
             346.00,558.00 339.00,558.00 339.00,558.00
             339.00,558.00 339.00,550.00 339.00,550.00 Z
           M 356.00,550.00
           C 356.00,550.00 363.00,550.00 363.00,550.00
             363.00,550.00 363.00,558.00 363.00,558.00
             363.00,558.00 356.00,558.00 356.00,558.00
             356.00,558.00 356.00,550.00 356.00,550.00 Z
           M 450.00,550.00
           C 450.00,550.00 458.00,550.00 458.00,550.00
             458.00,550.00 458.00,558.00 458.00,558.00
             458.00,558.00 450.00,558.00 450.00,558.00
             450.00,558.00 450.00,550.00 450.00,550.00 Z
           M 476.00,550.00
           C 476.00,550.00 500.00,550.00 500.00,550.00
             500.00,550.00 500.00,558.00 500.00,558.00
             500.00,558.00 476.00,558.00 476.00,558.00
             476.00,558.00 476.00,550.00 476.00,550.00 Z
           M 510.00,550.00
           C 510.00,550.00 518.00,550.00 518.00,550.00
             518.00,550.00 518.00,558.00 518.00,558.00
             518.00,558.00 510.00,558.00 510.00,558.00
             510.00,558.00 510.00,550.00 510.00,550.00 Z" />
</svg>
