<?xml version="1.0" encoding="UTF-8" standalone="no"?>
<!DOCTYPE svg PUBLIC "-//W3C//DTD SVG 20010904//EN"
              "http://www.w3.org/TR/2001/REC-SVG-20010904/DTD/svg10.dtd">

<svg xmlns="http://www.w3.org/2000/svg"
     width="1.875in" height="2.53906in"
     viewBox="0 0 240 325">
  <path id="Raspberry"
        fill="none" stroke="black" stroke-width="1"
        d="M 118.21,74.00
           C 115.13,66.33 116.70,61.80 118.21,54.00
             121.72,39.04 128.46,22.72 140.04,12.28
             144.79,8.00 150.13,4.37 156.00,1.70
             158.20,0.83 161.07,-0.46 163.07,1.70
             165.07,3.69 166.77,10.68 164.42,12.93
             164.42,12.93 156.00,17.60 156.00,17.60
             151.33,20.72 144.90,26.77 141.18,31.00
             129.63,44.13 126.64,58.57 120.00,74.00
             120.00,74.00 118.21,74.00 118.21,74.00 Z
           M 30.88,18.00
           C 37.16,24.64 35.33,28.71 49.00,35.74
             69.56,46.31 97.32,42.62 112.45,66.00
             116.17,71.74 117.15,75.66 119.00,82.00
             113.27,83.89 108.40,84.34 103.00,87.61
             100.27,89.26 95.03,94.11 93.00,94.71
             90.33,95.50 87.43,93.47 85.00,92.46
             80.36,90.55 77.03,89.84 72.00,90.04
             64.72,90.33 60.76,93.08 57.00,93.34
             54.16,93.53 45.58,91.35 42.00,90.75
             28.21,88.43 10.68,87.18 3.68,73.00
             0.42,66.40 1.00,57.22 1.00,50.00
             6.87,53.63 7.29,62.13 18.00,66.52
             26.23,69.89 41.80,68.99 51.00,69.00
             62.17,69.02 68.65,71.55 79.00,75.00
             65.28,59.32 44.99,60.43 34.53,42.00
             32.36,38.17 31.47,34.28 30.88,30.00
             29.88,24.76 29.73,23.21 30.88,18.00 Z
           M 206.00,18.00
           C 208.56,23.03 207.75,25.68 207.00,31.00
             203.66,54.62 184.52,56.47 168.00,67.24
             164.11,69.78 162.24,71.79 159.00,75.00
             168.51,71.34 176.73,69.02 187.00,69.00
             196.09,68.99 210.72,69.81 219.00,66.89
             230.49,62.84 231.55,53.50 237.00,50.00
             237.00,58.66 237.91,68.32 232.88,75.91
             225.44,87.15 207.29,89.01 195.00,91.08
             195.00,91.08 181.00,93.62 181.00,93.62
             175.84,93.43 172.93,89.64 163.00,90.04
             152.95,90.44 149.00,95.23 145.00,94.27
             142.53,93.68 138.49,89.74 136.00,88.11
             131.07,84.88 125.81,83.49 120.00,83.00
             120.25,77.84 120.94,75.74 123.04,71.00
             135.83,42.09 170.02,46.67 191.00,34.83
             199.47,30.05 201.41,25.98 206.00,18.00 Z
           M 159.00,75.00
           C 159.00,75.00 158.00,75.00 158.00,75.00
             158.00,75.00 159.00,76.00 159.00,76.00
             159.00,76.00 159.00,75.00 159.00,75.00 Z
           M 112.00,85.52
           C 118.33,84.51 125.01,84.63 131.00,87.09
             160.24,99.10 158.09,148.14 125.00,155.18
             103.60,159.74 87.09,141.39 87.00,121.00
             86.93,103.95 94.74,90.17 112.00,85.52 Z
           M 66.00,92.53
           C 71.82,91.58 79.54,91.49 85.00,93.88
             86.87,94.70 89.66,95.99 90.13,98.21
             90.54,100.17 88.10,104.85 87.36,107.00
             85.43,112.63 84.88,116.06 85.01,122.00
             85.18,129.02 87.36,135.08 91.06,141.00
             92.63,143.50 97.27,148.24 96.55,151.02
             95.46,155.27 86.06,160.27 82.00,161.39
             47.27,171.00 27.71,125.05 51.09,101.04
             55.32,96.70 60.26,94.22 66.00,92.53 Z
           M 140.00,149.00
           C 150.52,141.10 154.95,125.66 152.54,113.00
             151.80,109.12 147.26,99.53 148.23,97.22
             150.29,92.31 161.51,91.95 166.00,92.00
             173.37,92.09 178.03,94.12 183.82,98.72
             203.00,113.97 200.54,146.97 179.00,158.82
             167.12,165.35 145.30,163.28 140.00,149.00 Z
           M 14.00,161.00
           C 9.57,155.83 5.74,150.70 3.93,144.00
             -0.50,127.64 6.32,106.64 23.00,100.06
             32.12,96.55 38.94,97.96 48.00,100.06
             48.00,100.06 40.77,116.00 40.77,116.00
             37.17,127.68 39.53,132.08 42.00,143.00
             42.00,143.00 28.00,148.11 28.00,148.11
             28.00,148.11 14.00,161.00 14.00,161.00 Z
           M 184.00,157.00
           C 195.56,147.96 200.21,133.28 197.53,119.00
             195.75,109.50 190.45,105.93 192.15,102.39
             194.14,98.27 204.04,97.92 208.00,98.01
             214.85,98.17 220.58,100.30 226.00,104.53
             244.45,118.92 243.18,149.87 224.00,163.23
             212.30,171.37 190.88,171.22 184.00,157.00 Z
           M 130.00,136.00
           C 131.84,135.85 133.25,135.89 134.96,134.98
             143.98,130.17 144.01,108.75 135.79,102.74
             133.84,101.31 132.26,101.26 130.00,101.00
             130.00,101.00 131.99,120.00 131.99,120.00
             131.99,120.00 130.00,136.00 130.00,136.00 Z
           M 176.33,107.82
           C 173.53,109.94 174.62,111.81 175.37,115.00
             179.03,130.39 174.81,130.22 174.61,138.94
             174.55,141.27 175.50,142.77 178.05,142.12
             181.65,141.20 183.88,137.26 184.94,134.00
             187.48,126.28 187.21,108.64 176.33,107.82 Z
           M 215.00,151.00
           C 217.26,150.74 218.84,150.69 220.79,149.26
             228.52,143.62 228.55,126.04 222.58,119.13
             220.56,116.78 218.75,116.12 216.00,115.00
             216.00,115.00 216.96,135.00 216.96,135.00
             216.96,135.00 215.00,151.00 215.00,151.00 Z
           M 60.00,161.00
           C 58.70,170.22 56.27,177.49 59.36,187.00
             60.63,190.91 62.39,194.52 64.58,198.00
             65.82,199.97 67.87,202.32 67.26,204.83
             66.69,207.15 62.93,209.91 61.00,211.16
             53.56,215.97 44.40,217.06 36.00,214.56
             15.52,208.46 7.48,184.86 14.93,166.00
             18.50,156.95 25.68,149.47 35.00,146.36
             36.86,145.74 39.85,144.89 41.79,145.33
             44.65,145.99 46.49,149.82 48.33,152.00
             51.99,156.35 54.96,158.53 60.00,161.00 Z
           M 61.00,163.00
           C 70.76,163.45 76.14,165.79 86.00,161.53
             93.27,158.40 96.57,152.82 100.17,152.50
             102.47,152.29 109.73,155.48 111.04,157.49
             111.57,158.69 111.39,159.74 111.04,161.02
             109.81,170.47 108.28,175.30 111.70,185.00
             114.98,194.32 119.34,195.79 115.55,200.91
             113.97,203.05 110.31,205.69 108.00,207.07
             94.26,215.32 76.30,212.12 66.79,199.00
             58.21,187.16 59.21,176.56 61.00,163.00 Z
           M 177.00,162.00
           C 177.73,166.05 177.95,166.79 178.00,171.00
             178.08,178.35 177.56,183.28 174.19,190.00
             162.52,213.33 130.57,215.52 116.93,193.00
             112.46,185.63 110.09,175.56 111.44,167.00
             111.83,164.51 112.53,160.33 114.51,158.63
             116.47,156.96 121.27,157.34 124.00,156.89
             130.22,155.86 134.08,153.29 136.00,152.95
             141.24,152.02 142.05,157.18 151.00,161.12
             161.04,165.56 166.85,164.28 177.00,162.00 Z
           M 180.60,161.17
           C 184.68,160.68 187.54,164.14 191.00,166.12
             195.91,168.93 202.30,170.91 208.00,170.48
             208.00,170.48 221.70,167.81 221.70,167.81
             225.39,168.88 225.00,176.97 225.00,180.00
             225.02,196.44 216.93,210.97 200.00,215.10
             191.34,217.22 182.19,215.33 175.00,210.07
             172.83,208.49 169.35,205.77 168.82,203.00
             168.16,199.52 173.30,194.26 175.10,191.00
             178.24,185.30 180.21,177.51 179.96,171.00
             179.81,167.20 178.24,164.32 180.60,161.17 Z
           M 155.00,193.00
           C 156.80,192.85 158.24,192.90 159.90,191.98
             165.64,188.79 167.90,176.61 163.91,171.42
             162.65,169.77 161.77,169.68 160.00,169.00
             160.00,169.00 159.00,170.00 159.00,170.00
             160.89,180.57 158.36,183.32 155.00,193.00 Z
           M 205.00,200.00
           C 217.03,198.05 216.29,182.01 213.26,178.31
             211.91,176.66 210.85,176.58 209.00,176.00
             209.00,176.00 208.47,189.00 208.47,189.00
             208.47,189.00 205.00,200.00 205.00,200.00 Z
           M 149.00,210.00
           C 151.71,215.83 151.98,220.72 151.13,227.00
             149.28,240.64 140.26,253.77 126.00,256.81
             123.60,257.10 119.54,257.03 117.00,256.81
             109.92,256.91 105.70,255.24 100.09,250.84
             96.45,247.99 93.13,244.05 90.90,240.00
             88.15,234.99 87.07,229.67 87.00,224.00
             86.98,221.75 86.66,216.31 88.02,214.60
             89.64,212.56 93.63,213.11 96.00,212.91
             99.79,212.59 102.64,211.45 106.00,209.73
             112.70,206.30 115.11,202.17 118.00,201.17
             121.53,199.94 125.91,204.35 129.00,206.12
             135.14,209.64 142.01,211.64 149.00,210.00 Z
           M 163.96,204.96
           C 168.77,204.92 171.08,209.07 175.00,211.78
             180.50,215.58 187.27,217.87 194.00,217.49
             196.03,217.37 198.63,216.69 200.66,218.03
             204.92,221.38 202.53,237.31 200.66,242.00
             195.85,256.54 184.00,264.17 169.00,264.00
             161.47,263.91 154.57,261.07 149.09,255.82
             147.07,253.88 144.54,251.01 144.78,248.00
             145.05,244.60 150.37,239.42 152.49,230.00
             153.27,226.52 153.63,222.54 153.12,219.00
             152.94,216.72 151.74,212.62 153.12,210.65
             154.21,208.84 161.72,205.81 163.96,204.96 Z
           M 36.00,217.00
           C 44.42,217.18 48.51,218.54 57.00,214.83
             65.11,211.28 66.91,206.68 71.00,206.82
             72.82,206.88 75.36,208.54 77.00,209.37
             79.02,210.40 82.73,211.68 83.98,213.50
             85.39,215.54 84.97,220.48 85.00,223.00
             85.06,227.94 85.49,230.34 87.23,235.00
             88.73,239.03 94.00,246.57 92.94,249.96
             91.88,253.33 85.97,258.10 82.99,259.91
             67.62,269.19 48.49,262.95 39.48,248.00
             35.24,240.98 34.96,234.89 35.00,227.00
             35.02,222.01 35.13,221.83 36.00,217.00 Z
           M 95.00,250.00
           C 100.91,252.50 103.21,255.42 110.00,257.64
             112.30,258.39 117.53,258.92 118.83,260.57
             120.16,262.27 119.99,265.90 120.00,268.00
             120.02,271.68 120.15,275.39 119.32,279.00
             116.10,293.02 103.50,304.38 89.00,304.96
             74.50,305.55 61.79,295.57 57.36,282.00
             56.37,278.96 53.76,268.19 56.60,266.00
             58.38,264.68 66.06,266.08 69.00,266.00
             80.30,265.50 88.45,258.65 95.00,250.00 Z
           M 121.00,259.00
           C 125.77,258.60 128.71,257.92 133.00,255.68
             135.41,254.42 139.26,251.41 141.96,251.87
             144.35,252.29 146.44,255.11 148.17,256.71
             150.85,259.17 153.75,261.10 157.00,262.72
             167.35,267.90 171.66,265.47 182.00,265.00
             182.00,276.81 182.59,284.71 175.21,295.00
             163.70,311.06 139.75,312.84 126.46,297.91
             123.96,295.09 120.34,289.78 119.79,286.00
             119.33,282.80 121.20,278.48 121.70,275.00
             122.52,269.35 121.73,264.53 121.00,259.00 Z
           M 117.00,289.00
           C 117.00,289.00 119.00,289.00 119.00,289.00
             124.15,298.58 132.63,307.80 144.00,309.00
             137.86,329.89 98.90,330.16 91.00,307.00
             104.42,302.53 107.92,300.99 117.00,289.00 Z" />
</svg>
