<?xml version="1.0" encoding="UTF-8" standalone="no"?>
<!DOCTYPE svg PUBLIC "-//W3C//DTD SVG 20010904//EN"
              "http://www.w3.org/TR/2001/REC-SVG-20010904/DTD/svg10.dtd">

<svg xmlns="http://www.w3.org/2000/svg"
     width="20in" height="12in"
     viewBox="0 0 2560 1536">
  <path id="Scissors"
        fill="none" stroke="black" stroke-width="1"
        d="M 1485.00,1064.04
           C 1485.00,1064.04 1493.84,1069.18 1493.84,1069.18
             1493.84,1069.18 1523.43,1053.62 1523.43,1053.62
             1523.43,1053.62 1549.36,1050.98 1549.36,1050.98
             1549.36,1050.98 1510.47,1073.31 1510.47,1073.31
             1510.47,1073.31 1549.94,1096.28 1549.94,1096.28
             1549.94,1096.28 1524.66,1093.80 1524.66,1093.80
             1524.66,1093.80 1493.44,1077.80 1493.44,1077.80
             1493.44,1077.80 1483.53,1083.43 1483.53,1083.43
             1484.96,1085.19 1486.05,1088.48 1486.02,1091.70
             1485.49,1100.86 1477.02,1106.68 1469.49,1105.01
             1460.97,1103.94 1456.19,1095.03 1458.23,1087.66
             1459.47,1081.54 1465.79,1077.16 1470.77,1077.21
             1472.46,1077.21 1473.35,1077.14 1475.06,1077.46
             1475.58,1077.55 1477.35,1078.22 1477.35,1078.22
             1477.35,1078.22 1486.11,1073.49 1486.11,1073.49
             1486.11,1073.49 1478.63,1069.24 1478.63,1069.24
             1467.49,1073.39 1455.40,1063.96 1460.03,1050.70
             1470.88,1032.40 1494.94,1046.89 1485.00,1064.04 Z
           M 1464.33,1048.79
           C 1456.98,1058.57 1466.36,1071.48 1478.84,1066.60
             1478.84,1066.60 1488.50,1072.19 1488.50,1072.19
             1488.50,1072.19 1491.13,1070.61 1491.13,1070.61
             1491.13,1070.61 1482.99,1065.73 1482.99,1065.73
             1481.41,1064.91 1481.55,1064.15 1483.01,1062.47
             1490.08,1051.71 1475.17,1037.45 1464.33,1048.79 Z
           M 1470.54,1048.11
           C 1482.12,1045.76 1485.39,1059.41 1477.54,1063.85
             1467.72,1068.96 1457.97,1053.96 1470.54,1048.11 Z
           M 1470.34,1050.93
           C 1462.86,1055.90 1470.26,1064.83 1475.78,1061.61
             1482.15,1059.32 1479.58,1047.45 1470.34,1050.93 Z
           M 1537.86,1054.72
           C 1537.86,1054.72 1524.31,1055.98 1524.31,1055.98
             1524.31,1055.98 1477.62,1080.92 1477.62,1080.92
             1469.80,1077.10 1457.44,1082.55 1460.94,1094.96
             1462.41,1100.52 1471.67,1106.13 1478.79,1100.34
             1485.45,1095.80 1483.87,1086.82 1480.48,1083.56
             1480.48,1083.56 1480.48,1082.38 1480.48,1082.38
             1480.48,1082.38 1493.56,1074.85 1493.56,1074.85
             1493.56,1074.85 1498.33,1077.36 1498.33,1077.36
             1498.33,1077.36 1537.86,1054.72 1537.86,1054.72 Z
           M 1497.09,1071.39
           C 1497.09,1071.39 1500.25,1073.16 1500.25,1073.16
             1500.72,1073.83 1500.27,1075.20 1498.97,1075.28
             1498.97,1075.28 1495.76,1073.47 1495.76,1073.47
             1495.24,1072.71 1495.82,1071.18 1497.09,1071.39 Z
           M 1507.85,1074.81
           C 1507.85,1074.81 1500.91,1078.74 1500.91,1078.74
             1500.91,1078.74 1525.57,1091.35 1525.57,1091.35
             1525.57,1091.35 1538.87,1092.66 1538.87,1092.66
             1538.87,1092.66 1507.85,1074.81 1507.85,1074.81 Z
           M 1475.74,1098.89
           C 1469.64,1102.15 1459.47,1095.86 1464.78,1086.08
             1475.74,1076.20 1486.81,1091.59 1475.74,1098.89 Z
           M 1469.11,1085.82
           C 1461.31,1090.88 1468.51,1099.64 1474.42,1096.68
             1480.25,1094.57 1478.73,1082.94 1469.11,1085.82 Z" />
</svg>
