<?xml version="1.0" encoding="UTF-8" standalone="no"?>
<!DOCTYPE svg PUBLIC "-//W3C//DTD SVG 20010904//EN"
              "http://www.w3.org/TR/2001/REC-SVG-20010904/DTD/svg10.dtd">

<svg xmlns="http://www.w3.org/2000/svg"
     width="20in" height="12in"
     viewBox="0 0 2560 1536">
  <path id="simple house outline"
        fill="none" stroke="black" stroke-width="1"
        d="M 1152.50,269.50
           C 1152.50,269.50 1024.50,269.50 1024.50,269.50
             1024.50,269.50 1024.69,406.65 1024.69,406.65
             1024.69,406.65 896.00,277.96 896.00,277.96
             896.00,277.96 533.96,640.00 533.96,640.00
             533.96,640.00 640.00,640.00 640.00,640.00
             640.00,640.00 640.00,1280.00 640.00,1280.00
             640.00,1280.00 1152.00,1280.00 1152.00,1280.00
             1152.00,1280.00 1152.00,640.00 1152.00,640.00
             1152.00,640.00 1258.04,640.00 1258.04,640.00
             1258.04,640.00 1152.11,534.08 1152.11,534.08
             1152.11,534.08 1152.50,269.50 1152.50,269.50 Z" />
</svg>
