<?xml version="1.0" encoding="UTF-8" standalone="no"?>
<!DOCTYPE svg PUBLIC "-//W3C//DTD SVG 20010904//EN"
              "http://www.w3.org/TR/2001/REC-SVG-20010904/DTD/svg10.dtd">

<svg xmlns="http://www.w3.org/2000/svg"
     width="20in" height="12in"
     viewBox="0 0 2560 1536">
  <path id="Stake"
        fill="none" stroke="black" stroke-width="1"
        d="M 829.00,446.08
           C 886.42,436.59 952.77,400.02 952.00,334.00
             951.68,306.95 935.16,281.84 915.00,265.08
             886.04,241.00 848.21,228.63 811.00,225.91
             811.00,225.91 799.00,225.21 799.00,225.21
             799.00,225.21 777.00,225.21 777.00,225.21
             777.00,225.21 767.00,226.28 767.00,226.28
             767.00,226.28 741.00,230.65 741.00,230.65
             706.43,238.58 670.39,256.89 649.16,286.00
             638.76,300.27 632.03,318.25 632.00,336.00
             631.90,399.77 697.57,436.13 753.00,445.75
             753.00,445.75 760.00,847.00 760.00,847.00
             760.00,847.00 791.08,975.00 791.08,975.00
             791.08,975.00 824.00,847.00 824.00,847.00
             824.00,847.00 829.00,446.08 829.00,446.08 Z" />
</svg>
