<?xml version="1.0" encoding="UTF-8" standalone="no"?>
<!DOCTYPE svg PUBLIC "-//W3C//DTD SVG 20010904//EN"
              "http://www.w3.org/TR/2001/REC-SVG-20010904/DTD/svg10.dtd">

<svg xmlns="http://www.w3.org/2000/svg"
     width="20in" height="12in"
     viewBox="0 0 2560 1536">
  <path id="WiFi"
        fill="none" stroke="black" stroke-width="1"
        d="M 1152.00,849.00
           C 1152.00,849.00 1439.86,849.00 1439.86,849.00
             1429.29,874.35 1421.45,874.18 1421.40,906.23
             1421.36,936.08 1425.00,979.21 1413.21,1005.92
             1408.58,1016.41 1397.28,1033.62 1386.35,1037.79
             1382.13,1039.40 1376.11,1039.15 1371.58,1039.15
             1371.58,1039.15 1152.00,1039.15 1152.00,1039.15
             1152.00,1039.15 1152.00,849.00 1152.00,849.00 Z
           M 1366.05,864.74
           C 1341.44,870.27 1348.31,899.27 1367.89,898.55
             1387.81,897.82 1392.30,866.51 1366.05,864.74 Z
           M 1196.29,867.46
           C 1196.29,867.46 1166.76,867.46 1166.76,867.46
             1167.31,878.58 1193.74,1002.20 1193.74,1002.20
             1193.74,1002.20 1224.51,1002.63 1224.51,1002.63
             1224.51,1002.63 1249.80,915.46 1249.80,915.46
             1249.80,915.46 1277.48,1002.57 1277.48,1002.57
             1277.48,1002.57 1301.97,1002.08 1301.97,1002.08
             1301.97,1002.08 1338.37,867.47 1338.37,867.47
             1338.37,867.47 1310.02,867.80 1310.02,867.80
             1310.02,867.80 1294.29,940.54 1288.55,952.38
             1288.55,952.38 1264.80,867.50 1264.80,867.50
             1264.80,867.50 1238.73,867.46 1238.73,867.46
             1238.73,867.46 1214.74,948.69 1214.74,948.69
             1214.74,948.69 1196.29,867.46 1196.29,867.46 Z
           M 1594.88,867.00
           C 1618.60,862.33 1620.14,890.02 1605.85,895.63
             1594.90,899.93 1582.25,889.82 1584.66,878.55
             1586.01,872.23 1589.69,869.84 1594.88,867.00 Z
           M 1465.69,869.31
           C 1465.69,869.31 1565.33,869.31 1565.33,869.31
             1565.33,869.31 1565.33,895.15 1565.33,895.15
             1565.33,895.15 1493.37,895.15 1493.37,895.15
             1493.37,895.15 1493.37,922.85 1493.37,922.85
             1493.37,922.85 1559.80,922.85 1559.80,922.85
             1559.80,922.85 1559.80,948.69 1559.80,948.69
             1559.80,948.69 1493.60,947.77 1493.60,947.77
             1493.60,947.77 1495.21,1002.23 1495.21,1002.23
             1495.21,1002.23 1465.69,1002.23 1465.69,1002.23
             1465.69,1002.23 1465.69,869.31 1465.69,869.31 Z
           M 1382.65,909.92
           C 1382.65,909.92 1353.13,909.92 1353.13,909.92
             1353.13,909.92 1353.13,1002.23 1353.13,1002.23
             1353.13,1002.23 1382.65,1002.23 1382.65,1002.23
             1382.65,1002.23 1382.65,909.92 1382.65,909.92 Z
           M 1585.63,911.77
           C 1585.63,911.77 1613.31,911.77 1613.31,911.77
             1613.31,911.77 1613.31,1002.23 1613.31,1002.23
             1613.31,1002.23 1585.63,1002.23 1585.63,1002.23
             1585.63,1002.23 1585.63,911.77 1585.63,911.77 Z
           M 1480.45,821.98" />
</svg>
