<?xml version="1.0" encoding="UTF-8" standalone="no"?>
<!DOCTYPE svg PUBLIC "-//W3C//DTD SVG 20010904//EN"
              "http://www.w3.org/TR/2001/REC-SVG-20010904/DTD/svg10.dtd">

<svg xmlns="http://www.w3.org/2000/svg"
     width="20in" height="12in"
     viewBox="0 0 2560 1536">
  <path id="WiFiSymbol"
        fill="none" stroke="black" stroke-width="1"
        d="M 1357.08,318.36
           C 1357.08,318.36 1403.89,318.36 1403.89,318.36
             1403.89,318.36 1420.61,319.53 1420.61,319.53
             1479.48,324.23 1539.28,346.37 1587.81,379.82
             1601.87,389.51 1636.71,415.82 1643.90,429.86
             1652.06,445.78 1644.14,466.38 1626.26,470.71
             1605.42,475.77 1594.85,460.85 1581.12,448.51
             1572.82,441.05 1555.53,428.29 1546.01,422.24
             1503.32,395.12 1452.79,378.59 1402.22,376.37
             1402.22,376.37 1383.83,374.92 1383.83,374.92
             1327.35,378.11 1275.01,390.26 1226.66,421.00
             1209.53,431.90 1196.79,442.42 1181.52,455.61
             1169.82,465.72 1161.81,474.85 1144.74,470.95
             1126.95,466.88 1118.80,445.79 1126.74,429.88
             1131.50,420.35 1154.10,401.30 1163.13,394.23
             1197.83,367.09 1241.02,344.18 1283.51,332.07
             1309.85,324.57 1330.52,322.47 1357.08,318.36 Z
           M 1362.09,425.56
           C 1417.51,418.82 1485.74,437.56 1530.96,469.78
             1541.65,477.40 1564.75,495.38 1570.14,506.66
             1577.17,521.40 1569.03,540.67 1552.70,544.41
             1534.96,548.46 1526.04,537.48 1514.24,526.98
             1514.24,526.98 1497.52,514.07 1497.52,514.07
             1471.22,495.66 1439.03,484.23 1407.24,480.42
             1365.01,475.37 1321.84,485.52 1285.18,506.45
             1277.21,511.00 1265.29,519.27 1258.43,525.31
             1246.20,536.07 1236.40,548.34 1218.30,544.41
             1201.38,540.74 1193.53,522.06 1200.37,506.66
             1204.20,498.04 1214.45,489.77 1221.67,483.70
             1265.68,446.70 1306.49,433.61 1362.09,425.56 Z
           M 1368.78,525.74
           C 1405.70,521.23 1445.83,531.74 1475.79,553.67
             1487.35,562.13 1500.67,571.30 1502.21,586.80
             1503.74,602.33 1489.88,617.37 1474.11,616.20
             1459.85,615.15 1450.56,602.70 1439.00,595.30
             1424.32,585.89 1403.08,578.58 1385.50,578.58
             1368.37,578.58 1346.21,585.80 1332.00,595.16
             1321.00,602.40 1310.17,615.20 1296.89,616.20
             1280.31,617.45 1267.28,602.91 1268.64,586.80
             1269.78,573.27 1280.28,564.87 1290.20,557.10
             1315.61,537.20 1337.58,530.44 1368.78,525.74 Z
           M 1385.50,641.90
           C 1389.03,632.91 1395.67,624.73 1405.56,622.52
             1421.27,619.00 1435.17,631.94 1431.43,648.57
             1428.03,663.70 1412.06,681.45 1400.55,691.27
             1397.01,694.29 1390.22,700.64 1385.50,700.76
             1380.37,700.89 1372.50,693.39 1368.78,690.03
             1357.92,680.24 1341.11,663.75 1339.29,648.57
             1337.75,635.69 1348.38,621.88 1362.09,624.12
             1372.21,625.77 1378.58,632.80 1382.16,641.90
             1382.16,641.90 1385.50,641.90 1385.50,641.90 Z" />
</svg>
